<?xml version="1.0" encoding="utf-8"?>
<!-- Generator: Adobe Illustrator 25.2.3, SVG Export Plug-In . SVG Version: 6.00 Build 0)  -->
<svg version="1.1" id="Ebene_1" xmlns="http://www.w3.org/2000/svg" xmlns:xlink="http://www.w3.org/1999/xlink" x="0px" y="0px"
	 viewBox="0 0 4096 1080" style="enable-background:new 0 0 4096 1080;" xml:space="preserve">
<style type="text/css">
	.tabletbildschirm{fill:#FFFFFF;}
</style>
<image style="overflow:visible;enable-background:new    ;" width="4096" height="124" id="boden" xlink:href="520EA5CC.png"  transform="matrix(1 0 0 1 -1 956)">
</image>
<image style="overflow:visible;enable-background:new    ;" width="2086" height="966" id="optionaleholzwand" xlink:href="520EA5CD.png"  transform="matrix(1 0 0 1 1068 -1.464844e-05)">
</image>
<image style="overflow:visible;enable-background:new    ;" width="627" height="268" id="informationspult" xlink:href="520EA5CB.png"  transform="matrix(1 0 0 1 1805 743)">
</image>
<image style="overflow:visible;enable-background:new    ;" width="699" height="42" id="tischplatte" xlink:href="520EA5D4.png"  transform="matrix(1 0 0 1 1769 716)">
</image>
<image style="overflow:visible;enable-background:new    ;" width="173" height="102" id="tablet" xlink:href="520EA5D7.png"  transform="matrix(1 0 0 1 2252 623)">
</image>
<g id="tabletbildschirm">
	<polygon class="tabletbildschirm" points="2260.7,631.7 2260.7,717.4 2413.9,717.4 2413.9,630.9 	"/>
</g>
<image style="overflow:visible;enable-background:new    ;" width="554" height="256" id="_3B" xlink:href="520EA5D5.png"  transform="matrix(1 0 0 1 2479 621)">
</image>
<image style="overflow:visible;enable-background:new    ;" width="554" height="254" id="_2B" xlink:href="520EA5DB.png"  transform="matrix(1 0 0 1 2479 332)">
</image>
<image style="overflow:visible;enable-background:new    ;" width="554" height="256" id="_1B" xlink:href="520EA5DC.png"  transform="matrix(1 0 0 1 2479 36)">
</image>
<image style="overflow:visible;enable-background:new    ;" width="551" height="585" id="Informationstafel" xlink:href="520EA5DF.png"  transform="matrix(1 0 0 1 1837 -1.464844e-05)">
</image>
<image style="overflow:visible;enable-background:new    ;" width="553" height="256" id="_3A" xlink:href="DC1DF6DB.png"  transform="matrix(1 0 0 1 1194 621)">
</image>
<image style="overflow:visible;enable-background:new    ;" width="553" height="254" id="_2A" xlink:href="DC1DF6D9.png"  transform="matrix(1 0 0 1 1194 332)">
</image>
<image style="overflow:visible;enable-background:new    ;" width="553" height="256" id="_1A" xlink:href="DC1DF6DF.png"  transform="matrix(1 0 0 1 1194 36)">
</image>
<image style="overflow:visible;opacity:0.5;enable-background:new    ;" width="554" height="256" id="_3Bakzent" xlink:href="DC1DF6DA.png"  transform="matrix(1 0 0 1 2479 621)">
</image>
<image style="overflow:visible;opacity:0.5;enable-background:new    ;" width="554" height="254" id="_2Bakzent" xlink:href="DC1DF6C5.png"  transform="matrix(1 0 0 1 2479 332)">
</image>
<image style="overflow:visible;opacity:0.5;enable-background:new    ;" width="554" height="256" id="_1Bakzent" xlink:href="DC1DF6C6.png"  transform="matrix(1 0 0 1 2479 36)">
</image>
<image style="overflow:visible;opacity:0.5;enable-background:new    ;" width="551" height="585" id="informationstafelakzent" xlink:href="DC1DF6C7.png"  transform="matrix(1 0 0 1 1837 -1.464844e-05)">
</image>
<image style="overflow:visible;opacity:0.5;enable-background:new    ;" width="553" height="256" id="_3Aakzent" xlink:href="DC1DF6C9.png"  transform="matrix(1 0 0 1 1194 621)">
</image>
<image style="overflow:visible;opacity:0.5;enable-background:new    ;" width="553" height="254" id="_2Aakzent" xlink:href="DC1DF6CB.png"  transform="matrix(1 0 0 1 1194 332)">
</image>
<image style="overflow:visible;opacity:0.5;enable-background:new    ;" width="553" height="256" id="_1Aakzent" xlink:href="DC1DF6CE.png"  transform="matrix(1 0 0 1 1194 36)">
</image>
<image style="overflow:visible;enable-background:new    ;" width="1799" height="688" id="icons" xlink:href="DC1DF6E2.png"  transform="matrix(1 0 0 1 1212 54)">
</image>
</svg>
