<?xml version="1.0" encoding="utf-8"?>
<!-- Generator: Adobe Illustrator 25.2.3, SVG Export Plug-In . SVG Version: 6.00 Build 0)  -->
<svg version="1.1" id="Gruppe_1" xmlns="http://www.w3.org/2000/svg" xmlns:xlink="http://www.w3.org/1999/xlink" x="0px" y="0px"
	 viewBox="0 0 4096 1080" style="display:none;" preserveAspectRatio="xMidYMin slice">
	<defs>
		<symbol id="floor">
			<image style="overflow:visible;enable-background:new;" id="boden" xlink:href="520EA5CC.png" width="4096" height="124" transform="matrix(1 0 0 1 -1 956)">
			</image>
		</symbol>
		<symbol id="wall">
			<image style="overflow:visible;enable-background:new;" id="optionaleholzwand" xlink:href="520EA5CD.png" width="2086" height="966" x="996" y="0">
			</image>
		</symbol>
		<symbol id="table">
			<image id="pult2" class="cls-1" width="627" height="268" transform="translate(1804 743)" xlink:href="table2.png"/>
			<image id="pult2akzent" class="cls-2" width="627" height="268" transform="translate(1804 743)" xlink:href="table2accent.png"/>
			<image id="Tischplatte" class="cls-1" width="699" height="42" transform="translate(1769 716)" xlink:href="table2top.png"/>
		</symbol>
		<symbol id="table1">
			<image style="overflow:visible;enable-background:new;" id="informationspult" xlink:href="520EA5CB.png" width="627" height="268" transform="matrix(1 0 0 1 1805 743)">
			</image>
			<image style="overflow:visible;enable-background:new;" id="tischplatte" xlink:href="520EA5D4.png" width="699" height="42" transform="matrix(1 0 0 1 1769 716)">
			</image>
		</symbol>
		<symbol id="tablet">
			<image style="overflow:visible;" xlink:href="../template-assets/tablet.png">
			</image>
			<rect id="tabletbildschirm" width="153" height="84" transform="translate(9 9)" style="opacity:0.7;fill:#FFFFFF;"/>
			<rect id="tabletbildschirmakzent" width="153" height="84" transform="translate(9 9)" style="opacity:0.5;fill:#FFFFFF;"/>
			<path class="icon-video" fill="#333" transform="translate(60 15) scale(.09)" d="M336.2 64H47.8C21.4 64 0 85.4 0 111.8v288.4C0 426.6 21.4 448 47.8 448h288.4c26.4 0 47.8-21.4 47.8-47.8V111.8c0-26.4-21.4-47.8-47.8-47.8zm189.4 37.7L416 177.3v157.4l109.6 75.5c21.2 14.6 50.4-.3 50.4-25.8V127.5c0-25.4-29.1-40.4-50.4-25.8z"/>
			<text x="37" y="83" font-size="24" fill="#333">Live Chat</text>
		</symbol>
		<symbol id="some_panel">
			<image id="socialmediapanel" xlink:href="../template-assets/social-media-panel.png"/>
			<!--<image id="socialmediapanelakzent" class="cls-2" width="91" height="398" transform="translate(1655 594)" xlink:href="Foyer-Stand-27-01-20217.png"/>-->
		</symbol>
		<symbol id="panel-left">
			<image style="overflow:visible;enable-background:new;" width="554" height="171" xlink:href="panel-left.png" >
			</image>
		</symbol>
		<symbol id="panel-right">
			<image style="overflow:visible;enable-background:new;" width="553" height="171" xlink:href="panel-right.png" >
			</image>
		</symbol>
		<symbol id="panel-mitte">
			<image style="overflow:visible;enable-background:new;" width="551" height="585" id="Informationstafel" xlink:href="520EA5DF.png">
			</image>
			<rect class="schildakzent" width="551" height="585" fill="#fff" style="opacity:0.8;"/>
			<!--<image style="overflow:visible;opacity:0.5;enable-background:new;" width="551" height="585" id="informationstafelakzent" xlink:href="DC1DF6C7.png">
			</image>-->
		</symbol>
		<symbol id="icons">
			<image style="overflow:visible;enable-background:new;" width="1799" height="688" id="icons" xlink:href="DC1DF6E2.png"  transform="matrix(1 0 0 1 1212 54)">
			</image>
		</symbol>
		<symbol id="arrow">
			<path d="M256 504c137 0 248-111 248-248S393 8 256 8 8 119 8 256s111 248 248 248zm0-448c110.5 0 200 89.5 200 200s-89.5 200-200 200S56 366.5 56 256 145.5 56 256 56zm20 328h-40c-6.6 0-12-5.4-12-12V256h-67c-10.7 0-16-12.9-8.5-20.5l99-99c4.7-4.7 12.3-4.7 17 0l99 99c7.6 7.6 2.2 20.5-8.5 20.5h-67v116c0 6.6-5.4 12-12 12z"/>
		</symbol>
	</defs>
</svg>
