<?xml version="1.0" encoding="utf-8"?>
<!-- Generator: Adobe Illustrator 25.2.3, SVG Export Plug-In . SVG Version: 6.00 Build 0)  -->
<svg version="1.1" id="Gruppe_1" xmlns="http://www.w3.org/2000/svg" xmlns:xlink="http://www.w3.org/1999/xlink" x="0px" y="0px"
	 viewBox="0 0 4096 1080" style="display:none;" preserveAspectRatio="xMidYMin slice">
	<defs>
		<symbol id="floor">
			<image style="overflow:visible;enable-background:new;" id="boden" xlink:href="520EA5CC.png" width="4096" height="124" transform="matrix(1 0 0 1 -1 956)">
			</image>
		</symbol>
		<symbol id="wall">
			<image style="overflow:visible;enable-background:new;" id="optionaleholzwand" xlink:href="520EA5CD.png" width="2086" height="966" x="996" y="0">
			</image>
		</symbol>
		<symbol id="table">
			<image style="overflow:visible;enable-background:new;" id="informationspult" xlink:href="520EA5CB.png" width="627" height="268" transform="matrix(1 0 0 1 1805 743)">
			</image>
			<image style="overflow:visible;enable-background:new;" id="tischplatte" xlink:href="520EA5D4.png" width="699" height="42" transform="matrix(1 0 0 1 1769 716)">
			</image>
		</symbol>
		<symbol id="tablet">
			<image style="overflow:visible;enable-background:new;" id="tablet" xlink:href="520EA5D7.png"  transform="matrix(1 0 0 1 2252 623)">
			</image>
			<g id="tabletbildschirm">
				<polygon class="tabletbildschirm" points="2260.7,631.7 2260.7,717.4 2413.9,717.4 2413.9,630.9" fill="#FFFFFF"/>
			</g>
		</symbol>
		<symbol id="panel">
			<image style="overflow:visible;enable-background:new;" width="553" height="256" id="_1A" xlink:href="panel.png" >
			</image>
			<image style="overflow:visible;opacity:0.5;enable-background:new;" width="553" height="256" id="_1Aakzent" xlink:href="panel-akzent.png">
			</image>
		</symbol>
		<symbol id="panel-mitte">
			<image style="overflow:visible;enable-background:new;" width="551" height="585" id="Informationstafel" xlink:href="520EA5DF.png">
			</image>
			<rect class="schildakzent" width="551" height="585" fill="#fff" style="opacity:0.8;"/>
			<!--<image style="overflow:visible;opacity:0.5;enable-background:new;" width="551" height="585" id="informationstafelakzent" xlink:href="DC1DF6C7.png">
			</image>-->
		</symbol>
		<symbol id="icons">
			<image style="overflow:visible;enable-background:new;" width="1799" height="688" id="icons" xlink:href="DC1DF6E2.png"  transform="matrix(1 0 0 1 1212 54)">
			</image>
		</symbol>
		<symbol id="arrow">
			<path d="M256 504c137 0 248-111 248-248S393 8 256 8 8 119 8 256s111 248 248 248zm0-448c110.5 0 200 89.5 200 200s-89.5 200-200 200S56 366.5 56 256 145.5 56 256 56zm20 328h-40c-6.6 0-12-5.4-12-12V256h-67c-10.7 0-16-12.9-8.5-20.5l99-99c4.7-4.7 12.3-4.7 17 0l99 99c7.6 7.6 2.2 20.5-8.5 20.5h-67v116c0 6.6-5.4 12-12 12z"/>
		</symbol>
	</defs>
</svg>
