<?xml version="1.0" encoding="utf-8"?>
<!-- Generator: Adobe Illustrator 25.2.1, SVG Export Plug-In . SVG Version: 6.00 Build 0)  -->
<svg version="1.1" id="Gruppe_1" xmlns="http://www.w3.org/2000/svg" xmlns:xlink="http://www.w3.org/1999/xlink" x="0px" y="0px"
	 viewBox="0 0 4096 1080" style="display:none;" preserveAspectRatio="xMidYMin slice">
	<defs>
		<symbol id="floor">
			<image style="overflow:visible;enable-background:new;" width="4096" height="124" id="boden" xlink:href="../template-assets/floor-tiles.png"  transform="matrix(1 0 0 1 0 956)">
			</image>
		</symbol>
		<symbol id="podium">
			<image style="overflow:visible;enable-background:new;" width="1584" height="689" id="podiumwand" xlink:href="C1869B22.png"  transform="matrix(1 0 0 1 1057 180)">
			</image>
			<image style="overflow:visible;opacity:0.5;enable-background:new;" width="1584" height="689" id="podiumwandakzent" xlink:href="C1869B25.png"  transform="matrix(1 0 0 1 1057 180)">
			</image>
			<image style="overflow:visible;enable-background:new;" width="1612" height="1017" id="balken" xlink:href="C1869B24.png"  transform="matrix(1 0 0 1 1042 -1.464844e-05)">
			</image>
		</symbol>
		<symbol id="plant1">
			<image style="overflow:visible;" id="topf" xlink:href="../template-assets/pot-light.png"  transform="matrix(1 0 0 1 2843 790)">
			</image>
			<image style="overflow:visible;" id="palme1" xlink:href="../template-assets/palme1.png" transform="matrix(1 0 0 1 2782 134)">
			</image>
		</symbol>
		<symbol id="plant2">
			<image style="overflow:visible;" id="topf" xlink:href="../template-assets/pot-light.png"  transform="matrix(1 0 0 1 2843 790)">
			</image>
			<image style="overflow:visible;" id="palme2" xlink:href="../template-assets/palme2.png" transform="translate(2480, 26) scale(1.3)">
			</image>
		</symbol>
		<symbol id="video-play">
			<path d="M371.7 238l-176-107c-15.8-8.8-35.7 2.5-35.7 21v208c0 18.4 19.8 29.8 35.7 21l176-101c16.4-9.1 16.4-32.8 0-42zM504 256C504 119 393 8 256 8S8 119 8 256s111 248 248 248 248-111 248-248zm-448 0c0-110.5 89.5-200 200-200s200 89.5 200 200-89.5 200-200 200S56 366.5 56 256z"/>
		</symbol>
	</defs>
</svg>
