<svg version="1.1" id="Ebene_1" xmlns="http://www.w3.org/2000/svg" xmlns:xlink="http://www.w3.org/1999/xlink"
	 viewBox="0 0 280 740" style="" xml:space="preserve">
<style type="text/css">
	#businesscharakter1-rrze-expo{
	/*Hautfarben*/
	--hautfarbe: #FBBE7D;
	--hautschatten: #E78052;

	/*Anzugfarben*/
	--anzugbasis: #252426;
	--anzugschatten: #313032;
	--anzuglicht: #5A595B;

	--hemdbasis: #E5E6E8;
	--hemdschatten: #9490A7;
	--hemdknopf: #F1F1F1;

	--guertel: #804603;
	--guertelschnalle: #F1F1F1;

	--krawatte: #3A2D3C;

	/*Haare*/
	--haarfarbe: #42210B;

	/*Sonstiges*/
	--klemmbrett: #E5E6E8;
	--augenfarbe: #231F20;
	--schuhfarbe: #231F20;
	}

	/*Hautklassen*/
	#businesscharakter1-rrze-expo .st4{fill:#FBBE7D; fill: var(--hautfarbe, #FBBE7D);} /*Hautbasis*/
	#businesscharakter1-rrze-expo .st5{fill:#E78052; fill: var(--hautschatten, #E78052);} /*Kinnschatten*/
	#businesscharakter1-rrze-expo .st14{fill:#F18873; fill: var(--hautschatten, #F18873);} /*Nase*/
	#businesscharakter1-rrze-expo .st17{fill:#FAB57A; fill: var(--hautfarbe, #FAB57A);} /*Hand links*/

	/*Anzug und Hemd*/
	#businesscharakter1-rrze-expo .st0{fill:#252426; fill: var(--anzugschatten, #252426);} /*Anzugbasis*/
	#businesscharakter1-rrze-expo .st1{fill:#313032; fill: var(--anzugbasis, #313032);} /*Anzugschatten*/
	#businesscharakter1-rrze-expo .st12{fill:#5A595B; fill: var(--anzuglicht, #5A595B);} /*Anzugkragen*/
	#businesscharakter1-rrze-expo .st16{fill:#333333; fill: var(--anzugbasis, #333333);} /*Vorderarmrechts*/

	#businesscharakter1-rrze-expo .st3{fill:#9490A7; fill: var(--hemdschatten, #9490A7);} /*Hemdkragen*/
	#businesscharakter1-rrze-expo .st6{fill:#E5E6E8; fill: var(--hemdbasis, #E5E6E8);} /*Hemdbasis*/
	#businesscharakter1-rrze-expo .st7{fill:#A9A6B9; fill: var(--hemdschatten, #A9A6B9);} /*Hemdkragen*/
	#businesscharakter1-rrze-expo .st8{fill:#F1F1F1; fill: var(--hemdknopf, #F1F1F1);} /*Hemdknopf*/

	#businesscharakter1-rrze-expo .st9{fill:#804603; fill: var(--guertel, #804603);} /*Guertel*/
	#businesscharakter1-rrze-expo .st10{fill:#E3E4E3; fill: var(--guertelschnalle, #E3E4E3);} /*Guertelschnalle*/

	#businesscharakter1-rrze-expo .st11{fill:#3A2D3C; fill: var(--krawatte, #3A2D3C);} /*Krawatte*/
	#businesscharakter1-rrze-expo .st13{fill:#231F20; fill: var(--krawatte, #231F20);} /*Krawattenschatten*/

	#businesscharakter1-rrze-expo .st19{fill:#231F20; fill: var(--schuhfarbe, #231F20);} /*Schuhfarbe*/
	#businesscharakter1-rrze-expo .st20{fill:#231F20; fill: var(--augenfarbe, #231F20);} /*Augenfarbe*/


	/*Haarklassen*/
	#businesscharakter1-rrze-expo .st15{fill:#42210B; fill: var(--haarfarbe, #42210B);} /*Haare*/
	#businesscharakter1-rrze-expo .st21{fill:#231F20; fill: var(--haarfarbe, #231F20);} /*Augenbrauen*/

	/*Assets*/
	#businesscharakter1-rrze-expo .st18{fill:#E5E6E8; fill: var(--klemmbrett, #E5E6E8);}/*Klemmbrett*/
	#businesscharakter1-rrze-expo .st2{opacity:0.5;fill:#272727;} /*Schlagschatten*/

</style>
	<g id="businesscharakter1-rrze-expo">
	<path id="business-1-rrze-expo-armrechts_1_" class="st0"
		  d="M198.1,177.7L231.6,295l-26.1,13.4l-34.6-49.2C170.8,259.1,163.9,203.2,198.1,177.7z"/>
		<g id="business-1-rrze-expo-koerperohnearme">
		<g id="business-1-rrze-expo-hose_1_">
			<path id="business-1-rrze-expo-hose1" class="st1" d="M183.6,333.8c0,0,5.2,95.1-14.3,195.4c-1.2,6.3-8.2,132.6-4,155.8h-36.4c0,0-15.8-97.3-1.8-158.7
				l5.4-70.6l6.1-46.2c0,0-21.8,110-30.2,128.7C99.9,557,91,686.4,91,686.4l-34.8,0.1c0,0-9.1-84.6,12.1-167.7
				c0,0,11.4-153.7,17.5-182.9L183.6,333.8z"/>
		</g>
			<path id="business-1-rrze-expo-hosenschatten" class="st2" d="M125.6,419.5l12.4-66.1l26.2,8.2l6.7,66.6c0,0,7.2,1.1,11.1,0.6
			c3.7-55.2,1.6-95.1,1.6-95.1l-97.8,2.1c-2.5,11.8-5.8,44-8.9,78.2C83.8,415.1,125.6,419.5,125.6,419.5z"/>
			<polygon id="business-1-rrze-expo-hemdkragen" class="st3" points="98.1,140.5 115.4,138.7 136.2,142.1 146.4,148.1 145.1,161.1 131.7,152.8 114.7,150
			93.3,153.6 		"/>
			<path id="business-1-rrze-expo-dekoltee" class="st4" d="M104.4,123.5c0,0,0,31.3-6.3,44.3c-6.3,13,41.2,27.3,41.2,27.3s20.1-13,11.6-25.1
			c-8.5-12.1-10.3-36.2-10.3-36.2L104.4,123.5z"/>
			<path id="business-1-rrze-expo-kinnschatten" class="st5" d="M137,150.1c2-1.6,3.5-3.5,5.1-5.4c-1.1-6.2-1.4-10.8-1.4-10.8l-36.2-10.3
			c0,0,0,2.2-0.1,5.7c4.3,8.3,8.8,16.6,14.5,23.9C124.8,154.2,132,154,137,150.1z"/>
			<path id="business-1-rrze-expo-hemd" class="st6" d="M197,177.2c-2.2-2.1-47.9-23.3-47.9-23.3L141,183l-44.3-31.8c0,0-45.4,27.2-48.1,30
			c-1.7,1.7,12,38.7,22.1,65.2c5.7,15.1,5.2,11.2,10.3,26.9c5.1,15.7,2.2,54.6,2.2,54.6l77.2,11.6l21.9-4L186,307l5.6-97.5
			C191.6,209.4,199.3,179.3,197,177.2L197,177.2z"/>
			<path id="business-1-rrze-expo-hemdschattenlinks" class="st7" d="M139.1,197.1c-0.1,10.8-0.4,21.5-0.5,32.3c-0.1,11.1-2.2,21.6-2.9,32.6
			c0,0.4,0.3,4.3-0.3,4.7c-1.1-0.3,0.3-82.8,0.3-82.8l-9.1-9.1l-9.2,4.8c0,0-23.6-22.7-26.3-24.7c5.5-3.4,5.6-3.6,5.6-3.6l43.1,30.9
			C139.5,187.1,139.2,192.1,139.1,197.1L139.1,197.1z"/>
			<path id="business-1-rrze-expo-kragenschattenlinks" class="st7"
				  d="M131.2,161.1l1.1,15.9c-16.2-1.2-38.8-23.8-38.8-23.8l4.6-12.7L131.2,161.1z"/>
			<g id="business-1-rrze-expo-hemdknoepfe">
			<path id="hemdknopf1" class="st8" d="M141.1,186c-1.2,0-2.2,1-2.2,2.2c0,1.2,1,2.2,2.2,2.2c1.2,0,2.2-1,2.2-2.2
				C143.3,187,142.3,186,141.1,186L141.1,186z"/>
				<path id="hemdknopf2" class="st8" d="M141.3,229.9c-1.2,0-2.2,1-2.2,2.2c0,1.2,1,2.2,2.2,2.2s2.2-1,2.2-2.2
				C143.5,230.9,142.5,229.9,141.3,229.9L141.3,229.9z"/>
				<path id="hemdknopf3" class="st8" d="M141.6,273.8c-1.2,0-2.2,1-2.2,2.2c0,1.2,1,2.2,2.2,2.2c1.2,0,2.2-1,2.2-2.2
				C143.7,274.8,142.8,273.8,141.6,273.8L141.6,273.8z"/>
				<path id="hemdknopf4" class="st8" d="M148.3,317.7c-1.2,0-2.2,1-2.2,2.2c0,1.2,1,2.2,2.2,2.2c1.2,0,2.2-1,2.2-2.2
				C150.5,318.7,149.5,317.7,148.3,317.7L148.3,317.7z"/>
		</g>
			<path id="business-1-rrze-expo-guertel" class="st9" d="M155.3,344.2c-17.3,0-69.9-7.2-69.9-7.2l-0.7-9c0,0,57.4,6.8,70.6,6.8c16.4,0,28.9-1.1,29-1.1
			l0.6,9.6C184.3,343.3,172,344.2,155.3,344.2L155.3,344.2z"/>
			<path id="business-1-rrze-expo-guertelschnalle" class="st10" d="M157,344.9c-1.1,1-2.5,1.5-4,1.5c-0.1,0-0.2,0-0.3,0l-6.9-0.3c-1.6-0.1-3-0.8-4.1-1.9
			c-1.1-1.2-1.6-2.7-1.5-4.2l0-1c0.2-3.2,2.9-5.7,6.2-5.6l6.9,0.3c1.6,0.1,3,0.8,4.1,1.9c1.1,1.2,1.6,2.7,1.5,4.2l0,1
			C158.9,342.4,158.2,343.8,157,344.9L157,344.9z M146.4,336c-0.1,0-0.1,0-0.2,0c-1.7,0-3.1,1.3-3.2,3.1l0,1c0,0.9,0.3,1.7,0.8,2.3
			c0.6,0.6,1.4,1,2.2,1.1l6.9,0.3c0.9,0,1.7-0.3,2.3-0.8c0.6-0.6,1-1.4,1.1-2.2l0-1c0-0.9-0.3-1.7-0.8-2.3c-0.6-0.6-1.4-1-2.2-1.1h0
			L146.4,336L146.4,336z"/>
			<polygon id="business-1-rrze-expo-krawatte" class="st11"
					 points="148.6,318.1 135.1,307.6 137.3,182.9 146,182.9 159.5,307.6 		"/>
			<g id="business-1-rrze-expo-anzugundhemd">
			<path id="business-1-rrze-expo-anzugtorsolinks" class="st1" d="M126.2,253.6c-0.9-16.4-32.7-100.4-32.7-100.4c-17.6,10.4-34.7,20.2-45.7,27.9
				c-6,15.2,21.8,88.2,21.8,88.2l-12,136.6c13.5,6,60.9,10,60.9,10S127.1,270,126.2,253.6z"/>
				<path id="business-1-rrze-expo-anzugkragenlinks" class="st12" d="M84.5,188.8l11.3,4.6l-6.4,7.3c0,0,26.8,46.7,36.8,55.2c0-0.9,0-1.7-0.1-2.3
				c-0.9-16.4-32.7-100.4-32.7-100.4c-3.6,2.1-7.1,4.2-10.5,6.2C82.8,165.3,84.5,188.8,84.5,188.8z"/>
				<path id="business-1-rrze-expo-anzugtorsorechts" class="st1" d="M198.1,177.7c-7.2-5.4-49.2-24.6-49.2-24.6L168.1,267l-3.3,150.1
				c18.5,1.2,27.1-2.2,27.1-2.2c7-86.3,3-201.9,3-201.9C197.3,194.5,198.1,177.7,198.1,177.7z"/>
				<path id="business-1-rrze-expo-anzugkragenrechts" class="st12" d="M171.4,194.4l-7.8-5.1l7.3-3.4c0,0-7.7-22.2-9.7-27.2c-7-3.3-12.2-5.7-12.2-5.7
				l16.5,97.2C168.2,242.2,171.4,194.4,171.4,194.4z"/>
				<path id="business-1-rrze-expo-hemdkragenlinks" class="st6"
					  d="M98.1,140.5l33.1,20.6c0,0-3.1,12.9-13.4,16.6l-24.3-24.4L98.1,140.5z"/>
				<path id="business-1-rrze-expo-hemdschattenrechts" class="st7"
					  d="M145.4,158.3c0,0,4,15,16.3,18l-8.1-21.5l-7.2-6.7L145.4,158.3z"/>
				<path id="business-1-rrze-expo-hemdkragenrechts" class="st6"
					  d="M153.6,154.8l-9.6,17.7c0,0,2.6-8.2,3-13.2c0.4-5-0.6-11.2-0.6-11.2L153.6,154.8z"/>
		</g>
			<g id="business-1-rrze-expo-krawattenknoten_1_">
			<path id="business-1-rrze-expo-krawattenschatten_1_" class="st11"
				  d="M137.9,163.7l-7.5,0.2c0,0-2.4,5.5-3.9,7.2c-1.4,1.7,4.4,2,4.4,2L137.9,163.7z"
			/>
				<path id="business-1-rrze-expo-krawattenschatten" class="st13" d="M147,163.7c0,0,1.5,0.1,2-0.3c0.6-0.4,1.5,6.3,1.1,7.8
				C149.7,172.6,147,163.7,147,163.7L147,163.7z"/>
				<polygon id="business-1-rrze-expo-krawattenknoten" class="st11"
						 points="134.1,163.7 147,163.7 150.2,171.1 146,182.9 137.3,182.9 129,172.8 			"/>
		</g>
			<g id="business-1-rrze-expo-schuhe">
			<path id="business-1-rrze-expo-schuhlinks" class="st19" d="M55.2,680.3c1.8-12.2,36.1-9.5,36.8,0.1c0.7,9.6,5.4,13.9,5.4,19.5
				c0,5.6,0.7,14.8-19.8,14.8c-20.5,0-25.1-8-25.1-14.8C52.4,693.1,53.4,692.5,55.2,680.3L55.2,680.3z"/>
				<path id="business-1-rrze-expo-schusohlelinks" class="st19" d="M97.2,704.3c-0.7,5-4,10.4-19.7,10.4c-18.1,0-23.8-6.2-24.9-12.4
				C65.9,711.1,85.9,714.6,97.2,704.3L97.2,704.3z"/>
				<path id="business-1-rrze-expo-schuhrechts" class="st19" d="M164.8,678.9c0,0,9,8,12.6,8.5c3.6,0.5,28.9,1.1,28.9,20.7c-8.5,7.1-48.1,2.6-78.9,0.4
				c-1.7-3-0.8-17.9,1.6-23.6C151.9,685,160.5,680.6,164.8,678.9L164.8,678.9z"/>
				<path id="business-1-rrze-expo-schuhsohlerechts" class="st19" d="M166.5,706.9c12.4,1.7,27.5,2.5,39.1-3.4c0.4,1.5,0.6,3,0.6,4.7
				c-8.5,7.1-48.1,2.6-78.9,0.4c-0.5-0.9-0.8-2.9-0.9-5.3C139.8,703.5,153,705,166.5,706.9L166.5,706.9z"/>
		</g>
			<g id="business-1-rrze-expo-gesicht">
			<g>
				<g>
					<g>
						<g>
							<g>
								<g>
									<g>
										<g>
											<path class="st5" d="M151.1,97.3c-1.4,6.6,0.8,12.7,4.8,13.6c4,0.9,8.4-3.7,9.8-10.3c1.4-6.6-0.8-12.7-4.8-13.6
												C156.9,86,152.5,90.7,151.1,97.3L151.1,97.3z"/>
										</g>
									</g>
								</g>
							</g>
							<g>
								<g>
									<g>
										<g>
											<path class="st5" d="M81.1,100.4c1.3,6.6,5.7,11.3,9.7,10.4c4-0.9,6.2-6.9,4.9-13.5C94.4,90.7,90.1,86,86,86.9
												C82,87.8,79.8,93.8,81.1,100.4L81.1,100.4z"/>
										</g>
									</g>
								</g>
							</g>
							<g>
								<g>
									<g>
										<g>
											<path class="st4" d="M123.5,47.6c32.3,0,34.3,31.3,34.4,35c0,0.2,0,0.4,0,0.7c-0.2,3.5-2.1,35.7-5.2,41.8
												c-2.6,5.1-21,21.8-29.2,21.8c-8.2,0-26.6-16.7-29.2-21.8c-3.1-6.1-5-38.3-5.2-41.8c0-0.2,0-0.4,0-0.7
												C89.2,78.9,91.1,47.6,123.5,47.6L123.5,47.6z"/>
										</g>
									</g>
								</g>
							</g>
							<g>
								<g>
									<g>
										<g>
											<path class="st5" d="M96.7,73.2c1.3-2.9,1.6-6.1,4.3-8.1c5.3-3.8,13.9-0.8,19.6,0c4.9,0.7,9.8,0.7,14.7,0.2
												c1.9-0.2,3.8-0.4,5.8-0.8c0.7-0.1,1.6-0.4,2.4-0.3c1.5,0.3,1.9,1.7,2.2,3.1c0.4,1.9,0.5,3.5,2.3,4.5
												c1.3,0.7,2.8,1,4.1,1.5c1.6,0.6,3.3,1.3,4.8,2c-2.1-10.4-9.3-27.8-33.5-27.8c-32.3,0-34.3,31.3-34.4,35
												c0,0.2,0,0.3,0,0.5C92.4,80.5,95,77,96.7,73.2z"/>
										</g>
									</g>
								</g>
							</g>
							<g>
								<g>
									<g>
										<g>
											<path class="st20" d="M138.6,89.4c-2.3-0.3-4.2,2.2-4.4,5.6c-0.2,3.3,1.5,6.3,3.8,6.5c2.3,0.3,4.2-2.2,4.4-5.6
												C142.5,92.6,140.8,89.6,138.6,89.4L138.6,89.4z"/>
										</g>
									</g>
								</g>
							</g>
							<g>
								<g>
									<g>
										<g>
											<path class="st20" d="M109,89.4c-2.3-0.3-4.2,2.2-4.4,5.6c-0.2,3.3,1.5,6.3,3.8,6.5c2.3,0.3,4.2-2.2,4.4-5.6
												C112.9,92.6,111.3,89.6,109,89.4L109,89.4z"/>
										</g>
									</g>
								</g>
							</g>
							<g>
								<g>
									<g>
										<g>
											<path class="st21" d="M96.4,80.9c0.5-0.3,9.5-5.6,21.5-2.3c0.8,0.2,0.6,3.5,0.4,3.5c-11.1-2.8-20.1,1.6-20.2,1.7
												c-0.9,0.3-2.1,0-2.6-0.8C95.1,82.1,95.5,81.2,96.4,80.9L96.4,80.9z"/>
										</g>
									</g>
								</g>
							</g>
							<g>
								<g>
									<g>
										<g>
											<path class="st21" d="M150.5,80c-0.5-0.3-9.5-5.6-21.5-2.3c-0.8,0.2-0.6,3.5-0.4,3.5c11.1-2.8,20.1,1.6,20.2,1.7
												c0.9,0.3,2.1,0,2.6-0.8C151.8,81.2,151.4,80.3,150.5,80L150.5,80z"/>
										</g>
									</g>
								</g>
							</g>
							<g>
								<g>
									<g>
										<g>
											<path class="st14" d="M123.6,107.5c-0.6,1.4-0.5,1.1-0.1,2.2c0.3,0.7,0.9,1.4,1.3,2c0.9,1.3-2.8,0.9-3.5-0.1
												c-0.5-0.8-1.9-2.3-2.2-3.4c-0.3-1.3,0.3-1.8,0.9-2.6c1.8-2.2,3-5.1,3.6-8.4C123.9,95.9,125.5,102.9,123.6,107.5
												L123.6,107.5z"/>
										</g>
									</g>
								</g>
							</g>
							<g>
								<g>
									<g>
										<g>
											<path class="st5"
												  d="M111.1,121.6c0,0,6.8,1.7,13.1,1.7c6.3,0,12.9-1.7,12.9-1.7C128.2,121.4,119.5,121.4,111.1,121.6z"
											/>
										</g>
									</g>
								</g>
							</g>
						</g>
					</g>
					<g>
						<g>
							<g>
								<path class="st15" d="M142.2,58.1c0,0,10.3,6.1,8.8,12.9l4.1,4.2l2.6,12.2c0,0,2.7-24.4,0.8-30.1s-11.9-15.5-11.9-15.5
									L142.2,58.1z"/>
							</g>
						</g>
					</g>
					<g>
						<g>
							<g>
								<path class="st15" d="M104.1,59.2c0,0-10.3,6.1-8.8,12.9l-4.1,4.2L89,88.5c0,0-3-24.3-1.2-30c1.8-5.7,8.8-15.5,8.8-15.5
									L104.1,59.2z"/>
							</g>
						</g>
					</g>
					<g>
						<g>
							<g>
								<path class="st15" d="M104.1,59.2l-6-13.2c-0.4,2.4-1.1,4.5-3,6.7c-2.2,2.5-4.5,4.6-5.7,7.8c-1.3,3.6-1.6,7.3-1.7,11.1
									c-0.2,5,0,9.9,0.4,14.7c0.5,1.3,0.8,2.1,0.8,2.1l2.2-12.2l4.1-4.2C93.8,65.3,104.1,59.2,104.1,59.2z"/>
							</g>
						</g>
					</g>
					<g>
						<g>
							<path class="st15" d="M156,54.1C155.9,54,147.8,27,123,27c-24.8,0-30,16.8-30,24.5c0,15,54.9,11.6,54.9,11.6
								C151.3,57.2,156.7,58.3,156,54.1z"/>
						</g>
					</g>
				</g>
			</g>
		</g>
	</g>
		<path id="business-1-rrze-expo-armrechts" class="st16" d="M256.5,250c-1.4,29.7-7.6,45.3-22.5,66.3c0,0-17,10.9-28.6-7.9c-11.5-18.8,20.1-65,20.1-65
		S243.2,230.5,256.5,250z"/>
		<polygon id="klemmbrett" class="st18" points="227.5,293.9 155.3,297.5 169.4,191.8 241.5,188.1 	"/>
		<path id="business-1-rrze-expo-handrechts" class="st4" d="M257.7,250.6c-3.7,11.8-9.1,15.1-17.9,12.3c-8.9-2.8-26.9-10.8-24.8-28.3
		c1.5-12.9,24.6-13.3,33.4-10.4S261.5,238.8,257.7,250.6z"/>
		<g id="business-1-rrze-expo-armlinks">
		<g>
			<g>
				<path class="st17" d="M43.9,391.3l-5.1,28.3c0,0,3.2,17.5,10.5,13.5c0,0,4.7,9.2,9.5,5.7c0,0,7,8.7,9.2,2.2c0,0,3.7,8,6.5,5.2
					c2.7-2.7-2.7-19.4-2.7-19.4c0.5,1.2,9,2.7,7.2-0.2c-1.7-3-2.5-9-2.5-19.9c0-11-9.4-20.7-9.4-20.7L43.9,391.3z"/>
			</g>
		</g>
			<g>
			<g>
				<path class="st17" d="M47.7,181.4c-14.4,8.4-15.4,101.7-14.1,116.8c1.3,15.1,10.4,93.4,10.4,93.4c7.5,2,15.2-0.1,23.1-5.5
					c-4.2-33.5-0.6-56.2-9.8-85.6c6.5-23.2,9-35.4,15.1-50.5C72.3,249.9,62,173,47.7,181.4z"/>
			</g>
		</g>
			<g>
			<g>
				<path class="st1" d="M47.7,181.4C33.3,189.8,25,283.1,26.3,298.2c1.3,15.1,13.6,92.1,13.6,92.1c7.5,2,23.1-1.8,31-7.3
					c0.5-34.2-10-80.7-10-80.7s10.9-35.1,11.5-52.3C72.3,249.9,62,173,47.7,181.4z"/>
			</g>
		</g>
	</g>
</g>
</svg>
