<svg version="1.1" id="Ebene_1" xmlns="http://www.w3.org/2000/svg" xmlns:xlink="http://www.w3.org/1999/xlink"
	 viewBox="0 0 280 740" style="enable-background:new 0 0 280 740;" xml:space="preserve">
<style type="text/css">

	#businesscharakter2-rrze-expo{
	/*Hautfarben*/
	--hautfarbe: #FBBE7D;
	--hautschatten: #E78052;

	/*Anzugfarben*/
	--anzugbasis: #252426;

	--hemdbasis: #E5E6E8;
	--hemdschatten: #9490A7;
	--hemdknopf: #F1F1F1;

	--guertel: #804603;
	--guertelschnalle: #F1F1F1;

	--krawatte: #3A2D3C; /*Steuert hier Kette*/

	/*Haare*/
	--haarfarbe: #42210B;
	--haarlicht: #8A603D;

	/*Sonstiges*/
	--klemmbrett: #E5E6E8;
	--tabletkameraring: #4D4D4D;
	--tabletkamera: #CCCCCC;


	--augenfarbe: #231F20;
	--schuhfarbe: #231F20;
	}


	#businesscharakter2-rrze-expo .st0{fill:#42210B; fill: var(--haarfarbe, #42210B);} /*Haare*/
	#businesscharakter2-rrze-expo .st1{fill:#252426; fill: var(--anzugbasis, #252426);} /*Anzugbasis*/
	#businesscharakter2-rrze-expo .st2{fill:#FAB57A; fill: var(--hautfarbe, #FAB57A);} /*Hautbasis*/
	#businesscharakter2-rrze-expo .st3{fill:#E68052; fill: var(--hautschatten, #E68052);} /*Hautschatten*/
	#businesscharakter2-rrze-expo .st4{fill:#333333; fill: var(--anzugbasis, #333333);} /*Rock*/
	#businesscharakter2-rrze-expo .st5{opacity:0.5;} /*Schlagschatten*/
	#businesscharakter2-rrze-expo .st6{fill:#272727; fill: var(--anzugbasis, #272727);} /*Rockschtatenfarbe*/
	#businesscharakter2-rrze-expo .st7{fill:#EDEAEA; fill: var(--krawatte, #EDEAEA);} /*Kette*/
	#businesscharakter2-rrze-expo .st8{fill:#FDDFB1; fill: var(--hemdbasis, #FDDFB1);} /*Shirt*/
	#businesscharakter2-rrze-expo .st9{fill:#313032; fill: var(--anzugbasis, #313032);} /*Anzugsakko*/
	#businesscharakter2-rrze-expo .st10{fill:#E78052; fill: var(--hautschatten, #E78052);} /*Gesichtshautschatten*/
	#businesscharakter2-rrze-expo .st11{fill:#FBBE7D; fill: var(--hautfarbe, #FBBE7D);} /*Haarbasis*/
	#businesscharakter2-rrze-expo .st12{fill:#231F20; fill: var(--augenfarbe, #231F20);} /*Augen*/
	#businesscharakter2-rrze-expo .st13{fill:#FFFFFF;} /*Mund*/
	#businesscharakter2-rrze-expo .st14{fill:#8A603D; fill: var(--haarlicht, #8A603D);} /*Haarlicht*/
	#businesscharakter2-rrze-expo .st15{fill:#754C29; fill: var(--haarfarbe, #754C29);} /*Augenbrauen*/

	#businesscharakter2-rrze-expo .st16{fill:#808080; fill: var(--klemmbrett, #808080);} /*Tablet*/
	#businesscharakter2-rrze-expo .st17{fill:#999999; fill: var(--klemmbrett, #999999);} /*Tablet2*/
	#businesscharakter2-rrze-expo .st18{fill:#4D4D4D; fill: var(--tabletkameraring, #4D4D4D);} /*Tablet3*/
	#businesscharakter2-rrze-expo .st19{fill:#CCCCCC; fill: var(--tabletkamera, #CCCCCC);} /*tablet4*/
	#businesscharakter2-rrze-expo .st20{fill:#B5B5B5; fill: var(--klemmbrett, #B5B5B5);} /*tablet5*/

	#businesscharakter2-rrze-expo .st21{fill:#FBB57A; fill: var(--hautfarbe, #FBB57A);} /*Hand*/
	#businesscharakter2-rrze-expo .st22{fill:#B5B5B5; fill: var(--anzuginnenseite, #B5B5B5);} /*Ärmelinnenseite*/
	#businesscharakter2-rrze-expo .st23{fill:#231F20; fill: var(--schuhfarbe, #231F20);} /*Schuhe*/
</style>
<g id="businesscharakter2-rrze-expo">
	<g>
		<g id="businesscharakter2-rrze-expo-haare">
			<path class="st0" d="M186.6,72.9c2.7,12.5,10.2,19.7,16.6,30.7c2.2,3.7-6.4,32-4.8,41.3c1.1,6.2,8.3,13.8,11.1,19.4
				c3.4,7,3.5,15,3.4,22.8c-0.1,8.1-0.2,16.7-4.7,23.5c-2.4,3.7-5.8,6.5-9.2,9.2c-7.7,6-15.7,11.7-24.6,15.6
				c-8.9,3.9-18.8,6.1-28.4,4.9c-10.4-1.3-20.2-6.6-27-14.5c-3.7-4.3-6.6-9.3-11.1-12.7c-2.4-1.8-5.3-3.1-6.7-5.7
				c-2.2-3.9-0.2-8.9,2.4-12.4c4.3-5.8,0.8-24.4,4.9-30.3c9-12.9-8.2-17.3-6.6-32.9c2.1-20.4,5.2-49,18.7-64.5
				c3.2-3.7,37.4,3,42.2,2.1L186.6,72.9z"/>
		</g>
		<g id="businesscharakter2-rrze-expo-anzugarmlinks">
			<path class="st1" d="M97.6,178.6c-18.1,13-19.8,62.1-27.5,97.9l20.1,6.3l8.7-33.8L97.6,178.6z"/>
		</g>
		<g id="businesscharakter2-rrze-expo-beine">
			<g id="businesscharakter2-rrze-expo-hautbasisbeine">
				<g>
					<g>
						<g>
							<path class="st2" d="M185.4,333.1c17.7,52.4,0.4,205.9,0.4,205.9c13,58.3-0.5,111.7,10.8,149.5c0,0-23.8,21.7-70.7,15.3
								c-6.8-0.9,45.9-31.7,45.9-31.7s-25.5-246.1-39.2-265.3c-2-2.9-43,113-43,113c29.8,62.4,15.9,66.1,37.9,137.7
								c0,0-48.3,49.9-59.4,35.2c1.2-2.7,25.7-31,33.8-42c3.5-4.8-40.3-109.2-40.1-130.3c0.2-21,24.9-135.3,24.9-135.3l9.9-52.1
								H185.4z"/>
						</g>
					</g>
				</g>
			</g>
			<g id="businesscharakter2-rrze-expo-hautschattenbeine">
				<g>
					<g>
						<g>
							<path class="st3" d="M132.6,406.8c5.6,8,13.3,54.7,20.4,106.8c3,0.2,6,0.5,9.1,0.8c5.7,0.5,11.4,0.3,17.1-0.1
								c3-0.2,6.1-0.4,9.1-0.7c4-45.8,10.4-141.4-2.9-180.6H96.6l-9.9,52.1c0,0-17.4,80.7-23.1,118.9c9.9,1.8,19.9,3.9,29.9,5
								C103.7,480.4,131,404.5,132.6,406.8z"/>
						</g>
					</g>
				</g>
			</g>
			<g id="businesscharakter2-rrze-expo-rock">
				<g>
					<g>
						<g>
							<path class="st4" d="M188.9,506.3c4-48,9.1-136.1-3.5-173.2H96.6l-9.9,52.1c0,0-16.1,74.5-22.4,114.3
								C75.6,506.5,177.3,512,188.9,506.3z"/>
						</g>
					</g>
				</g>
			</g>
			<g id="businesscharakter2-rrze-expo-anzugschatten" class="st5">
				<g>
					<g>
						<g>
							<path class="st6" d="M117.1,355.7c11,1.4,22.2,1.5,33.2,0.5c13.2-1.1,26.2-3.6,39-7c-1.1-6.1-2.4-11.5-3.9-16.2H96.6
								l-2.9,15.3C101.4,351.3,108.8,354.6,117.1,355.7z"/>
						</g>
					</g>
				</g>
			</g>
			<g id="businesscharakter2-rrze-expo-schuhe">
				<g>
					<g>
						<g>
							<path class="st23" d="M102,648.5c10.2,1.2,19.4,4.6,28.8,9.3l3.4,10.7c0,0-54.9,38.8-66,24.2c1.2-2.7,25.7-31,33.8-42
								C102.1,650.4,102.1,649.7,102,648.5z"/>
						</g>
					</g>
				</g>
				<g>
					<g>
						<g>
							<path class="st23" d="M170.3,673c10.9,3.8,18.7,9.2,28,15.7c0.7,4.4,1.5,7.1,2.3,7.8c0,0-27.8,13.7-74.7,7.4
								C119.7,703,162,677.9,170.3,673z"/>
						</g>
					</g>
				</g>
			</g>
		</g>
		<g id="businesscharakter2-rrze-expo-torso">
			<path id="hautbasistorso" class="st2" d="M210.3,183.7c0,0-31.9-17.8-38.2-21c-8.3-7.3,0.4-33.4,0.4-33.4l-30.3,1.1l-8.6,29.8
				c0,0-1.5,0.8-3.8,1.9l0,0c-8.6,4.4-29,14.9-32.1,16.5c0,0-0.4,0.5,0.2,15.9c0.4,10.1-6.3,34.2-6.6,48.9
				c-0.3,14.7,10.7,22,10.7,22c-1.6,16.8-2,19.2-5.3,67.7c14.4,9.4,66.9,8.2,88.8,0c-7.3-41.3-7.3-43.3-7.9-46.5
				C175.6,275.8,210.3,183.7,210.3,183.7z"/>
			<path id="kette" class="st7" d="M120.1,167c0,0,7.7,13.9,27.1,15.3c19.4,1.3,35.5-13.9,35.5-13.9s-7.2-3.9-9.4-5
				c-4.9,2.8-10.1,5.3-15.6,6.7c-5.9,1.5-11.2,1.2-16.8-1.2c-2.4-1-4.6-2.3-6.4-4.1c-1.1-1.1-2.1-2.3-3-3.6
				c-0.5,0.3-1.1,0.6-1.8,0.9l0,0C127.3,163.3,123.8,165.1,120.1,167z"/>
			<g id="businesscharakter2-rrze-expo-shirt">
				<g>
					<g>
						<path class="st8" d="M210.3,183.7c0,0-10.8-6-21.1-11.7c-3.9,4.8-10.7,20.8-21.2,27.5c-10.5,6.7-42.2,5.3-48.4-0.6
							c-6.1-5.9-8.7-27.1-8.7-27.1c-6.3,3.2-11.8,6.1-13.3,6.9c0,0-0.4,0.5,0.2,15.9c0.4,10.1-6.3,34.2-6.6,48.9
							c-0.3,14.7,10.7,22,10.7,22c-1.6,16.8-2,19.2-5.3,67.7c14.4,9.4,66.9,8.2,88.8,0c-7.3-41.3-7.3-43.3-7.9-46.5
							C175.6,275.8,210.3,183.7,210.3,183.7z"/>
					</g>
				</g>
			</g>
			<g id="businesscharakter2-rrze-expo-Anzugsakko">
				<g>
					<g>
						<path class="st9" d="M119.6,342.9c-0.9-45.5,9.7-94.3,14.5-139.6c-6.7-0.8-23.1-31.6-23.1-31.6c-6.3,3.2-11.8,6.1-13.3,6.9
							c0,0-0.4,0.5,0.2,15.9c0.4,10.1-6.3,34.2-6.6,48.9c-0.3,14.7,10.7,22,10.7,22c-1.6,16.8-9.3,21.2-12.6,69.6
							C95.5,339.1,104.7,342.5,119.6,342.9z"/>
						<path class="st9" d="M210.3,183.7c0,0-10.8-6-21.1-11.7c-3.9,4.8-31.5,31.3-38.6,31.8c-4.3,0.3,0.6,96.4,1.6,141.8
							c18.7,0.2,32.8-4.1,44.4-8.5c-7.3-41.3-15-47.1-15.6-50.3C179.1,275.9,210.3,183.7,210.3,183.7z"/>
					</g>
				</g>
			</g>
			<g id="businesscharakter2-rrze-expo-halsschatten">
				<g>
					<g>
						<path class="st3" d="M140.7,157.6c4.2,2.8,9.7,2.8,14.5,1.8c4.8-1,9.2-3,13.4-5.5c-0.9-10.4,3.9-24.7,3.9-24.7l-30.3,1.1
							l-6.6,22.9C137.2,154.8,138.8,156.3,140.7,157.6z"/>
					</g>
				</g>
			</g>
		</g>
		<g id="businesscharakter2-rrze-expo-gesicht">
			<g>
				<g id="businesscharakter2-rrze-expo-gesichtfeature">
					<g id="businesscharakter2-rrze-expo-gesichtsfeatures">
						<g id="businesscharakter2-rrze-expo-ohrlinks">
							<g>
								<g>
									<g>
										<path class="st10" d="M123.1,108c1.8,6,0.2,11.8-3.6,12.9c-3.8,1.1-8.3-2.8-10.1-8.8c-1.8-6-0.2-11.8,3.6-12.9
											C116.8,98,121.4,101.9,123.1,108z"/>
									</g>
								</g>
							</g>
						</g>
						<g id="businesscharakter2-rrze-expo-ohrrechts">
							<g>
								<g>
									<g>
										<path class="st10" d="M190.3,110.8c-1.4,6.1-5.6,10.4-9.5,9.5c-3.9-0.9-5.9-6.5-4.5-12.6c1.4-6.1,5.6-10.4,9.5-9.5
											C189.6,99,191.7,104.7,190.3,110.8z"/>
									</g>
								</g>
							</g>
						</g>
						<g id="businesscharakter2-rrze-expo-haarbasis">
							<g>
								<g>
									<g>
										<path class="st11" d="M149.3,62c-30.9,0.3-32.5,29.4-32.6,32.9c0,0.2,0,0.4,0,0.6c0.2,3.2,2.3,33.1,5.4,38.8
											c2.5,4.7,21,19.9,28.4,19.9c7.4,0,25.1-15.8,27.5-20.5c2.9-5.7,4.4-35.7,4.6-38.9c0-0.2,0-0.4,0-0.6
											C182.4,90.7,180.2,61.7,149.3,62z"/>
									</g>
								</g>
							</g>
						</g>
						<g id="businesscharakter2-rrze-expo-haarschatten">
							<g>
								<g>
									<g>
										<path class="st10" d="M182.5,96.8c-7.5-9.3-9.8-20.2-9.8-20.2l-51.1,0.5c0,0,12.4-14.9,27.7-15.1
											c30.9-0.3,33.1,28.7,33.3,32.2c0,0.2,0,0.4,0,0.6C182.5,95.2,182.5,95.9,182.5,96.8z"/>
									</g>
								</g>
							</g>
						</g>
						<g id="businesscharakter2-rrze-expo-augen">
							<g>
								<g>
									<g>
										<g>
											<g>
												<g>
													<g>
														<path class="st12" d="M163.6,104.1c-2.2-0.2-4,2.1-4.2,5.2c-0.1,3.1,1.5,5.8,3.7,6c2.2,0.2,4-2.1,4.2-5.2
															C167.4,107,165.7,104.3,163.6,104.1z"/>
													</g>
												</g>
											</g>
										</g>
									</g>
								</g>
							</g>
							<g>
								<g>
									<g>
										<g>
											<g>
												<g>
													<g>
														<path class="st12" d="M135.2,104.4c-2.2-0.2-4,2.1-4.2,5.2c-0.1,3.1,1.5,5.8,3.7,6c2.2,0.2,4-2.1,4.2-5.2
															C139,107.3,137.4,104.6,135.2,104.4z"/>
													</g>
												</g>
											</g>
										</g>
									</g>
								</g>
							</g>
						</g>
						<g id="businesscharakter2-rrze-expo-nase">
							<g>
								<g>
									<g>
										<g>
											<g>
												<g>
													<path class="st10" d="M149.1,123.2c-0.5,0.9-0.5,0.7-0.1,1.4c0.2,0.5,0.8,0.9,1.2,1.2c0.8,0.8-2.6,0.6-3.2,0
														c-0.5-0.5-1.7-1.4-1.9-2.1c-0.3-0.8,0.3-1.1,0.9-1.7c1.7-1.4,2.8-3.3,3.3-5.4C149.5,115.9,150.9,120.2,149.1,123.2z"/>
												</g>
											</g>
										</g>
									</g>
								</g>
							</g>
						</g>
					</g>
					<g id="businesscharakter2-rrze-expo-mund">
						<g id="mundraum">
							<path class="st13" d="M139.5,131.6c7-1.1,14.2-1.1,21.5,0c0,0-5.5,9.3-10.7,9.3C145.2,140.9,139.5,131.6,139.5,131.6z"/>
						</g>
					</g>
				</g>
				<g id="businesscharakter2-rrze-expo-haar">
					<g>
						<path class="st0" d="M146.4,47.5c31.1-8.5,34,16.4,34,16.4s5.1,1.9,7.3,5.6c2.2,3.7,1.2,23.7-4.9,31.1
							c-4.7-6.6-8.3-26.1-8.3-26.1c-12.4-4.3-49.6-0.1-49.6-0.1s-1.7,20.4-8.2,25.3C109.4,76.7,118.2,55.2,146.4,47.5z"/>
					</g>
				</g>
				<g id="businesscharakter2-rrze-expo-haarlicht">
					<g>
						<path class="st14" d="M176.6,54.4c-4.1-6-12.7-11.8-30.2-7c-16.2,4.4-26,13.4-30,24.7c4.4-7,10.3-13.1,17.7-17.1
							c4.6-2.5,9.6-4.2,14.7-5.1C150.1,49.7,164.3,47.3,176.6,54.4z"/>
					</g>
				</g>
				<g id="businesscharakter2-rrze-expo-augenbrauen">
					<g>
						<g>
							<g>
								<g>
									<g>
										<g>
											<path class="st15" d="M155.6,93.2c0.2,0,0.4-0.1,0.6-0.1c12.1-2.6,18.2,3.7,18,3.5c0.6,0.5,1.4,0.9,1.8,0.8
												c0.5,0,0.4-0.5-0.1-1c0,0.3-4.1-9.4-18.5-6.8C156.4,89.7,154.8,93.3,155.6,93.2z"/>
										</g>
									</g>
								</g>
							</g>
						</g>
					</g>
					<g>
						<g>
							<g>
								<g>
									<g>
										<g>
											<path class="st15" d="M143,96c-0.2,0-0.4-0.1-0.5-0.1c-10.8-2.8-17.4,2.9-17.2,2.7c-0.6,0.5-1.4,0.8-1.9,0.7
												c-0.5-0.1-0.4-0.5,0.2-1c-0.1,0.2,5.3-8.8,18.4-5.8C142.8,92.8,143.6,96.2,143,96z"/>
										</g>
									</g>
								</g>
							</g>
						</g>
					</g>
				</g>
			</g>
		</g>
		<g id="businesscharakter2-rrze-expo-anzugarmrechts">
			<path class="st1" d="M225.4,284.2c-2.3-36.8,1-79.6-15.1-100.5c-12.1,15.5-19.9,32.7-21.7,52.4l7.4,50.1L225.4,284.2z"/>
		</g>
		<path id="hautschattenlinks" class="st10" d="M60.8,244.8c0,0,4.6,44.3,19.7,47.8c15.1,3.5,13.8-16.5,13.2-18.1
			c-0.5-1.6-19.2-26.2-19.2-26.2L60.8,244.8z"/>
		<path id="anzugvorderarmlinks" class="st4" d="M60.8,244.8c0,0,4.6,44.3,19.7,47.8c15.1,3.5,13.8-16.5,13.2-18.1
			c-0.5-1.6-19.2-26.2-19.2-26.2C78.4,270,65.4,267.1,60.8,244.8z"/>
		<g id="businesscharakter2-rrze-expo-tablet">
			<g>
				<g>
					<g>
						<path class="st16" d="M70.7,217.4l72.4,5.1c0.8,0.1,1.5,0.7,1.5,1.6l1.2,52.3c0,0-0.4,1.1-0.4,1.1c0.5-0.3,1.2-1.8,1.2-2.4
							l-1.2-52.3c0-0.8-0.7-1.5-1.5-1.6l-72.4-5.1c-0.9-0.1-2.4,1.6-2.5,2.4C69.3,218.4,70.3,217.3,70.7,217.4z"/>
					</g>
				</g>
				<g>
					<g>
						<path class="st17" d="M145.7,276.5c0,0,0-0.1,0-0.1l-1.2-52.3c0-0.8-0.7-1.5-1.5-1.6l-72.4-5.1c-0.3,0-0.6,0.1-0.9,0.2
							c-0.5,0.3-0.8,0.8-0.8,1.4l1.2,52.3c0,0.8,0.7,1.5,1.5,1.6L144,278C144.9,278.1,145.6,277.4,145.7,276.5z"/>
					</g>
				</g>
			</g>
			<g>
				<g>
					<g>
						<path class="st18" d="M77.8,225.6c-0.2-0.7-0.8-1.1-1.5-0.9c-0.7,0.2-1.1,0.8-0.9,1.5c0.2,0.7,0.8,1.1,1.5,0.9
							C77.5,226.9,77.9,226.3,77.8,225.6z"/>
					</g>
				</g>
				<g>
					<g>
						<path class="st19" d="M78.5,225.4c-0.2-1-1.3-1.7-2.3-1.5c-1,0.2-1.7,1.3-1.5,2.3c0.2,1,1.3,1.7,2.3,1.5
							C78,227.5,78.7,226.5,78.5,225.4z M75.3,226.2c-0.2-0.7,0.3-1.3,0.9-1.5c0.7-0.2,1.3,0.3,1.5,0.9c0.2,0.7-0.3,1.3-0.9,1.5
							C76.2,227.3,75.5,226.8,75.3,226.2z"/>
					</g>
				</g>
			</g>
		</g>
		<g id="businesscharakter2-rrze-expo-handundarm">
			<path class="st22" d="M172.8,275.9l2.3-25.8C175.1,250,180.9,282.1,172.8,275.9z"/>
			<g>
				<g>
					<path class="st21" d="M160.8,260.5c0,0,38.7,38.6,53.8,35.4c15-3.2,11-17,7.5-22.3c-3.4-5.4-69.3-33.1-69.3-33.1L160.8,260.5z"
						/>
				</g>
				<g>
					<path class="st10" d="M222.1,273.5c-2.1-3.3-27.9-15.1-47.4-23.7c0.8,4.8,0.3,10.2-0.1,14.9c-0.2,2.4-0.9,4.7-1.7,6.9
						c12.7,11.1,32.1,26.3,41.7,24.2C229.6,292.6,225.5,278.9,222.1,273.5z"/>
				</g>
				<g>
					<path class="st4" d="M222.1,273.5c-2.1-3.3-27.6-14.9-47-23.5c2.5,17.2,1.4,28.1-2.3,25.8c12.7,11.1,32.2,22.1,41.8,20
						C229.6,292.6,225.5,278.9,222.1,273.5z"/>
				</g>
				<g>
					<path class="st21" d="M120.2,243.6c2.9-2.2,23.2-8.6,32.6-3.2l8,20.1c0,0-32.7,8.7-40.7,1.3
						C112.1,254.3,117.3,245.8,120.2,243.6z"/>
				</g>
			</g>
		</g>
		<g id="businesscharakter2-rrze-expo-hand">
			<path class="st21" d="M63.8,233.7c8.4-4.1,22.2,4,20.6,9.8c-1.2,4.4-2.9,16.6-9.2,14.9C68.9,256.7,55.2,256.9,63.8,233.7z"/>
		</g>
	</g>
</g>
</svg>
