<svg version="1.1" id="Ebene_1" xmlns="http://www.w3.org/2000/svg" xmlns:xlink="http://www.w3.org/1999/xlink"
	 viewBox="0 0 280 740" style="enable-background:new 0 0 280 740;" xml:space="preserve">
<style type="text/css">
#business-3-rrze-expo{
	/*Hautfarben*/
	--hautfarbe: #FAB57A;
	--hautschatten: #E78052;
	--hautlicht: #FCC883;

	/*Anzugfarben*/
	--anzugbasis: #333333;

	--hemdbasis: #FDDFB1;
	--hemdschatten: #FCC883;

	--guertel: #FFFFFF;
	--guertelschnalle: #FDD089; /*Steuert auch die Broschenfassung*/

	--krawatte: #FCC883; /*Steuert hier Kette*/

	/*Haare*/
	--haarfarbe: #B5441B;
	--haarschatten: #792D12;

	/*Sonstiges*/
	--seitenfarbe: #E5E6E6;
	--buchumschlag: #5E7E97;
	--buchcoverfarbe: #0071BC;


	--augenfarbe: #231F20;
	--schuhfarbe: #E4E5E5;
	}

	#business-3-rrze-expo .st0{fill:#FAB57A; fill: var(--hautfarbe, #FAB57A);} /*Hautbasis*/
	#business-3-rrze-expo .st1{fill:#FCC883; fill: var(--hautlicht, #FCC883);} /*Hautlicht*/
	#business-3-rrze-expo .st2{fill:#E78052; fill: var(--hautschatten, #E78052);} /*Hautschatten 18 inklud.*/
	#business-3-rrze-expo .st3{fill:#792D12; fill: var(--haarschatten, #792D12);} /*Haarschatten*/
	#business-3-rrze-expo .st4{fill:#B5441B; fill: var(--haarfarbe, #B5441B);} /*Haarbasis*/
	#business-3-rrze-expo .st5{fill:#E4E5E5; fill: var(--schuhfarbe, #E4E5E5);} /*Schuhbasis*/
	#business-3-rrze-expo .st6{fill:#FDDFB1; fill: var(--hemdbasis, #FDDFB1);} /*Shirtbasis*/
	#business-3-rrze-expo .st7{fill:#BE594C;} /*Unbekannt*/
	#business-3-rrze-expo .st8{fill:#333333; fill: var(--anzugbasis, #333333);} /*Rockbasis*/
	#business-3-rrze-expo .st9{fill:#FBBE7D; fill: var(--hautfarbe, #FBBE7D);} /*Gesichtsbasis*/
	#business-3-rrze-expo .st10{fill:#231F20; fill: var(--augenfarbe, #231F20);} /*Augenfarbe*/
	#business-3-rrze-expo .st11{fill:#C69C6D; fill: var(--guertelschnalle, #C69C6D);} /*Broschenfassung*/
	#business-3-rrze-expo .st12{fill:#FFFFFF; fill: var(--guertel, #FFFFFF);} /*Guertel*/
	#business-3-rrze-expo .st13{fill:#FDD089; fill: var(--guertelschnalle, #);} /*Guertelschnalle*/
	#business-3-rrze-expo .st14{fill:#5E7E97; fill: var(--buchumschlag, #5E7E97);} /*Buchruecken und Klappenseite*/
	#business-3-rrze-expo .st15{fill:#E5E6E6; fill: var(--seitenfarbe, #E5E6E6);} /*Buchseiten*/
	#business-3-rrze-expo .st16{fill:#00558D; fill: var(--buchumschlag, #00558D);} /*Bucheinband*/
	#business-3-rrze-expo .st17{fill:#0071BC; fill: var(--buchcoverfarbe, #0071BC);} /*Buchcoverbild*/
	#business-3-rrze-expo .st18{fill:#E58052; fill: var(--hautschatten, #E58052);} /*Handruecken mit st2 zusammenführen*/

	#business-3-rrze-expo .st19{fill:#FCC883; fill: var(--krawatte, #FCC883);} /*Krawatte*/
	#business-3-rrze-expo .st20{fill:#FCC883; fill: var(--hemdschatten, #FCC883);} /*Shirtschatten*/
</style>
<g id="business-3-rrze-expo">
	<g id="business-3-rrze-expo-Oberarm_rechts">
		<path class="st0" d="M224.6,198.9c19,31.1,26,72.5,35,112.3l-22.1,1.8l-33.4-81.1C204.1,231.8,200.3,201.1,224.6,198.9z"/>
		<path class="st1" d="M224.6,198.9c38.6,2.5,13.5,32.7,35,112.3l-22.1,1.8l-33.4-81.1C204.1,231.8,200.3,201.1,224.6,198.9z"/>
	</g>
	<g id="business-3-rrze-expo-Armlinks">
		<g id="business-3-rrze-expo-hauttonbasis">
			<path class="st0" d="M113.7,193.8c-18.3,14.4-29.3,59.2-47.5,79.1l-13.3-59.9c0,0-12.3,3.7-13.1,3.9
				C37,239.1,50.3,308,55.8,310.7c23,11.1,59.5-68,59.5-68C144.6,210.6,141.6,198,113.7,193.8z"/>
		</g>
		<g id="business-3-rrze-expo-hauttonschatten">
			<path class="st2" d="M54,218.1l-1.2-5.2c0,0-12.3,3.7-13.1,3.9c-0.2,1.4-0.3,2.9-0.3,4.6C44.7,222.1,49.5,220.7,54,218.1z"/>
		</g>
		<g id="business-3-rrze-expo-hauttonlicht">
			<path class="st1" d="M113.7,193.8c-34.8,4.2-13.1,35.8-47.5,79.1l-2.4-10.6c-6.5,2.6-12.9,5.6-19.1,8.7
				c3.7,20.5,8.4,38.5,11.2,39.8c23,11.1,59.5-68,59.5-68C144.6,210.6,141.6,198,113.7,193.8z"/>
		</g>
	</g>
	<path id="business-3-rrze-expo-haarschatten" class="st3" d="M144.9,68.8c-31.4,12.5-23.1,66-23.1,66c-7,71.9,1.2,117,26.3,120.3
		c36.4,4.8,61.5,0.5,70.9-44.3c9.4-44.9-4.2-62.8-4.2-62.8S200.2,46.7,144.9,68.8z"/>
	<path id="business-3-rrze-expo-haarlichtseiterechts" class="st4" d="M211,131c-7.7,11.8-7,25.7-4.6,37.6c2.3,11.2,7.7,21.6,14.3,30.9
		c5.2-36.9-6.1-52-6.1-52S214,144.5,211,131z"/>
	<g id="business-3-rrze-expo-koerperundgesicht">
		<g id="beine">
			<g id="business-3-rrze-expo-hautschattenlinks">
						<path class="st2" d="M187,670.7c0,0-22.4-92.3-33-114.5c-10.6-22.3-11.1-37.1-18-48.8c-6.9-11.7-33-107.4-27-136.8l54.6,38.7
							l8.9,91.2c0,0,3.7,30.8,6.9,36.6c3.2,5.8,11.1,26,15.4,46.1c4.2,20.1-8.3,47.7,6,64.2s2.1,19.1,5.8,32.9
							c3.7,13.8,9.5,29.7,3.2,33.4s-21.7,4.8-22.8-0.5C186,707.8,191.3,686.6,187,670.7z"/>
			</g>
			<g id="business-3-rrze-expo-hautlichtrechts">
						<path class="st0" d="M110,346.1c-1.5,13.3-2.8,41.1-0.4,48.4c4.8,14.8,44.5,26,44.5,26s-1.6,11.7-2.7,30.8
							c-1.1,19.1-4.8,54.6-2.1,63.6c2.6,9-2.4,90.1-6.7,109.2s-10.4,40.8-15.1,57.8c-4.8,17-14.3,30.2-15.4,35.5
							c-1.1,5.3,8.5,5.3,22.8,3.7c14.3-1.6,13.8-12.2,14.3-21.7c0.5-9.5,11.1-13.3,11.7-19.1c0.5-5.8-3.2-19.1-3.2-28.6
							c0-9.5,26.1-98.1,23.4-135.2c-2.7-37.1,20.1-55.7,27-101.3c5.1-33.5-7.3-61-14-71.5C186.7,337.3,131.1,334.5,110,346.1z"/>
			</g>
			<g id="business-3-rrze-expo-oberschenkelrechtshautschatten">
						<path class="st2" d="M194.2,343.6c-7.5-6.3-63.1-9.1-84.2,2.5c-1.5,13.3-2.8,41.1-0.4,48.4c4.8,14.8,44.5,26,44.5,26
							s-1.6,11.7-2.7,30.8c-1.1,19.1-4.8,54.6-2.1,63.6c0.6,2,0.8,7.7,0.7,15.6c10.3,1.7,20.7,0.9,31-0.7c0.3-4.9,0.3-9.4,0.1-13.3
							c-2.7-37.1,20.1-55.7,27-101.3C213.3,381.6,200.9,354.2,194.2,343.6z"/>
			</g>
			<g id="business-3-rrze-expo-oberschenkelrechts">
						<path class="st2" d="M151.5,451.2c-0.2,4-0.6,8.8-0.9,13.9c4,0.6,8,0.8,12.1,0.7c11-0.3,21.6-2.4,32-5.2
							c5.3-12.7,10.8-26.8,13.6-45.4c5.1-33.5-7.3-61-14-71.5c-7.5-6.3-63.1-9.1-84.2,2.5c-1.5,13.3-2.8,41.1-0.4,48.4
							c4.8,14.8,44.5,26,44.5,26S152.5,432.1,151.5,451.2z"/>
			</g>
			<g id="business-3-rrze-expo-schuhlinks">
						<path class="st5" d="M159.5,666.9c-1,0.6-1.9,1.2-2.8,1.8c-8.9,6.2-10.1,14.4-14.5,23.4c-5.2,10.5-14.2,10.8-24,12.5
							c-3,5.8-5.5,10.2-6,12.8c-1.1,5.3,8.5,5.3,22.8,3.7c14.3-1.6,13.8-12.2,14.3-21.7c0.2-4,2.2-6.9,4.5-9.5
							c1.6,8.1-0.8,28.1-0.8,28.1h4.9c0-17.9,3.1-37.7,3.1-37.7C161.2,677.3,160.3,672.3,159.5,666.9z"/>
			</g>
			<g id="business-3-rrze-expo-schuhrechts">
						<path class="st5" d="M206.7,680.3c-0.5-1.8-0.7-3.4-0.7-4.9c2.7,2.9,4.3,8,4.3,8c1.2-0.6,2-1.6,2.2-3
							c-3.3-8.8-4.2-14.5-4.5-17.3c0.2-3.2-0.5-6.7-3.9-11.7c-0.9,4.9-3.5,9.7-4,15c-0.5,5.3,0.5,10.2,1.5,15.4
							c0.5,2.9,1.3,6.4,0.3,9.3c-1.9,5.5-7.7,6.5-13.6,6.4c-0.7,7.2-1.5,13.2-1,15.6c1.1,5.3,16.4,4.2,22.8,0.5
							C216.2,710,210.4,694.1,206.7,680.3z"/>
			</g>
		</g>
		<g id="business-3-rrze-expo-shirt">
					<path class="st6" d="M117,280c-2.3,6.9-4.4,18.8-6.4,33.7c27.7,3.4,55.7,7.4,83.5,6.8c-1.3-6.7-2.1-13.1-2.1-19.5
						c0-10.9,32.6-102.2,32.6-102.2s-31.7-17.7-38-20.8c-6.8,1.2-35.3,4.1-42-0.6c-8.5,4.4-28.8,14.8-31.9,16.4
						c0,0-0.4,0.5,0.2,15.8c0.4,10-6.3,22.1-6.5,36.7C106.1,260.9,117,280,117,280z"/>
		</g>
		<g id="business-3-rrze-expo-shirtschatten">
					<path class="st20" d="M126.1,280.2c8-4.6,16.4-5.6,25.5-5.1c5.9,0.3,11.4,0.4,17.3-0.6c3.9-0.6,8-0.9,11.6-2.6
						c2-0.9,5.8-3.6,5.7-6.1c-0.1-3.4-6-2.8-8-2.7c-3.8,0.3-7.3,1.6-11.1,2.1c-3.8,0.5-7.3-0.1-10.8-1.7c-3.8-1.7-7.5-4.7-11.8-5.1
						c-8-0.7-15.6,4.7-23.3,6c-4.6,0.7-8.6-0.3-12.1-2.6c3.1,9.9,7.9,18.2,7.9,18.2c-0.8,2.6-1.7,5.8-2.5,9.7
						C117.9,286,121.8,282.7,126.1,280.2z"/>
		</g>
		<g id="business-3-rrze-expo-rockschatten">
					<path class="st7" d="M125.8,452.4c2.2,0.2,4.5,0.3,6.7,0.4c-2.5-17.2-5.8-34.1-10.5-50.4c1.5,13.1,3,26.1,3.4,39.3
						C125.6,445.3,125.7,448.8,125.8,452.4z"/>
		</g>
		<g id="business-3-rrze-expo-rock">
					<path class="st8" d="M154.4,312.6c-14.4-0.1-29.1,0.2-43.3-2.6c-5.1,36.6-10.6,75.3,16.3,213.1c1.1,2.7,58.9,3.9,65.6,0
						c29.1-131.3,23-166.8-0.3-211.2C180,312.9,167.2,312.7,154.4,312.6z"/>
		</g>
		<g id="business-3-rrze-expo-halsschatten">
					<path class="st2" d="M186.7,178c-8.3-7.3,0.4-33.2,0.4-33.2l-30.1,1.1l-8.6,29.6c0,0-1.7,0.9-4.3,2.2
						c6.6,6.5,8.5,8.3,15.6,12.3C159.7,189.9,178.1,184.8,186.7,178z"/>
		</g>
		<g id="business-3-rrze-expo-gesicht">
			<path class="st2" d="M137.8,123c1.8,5.9,0.2,11.7-3.6,12.8c-3.7,1.1-8.2-2.8-10-8.7c-1.8-5.9-0.2-11.7,3.6-12.8
				C131.6,113.1,136.1,117,137.8,123z"/>
			<path class="st2" d="M204.2,125.8c-1.3,6-5.5,10.3-9.3,9.4c-3.8-0.9-5.8-6.4-4.5-12.5c1.3-6,5.5-10.3,9.3-9.4
				C203.6,114.2,205.5,119.8,204.2,125.8z"/>
			<path class="st9" d="M163.7,77.6c-30.6,0.3-32.1,29-32.2,32.5c0,0.2,0,0.4,0,0.6c0.2,3.2,2.3,32.7,5.3,38.3
				c2.5,4.7,20.7,19.7,28,19.7s24.8-15.6,27.2-20.3c2.9-5.7,4.3-35.2,4.5-38.4c0-0.2,0-0.4,0-0.6
				C196.4,105.9,194.3,77.2,163.7,77.6z"/>
			<path class="st2" d="M133.1,129.1c0.1-0.2,0.2-0.3,0.2-0.5c1.8-4.8,1.7-10.2,2.8-15.1c1.3-5.8,3.8-11.8,7.3-16.5
				c6.1-8.2,17-9.7,25.8-4.5c9.7,5.8,13.4,17.9,18.3,27.4c2,3.9,4.6,7.2,7.6,10.2c0.8-9.1,1.3-18.3,1.4-20
				c0-0.2,0-0.4,0-0.6c-0.1-3.5-2.3-32.1-32.9-31.8c-30.6,0.3-32.1,29-32.2,32.5c0,0.2,0,0.4,0,0.6
				C131.6,112.3,132.2,120.6,133.1,129.1z"/>
			<path class="st10" d="M177.8,119.2c-2.1-0.2-4,2.1-4.1,5.2c-0.1,3.1,1.5,5.7,3.6,5.9c2.1,0.2,4-2.1,4.1-5.2
				C181.6,122.1,179.9,119.4,177.8,119.2z"/>
			<path class="st10" d="M149.8,119.5c-2.1-0.2-4,2.1-4.1,5.2c-0.1,3.1,1.5,5.7,3.6,5.9c2.1,0.2,4-2.1,4.1-5.2
				C153.5,122.4,151.9,119.7,149.8,119.5z"/>
			<path class="st2" d="M163.5,138c-0.5,0.9-0.5,0.7-0.1,1.4c0.2,0.4,0.8,0.9,1.2,1.2c0.8,0.8-2.5,0.6-3.1,0
				c-0.5-0.5-1.7-1.4-1.9-2c-0.3-0.8,0.3-1.1,0.9-1.6c1.7-1.4,2.7-3.2,3.3-5.3C163.9,130.8,165.3,135.1,163.5,138z
				"/>
			<path class="st2" d="M153.6,147c6.5-0.3,13.2-0.3,20,0c0,0-5.1,2.5-9.9,2.5C158.9,149.4,153.6,147,153.6,147z"/>
			<path class="st3" d="M170.2,111.1c11.9-2.6,18.4,2.6,18.3,2.3c0.6,0.5,1.4,0.8,1.8,0.8c0.5,0,0.4-0.5-0.1-1
				c0,0.3-5.3-7.8-19.6-5.1C169.6,108.2,170,111.1,170.2,111.1z"/>
			<path class="st3" d="M157.9,113.7c-10.6-2.7-18,2-17.8,1.8c-0.6,0.4-1.4,0.8-1.9,0.7c-0.5-0.1-0.4-0.5,0.2-1
				c-0.1,0.2,6.1-7.2,18.9-4.2C158.2,111.2,158,113.7,157.9,113.7z"/>
		</g>
		<g id="business-3-rrze-expo-Beschnittgruppe">
			<defs>
				<path id="SVGID_1_" d="M154.4,312.6c-14.4-0.1-29.1,0.2-43.3-2.6c-5.1,36.6-9.1,94-11,139c1.1,0.3,109.7-1.7,116.4-3.4
					c-1.8-68.8-20-102.8-23.8-133.7C180,312.9,167.2,312.7,154.4,312.6z"/>
			</defs>
			<clipPath id="SVGID_2_">
				<use xlink:href="#SVGID_1_"  style="overflow:visible;"/>
			</clipPath>
		</g>
	</g>
	<g id="business-3-rrze-expo-krawatteundkragenshirtfarbedunkel">
		<path class="st19" d="M183.4,168.1c0,0-12.1,16.8-18.8,20.1l16.2,18.1c0,0,9.7-13.6,11.5-25.7L183.4,168.1z"/>
		<path class="st19" d="M155.2,187.4c0,0-4.9-10.3-4.5-20.6l-8.9,12.2c-2.6,7-2.1,15.5-1.1,24.2L155.2,187.4z"/>
		<path class="st19" d="M171.7,189.6c0,0-1.7,2-6.5,3.1c-4.8,1.1-7.9,0.9-10.1,0c-2.3-0.9-4.8-3.6-4.8-3.6l-4.9,5.9
			c0,0,6.5,7.6,13.5,7.5c7-0.1,14.8-2.9,17.3-6.6L171.7,189.6z"/>
		<path class="st19" d="M155,192.7h10.1c-0.3,13.7,0.5,30.6,1.7,48.6c-10.2,0.7-18.9-1.6-26,0C145.9,221.8,151,201.5,155,192.7z"/>
	</g>
	<g id="business-3-rrze-expo-brosche">
		<path id="steinfarbe" class="st8" d="M158.9,195.6c-1.9,0-3.5,1.6-3.5,3.7c0,2,1.6,3.7,3.5,3.7c1.9,0,3.5-1.6,3.5-3.7
			C162.4,197.3,160.8,195.6,158.9,195.6z"/>
		<path id="fassung" class="st11" d="M158.9,194.7c-2.4,0-4.4,2-4.4,4.6s2,4.6,4.4,4.6c2.4,0,4.4-2.1,4.4-4.6
			S161.3,194.7,158.9,194.7z M158.9,203c-1.9,0-3.5-1.6-3.5-3.7c0-2,1.6-3.7,3.5-3.7c1.9,0,3.5,1.6,3.5,3.7
			C162.4,201.3,160.8,203,158.9,203z"/>
	</g>
	<g id="business-3-rrze-expo-Haarteillinks">
		<path id="haarschatten_2_" class="st3" d="M133.5,100.6c0,0,1.7,46.9-12.6,66.8C120.9,167.3,120.1,105.7,133.5,100.6z"/>
		<path id="haarlicht" class="st4" d="M160.6,85.3c0,0-18.3-0.7-28.8,29.1c0,0-5.1,14.5-10,20c-6-10.6-8.5-51,17.3-61.8
			C163.3,62.5,160.6,85.3,160.6,85.3z"/>
		<path id="haarschatten_1_" class="st3" d="M153.5,70.1c-2.6,3.3-5,7-5.4,11.2c-0.3,3,1,5.2,2.8,6.9c5.5-3.1,9.7-2.9,9.7-2.9
			S161.7,72.9,153.5,70.1z"/>
	</g>
	<path id="business-3-rrze-expo-haarlicht_1_" class="st4" d="M153.6,86.8c30.4-4,33.6,25.5,37.4,34.5c3.7,8.6,15.2,23.1,23.7,26.3
		c0,0-2.8-36.4-6.4-50.3s-24.6-40.9-48.8-31.5C152,72,147.8,81.5,153.6,86.8z"/>
	<path id="haarschatten_3_" class="st3" d="M186.5,102.1c-1.4-7.4-5.3-14.8-11.5-19.4c-9.1-6.7-15.7-3.1-20.4,4.1
		c20.6-2.2,28.3,11.2,32.4,22.5C187,106.9,186.9,104.4,186.5,102.1z"/>
	<g id="business-3-rrze-expo-Handlinks">
		<g id="business-3-rrze-expo-hauttondaumen">
			<path class="st0" d="M60.1,190.4c0,0-9.2-22.2-8.1-26.1c1.1-3.9-8.1-3.3-8.9,2.3c-0.7,5.6,4.2,12.2,0.1,16.6
				C39.1,187.5,60.1,190.4,60.1,190.4z"/>
		</g>
		<g id="business-3-rrze-expo-hautschatten">
			<path class="st2" d="M52.5,213.6c0,0,9.5-20.7,6.9-24.5c-2.7-3.8-18.4-10.6-27.9-6c-9.5,4.6-4.1,29.9,2.8,33.3
				C41,219.8,48.2,215.4,52.5,213.6z"/>
		</g>
		<g id="business-3-rrze-expo-hautlicht">
			<path class="st0" d="M43.6,217.1c8.2-9.3,14.1-23.2,5.5-33.7c-5.7-1.9-12.6-2.7-17.7-0.3c-9.5,4.6-4.1,29.9,2.8,33.3
				C37.4,218,40.6,217.8,43.6,217.1z"/>
		</g>
	</g>
	<g id="business-3-rrze-expo-guertel">
		<g id="business-3-rrze-expo-guertel_1_">
			<path class="st12" d="M150.7,329.7c-26.5,0-42-5.6-43-5.9l2.5-6.7c0.3,0.1,33.8,12,86.3,0.2l1.6,7
				C179.9,328.3,163.9,329.7,150.7,329.7z"/>
		</g>
		<path id="businesscharakter3-rrze-expo-schnalle" class="st13" d="M151.5,330.9h-17c-0.2,0-0.4-0.2-0.4-0.4v-9c0-0.2,0.2-0.4,0.4-0.4h17c0.2,0,0.4,0.2,0.4,0.4
			v9C151.9,330.7,151.7,330.9,151.5,330.9z"/>
	</g>
	<g id="businesscharakter3-rrze-expo-armrechtsmitbuch">
		<g id="businesscharakter3-rrze-expo-Buch">
			<g id="businesscharakter3-rrze-expo-klappenseite">
				<polygon class="st14" points="217.5,333.3 143.1,322.5 159.6,214 234,224.9 					"/>
			</g>
			<polygon id="ruecken" class="st14" points="240.4,230.7 234,224.9 217.5,333.3 223.9,339.2 				"/>
			<polygon id="seitenfarbe" class="st15" points="238.1,231.6 232.3,226.2 160.6,216.1 144.2,322.7 147,326.3 222.2,337.1 				"/>
			<g id="businesscharakter3-rrze-expo-einband">

					<rect x="153.5" y="224.2" transform="matrix(0.9886 0.1506 -0.1506 0.9886 44.2225 -25.8948)" class="st16" width="79.1" height="109.7"/>
			</g>
			<g id="businesscharakter3-rrze-expo-cover">
				<polygon class="st17" points="221.9,334.7 149.9,320.5 167,221.9 235.2,235.9 					"/>
			</g>
		</g>
		<g id="businesscharakter3-rrze-expo-vorderarmundhandrechts">
			<g id="businesscharakter3-rrze-expo-hauttonhand">
				<path class="st0" d="M187.4,291.5c-0.4-0.6-8.6-2.6-8.6-2.6s-34.9-16-34.5-18.5c0.4-2.5,13.7,2.6,13.7,2.6
					s-16.9-8.7-16.3-11.6c0.6-2.9,17.7,5.3,17.7,5.3s-22-10-19.3-12.5c2.6-2.5,21.8,5.8,21.8,5.8s-26.7-11.6-22.3-14.2
					c4.4-2.6,32.4,12.2,32.4,12.2s-11-21.2-6.1-19.2c4.9,2,28.2,42.1,28.2,42.1S187.8,292.1,187.4,291.5z"/>
			</g>
			<g id="businesscharakter3-rrze-expo-hautschattenrueckhand">
				<path class="st18" d="M163.2,272.7c2-4.5,3.5-9.6,7.4-12.8c0.4-0.3,0.6-0.6,0.8-0.9c2.7-0.8,5.4-1.5,8.2-2
					c7.3,11.4,14.6,23.9,14.6,23.9s-6.3,11.2-6.7,10.6c-0.4-0.6-8.6-2.6-8.6-2.6s-9.6-4.4-18.7-9
					C161.2,277.5,162.2,275.1,163.2,272.7z"/>
			</g>
			<path id="businesscharakter3-rrze-expo-vorderarmrechtshauttonbasis" class="st0" d="M194.1,280.9l61.3,21.9c0,0,9.1,11.6-0.3,22.1
				c-9.4,10.5-67.7-33.4-67.7-33.4L194.1,280.9z"/>
		</g>
	</g>
</g>
</svg>
