<?xml version="1.0" encoding="utf-8"?>
<svg version="1.1" id="Ebene_1" xmlns="http://www.w3.org/2000/svg" xmlns:xlink="http://www.w3.org/1999/xlink" x="0px" y="0px" viewBox="0 0 793.7 1995.6" style="enable-background:new 0 0 793.7 1995.6;" xml:space="preserve">
<style type="text/css">

	#speaker-1-rrze-expo {
	/*Farben*/
	--hautfarbe: #FAB57A;
	--hautschatten: #E78052;

	--jacke: #074727;
	--jackeSchatten: #06381F;

	--haarfarbe: #8A603D;
	--haarschatten: #42210B
	--bartbrauen: #754C29;

	--hose: #313032;
	--schuhe: #231F20;
	}

	#speaker-1-rrze-expo .st0{fill:#313032; fill: var(--hose, #313032);} /*Hose*/
	#speaker-1-rrze-expo .st1{fill:#231F20; fill: var(--schuhe, #231F20);} /*Schuhe*/
	#speaker-1-rrze-expo .st2{fill:#42210B; fill: var(--haarschatten, #42210B);} /*Haarbasis*/
	#speaker-1-rrze-expo .st3{fill:#FAB57A; fill: var(--hautfarbe, #FAB57A);} /*Hautbasis*/
	#speaker-1-rrze-expo .st4{fill:#FCC883;} /*Nicht sichtbar*/
	#speaker-1-rrze-expo .st5{fill:#06381F; fill: var(--jackeSchatten, #06381F);} /*Jackenschatten*/
	#speaker-1-rrze-expo .st6{fill:#E78052; fill: var(--hautschatten, #E78052);} /*Hautschatten*/
	#speaker-1-rrze-expo .st7{fill:#FFFFFF;} /*Mund und Shirt*/
	#speaker-1-rrze-expo .st8{fill:#074727; fill: var(--jacke, #074727);} /*Jackenbasis*/
	#speaker-1-rrze-expo .st10{fill:#666666;} /*Presenter*/
	#speaker-1-rrze-expo .st13{fill:#8A603D; fill: var(--haarfarbe, #8A603D);} /*Haarlicht*/
	#speaker-1-rrze-expo .st14{fill:#754C29; fill: var(--bartbrauen, #754C29);} /*Augenbrauen*/
</style>
<g id="speaker-1-rrze-expo">
	<path class="st0" d="M595.8,1824.7l-95.9,2.2c0,0-23-375-45.8-423.8c-22.8-48.9-68.3-289.8-68.3-289.8l3.4,123l14.3,135.5
		c37.6,160.1-4.7,479.8-4.7,479.8l-97.4-24.7c11.1-60.6-8.2-431.1-11.5-447.5C237.8,1117.7,255.8,929,255.8,929l257.9-13.4
		c28.1,82.2,48,485.2,48,485.2C618.7,1617.5,595.8,1824.7,595.8,1824.7z"/>
	<path class="st1" d="M596.9,1827.6c-4.9-32.8-97.1-25.6-99.1,0.3c-1.9,25.9-8.9,44.3-8.9,59.3c0,15,14.2,34.2,47.9,33.1
		c46.9-1.5,66.6-12.6,66.6-30.9C603.4,1871,601.8,1860.4,596.9,1827.6L596.9,1827.6z"/>
	<path class="st1" d="M302.3,1824c0,0-26.5,16.6-33.8,23c-17.2,15.1-69.5,43.5-77.8,55.6c-16.8,24.7,129.3,7,212.3,1.2
		c4.7-8,2-48.1-4.3-63.4C337.1,1840.3,313.9,1828.4,302.3,1824L302.3,1824z"/>
	<g>
		<path class="st2" d="M498.2,196.1c8,1.2,14.4,7,17,14.6c8.6,25.8,21.9,48.6,29.4,81.7c4.6,20.3-10.9,75.9-6.5,101.4
			c2.9,16.9,8.2,46,15.8,61.4c9.4,19,9.5,41.1,9.3,62.3c-0.1,22.1-0.7,45.6-12.7,64.2c-6.5,10-15.8,17.8-25.2,25.1
			c-20.9,16.4-23.4,31.8-47.7,42.6c-24.3,10.7-51.3,16.6-77.6,13.3c-28.3-3.6-55.1-18-73.6-39.6c-10-11.7-17.9-25.5-30.3-34.7
			c-6.5-4.8-14.4-8.5-18.4-15.5c-6.1-10.6-0.7-24.2,6.7-34c11.8-15.8,2.1-66.6,13.3-82.8c24.6-35.3-22.4-47.1-18-89.9
			c5.7-55.8,14.3-133.9,51.1-176.2c8.7-10,102.2,8.1,115.2,5.7L498.2,196.1z"/>
	</g>
	<path class="st3" d="M571.3,510.9c31.7,86.9,30.9,190.1,34.2,294.4l-49.7-7.7l-38.5-218.8C517.2,578.9,511,505.5,571.3,510.9z"/>
	<path class="st4" d="M566.4,504.8c44.7,18.4,26.5,87.6,41.6,297.9l-54.7-5.5l-38.5-218.8C514.7,578.4,506.1,499.4,566.4,504.8z"/>
	<path class="st5" d="M365.3,432.6c0,0,93.7-1.4,102.2,2.2l0.3,7.1L365,439.7L365.3,432.6z"/>
	<path class="st4" d="M266,491.3c-52.2,10.6-45.4,89.7-104.3,307.8l60.5,4.9l86-222.4C308.2,581.6,332.5,497.4,266,491.3z"/>
	<g>
		<defs>
			<path id="SVGID_1_" d="M382.4,814.1c-39.5-0.3-78.5,0.4-117.4-7.3c-14,100.4-10.5,107.2-10.5,146.4c3.1,0.8,241.7-20.8,260.1-25.4
				c-5-188.5-8.5-30.4-18.9-114.8C460.8,816,417.4,814.4,382.4,814.1z"/>
		</defs>
		<use xlink:href="#SVGID_1_"  style="overflow:visible;fill:#313032;"/>
		<clipPath id="SVGID_00000002381471118404268170000008015886926148644776_">
			<use xlink:href="#SVGID_1_"  style="overflow:visible;"/>
		</clipPath>
	</g>
	<path class="st6" d="M470.7,445.4c-22.7-19.9,1-90.9,1-90.9l-82.4,2.9l-23.5,81.1c0,0-4.7,2.4-11.9,6.1
		c18.1,17.9,29,127.4,34.8,152.1C389.1,596.2,447.4,464,470.7,445.4z"/>
	<rect x="321.1" y="547.9" class="st7" width="131.5" height="313.9"/>
	<path class="st8" d="M528.2,936c-37.8,0.8-68.3-10.6-122.1-2.9c-5.3-30.1-16.1-127.4-17.4-186.6l-5.9,196.9
		c-47.1,5.6-104.9,13.4-139.5,1.3c23.3-90.1,11.3-206.5,17.4-225.3c0,0-10.8-46.8-10-86.7c0.7-40,19.1-73.3,18-100.6
		c-1.8-41.9-0.6-43.4-0.6-43.4c8.3-4.3,64-33,87.3-44.9c1.7,1.2,3.7,2.1,6.3,2.9l22.6,37.7l3.9,227.6C387.5,607,398,509.6,404,486
		l63.3-35.4L459,447c4.9-0.6,8.9-1.1,11.7-1.6c17.3,8.5,84.8,53.1,84.8,53.1s-31.7,253.4-31.7,283.4
		C523.8,799.5,524.7,917.7,528.2,936z"/>
	<path class="st8" d="M467.5,434.7c0,0-43.3,40.3-62.3,50.6c-0.8,0.4-1.2,1.1-1.4,1.9l-5.4,27.2c-1.5,7.6-2.5,15.3-3.2,23.1
		l-0.9,27.6l28.4-79.3c0.4-1.1,1.4-1.8,2.5-1.9l83.2-8.2c2.8-0.3,3.7-3.9,1.3-5.4c-10.4-6.7-29.3-18.9-37.4-24.9
		c-0.4-0.3-0.7-0.7-0.9-1.2L467.5,434.7z"/>
	<path class="st8" d="M384.4,485.8c0-0.9-0.2-1.8-0.7-2.6c-3-5.6-15.5-29.6-18.4-50.6l-3.3,7.1c-4.3,2.9-33.2,16.4-35.4,18.3
		c-7,5.8-6.3,3.6-15.8,12.5l42.4,7.1c0.9,0.2,1.8,0.5,2.5,1.1l28.7,23.1V485.8z"/>
	<path class="st10" d="M375.2,915.7l40.1-18.7c0.7-0.3,0.4-2.6-0.8-5l-47-100.7c-1.1-2.5-2.7-4.2-3.4-3.8L324,806
		c-0.7,0.3-0.4,2.6,0.8,5l47,100.7C372.9,914.3,374.4,916,375.2,915.7z"/>
	<path class="st3" d="M324.2,801.3c1.1-1.3,20.9,0.1,20.9,0.1s88.2-13.7,88.6-20.7c0.5-7-32.4-4.3-32.4-4.3s43.3-9.1,43.5-17.1
		c0.2-8-43-0.2-43-0.2s55.4-8.5,50.8-17.1c-4.6-8.6-52.6-2.3-52.6-2.3s67.2-8.9,58.6-19.2c-8.5-10.2-80.4,5.7-80.4,5.7
		s36.8-46.4,24.7-45.1c-12.1,1.3-87.8,87.2-87.8,87.2S323,802.6,324.2,801.3z"/>
	<path class="st6" d="M389.6,771.8c-1.9-13.2-2.6-27.8-9.4-39.3c-0.6-1.1-1-2.1-1.2-3.1c-5.7-4.2-11.4-8.2-17.3-11.8
		c-23,23.9-46.6,50.7-46.6,50.7s7.9,34.3,9.1,33c1.1-1.3,20.9,0.1,20.9,0.1s24.2-3.8,47.4-8.4C391.6,786,390.6,778.9,389.6,771.8z"/>
	<path class="st3" d="M315.1,768.3L168.3,778c0,0-27.2,23-11.8,57.9c15.4,34.9,167.7-34.5,167.7-34.5L315.1,768.3z"/>
	<path class="st3" d="M409.8,818.5l166.2-49c0,0,39.1,10.6,35.5,49.1c-3.6,38.5-199,34.2-199,34.2L409.8,818.5z"/>
	<path class="st3" d="M342.2,819.9l53.8,49.6l58.7-22.2l-22.4-35.1C401.4,806.3,371.4,809.8,342.2,819.9z"/>
	<path class="st6" d="M322.4,881.3c-24.7-16.1,19.8-61.4,19.8-61.4l53.8,49.6C396,869.6,347.1,897.4,322.4,881.3z"/>
	<path class="st5" d="M310.4,470.5l-1.2,1.5l41.7,6.3c1.3,0.2,2.5,0.7,3.5,1.5l24.3,18.7c0.9,0.7,1.5,1.7,1.6,2.8l5,45.9l-0.8-45.5
		l-5.4-9.1L354.8,476c-1.1-0.7-2.3-1.2-3.6-1.3L310.4,470.5z"/>
	<path class="st5" d="M424.1,487.2l93.2-11.6l-4.7-4.4l-89.8,11.7c-1.5,0.2-2.8,1.3-3.3,2.7l-22.3,72.4L424.1,487.2z"/>
	<path class="st5" d="M268.2,488.6c0,0-26.6,5.5-34.2,22.9c-7.6,17.4-44.7,154.8-43.6,162.4c1.1,7.6-19.6,75.2-24,81.7
		c-4.4,6.5-24,57.8-18.5,67.6s2.2,20.7,15.3,25.1s98.1-8.7,107.9-15.3l-7.2-19.3c-1.8-4.8-2.9-9.8-3.3-14.9
		c-0.7-9.5-1.5-24.3,0.7-25.7c3.3-2.2-26.2,1.1-26.2,1.1l25.8-54.9l9.1-38.8l6.5-168.9L268.2,488.6z"/>
	<path class="st5" d="M545.7,509.4c0.7-4.7,5.5-12.9,9.8-10.9c7.3,3.5,16.1,6.5,25.1,14.2c13.6,11.6,20.7,44.7,20.7,55.6
		c0,10.9,8.7,112.3,6.5,121c-2.2,8.7,2.2,61,2.2,66.5s2.2,28.3,4.4,33.8c2.2,5.4,8.7,27.2,1.1,34.9c-7.6,7.6-16.3,20.7-33.8,22.9
		c-17.4,2.2-50.5,1.5-50.5,1.5s9.1-17.8,5.8-29.8c-3.3-12-21.8-33.8-21.8-33.8l19.6-14.2l-5.3-34.9l-6.3-79.9L545.7,509.4z"/>
	<path class="st6" d="M337.3,301.4c4.9,16.4,0.5,32.2-9.9,35.3c-10.3,3.1-22.7-7.7-27.6-24.2c-4.9-16.4-0.4-32.2,9.9-35.3
		C320.1,274.1,332.5,284.9,337.3,301.4z"/>
	<path class="st6" d="M520.7,309.2c-3.7,16.7-15.3,28.4-25.8,26c-10.5-2.3-16.1-17.8-12.3-34.5c3.7-16.7,15.3-28.4,25.8-26
		C518.9,277,524.5,292.5,520.7,309.2z"/>
	<path class="st3" d="M408.7,175.9c-84.5,0.9-88.8,80.3-89,89.8c0,0.6,0,1.1,0,1.7c0.6,8.8,6.4,90.4,14.7,105.9
		c6.9,12.9,57.2,54.4,77.4,54.4c20.2,0,68.6-43,75.2-56c8-15.7,12-97.4,12.4-106.2c0-0.6,0-1.1,0-1.7
		C499.2,254.2,493.3,174.9,408.7,175.9z"/>
	<path class="st6" d="M499.3,270.9c-20.4-25.4-26.8-55.2-26.8-55.2L333,217c0,0,33.9-40.7,75.8-41.1c84.5-0.9,90.5,78.3,90.9,87.9
		c0,0.6,0,1.1,0,1.7C499.6,266.4,499.5,268.4,499.3,270.9z"/>
	<path class="st1" d="M447.8,290.9c-5.9-0.6-11,5.8-11.4,14.3c-0.4,8.5,4.1,15.8,10,16.4c5.9,0.6,11.1-5.8,11.4-14.3
		C458.2,298.8,453.7,291.5,447.8,290.9z"/>
	<path class="st1" d="M370.3,291.7c-5.9-0.6-11.1,5.8-11.4,14.3c-0.4,8.5,4.1,15.8,10,16.4c5.9,0.6,11-5.8,11.4-14.3
		C380.7,299.7,376.3,292.3,370.3,291.7z"/>
	<path class="st6" d="M408.3,343c-1.4,2.4-1.3,2-0.4,3.7c0.7,1.2,2.3,2.4,3.2,3.4c2.1,2.2-7,1.7-8.6,0c-1.3-1.4-4.6-3.7-5.3-5.6
		c-0.8-2.3,0.8-3.1,2.4-4.5c4.6-4,7.6-8.9,9.1-14.7C409.4,323,413.2,334.9,408.3,343z"/>
	<path class="st7" d="M382.1,365.9c19.1-3.1,38.7-3,58.7,0c0,0-15,25.3-29.2,25.3C397.5,391.2,382.1,365.9,382.1,365.9z"/>
	<path class="st2" d="M400.8,136.1c85-23.3,92.8,44.7,92.8,44.7s13.9,5.1,20,15.3c6.1,10.2,3.2,64.8-13.5,85
		c-12.8-18.1-22.7-71.2-22.7-71.2c-33.9-11.8-135.4-0.3-135.4-0.3s-4.5,55.9-22.3,69C299.8,216,323.9,157.2,400.8,136.1z"/>
	<path class="st13" d="M483.4,155.1c-11.3-16.3-34.7-32.1-82.5-19c-44.3,12.1-71,36.7-82,67.3c12.1-19.3,28.2-35.7,48.5-46.8
		c12.5-6.8,26.2-11.4,40.2-13.8C411.1,142.2,449.8,135.8,483.4,155.1z"/>
	<path class="st14" d="M425.9,260.9c0.5-0.1,1.1-0.2,1.6-0.3c32.9-7.1,49.7,10.2,49.2,9.4c1.6,1.3,3.8,2.3,5,2.3
		c1.3-0.1,1.2-1.4-0.3-2.8c0,0.8-11.3-25.8-50.7-18.5C428.2,251.6,423.9,261.2,425.9,260.9z"/>
	<path class="st14" d="M391.5,268.8c-0.5-0.1-1-0.2-1.5-0.3c-29.4-7.6-47.5,8-47,7.4c-1.6,1.2-3.9,2.1-5.2,1.9
		c-1.3-0.2-1.1-1.4,0.5-2.8c-0.2,0.5,14.6-24.1,50.2-15.8C391,259.9,393.3,269.1,391.5,268.8z"/>
</g>
</svg>
