<?xml version="1.0" encoding="utf-8"?>
<svg version="1.1" id="Speaker_3" xmlns="http://www.w3.org/2000/svg" xmlns:xlink="http://www.w3.org/1999/xlink" x="0px"
	 y="0px"
	 viewBox="0 0 793.7 1995.6" style="enable-background:new 0 0 793.7 1995.6;" xml:space="preserve">
<style type="text/css">
	#speaker-3-rrze-expo{
	/*Farben*/
	--hautfarbe: #FBBE7D;
	--hautschatten: #E78052;

	--hemd: #E5E6E8;
	--hemdschatten: #9490A7;

	--haarfarbe: #1A1A1A;
	--augenbrauen: #754C29;

	--hose: #313032;
	--schuhe: #231F20;

	--pullover: #1A2F53;
	--pulloverschatten: #1E3761;
	}

	#speaker-3-rrze-expo .st0{fill:#1E3761; fill: var(--pulloverschatten, #1E3761);} /*pulloverschatten*/
	#speaker-3-rrze-expo .aermel {fill:#1E3761; fill: var(--pulloverschatten, #1E3761);}
	#speaker-3-rrze-expo .st1{fill:#313032; fill: var(--hose, #313032);} /*hose*/
	#speaker-3-rrze-expo .hose {fill:#313032; fill: var(--hose, #313032);}
	#speaker-3-rrze-expo .st2{fill:#9490A7; fill: var(--hemdschatten, #9490A7);} /*hemdschatten*/
	#speaker-3-rrze-expo .hemdschatten {fill:#9490A7; fill: var(--hemdschatten, #9490A7);}
	#speaker-3-rrze-expo .st3{fill:#FBBE7D; fill: var(--hautfarbe, #FBBE7D);} /*haut*/
	#speaker-3-rrze-expo .hals {fill:#FBBE7D; fill: var(--hautfarbe, #FBBE7D);}
	#speaker-3-rrze-expo .gesicht {fill:#FBBE7D; fill: var(--hautfarbe, #FBBE7D);}
	#speaker-3-rrze-expo .haende {fill:#FBBE7D; fill: var(--hautfarbe, #FBBE7D);}
	#speaker-3-rrze-expo .arme {fill:#FBBE7D; fill: var(--hautfarbe, #FBBE7D);}
	#speaker-3-rrze-expo .st4{fill:#E78052; fill: var(--hautschatten, #E78052);} /*hautschatten und mundraum*/
	#speaker-3-rrze-expo .halsschatten {fill:#E78052; fill: var(--hautschatten, #E78052);}
	#speaker-3-rrze-expo .ohren {fill:#E78052; fill: var(--hautschatten, #E78052);}
	#speaker-3-rrze-expo .stirnschatten {fill:#E78052; fill: var(--hautschatten, #E78052);}
	#speaker-3-rrze-expo .nase {fill:#E78052; fill: var(--hautschatten, #E78052);}
	#speaker-3-rrze-expo .mund {fill:#E78052; fill: var(--hautschatten, #E78052);}
	#speaker-3-rrze-expo .st5{fill:#E5E6E8; fill: var(--hemd, #E5E6E8);} /*hemdbasis*/
	#speaker-3-rrze-expo .hemd {fill:#E5E6E8; fill: var(--hemd, #E5E6E8);}

	#speaker-3-rrze-expo .st7{fill:#F1F1F1;} /*nicht sichtbar*/
	#speaker-3-rrze-expo .st8{fill:#231F20; fill: var(--schuhe, #231F20);} /*schuhe*/
	#speaker-3-rrze-expo .augen{fill:#231F20; fill: var(--schuhe, #231F20);} /*schuhe*/
	#speaker-3-rrze-expo .schuhe {fill:#231F20; fill: var(--schuhe, #231F20);}
	#speaker-3-rrze-expo .st9{fill:#1A2F53; fill: var(--pullover, #1A2F53);} /*pullover*/
	#speaker-3-rrze-expo .pullover {fill:#1A2F53; fill: var(--pullover, #1A2F53);}

	#speaker-3-rrze-expo .st11{fill:#1A1A1A; fill: var(--haarfarbe, #1A1A1A);} /*haar*/
	#speaker-3-rrze-expo .haare {fill:#1A1A1A; fill: var(--haarfarbe, #1A1A1A);}
	#speaker-3-rrze-expo .zaehne {fill:#FFFFFF;}
	#speaker-3-rrze-expo .tablet {fill:#C6C6C6;}
	#speaker-3-rrze-expo .augenbrauen {fill:#754C29; fill: var(--augenbrauen, #754C29);}
</style>
	<g id="speaker-3-rrze-expo">
		<path class="aermel aermel-links aermel-oben" d="M116.9,825.3C131,706.6,162,569.8,213.9,518c25.5,35.7,40.3,68.6,37.9,153.7l-46.3,128.4
			C166.5,839.6,141.5,870,116.9,825.3z"/>
		<path class="aermel aermel-links aermel-unten" d="M197.8,784.3l86.8,147.5l-26.4,92.2c-46.5-44.5-115-145.5-133.3-183.3C104.8,799.7,197.8,784.3,197.8,784.3z"/>
		<path class="hose" d="M251.5,920.4c0,0-13.3,245.7,36.8,504.8c3.1,16.2,21.1,342.4,10.4,402.3h93.9c0,0,40.7-251.3,4.7-409.9
	l-13.8-182.2L367.8,1116c0,0,56.2,284.2,78.1,332.5c21.9,48.3,44.7,382.5,44.7,382.5l89.9,0.3c0,0,23.5-218.5-31.3-433
	c0,0-29.4-397.1-45.1-472.5L251.5,920.4z"/>
		<polygon class="hemdschatten kragen-hinten"
				 points="472.4,421.1 427.6,416.5 373.8,425.2 347.5,440.8 351,474.3 385.7,452.9 429.6,445.7 484.7,454.9 "/>
		<path class="hals" d="M456.2,377.2c0,0,0,80.9,16.2,114.4c16.2,33.5-106.3,70.5-106.3,70.5s-52-33.5-30-64.7
	c22-31.2,26.6-93.6,26.6-93.6L456.2,377.2z"/>
		<path class="halsschatten" d="M371.9,445.8c-5.1-4.1-9-9.1-13.1-14c2.8-16,3.7-27.9,3.7-27.9l93.6-26.6c0,0,0,5.7,0.3,14.7
	c-11.1,21.5-22.7,42.9-37.6,61.8C403.3,456.6,384.7,456,371.9,445.8z"/>
		<path class="hemd" d="M216.8,515.9c5.8-5.3,123.8-60.1,123.8-60.1l20.8,75.1l114.4-82c0,0,117.1,70.3,124.2,77.4
	c4.5,4.5-31,99.8-57,168.5c-14.8,39.1-13.4,29-26.7,69.6c-13.3,40.5-9.2,141.1-9.2,141.1l-196,30L254.5,925l-9.2-74l-14.4-251.9
	C230.8,599.1,211.1,521.3,216.8,515.9L216.8,515.9z"/>
		<path class="hemdschatten kragen-vorne" d="M366.4,567.3"/>
		<path class="hemdschatten kragen-vorne" d="M398.6,509.5l23.8,12.4c0,0,60.9-58.6,67.8-63.9c-14.3-8.7-14.5-9.2-14.5-9.2"/>
		<path class="hemdschatten kragen-vorne" d="M386.8,474.3l-2.8,41c41.9-3.1,100.1-61.4,100.1-61.4l-11.8-32.8L386.8,474.3z"/>
		<path class="schuhe schuh-rechts" d="M583,1815.2c-4.7-31.5-93.2-24.5-95.1,0.3c-1.9,24.8-13.8,36-13.8,50.4c0,14.4-1.7,38.3,51.3,38.3
	c53,0,64.9-20.8,64.9-38.3C590.3,1848.3,587.7,1846.7,583,1815.2L583,1815.2z"/>
		<path class="schuhe schuh-rechts" d="M474.6,1877.3c1.8,13,10.4,26.9,50.8,26.9c46.7,0,61.5-16.1,64.4-31.9C555.4,1894.9,503.8,1903.8,474.6,1877.3
	L474.6,1877.3z"/>
		<path class="pullover" d="M546,753.9l-38.3,172.7c-0.4,1.7-1.7,3-3.4,3.2c-37.4,4.3-101.1,11-117.1,12.7c0,0-26.8,2.7-26.9,2.7
	c-62.7,11-110.5-1.1-110.5-1.1c-18-223-27.2-335.7-27.2-335.7c-6.5-47.8-8.5-91.3-8.5-91.3c18.7-13.8,122.6-59.4,122.6-59.4l25,72.8
	c39.8-37.4,122.5-76.5,122.5-76.5c45.5,26.8,89.6,52.1,118,72.2C617.6,565.2,546,753.9,546,753.9z"/>
		<path class="hemd kragen-rechts" d="M472.4,421.1l-85.5,53.2c0,0,8,33.3,34.7,42.8l62.7-63.1L472.4,421.1z"/>
		<path class="hemdschatten kragen-links" d="M350.3,467c0,0-10.4,38.7-42,46.5l20.8-55.5l18.5-17.3L350.3,467z"/>
		<path class="hemd kragen-links" d="M329.1,458.1l24.8,45.6c0,0-6.7-21.2-7.8-34.1c-1.1-12.9,1.4-28.9,1.4-28.9L329.1,458.1z"/>
		<path class="schuhe schuh-links" d="M300.2,1811.8c0,0-23.2,20.8-32.4,22c-9.2,1.3-74.7,2.9-74.7,53.4c22,18.4,124.1,6.7,203.8,1.1
	c4.5-7.7,2-46.2-4.2-60.9C333.5,1827.5,311.3,1816,300.2,1811.8L300.2,1811.8z"/>
		<path class="schuhe schuh-links" d="M295.7,1883.9c-32,4.4-70.9,6.5-101-8.9c-0.9,3.7-1.6,7.7-1.6,12.2c22,18.4,124.1,6.7,203.8,1.1
	c1.3-2.3,2-7.4,2.2-13.7C364.7,1875.3,330.5,1879.2,295.7,1883.9L295.7,1883.9z"/>
		<path class="ohren ohr-rechts" d="M471.2,309.2c-3.6,16.8,2.1,32.2,12.7,34.5c10.6,2.3,22.1-9.5,25.7-26.3c3.6-16.8-2.1-32.2-12.7-34.5
	C486.3,280.7,474.8,292.5,471.2,309.2L471.2,309.2z"/>
		<path class="ohren ohr-links" d="M287.7,317.3c3.5,16.8,14.9,28.6,25.5,26.4c10.6-2.2,16.3-17.6,12.8-34.4c-3.5-16.8-14.9-28.7-25.5-26.4
	C289.9,285.1,284.1,300.5,287.7,317.3L287.7,317.3z"/>
		<path class="gesicht" d="M398.6,182.9c84.8,0,89.9,79.5,90.2,89.1c0,0.6,0,1.1,0,1.7c-0.5,8.9-5.5,90.7-13.6,106.4
	c-6.8,13-57.9,55.4-62.7,55.4h-4.1h-19.5h-4.1c-4.8,0-55.9-42.4-62.7-55.4c-8.2-15.6-13.1-97.5-13.6-106.4c0-0.6,0-1.1,0-1.7
	C308.7,262.4,313.9,182.9,398.6,182.9L398.6,182.9z"/>
		<path class="stirnschatten" d="M473.6,253.3c-5.2-4.9-8-10.8-12.1-16.5c-4.7-6.5-11.2-10.8-19.3-11.2c-8.5-0.4-16.6,2.7-24.7,4.8
	c-13.7,3.6-28,4.9-42,5.6c-7.1,0.4-14.2,0.6-21.3,0.8c-4.5,0.1-9.5-0.3-13.9,0.9c-4.7,1.2-7.4,5.9-9.9,9.7c-1.6,2.4-1.2,3.7-4.8,6.1
	c-1,0.7-2,0.8-3,1.7c-2.5,2.2-4.4,7-5.8,9.9c-3.3,7.2-5.6,14.9-7.5,22.7c-0.5-7.1-0.8-12.3-0.9-14.1c0-0.6,0-1.1,0-1.7
	c0.3-9.6,5.4-89.1,90.2-89.1c71.9,0,86.5,57.2,89.4,80.4C482.8,260.7,477.9,257.4,473.6,253.3z"/>
		<path class="augen auge-rechts" d="M438.3,289.2c-5.9-0.7-11.1,5.7-11.6,14.2c-0.5,8.5,3.9,15.9,9.9,16.6c5.9,0.7,11.1-5.7,11.6-14.2
	C448.7,297.3,444.2,289.9,438.3,289.2L438.3,289.2z"/>
		<path class="augen auge-links" d="M360.7,289.2c-5.9-0.7-11.1,5.7-11.6,14.2c-0.5,8.5,3.9,15.9,9.9,16.6c5.9,0.7,11.1-5.7,11.6-14.2
	C371,297.3,366.6,289.9,360.7,289.2L360.7,289.2z"/>
		<path class="augenbrauen augenbraue-links" d="M327.7,267.6c1.4-0.7,24.9-14.1,56.4-5.9c2.2,0.6,4.4,12.2,2.7,12.3c-0.5,0-1,0-1.5-0.1
	c-29.2-7.1-52.6,0.6-53.1,0.8c-2.4,0.9-5.5,0-6.7-2C324.2,270.7,325.3,268.4,327.7,267.6L327.7,267.6z"/>
		<path class="augenbrauen augenbraue-rechts" d="M469.5,265.3c-1.4-0.7-24.9-14.1-56.4-5.9c-2.2,0.6-4.4,12.2-2.7,12.3c0.5,0,1,0,1.5-0.1
	c29.2-7.1,52.6,0.6,53.1,0.8c2.4,0.9,5.5,0,6.7-2C473,268.5,471.9,266.2,469.5,265.3L469.5,265.3z"/>
		<path class="nase" d="M397.3,334.8c-1.5,3.5-1.4,2.8-0.3,5.5c0.7,1.9,2.4,3.7,3.5,5.2c2.3,3.4-7.4,2.3-9.1-0.3
	c-1.4-2.2-4.9-5.7-5.6-8.6c-0.9-3.4,0.8-4.6,2.5-6.6c4.8-5.7,7.9-12.8,9.3-21.4C398.1,305.3,402.3,323.1,397.3,334.8L397.3,334.8z"
		/>
		<path class="mund"
			  d="M366.1,368.3c0,0,17.9,28.7,34.3,28.7c16.4,0,33.8-28.7,33.8-28.7C411,364.9,388.3,364.8,366.1,368.3z"/>
		<path class="zaehne" d="M428.3,376.8c3.7-4.8,6-8.5,6-8.5c-23.3-3.4-46-3.5-68.1,0c0,0,2.2,3.4,5.6,7.9
	C390.5,379,409.5,379.1,428.3,376.8z"/>
		<path class="haare haare-rechts" d="M447.8,209.6c0,0,27.1,15.5,23.2,32.9l10.6,10.6l5.8,30.9c0,0,26.1-61.9,21.3-76.4
	c-4.8-14.5-41.4-39.5-41.4-39.5L447.8,209.6z"/>
		<path class="haare haare-links" d="M347.9,212.5c0,0-27.1,15.5-23.2,32.9L314,256l-5.8,30.9c0,0-26.1-61.9-21.3-76.4
	c4.8-14.5,41.4-39.5,41.4-39.5L347.9,212.5z"/>
		<path class="haare haare-oben" d="M311.5,144.6c-11.6-19.8,10.7-30.3,10.7-30.3c6.9,4.5,20.9-1.4,53.3,0.2c33.1,1.6,96.7,14.5,104.2,57.9
	c12.9,74.1-166.4,50.7-166.4,50.7c-12.8-21.7-14.6-39.7-9.1-54C298.4,154.1,305.7,142.6,311.5,144.6z"/>
		<path class="tablet" d="M457.5,1227.3l251.8-117.5c4.5-2.1,6.4-7.4,4.3-11.9L628,914.5c-2.1-4.5-7.4-6.4-11.9-4.3l-251.8,117.5
	c-4.5,2.1-6.4,7.4-4.3,11.9l85.6,183.5C447.7,1227.5,453,1229.4,457.5,1227.3z"/>
		<path class="haende hand-rechts" d="M612.5,1069l13.2,73.1c0,0-8.4,45.1-27,34.8c0,0-12.2,23.8-24.5,14.8c0,0-18,22.5-23.8,5.8
	c0,0-9.7,20.6-16.7,13.5c-7.1-7.1,7.1-50.2,7.1-50.2c-1.3,3.2-23.2,7.1-18.7-0.6c4.5-7.7,6.4-23.2,6.4-51.5
	c0-28.3,24.2-53.4,24.2-53.4L612.5,1069z"/>
		<path class="arme arm-rechts" d="M602.5,526.7c37.1,21.6,39.8,262.6,36.5,301.6c-3.2,39-26.8,241.1-26.8,241.1c-19.3,5.2-39.3-0.2-59.8-14.3
	c10.8-86.6-7.9-145.1,15.8-221c-16.8-59.8-13.9-91.6-29.5-130.5C538.9,703.7,565.5,505.1,602.5,526.7z"/>
		<path class="hemd manschette" d="M547,1044l-1,12.6c0,0,62.8,22,71.2,17.8l-2.1-20.9L547,1044z"/>
		<path class="pullover aermel-rechts" d="M602.5,526.7c37.1,21.6,39.8,262.6,36.5,301.6c-3.2,39-16.3,237.8-16.3,237.8c-19.3,5.2-59.6-4.7-80.1-18.8
	c-1.2-88.3,7.1-208.4,7.1-208.4s-9.4-90.7-10.9-135.2C538.9,703.7,565.5,505.1,602.5,526.7z"/>
		<path class="pullover kragen" d="M398.8,515.1c-13.3-6.8-33.4,7.1-42.2-2.4c-2-2.2-2.6-4.8-5.2-5.2c-4.8-0.9-11.4,6.4-13.3,13.3
	c-3.2,11.9,7,25.9,17.4,32.8c17,11.2,45.9,11.2,53.7-3.8C414.9,538.8,409.4,520.6,398.8,515.1z"/>
	</g>
</svg>
