<?xml version="1.0" encoding="utf-8"?>
<!-- Generator: Adobe Illustrator 25.3.1, SVG Export Plug-In . SVG Version: 6.00 Build 0)  -->
<svg version="1.1" id="Ebene_1" xmlns="http://www.w3.org/2000/svg" xmlns:xlink="http://www.w3.org/1999/xlink" x="0px"
	 y="0px"
	 viewBox="0 0 280 704" style="enable-background:new 0 0 280 704;" xml:space="preserve">
	<style type="text/css">
		#speaker-6-rrze-expo{
		/*Farben*/
		--haarfarbe: #B5441B;
		--haarschatten: #792D12;

		--pullover: #1E3761;
		--pulloverschatten: #1A2F53;

		--hose: #313032;

		--hemd: #E5E6E8;
		--hemdschatten: #9490A7;

		--hautschatten: #E78052;
		--hautfarbe: #FAB57A;
		}

		#speaker-6-rrze-expo .st0{fill:#792D12; fill: var(--haarschatten, #792D12);} /*haarschatten*/
		#speaker-6-rrze-expo .st1{fill:#1E3761; fill: var(--pullover, #1E3761);} /*pullovernuance*/
		#speaker-6-rrze-expo .st2{fill:#313032; fill: var(--hose, #313032);} /*hose*/
		#speaker-6-rrze-expo .st3{fill:#9490A7; fill: var(--hemdschatten, #9490A7);} /*hemdschatten*/
		#speaker-6-rrze-expo .st4{fill:#E78052; fill: var(--hautschatten, #E78052);} /*hautschatten*/
		#speaker-6-rrze-expo .st5{fill:#E5E6E8; fill: var(--hemd, #E5E6E8);} /*hemd*/
		#speaker-6-rrze-expo .st7{fill:#F1F1F1;} /*nicht sichtbar*/
		#speaker-6-rrze-expo .st8{fill:#231F20;} /*schuhe und augen*/
		#speaker-6-rrze-expo .st9{fill:#1A2F53; fill: var(--pulloverschatten, #1A2F53);} /*pullover*/
		#speaker-6-rrze-expo .st10{fill:#C6C6C6;} /*tablet*/
		#speaker-6-rrze-expo .st11{fill:#FAB57A; fill: var(--hautfarbe, #FAB57A);} /*haut*/
		#speaker-6-rrze-expo .st12{fill:#B5441B; fill: var(--haarfarbe, #B5441B);} /*haar*/
		#speaker-4-rrze-expo .st13{fill:#754C29; fill: var(--bartbrauen, #754C29);}

	</style>
	<g id="speaker-6-rrze-expo">
		<path class="st0" d="M113.5,82.8c-28.9,11.5-21.3,60.7-21.3,60.7c-6.4,66.1,1.1,107.6,24.1,110.6c33.5,4.4,56.5,0.5,65.2-40.8
	c8.6-41.3-3.8-57.8-3.8-57.8S164.4,62.5,113.5,82.8z"/>
		<path class="st1" d="M38.6,310.6c4.2-41.5,16.1-88.7,29.2-107.4c7.7,12.5,11,22.7,10.3,52.4l-12.8,46.2
	C53.5,315.6,46,326.3,38.6,310.6z"/>
		<path class="st1" d="M63.8,298l30.7,48.8L87,376.2c-16-15-39.9-48.5-46.5-61C33.3,301.7,63.8,298,63.8,298z"/>
		<path class="st2" d="M80,344.8c0,0-4.7,69.1,12.9,159.7c1.1,5.7,7.4,129,3.7,150h32.8c0,0,14.2-97.2,1.6-152.6l-4.8-46.9l-5.5-41.7
	c0,0,19.6,82.5,27.3,99.4c7.7,16.9,15.6,143,15.6,143l31.4,0.1c0,0,8.2-68.9-10.9-143.9c0,0-10.3-138.8-15.8-165.1L80,344.8z"/>
		<polygon class="st3"
				 points="157.2,170.3 141.6,168.7 122.8,171.7 113.6,177.2 114.8,188.9 126.9,181.4 142.3,178.9 161.5,182.1 "/>
		<path class="st4" d="M151.6,154.9c0,0,0,28.3,5.7,40c5.7,11.7-37.2,24.6-37.2,24.6s-18.2-11.7-10.5-22.6c7.7-10.9,9.3-32.7,9.3-32.7
	L151.6,154.9z"/>
		<path class="st5" d="M67.9,203.4c2-1.9,42-21,42-21l7.1,26.3l38.8-28.7c0,0,39.7,24.6,42.1,27.1c1.5,1.6-10.5,34.9-19.4,58.9
	c-5,13.7-4.6,10.2-9.1,24.3c-4.5,14.2-3.1,49.3-3.1,49.3l-66.5,10.5l-19.2-3.6l-3.1-25.9l-4.9-88.1
	C72.6,232.5,65.9,205.3,67.9,203.4L67.9,203.4z"/>
		<path class="st3" d="M120.2,221.4"/>
		<path class="st3" d="M131.4,201.2l8.3,4.3c0,0,21.3-20.5,23.7-22.3c-5-3-5.1-3.2-5.1-3.2"/>
		<path class="st3" d="M127.3,188.9l-1,14.3c14.6-1.1,35-21.5,35-21.5l-4.1-11.5L127.3,188.9z"/>
		<path class="st7" d="M111.9,330.3c1.1,0,2,0.9,2,2c0,1.1-0.9,2-2,2c-1.1,0-2-0.9-2-2C109.9,331.2,110.8,330.3,111.9,330.3
	L111.9,330.3z"/>
		<path class="st8" d="M195.9,650.1c-1.6-11-32.6-8.6-33.2,0.1c-0.7,8.7-4.8,12.6-4.8,17.6c0,5-0.6,13.4,17.9,13.4
	c18.5,0,22.7-7.3,22.7-13.4C198.4,661.7,197.6,661.2,195.9,650.1L195.9,650.1z"/>
		<path class="st8"
			  d="M158,671.9c0.6,4.5,3.6,9.4,17.7,9.4c16.3,0,21.5-5.6,22.5-11.2C186.3,678,168.2,681.1,158,671.9L158,671.9z"/>
		<path class="st9" d="M179.3,286.6L166.4,347c-0.1,0.6-0.6,1-1.2,1.1c-12.6,1.5-34.2,3.9-39.6,4.4c0,0-9.1,0.9-9.1,0.9
	c-21.2,3.9-37.4-0.4-37.4-0.4c-6.1-77.9-9.2-117.4-9.2-117.4c-2.2-16.7-2.9-31.9-2.9-31.9c6.3-4.8,41.5-20.8,41.5-20.8l8.4,25.5
	c13.4-13.1,41.4-26.7,41.4-26.7c15.4,9.4,30.3,18.2,39.9,25.2C203.5,220.7,179.3,286.6,179.3,286.6z"/>
		<path class="st5" d="M157.2,170.3l-29.9,18.6c0,0,2.8,11.6,12.1,14.9l21.9-22.1L157.2,170.3z"/>
		<path class="st3" d="M114.5,186.4c0,0-3.6,13.5-14.7,16.3l7.3-19.4l6.5-6.1L114.5,186.4z"/>
		<path class="st5" d="M107.1,183.2l8.7,16c0,0-2.3-7.4-2.7-11.9c-0.4-4.5,0.5-10.1,0.5-10.1L107.1,183.2z"/>
		<path class="st8" d="M97,649c0,0-8.1,7.3-11.3,7.7c-3.2,0.4-26.1,1-26.1,18.7c7.7,6.4,43.4,2.3,71.2,0.4c1.6-2.7,0.7-16.2-1.5-21.3
	C108.7,654.4,100.9,650.4,97,649L97,649z"/>
		<path class="st8" d="M95.5,674.2c-11.2,1.5-24.8,2.3-35.3-3.1c-0.3,1.3-0.6,2.7-0.6,4.3c7.7,6.4,43.4,2.3,71.2,0.4
	c0.5-0.8,0.7-2.6,0.8-4.8C119.6,671.1,107.6,672.5,95.5,674.2L95.5,674.2z"/>
		<path class="st10" d="M152,452.1l88-41.1c1.6-0.7,2.2-2.6,1.5-4.2l-29.9-64.1c-0.7-1.6-2.6-2.2-4.2-1.5l-88,41.1
	c-1.6,0.7-2.2,2.6-1.5,4.2l29.9,64.1C148.6,452.2,150.5,452.9,152,452.1z"/>
		<path class="st11" d="M200.6,395.8l4.1,25.5c0,0-2.6,15.8-8.5,12.2c0,0-3.8,8.3-7.7,5.2c0,0-5.7,7.9-7.5,2c0,0-3,7.2-5.3,4.7
	c-2.2-2.5,2.2-17.6,2.2-17.6c-0.4,1.1-7.3,2.5-5.9-0.2c1.4-2.7,2-8.1,2-18c0-9.9,7.6-18.7,7.6-18.7L200.6,395.8z"/>
		<path class="st11" d="M197.5,206.3c11.7,7.6,12.5,91.8,11.5,105.4c-1,13.6-8.4,84.3-8.4,84.3c-6.1,1.8-12.4-0.1-18.8-5
	c3.4-30.3-2.5-50.7,5-77.2c-5.3-20.9-4.4-32-9.3-45.6C177.5,268.1,185.9,198.7,197.5,206.3z"/>
		<path class="st5" d="M180,387.1l-0.3,4.4c0,0,19.7,7.7,22.4,6.2l-0.7-7.3L180,387.1z"/>
		<path class="st9" d="M197.5,206.3c11.7,7.6,12.5,91.8,11.5,105.4c-1,13.6-5.1,83.1-5.1,83.1c-6.1,1.8-18.7-1.6-25.2-6.6
	c1.8-31.5,2.2-72.8,2.2-72.8s-3-31.7-3.4-47.3C177.5,268.1,185.9,198.7,197.5,206.3z"/>
		<path class="st9" d="M131.5,203.2c-4.6-2.4-11.7,2.5-14.8-0.9c-0.7-0.8-0.9-1.7-1.8-1.8c-1.7-0.3-4,2.2-4.6,4.6
	c-1.1,4.2,2.4,9.1,6.1,11.5c5.9,3.9,16,3.9,18.8-1.3C137.1,211.4,135.2,205.1,131.5,203.2z"/>
		<path class="st12" d="M174.3,140c-7.1,10.9-6.4,23.7-4.2,34.6c2.1,10.3,7.1,19.8,13.2,28.5c4.8-33.9-5.6-47.8-5.6-47.8
	S177.1,152.4,174.3,140z"/>
		<path class="st4" d="M107,132.6c1.6,5.5,0.1,10.7-3.3,11.7c-3.4,1-7.6-2.6-9.2-8c-1.6-5.5-0.1-10.7,3.3-11.7
	C101.3,123.5,105.4,127.1,107,132.6z"/>
		<path class="st4" d="M168.1,135.2c-1.2,5.6-5.1,9.4-8.6,8.7c-3.5-0.8-5.3-5.9-4.1-11.5c1.2-5.6,5.1-9.4,8.6-8.7
	C167.5,124.5,169.3,129.6,168.1,135.2z"/>
		<path class="st11" d="M130.8,90.8c-28.1,0.3-29.5,26.7-29.6,29.9c0,0.2,0,0.4,0,0.6c0.2,2.9,2.1,30.1,4.9,35.3
	c2.3,4.3,19,18.1,25.8,18.1c6.7,0,22.8-14.3,25-18.6c2.7-5.2,4-32.4,4.1-35.3c0-0.2,0-0.4,0-0.6C160.9,116.9,158.9,90.5,130.8,90.8z
	"/>
		<path class="st4" d="M102.7,138.2c0.1-0.2,0.1-0.3,0.2-0.5c1.7-4.4,1.6-9.3,2.6-13.9c1.2-5.3,3.5-10.8,6.7-15.2
	c5.6-7.5,15.7-8.9,23.7-4.2c9,5.3,12.3,16.5,16.8,25.2c1.9,3.6,4.3,6.7,7,9.3c0.8-8.3,1.2-16.8,1.3-18.4c0-0.2,0-0.4,0-0.6
	c-0.1-3.2-2.1-29.6-30.2-29.3c-28.1,0.3-29.5,26.7-29.6,29.9c0,0.2,0,0.4,0,0.6C101.3,122.8,101.8,130.4,102.7,138.2z"/>
		<path class="st8" d="M143.8,129.1c-2-0.2-3.7,1.9-3.8,4.7c-0.1,2.8,1.4,5.3,3.3,5.5c2,0.2,3.7-1.9,3.8-4.7
	C147.2,131.7,145.7,129.3,143.8,129.1z"/>
		<path class="st8" d="M118,129.4c-2-0.2-3.7,1.9-3.8,4.7c-0.1,2.8,1.4,5.3,3.3,5.5c2,0.2,3.7-1.9,3.8-4.7
	C121.5,132,120,129.6,118,129.4z"/>
		<path class="st4" d="M130.6,146.4c-0.5,0.8-0.4,0.6-0.1,1.2c0.2,0.4,0.8,0.8,1.1,1.1c0.7,0.7-2.3,0.6-2.9,0
	c-0.4-0.5-1.5-1.2-1.7-1.9c-0.3-0.8,0.3-1,0.8-1.5c1.5-1.3,2.5-3,3-4.9C131,139.8,132.3,143.8,130.6,146.4z"/>
		<path class="st4" d="M121.6,154.7c6-0.3,12.1-0.3,18.4,0c0,0-4.7,2.3-9.1,2.3C126.4,156.9,121.6,154.7,121.6,154.7z"/>
		<path class="st13" d="M136.7,121.6c11-2.4,16.9,2.4,16.8,2.1c0.5,0.4,1.3,0.8,1.7,0.7c0.4,0,0.4-0.5-0.1-0.9c0,0.3-4.9-7.1-18-4.7
	C136.2,119,136.6,121.7,136.7,121.6z"/>
		<path class="st13" d="M125.4,124c-9.8-2.5-16.6,1.8-16.4,1.6c-0.5,0.4-1.3,0.7-1.7,0.6c-0.4-0.1-0.4-0.5,0.2-0.9
	c-0.1,0.2,5.6-6.6,17.4-3.9C125.7,121.7,125.6,124.1,125.4,124z"/>
		<path class="st0" d="M103,112c0,0,1.5,43.1-11.6,61.4C91.4,173.4,90.7,116.7,103,112z"/>
		<path class="st12" d="M127.9,98c0,0-16.9-0.7-26.5,26.8c0,0-4.7,13.3-9.2,18.4c-5.5-9.7-7.8-46.9,15.9-56.9
	C130.4,76.9,127.9,98,127.9,98z"/>
		<path class="st0" d="M121.4,84c-2.4,3.1-4.6,6.4-5,10.3c-0.3,2.8,0.9,4.8,2.6,6.4c5.1-2.8,8.9-2.7,8.9-2.7S129,86.5,121.4,84z"/>
		<path class="st12" d="M121.5,99.3c28-3.7,30.9,23.5,34.4,31.7c3.4,7.9,14,21.3,21.8,24.1c0,0-2.6-33.5-5.9-46.2S149.2,71.4,127,80
	C120.1,85.7,116.1,94.4,121.5,99.3z"/>
		<path class="st0" d="M151.8,113.3c-1.3-6.8-4.9-13.7-10.5-17.9c-8.3-6.2-14.4-2.8-18.8,3.8c18.9-2,26,10.3,29.8,20.7
	C152.3,117.8,152.2,115.6,151.8,113.3z"/>
	</g>
</svg>
