<?xml version="1.0" encoding="utf-8"?>
<svg version="1.1" id="Ebene_1" xmlns="http://www.w3.org/2000/svg" xmlns:xlink="http://www.w3.org/1999/xlink" x="0px" y="0px"
	 viewBox="0 0 793.7 1995.6" style="enable-background:new 0 0 793.7 1995.6;" xml:space="preserve">
	<style type="text/css">

		#speaker-2-rrze-expo{
		/*Farben*/
		--hautfarbe: #FAB57A;
		--hautschatten: #E78052;
		/*Steuert Farbe des Kleids und Schuhe*/
		--jacke: #333333;
		--jackeSchatten: #2E2E2E;

		--haarfarbe: #B5441B;
		--haarschatten: #792D12;
		--augenbrauen: #754C29;
		}

		#speaker-2-rrze-expo .gesicht {fill:#FAB57A; fill: var(--hautfarbe, #FAB57A);}
		#speaker-2-rrze-expo .haende {fill:#FAB57A; fill: var(--hautfarbe, #FAB57A);}
		#speaker-2-rrze-expo .arme{fill:#FAB57A; fill: var(--hautfarbe, #FAB57A);}
		#speaker-2-rrze-expo .beine {fill:#FAB57A; fill: var(--hautfarbe, #FAB57A);}
		#speaker-2-rrze-expo .st1{fill:#792D12; fill: var(--haarschatten, #792D12);} /*Haarschatten*/
		#speaker-2-rrze-expo .haare {fill:#792D12; fill: var(--haarschatten, #792D12);}
		#speaker-2-rrze-expo .st2{fill:#333333; fill: var(--jacke, #333333);} /*Kleidbasis Schuhe */
		#speaker-2-rrze-expo .schuhe {fill:#2E2E2E; fill: var(--jackeSchatten, #2E2E2E);}
		#speaker-2-rrze-expo .aermel.aermel-links {fill:#333333; fill: var(--jacke, #333333);}
		#speaker-2-rrze-expo .kleid {fill:#333333; fill: var(--jacke, #333333);}
		#speaker-2-rrze-expo .rollkragen {fill:#333333; fill: var(--jacke, #333333);}
		#speaker-2-rrze-expo .st3{fill:#2E2E2E; fill: var(--jackeSchatten, #2E2E2E);}
		#speaker-2-rrze-expo .kleid.kleid-mitte {fill:#2E2E2E; fill: var(--jackeSchatten, #2E2E2E);}
		#speaker-2-rrze-expo .aermel.aermel-rechts{fill:#2E2E2E; fill: var(--jackeSchatten, #2E2E2E);}
		#speaker-2-rrze-expo .aermel.aermel-buendchen {fill:#2E2E2E; fill: var(--jackeSchatten, #2E2E2E);}
		#speaker-2-rrze-expo .st4{fill:#E78052; fill: var(--hautschatten, #E78052);} /*Hautschatten*/
		#speaker-2-rrze-expo .armschatten {fill:#E78052; fill: var(--hautschatten, #E78052);}
		#speaker-2-rrze-expo .handschatten {fill:#E78052; fill: var(--hautschatten, #E78052);}
		#speaker-2-rrze-expo .nase {fill:#E78052; fill: var(--hautschatten, #E78052);}
		#speaker-2-rrze-expo .stirnschatten {fill:#E78052; fill: var(--hautschatten, #E78052);}
		#speaker-2-rrze-expo .ohren {fill:#E78052; fill: var(--hautschatten, #E78052);}
		#speaker-2-rrze-expo .hals {fill:#E78052; fill: var(--hautschatten, #E78052);}
		#speaker-2-rrze-expo .remoter {fill:#2E2E2E;}
		#speaker-2-rrze-expo .st6{fill:#231F20;} /*Augen und Augenbrauen*/
		#speaker-2-rrze-expo .augen {fill:#231F20;}
		#speaker-2-rrze-expo .st7{fill:#FFFFFF;} /*Mund*/
		#speaker-2-rrze-expo .zaehne {fill:#FFFFFF;}
		#speaker-2-rrze-expo .haarlicht {fill:#B5441B; fill: var(--haarfarbe, #B5441B);}
		#speaker-2-rrze-expo .st9{fill:#1A1A1A; fill: var(--jackeSchatten, #06381F);} /*Kleidschatten und Guertel*/
		#speaker-2-rrze-expo .aermelschatten {fill:#1A1A1A; fill: var(--jackeSchatten, #06381F);}
		#speaker-2-rrze-expo .kleidschatten {fill:#1A1A1A; fill: var(--jackeSchatten, #06381F);}
		#speaker-2-rrze-expo .guertel {fill:#1A1A1A; fill: var(--jackeSchatten, #06381F);}
		#speaker-2-rrze-expo .guertelschnalle {fill:#CCCCCC;}
		#speaker-2-rrze-expo .remoter-schatten {fill:#4D4D4D;}
		#speaker-2-rrze-expo .augenbrauen{fill:#754C29; fill: var(--augenbrauen, #754C29);} /*Augenbrauen*/
	</style>
	<g id="speaker-2-rrze-expo">
			<path class="beine bein-links" d="M211.1,1868.3c0,0,63.9,58.2,189.7,41.1c18.3-2.5-123.1-85.1-123.1-85.1s63.7-613.8,101-703.9V914.9H241.1
				c-47.5,140.6-1.1,552.4-1.1,552.4C205.3,1623.6,241.4,1767,211.1,1868.3z"/>
			<path class="beine bein-rechts" d="M456.6,1873.5c0,0,71.9,47.9,193.7,12.2c17.7-5.2-134.5-65.6-134.5-65.6s-29.3-616.4-5.9-711.1L479,905.7
				l-135.9,20.7c-25.8,146.1,82,546.2,82,546.2C414.1,1632.4,471.4,1768.7,456.6,1873.5z"/>
			<path class="haare haare-hinten" d="M405.7,201.6c0,0-34.4,240.2-7.7,283.9c49.6,80.9-160.6,89.4-137.3-13.6c21-92.6-39-220.6-11-256.8
				C277.8,178.9,405.7,201.6,405.7,201.6z"/>
			<path class="aermel aermel-links" d="M170.7,540.6c-50.4,27.9-58.5,152.7-62.1,230.7l82.5,1.5l29.3-107.4C220.4,665.4,229.8,579.9,170.7,540.6z"/>
			<path class="aermel aermel-rechts" d="M471.8,527c0,0,22.8,11.6,46.9,68.2c24.1,56.6,74.7,183.1,74.7,183.1c-9,25-26.2,30.8-53,14.5
				c-39.6-42.8-70.1-96.3-93.9-157.8C446.4,634.9,429.6,562.4,471.8,527z"/>
			<path class="kleid kleid-oben" d="M460.3,759.1c6.1,18.5,11.9,50.5,17.2,90.8c-74.4,9.2-149.8,19.9-224.8,18.4c3.5-18,5.7-35.2,5.7-52.5
				c0-29.4-87.6-275.1-87.6-275.1s85.2-47.7,102.1-56.1c18.4,3.1,94.9,10.9,113.2-1.6c22.9,11.8,77.6,39.9,85.8,44.1
				c0,0,1.2,1.4-0.6,42.6c-1.1,26.9,16.9,59.6,17.6,98.8C489.5,707.7,460.3,759.1,460.3,759.1z"/>
			<path class="kleid kleid-mitte" d="M258.1,825c26.8,1.8,53.9-4.5,80.4-8.4c13.6-2,24.3-8,35.7-0.7c8.5,5.5-9.3,4.4,13.2,14.2
				c5.3,2.3,12.4,2.2,18,2.7c11.1,1,22.5,1.3,33.5,1.2c12.1-0.2,24-1.5,35.9-3.6c-4.5-31.1-9.4-55.9-14.5-71.3c0,0,5.6-9.9,11.9-24.3
				c-10.7,0.4-19.5,4.6-29.2,12.6c-15.8,13.1-29.4,20.7-49.8,23.9c-23.4,3.7-46.1,3.3-69.7,3c-24.7-0.3-49.3,1.1-73.8,3
				c5.4,18.7,8.7,32.7,8.7,38.4C258.3,818.8,258.2,821.9,258.1,825z"/>
			<path class="kleid kleid-unten" d="M359.6,846.7c38.8-0.3,78.3,0.4,116.5-7.1c13.7,98.6,56.4,462.9,61.5,583.8c-3.1,0.8-38.1,13.4-41,14
				c-14.9,3.3-30.1,4.9-45.3,6.2c-26.9,2.1-54.1,3.7-81,4.5c-41.3,1.3-82.6-2.7-123.2-10.1c-18.4-3.4-36.6-7.4-54.7-12
				c-21.6-343.8,54-498.4,64.2-581.3C290.7,847.6,325.1,846.9,359.6,846.7z"/>
			<path class="hals" d="M272.8,484.5c22.3-19.6-1-89.3-1-89.3l80.9,2.9l23.1,79.6c0,0,4.6,2.4,11.7,6c-4,34.2-11.5,74.9-27.5,104.3
				C359.7,587.6,283.1,504.3,272.8,484.5z"/>
			<path class="rollkragen" d="M281.2,461.2c14.1-0.2,24.8,0.7,36.1,5.4c4.5,1.9,18.6,2.9,18.6,2.9s8.2-2.5,12.3-5c7.5-4.6,14.2-4.1,24.7-6.9
				l2.7,20.1c0,0,7,3.4,14,7c-4,34.2-12.6,77-28.7,106.4c-0.1,2.5-80.4-85.3-90.7-105.1C277,479.8,281,473.5,281.2,461.2z"/>
			<path class="ohren ohr-rechts" d="M404.2,336.4c-4.8,16-0.4,31.4,9.6,34.4c10.1,3,22.1-7.5,26.8-23.5c4.8-16,0.4-31.4-9.6-34.4
				C421,309.9,409,320.4,404.2,336.4z"/>
			<path class="ohren ohr-links" d="M225.6,344c3.6,16.3,14.9,27.6,25.1,25.3c10.3-2.3,15.6-17.3,12-33.6c-3.6-16.3-14.9-27.6-25.1-25.3
				C227.4,312.7,222,327.7,225.6,344z"/>
			<path class="gesicht" d="M334.7,214.2c82.3,0.9,86.4,78.2,86.6,87.5c0,0.6,0,1.1,0,1.7c-0.6,8.6-6.2,88-14.3,103.1
				c-6.7,12.5-55.7,53-75.4,53c-19.7,0-66.8-41.9-73.2-54.6c-7.8-15.3-11.7-94.8-12.1-103.4c0-0.6,0-1.1,0-1.7
				C246.6,290.5,252.4,213.3,334.7,214.2z"/>
			<path class="stirnschatten" d="M247.5,324c32.8,7.2,60.7-10.2,93.5-7.5c12.3,1,23.8,6,36,1.2c13.6-5.4,18.5-17.5,23.8-29.9
				c3.8-8.9,7.6-17.7,11.2-26.5c-10.3-22.8-31.8-46.6-77.3-47.1c-82.3-0.9-88.1,76.3-88.5,85.6c0,0.6,0,1.1,0,1.7
				C246.3,304,246.7,312.7,247.5,324z"/>
			<path class="augen auge-links" d="M296.7,326.2c5.8-0.6,10.8,5.6,11.1,13.9c0.4,8.3-4,15.4-9.7,16c-5.8,0.6-10.8-5.6-11.1-13.9
				C286.6,333.9,290.9,326.8,296.7,326.2z"/>
			<path class="augen auge-rechts" d="M372.1,327c5.8-0.6,10.8,5.6,11.1,13.9c0.4,8.2-4,15.4-9.7,16c-5.8,0.6-10.8-5.6-11.2-13.9
				C361.9,334.7,366.3,327.6,372.1,327z"/>
			<path class="nase" d="M335.1,376.9c1.4,2.3,1.3,1.9,0.4,3.6c-0.7,1.2-2.2,2.3-3.1,3.3c-2,2.2,6.8,1.7,8.4,0c1.3-1.4,4.5-3.6,5.1-5.5
				c0.8-2.2-0.8-3.1-2.4-4.4c-4.5-3.8-7.4-8.7-8.8-14.3C334.1,357.5,330.4,369.1,335.1,376.9z"/>
			<path class="zaehne" d="M359,399.1c-17.5-2.8-35.4-2.8-53.8,0c0,0,13.7,23.2,26.7,23.2C344.8,422.3,359,399.1,359,399.1z"/>
			<path class="augenbrauen" d="M318,297c-0.5-0.1-1.1-0.2-1.6-0.3c-32.1-6.9-48.4,10-47.9,9.2c-1.5,1.3-3.7,2.3-4.9,2.2
				c-1.2-0.1-1.2-1.3,0.3-2.7c0,0.8,14.3-20.9,52.6-13.8C319,292.2,319.9,297.3,318,297z"/>
			<path class="augenbrauen" d="M351.4,304.7c0.5-0.1,1-0.2,1.4-0.3c28.6-7.4,46.3,7.8,45.8,7.2c1.6,1.2,3.8,2.1,5,1.9c1.2-0.2,1.1-1.4-0.5-2.7
				c0.2,0.5-16.4-19.4-51-11.4C349.8,300.1,349.7,305,351.4,304.7z"/>
			<path class="haare haare-vorne" d="M332.1,176c131.2-16.1,112.2,205,97.4,212.7c-3.4-5.7-17.1-137.2-27.3-139.3c0,50.8-26.4,63.8-70.8,65.6
				c4.4-10.3,9-36.2,8.2-51c0,0-11.6,19-21.7,33.1c-13.7,19.1-83.7,61.3-93.4,62.4C212.5,356.2,209.1,191.1,332.1,176z"/>
			<path class="haarlicht" d="M275.7,205.3c21.6-17.3,48.4-22.4,75.5-19c12.9,1.6,32.7,5.1,49.7,11.5c-15.3-13.2-37.3-22.1-68.7-21.9
				c-65.3,0.4-89.1,38.5-95.3,75C247.2,233.7,259.7,218.1,275.7,205.3z"/>
			<path class="guertel" d="M355.5,886.6c-56.8,0-103.9-3.3-107.2-3.6l5.7-34.3c1.3,0.1,132.1,11.9,225.2-5.5l3.9,32.6
				C439.3,884,398.9,886.6,355.5,886.6z"/>
			<path class="guertelschnalle" d="M398.7,892.9l-32.4,0.7c-1.8,0-3.3-1.4-3.3-3.2l-0.9-40.6c0-1.8,1.4-3.3,3.2-3.3l32.4-0.7
				c1.8,0,3.3,1.4,3.3,3.2l0.9,40.6C401.9,891.4,400.5,892.9,398.7,892.9z M369.4,887l26-0.6l-0.7-34.1l-26,0.6L369.4,887z"/>
			<path class="kleid kleid-unten" d="M261.7,993.4L232.4,1437c0,0,63.3,29.5,156.4,5.7l-16.1-274.9"/>
			<path class="st9" d="M261.7,993.4l-6.2,111l-6.9,110.9l-13.9,221.9l-1.4-2.3c11.8,5,24.7,8.4,37.6,10.8c12.9,2.4,26,3.7,39.2,4.1
				c13.1,0.1,26.3-0.1,39.4-1.8c13.1-1.4,26-4,38.8-7l-1.4,1.9l-7.5-137.5l-6.7-137.5l9.3,137.4l8.5,137.4l0.1,1.5l-1.5,0.4
				c-13,3.1-26,5.9-39.3,7.4c-13.2,1.9-26.6,2.2-40,2.1c-13.4-0.3-26.7-1.6-39.9-3.9c-13.2-2.4-26.1-5.6-38.8-10.9l-1.5-0.6l0.1-1.7
				l15.5-221.8l7.8-110.9L261.7,993.4z"/>
			<path class="kleid kleid-unten" d="M448.8,994.1l49.4,445c0,0-66.1,32.3-166.3,12l5.9-277.1"/>
			<path class="kleidschatten kleid-unten" d="M448.8,994.1l13.5,111.1l12.8,111.2l25.5,222.4l0.2,1.8l-1.5,0.7c-13.3,5.9-27,9.6-40.9,12.5
				c-13.9,2.9-28,4.7-42.2,5.5c-14.2,0.6-28.4,0.8-42.5-0.6c-14.2-1-28.2-3.3-42.1-5.9l-1.5-0.3l0-1.5l3.4-138.5l4.2-138.5l-1.6,138.6
				l-2.4,138.6l-1.4-1.8c13.8,2.5,27.7,4.7,41.6,5.5c14,1.2,28,0.9,42,0.2c14-0.9,27.9-2.8,41.5-5.7c13.6-3,27.2-6.8,39.7-12.4
				l-1.3,2.4L472,1216.7L460,1105.4L448.8,994.1z"/>
			<path class="aermel aermel-rechts" d="M435.7,759.4c-21.6-12.5-44.2-15-68.7-13.6c-15.8,0.9-30.8,1-46.5-1.5c-10.4-1.7-21.4-2.4-31.1-7
				c-5.3-2.5-15.6-9.8-15.4-16.5c0.3-9.1,16.1-7.6,21.6-7.1c10.1,0.8,19.8,4.2,29.8,5.6c10.2,1.4,19.7-0.4,29.1-4.6
				c10.4-4.7,20.1-12.7,31.8-13.7c21.4-1.9,41.9,12.7,62.8,16.1c12.5,2,23.1-0.7,32.4-6.9c-8.5,26.5-21.2,48.9-21.2,48.9
				c2.3,6.9,4.5,15.7,6.7,26.1C457.8,775,447.4,766.2,435.7,759.4z"/>
			<path class="remoter-schatten" d="M513.2,691l-0.4-1.1l-1.7-2.7c-0.5-1.1-1.2-2-2.2-2h-28.8c-2.4,0-4.9,3.7-5.6,8.3l-17.7,116.7
				c-0.4,2.4-0.1,4.4,0.5,5.9l-0.1,0l0.4,0.7c0,0,0,0,0,0l2,3.8l0-0.2c0.5,0.8,1.1,1.3,1.9,1.3h28.8c2.4,0,4.9-3.7,5.6-8.3l17.7-116.7
				C514,694.5,513.8,692.5,513.2,691z"/>
			<path class="remoter" d="M490.3,821.8h-28.8c-2.4,0-3.7-3.7-3-8.3l17.7-116.7c0.7-4.6,3.2-8.3,5.6-8.3h28.8c2.4,0,3.7,3.7,3,8.3
				l-17.7,116.7C495.2,818.1,492.7,821.8,490.3,821.8z"/>
			<path class="arme arm-rechts" d="M509.8,789.9c0,0,74.3,36.9,84.7,13.6s4-73.9-85.1-55.4C509.4,748.1,495.8,771.4,509.8,789.9z"/>
			<path class="aermel aermel-rechts aermel-unten" d="M559.3,745.5c9,19.2,5.6,41.7,2.4,63.6c15.2,3.4,28.8,3.4,32.8-5.6C602.7,785.3,603.6,750.9,559.3,745.5z"/>
			<path class="haende hand-rechts" d="M482.1,722.5c0,0-23.6,5.1-32.3,42.5c-8.7,37.4,35.9,41,56.3,34.3c20.5-6.7,20.5-1.5,20.5-1.5
				S543.6,707.6,482.1,722.5z"/>
			<path class="handschatten hand-rechts" d="M509.6,723.7c4,13,4.9,27.7,3.9,39.4c-1.1,13.5-5,25.7-10.7,37c0,0,15.8,3.5,23.8-2.4
				C526.7,797.8,542,737.6,509.6,723.7z"/>
			<path class="haende hand-links" d="M387.3,723.7l-28,80.7l-61.7,1.5l7.6-55.5C331.5,727.3,357,725.6,387.3,723.7z"/>
			<path class="handschatten hand-links" d="M430.8,782.3c16.7-32.7-43.5-58.6-43.5-58.6l-28,80.7C359.4,804.5,414.1,815,430.8,782.3z"/>
			<path class="arme arm-links" d="M306.7,750.4c-95-8.9-170.1-18.5-189.1,1.3c0,0-25.3,39.7,8.4,59c33.7,19.3,174.6-4.8,174.6-4.8L306.7,750.4z"
				/>
			<path class="armschatten" d="M244.3,744.5c-6.4-0.6-12.7-1.1-18.8-1.6c-5.3,24.1-6.6,48.7-6.9,73.3c4.7-0.4,9.3-0.8,13.8-1.3
				C237.2,791.7,239.8,767.8,244.3,744.5z"/>
			<path class="aermel aermel-links aermel-unten" d="M215.8,741.5c-49.7-3.7-87.5-2.8-99.9,10.1c0,0-23.6,39.9,10.1,59.2c14.5,8.3,48.6,8.5,83,6.2
				C209.4,791.8,210.7,766.1,215.8,741.5z"/>
			<path class="aermelschatten" d="M195.8,740.3c-16.8,16.6-14.7,51.8-9.1,77.9c7.6-0.2,15.4-1.3,23.3-1.8c0.4-25.1,1.6-50.2,6.8-74.8
				C209.4,741.1,202.5,740.7,195.8,740.3z"/>
			<path class="aermel aermel-buendchen" d="M239.3,742.7c0,0-15.5-11.1-30.9-7.4c-15.4,3.7-21.5,76.5-12.8,84.4c8.7,7.9,30.8-3.7,30.8-3.7L239.3,742.7z"/>
			<path class="aermel aermel-buendchen" d="M548,744.5c0.8-4.8,19.7-6.1,24.5,0.5c3.9,5.3,17.8,63.7-2.8,70.3c-7.6,2.4-18.9-8.8-18.9-8.8
				S559.6,761.7,548,744.5z"/>
			<path class="schuhe schuh-rechts" d="M555.9,1834c-29.1,10.3-73.8,6.1-99.8,11.9c-0.7,11.5-0.5,30.8-1.1,32.9c0,0,79.2,33.4,198.6,20
				c4-0.5,4.9-12.6,0.1-16.3C629.7,1864.1,572.9,1844,555.9,1834z"/>
			<path class="schuhe schuh-links" d="M317.8,1845c-30.4,5.4-75.7-5.5-102.3-4c-2.6,11.3-5.5,30.3-6.4,32.3c0,0,74.5,45.3,194.5,51.7
				c4.1,0.2,6.9-11.7,2.8-16C385.8,1886.7,332.9,1857.6,317.8,1845z"/>
		</g>
</svg>
