<?xml version="1.0" encoding="utf-8"?>
<svg version="1.1" id="Ebene_1" xmlns="http://www.w3.org/2000/svg" xmlns:xlink="http://www.w3.org/1999/xlink" x="0px"
	 y="0px"
	 viewBox="0 0 280 704" style="enable-background:new 0 0 280 704;" xml:space="preserve">
<style type="text/css">
	#speaker-5-rrze-expo{
	/*Farben*/
	--hautfarbe: #FAB57A;
	--hautschatten: #E78052;
	/*Rock und Schuhe*/
	--hose: #333333;
	/*Bluse*/
	--hemd: #FDDFB1;
	--hemdschatten: #FCC883;
	/*Haare*/
	--haarschatten: #792D12;
	--haarfarbe: #B5441B;
	--guertel: #FFFFFF;
	--guertelschnalle: #FDD089;

	}
	#speaker-5-rrze-expo .st0{fill:#FAB57A; fill: var(--hautfarbe, #FAB57A);} /*Haut*/
	#speaker-5-rrze-expo .st1{fill:#333333; fill: var(--hose, #333333);} /*Rock*/
	#speaker-5-rrze-expo .st2{fill:#FCC883; fill: var(--hemdschatten, #FCC883);} /*Aermel und Kragen*/
	#speaker-5-rrze-expo .st3{fill:#E78052; fill: var(--hautschatten, #E78052);} /*Hautschatten*/
	#speaker-5-rrze-expo .st4{fill:#792D12; fill: var(--haarschatten, #792D12);} /*Haarschatten*/
	#speaker-5-rrze-expo .st5{fill:#B5441B; fill: var(--haarfarbe, #B5441B);} /*Haar*/
	#speaker-5-rrze-expo .st6{fill:#FDDFB1; fill: var(--hemd, #FDDFB1);} /*Shirt*/
	#speaker-5-rrze-expo .st8{fill:#231F20;} /*Augen*/
	#speaker-5-rrze-expo .st9{fill:#C69C6D;} /*Kettenfassung*/
	#speaker-5-rrze-expo .st10{fill:#FFFFFF; fill: var(--guertel, #FFFFFF);} /*Guertel*/
	#speaker-5-rrze-expo .st11{fill:#FDD089; fill: var(--guertelschnalle, #);} /*Guertelschnalle*/
	#speaker-5-rrze-expo .st12{fill:#5E7E97;} /*Buchseiten*/
	#speaker-5-rrze-expo .st13{fill:#E5E6E6;} /*Buchcoverrand*/
	#speaker-5-rrze-expo .st14{fill:#00558D;} /*Buch*/
	#speaker-5-rrze-expo .st15{fill:#0071BC;} /*Buchcover*/
	#speaker-4-rrze-expo .st16{fill:#754C29; fill: var(--bartbrauen, #754C29);}
</style>
	<g id="speaker-5-rrze-expo">
		<path class="st0" d="M183,346.1c15.9,47.1,3.2,185.3,3.2,185.3c11.7,52.4-0.5,100.5,9.7,134.5c0,0-21.4,19.5-63.6,13.8
			c-6.1-0.8,41.3-28.5,41.3-28.5s-23-221.3-35.2-238.6c-1.8-2.6-38.6,101.6-38.6,101.6c26.8,56.1,14.3,59.4,34.1,123.8
			c0,0-43.4,44.8-53.4,31.7c1.1-2.5,23.1-27.9,30.4-37.8c3.2-4.3-36.3-98.2-36-117.2C74.9,495.8,97.1,393,97.1,393l8.9-46.8L183,346.1
			z"/>
		<path class="st1" d="M196.1,503.9c1.7-44.7-3.1-134.8-16.5-173.8l-82.3,18L90,396.8c0,0-12.3,69.8-16.6,107
	C84.8,509.7,185,509.8,196.1,503.9z"/>
		<path class="st1" d="M110.8,629.9c9.2,1.1,17.4,4.1,25.9,8.4l3,9.7c0,0-49.4,34.9-59.4,21.8c1.1-2.5,23.1-27.9,30.4-37.8
	C110.9,631.6,111,630.9,110.8,629.9z"/>
		<path class="st1" d="M172.3,651.9c9.8,3.5,16.8,8.3,25.2,14.1c0.6,4,1.3,6.4,2,7.1c0,0-25,12.3-67.2,6.6
	C126.8,679,164.8,656.4,172.3,651.9z"/>
		<path class="st0"
			  d="M203.7,207.3c17.1,28,23.5,65.5,31.6,101.4l-19.9,1.6L185.2,237C185.2,237,181.8,209.3,203.7,207.3z"/>
		<path class="st2"
			  d="M203.7,207.3c34.8,2.3,12.2,29.5,31.6,101.4l-19.9,1.6L185.2,237C185.2,237,181.8,209.3,203.7,207.3z"/>
		<path class="st0" d="M103.6,202.7c-16.6,13-26.5,53.4-42.9,71.3l-12-54.1c0,0-11.1,3.3-11.8,3.5c-2.5,20.1,9.6,82.3,14.6,84.8
	c20.7,10,53.7-61.4,53.7-61.4C131.6,217.9,128.8,206.5,103.6,202.7z"/>
		<path class="st3"
			  d="M49.7,224.7l-1.1-4.7c0,0-11.1,3.3-11.8,3.5c-0.1,1.2-0.2,2.6-0.3,4.1C41.3,228.2,45.7,227,49.7,224.7z"/>
		<path class="st2" d="M103.6,202.7C72.2,206.5,91.8,235,60.7,274l-2.1-9.6c-5.9,2.4-11.6,5-17.3,7.8c3.3,18.5,7.6,34.7,10.1,35.9
	c20.7,10,53.7-61.4,53.7-61.4C131.6,217.9,128.8,206.5,103.6,202.7z"/>
		<path class="st4" d="M131.8,89.9c-28.3,11.3-20.9,59.6-20.9,59.6c-6.3,64.9,1.1,105.6,23.7,108.5c32.8,4.3,55.5,0.5,63.9-40
	c8.5-40.5-3.8-56.7-3.8-56.7S181.7,70,131.8,89.9z"/>
		<path class="st5" d="M191.5,146c-7,10.7-6.3,23.2-4.1,33.9c2.1,10.1,6.9,19.5,12.9,27.9c4.7-33.3-5.5-46.9-5.5-46.9
	S194.1,158.2,191.5,146z"/>
		<path class="st6" d="M106.6,280.5c-2,6.2-4,16.9-5.8,30.4c25,3.1,50.2,6.7,75.4,6.2c-1.2-6-1.9-11.8-1.9-17.6
	c0-9.9,29.4-92.2,29.4-92.2s-28.6-16-34.2-18.8c-6.2,1.1-31.8,3.7-37.9-0.5c-7.7,4-26,13.4-28.8,14.8c0,0-0.4,0.5,0.2,14.3
	c0.4,9-5.7,20-5.9,33.1C96.8,263.3,106.6,280.5,106.6,280.5z"/>
		<path class="st2" d="M114.9,280.6c7.3-4.2,14.8-5,23-4.6c5.3,0.3,10.3,0.3,15.6-0.5c3.5-0.6,7.2-0.8,10.4-2.4
	c1.8-0.8,5.2-3.3,5.2-5.5c-0.1-3-5.4-2.5-7.3-2.4c-3.4,0.3-6.6,1.4-10,1.9c-3.4,0.5-6.6-0.1-9.7-1.5c-3.5-1.6-6.7-4.3-10.6-4.6
	c-7.2-0.6-14.1,4.3-21,5.4c-4.2,0.7-7.8-0.3-10.9-2.3c2.8,8.9,7.1,16.4,7.1,16.4c-0.8,2.3-1.5,5.3-2.2,8.8
	C107.5,285.9,110.9,282.9,114.9,280.6z"/>
		<path class="st3" d="M169.5,188.5c-7.5-6.6,0.3-29.9,0.3-29.9l-27.1,1l-7.7,26.7c0,0-1.6,0.8-3.9,2c6,5.9,7.7,7.5,14,11.1
	C145.2,199.2,161.8,194.6,169.5,188.5z"/>
		<path class="st3" d="M125.4,138.8c1.6,5.4,0.1,10.5-3.2,11.5c-3.4,1-7.4-2.5-9-7.9c-1.6-5.4-0.1-10.5,3.2-11.5
	C119.8,129.9,123.8,133.4,125.4,138.8z"/>
		<path class="st3" d="M185.3,141.4c-1.2,5.5-5,9.3-8.4,8.5c-3.4-0.8-5.2-5.8-4-11.3c1.2-5.5,5-9.3,8.4-8.5
	C184.7,130.8,186.5,135.9,185.3,141.4z"/>
		<path class="st0" d="M148.7,97.8c-27.6,0.3-29,26.2-29.1,29.3c0,0.2,0,0.4,0,0.6c0.2,2.9,2.1,29.5,4.8,34.6
	c2.2,4.2,18.7,17.8,25.3,17.8c6.6,0,22.4-14,24.6-18.3c2.6-5.1,3.9-31.8,4.1-34.7c0-0.2,0-0.4,0-0.6
	C178.3,123.4,176.3,97.5,148.7,97.8z"/>
		<path class="st3" d="M121.2,144.3c0.1-0.2,0.1-0.3,0.2-0.5c1.6-4.3,1.5-9.2,2.6-13.6c1.2-5.2,3.4-10.6,6.6-14.9
	c5.5-7.4,15.4-8.8,23.2-4.1c8.8,5.2,12.1,16.1,16.5,24.7c1.8,3.5,4.2,6.5,6.9,9.2c0.8-8.2,1.2-16.5,1.2-18c0-0.2,0-0.4,0-0.6
	c-0.1-3.1-2.1-29-29.7-28.7c-27.6,0.3-29,26.2-29.1,29.3c0,0.2,0,0.4,0,0.6C119.8,129.2,120.3,136.6,121.2,144.3z"/>
		<path class="st8" d="M161.5,135.4c-1.9-0.2-3.6,1.9-3.7,4.7c-0.1,2.8,1.3,5.2,3.3,5.4c1.9,0.2,3.6-1.9,3.7-4.7
	C164.9,138,163.4,135.6,161.5,135.4z"/>
		<path class="st8" d="M136.2,135.6c-1.9-0.2-3.6,1.9-3.7,4.7c-0.1,2.8,1.3,5.2,3.3,5.4c1.9,0.2,3.6-1.9,3.7-4.7
	C139.6,138.2,138.1,135.8,136.2,135.6z"/>
		<path class="st3" d="M148.6,152.4c-0.5,0.8-0.4,0.6-0.1,1.2c0.2,0.4,0.7,0.8,1.1,1.1c0.7,0.7-2.3,0.6-2.8,0
	c-0.4-0.5-1.5-1.2-1.7-1.8c-0.3-0.7,0.3-1,0.8-1.5c1.5-1.3,2.5-2.9,3-4.8C148.9,145.9,150.2,149.8,148.6,152.4z"/>
		<path class="st3"
			  d="M139.7,160.5c5.9-0.3,11.9-0.3,18,0c0,0-4.6,2.2-9,2.2C144.4,162.7,139.7,160.5,139.7,160.5z"/>
		<path class="st16" d="M154.6,128c10.8-2.3,16.6,2.3,16.5,2c0.5,0.4,1.2,0.8,1.6,0.7c0.4,0,0.4-0.4-0.1-0.9c0,0.3-4.8-7-17.6-4.6
	C154.1,125.5,154.4,128.1,154.6,128z"/>
		<path class="st16" d="M143.5,130.4c-9.6-2.5-16.3,1.8-16.1,1.6c-0.5,0.4-1.3,0.7-1.7,0.6c-0.4-0.1-0.4-0.5,0.2-0.9
	c-0.1,0.2,5.5-6.5,17.1-3.8C143.8,128.1,143.6,130.4,143.5,130.4z"/>
		<g>
	<defs>
		<path id="SVGID_1_" class="st1" d="M140.4,309.9c-13-0.1-26.2,0.1-39.1-2.4c-4.6,33.1-8.2,84.9-9.9,125.4c1,0.3,96.5-1.5,102.5-3
			c-1.7-62.1-15.6-92.9-19-120.7C163.5,310.2,151.9,310,140.4,309.9z"/>
	</defs>
			<use xlink:href="#SVGID_1_" style="overflow:visible;fill:#333333;"/>
			<clipPath id="SVGID_2_">
		<use xlink:href="#SVGID_1_" style="overflow:visible;"/>
	</clipPath>
</g>
		<path class="st2" d="M166.5,179.5c0,0-10.9,15.1-17,18.2l14.6,16.4c0,0,8.8-12.3,10.4-23.2L166.5,179.5z"/>
		<path class="st2" d="M141.1,196.9c0,0-4.4-9.3-4-18.6l-8.1,11c-2.3,6.4-1.9,14-1,21.8L141.1,196.9z"/>
		<path class="st2" d="M155.9,198.9c0,0-1.5,1.8-5.9,2.8s-7.1,0.8-9.2,0c-2-0.8-4.4-3.2-4.4-3.2l-4.4,5.4c0,0,5.9,6.9,12.2,6.8
	c6.4-0.1,13.3-2.6,15.6-6L155.9,198.9z"/>
		<path class="st2"
			  d="M140.9,201.7h9.2c-0.3,12.3,0.4,27.6,1.5,43.9c-9.2,0.7-17-1.4-23.4,0C132.7,228,137.3,209.6,140.9,201.7z"/>
		<path class="st1" d="M144.4,204.4c-1.7,0-3.1,1.5-3.1,3.3c0,1.8,1.4,3.3,3.1,3.3c1.7,0,3.1-1.5,3.1-3.3
	C147.5,205.9,146.1,204.4,144.4,204.4z"/>
		<path class="st9" d="M144.4,203.6c-2.2,0-3.9,1.8-3.9,4.1c0,2.3,1.8,4.1,3.9,4.1c2.2,0,3.9-1.9,3.9-4.1
	C148.3,205.4,146.6,203.6,144.4,203.6z M144.4,211c-1.7,0-3.1-1.5-3.1-3.3c0-1.8,1.4-3.3,3.1-3.3c1.7,0,3.1,1.5,3.1,3.3
	C147.5,209.5,146.1,211,144.4,211z"/>
		<path class="st4" d="M121.5,118.6c0,0,1.5,42.3-11.4,60.3C110.1,178.8,109.4,123.2,121.5,118.6z"/>
		<path class="st5" d="M145.9,104.8c0,0-16.6-0.7-26,26.2c0,0-4.6,13.1-9,18c-5.4-9.6-7.7-46,15.6-55.8
	C148.4,84.2,145.9,104.8,145.9,104.8z"/>
		<path class="st4"
			  d="M139.5,91.1c-2.3,3-4.5,6.3-4.9,10.1c-0.3,2.7,0.9,4.7,2.6,6.3c5-2.8,8.7-2.6,8.7-2.6S147,93.6,139.5,91.1z"/>
		<path class="st5" d="M139.6,106.2c27.5-3.6,30.3,23,33.8,31.1c3.4,7.8,13.7,20.9,21.4,23.7c0,0-2.6-32.8-5.8-45.4
	s-22.2-36.9-44-28.4C138.2,92.8,134.4,101.4,139.6,106.2z"/>
		<path class="st4" d="M169.3,119.9c-1.3-6.7-4.8-13.4-10.3-17.5c-8.2-6.1-14.2-2.8-18.4,3.7c18.6-2,25.5,10.1,29.2,20.3
	C169.8,124.2,169.7,122.1,169.3,119.9z"/>
		<path class="st0"
			  d="M55.3,199.6c0,0-8.3-20.1-7.3-23.5c1-3.5-7.3-3-8,2c-0.7,5.1,3.8,11,0.1,15C36.3,197.1,55.3,199.6,55.3,199.6z"
		/>
		<path class="st3" d="M48.4,220.6c0,0,8.6-18.7,6.2-22.1c-2.4-3.4-16.6-9.5-25.2-5.4c-8.6,4.1-3.7,27,2.5,30
	C38,226.2,44.5,222.2,48.4,220.6z"/>
		<path class="st0" d="M40.4,223.7c7.4-8.4,12.7-21,5-30.4c-5.2-1.7-11.4-2.4-16-0.2c-8.6,4.1-3.7,27,2.5,30
	C34.8,224.5,37.7,224.4,40.4,223.7z"/>
		<path class="st10" d="M137.1,325.3c-23.9,0-37.9-5-38.8-5.3l2.2-6.1c0.3,0.1,30.5,10.8,77.9,0.2l1.4,6.3
	C163.3,324.1,149,325.3,137.1,325.3z"/>
		<path class="st11" d="M137.7,326.4h-15.3c-0.2,0-0.4-0.2-0.4-0.4v-8c0-0.2,0.2-0.4,0.4-0.4h15.3c0.2,0,0.4,0.2,0.4,0.4v8
	C138.1,326.2,137.9,326.4,137.7,326.4z"/>
		<polygon class="st12" points="197.3,328.6 130.1,318.8 145,221 212.2,230.8 "/>
		<polygon class="st12" points="218,236 212.2,230.8 197.3,328.6 203.1,333.9 "/>
		<polygon class="st13" points="215.9,236.8 210.7,232 146,222.8 131.1,319 133.7,322.3 201.5,332.1 "/>
		<rect x="139.6" y="230.1" transform="matrix(0.9886 0.1506 -0.1506 0.9886 44.1079 -23.2057)" class="st14"
			  width="71.4" height="99"/>
		<polygon class="st15" points="201.3,329.8 136.3,317 151.7,228.1 213.2,240.7 "/>
		<path class="st0" d="M170.2,290.9c-0.3-0.5-7.7-2.4-7.7-2.4s-31.5-14.4-31.1-16.7c0.4-2.3,12.3,2.3,12.3,2.3s-15.3-7.8-14.7-10.5
	c0.6-2.6,15.9,4.8,15.9,4.8s-19.8-9-17.4-11.3c2.4-2.3,19.7,5.3,19.7,5.3s-24.1-10.5-20.1-12.8c4-2.3,29.3,11,29.3,11
	s-9.9-19.1-5.5-17.3c4.4,1.8,25.5,38,25.5,38S170.5,291.4,170.2,290.9z"/>
		<path class="st3" d="M148.3,273.9c1.8-4,3.2-8.6,6.6-11.6c0.3-0.3,0.5-0.6,0.7-0.9c2.4-0.7,4.9-1.3,7.4-1.8
	c6.6,10.3,13.2,21.6,13.2,21.6s-5.7,10.1-6,9.6c-0.3-0.5-7.7-2.4-7.7-2.4s-8.7-4-16.9-8.1C146.5,278.2,147.4,276.1,148.3,273.9z"/>
		<path class="st0" d="M176.2,281.3l55.4,19.8c0,0,8.2,10.5-0.3,19.9c-8.5,9.4-61.1-30.2-61.1-30.2L176.2,281.3z"/>
</g>
</svg>
