<?xml version="1.0" encoding="utf-8"?>
<svg version="1.1" id="Speaker_4" xmlns="http://www.w3.org/2000/svg" xmlns:xlink="http://www.w3.org/1999/xlink" x="0px"
	 y="0px"
	 viewBox="0 0 793.7 1995.6" style="enable-background:new 0 0 793.7 1995.6;" xml:space="preserve">
<style type="text/css">
	#speaker-4-rrze-expo {
	/*Farben*/
	--hautfarbe: #FBBE7D;
	--hautschatten: #E78052;

	--hemd: #E5E6E8;
	--hemdschatten: #9490A7;
	--hemdnuance: #E0E1E3; /*Minimal heller als hemd trennt arm visuell von torso*/
	--hemdknoepfe: #F1F1F1;

	--guertel: #804603;
	--schnalle: #E3E4E3;

	--haarfarbe: #42210B;

	--hose: #313032;

	}

	#speaker-4-rrze-expo .remoterschatten {fill:#4D4D4D;} /*remoterschatten*/
	#speaker-4-rrze-expo .remoter {fill:#333333;}
	#speaker-4-rrze-expo .hemd.aermel-rechts {fill:#E0E1E3; fill: var(--hemdnuance, #E0E1E3);}
	#speaker-4-rrze-expo .hose {fill:#313032; fill: var(--hose, #313032);}
	#speaker-4-rrze-expo .hemdschatten {fill:#9490A7; fill: var(--hemdschatten, #9490A7);}
	#speaker-4-rrze-expo .gesicht{fill:#FBBE7D; fill: var(--hautfarbe, #FBBE7D);}
	#speaker-4-rrze-expo .haare {fill:#42210B; fill: var(--haarfarbe, #42210B);}
	#speaker-4-rrze-expo .hals {fill:#FBBE7D; fill: var(--hautfarbe, #FBBE7D);}
	#speaker-4-rrze-expo .haende {fill:#FBBE7D; fill: var(--hautfarbe, #FBBE7D);}
	#speaker-4-rrze-expo .arme {fill:#FBBE7D; fill: var(--hautfarbe, #FBBE7D);}
	#speaker-4-rrze-expo .halsschatten{fill:#E78052; fill: var(--hautschatten, #E78052);}
	#speaker-4-rrze-expo .ohren {fill:#E78052; fill: var(--hautschatten, #E78052);}
	#speaker-4-rrze-expo .stirnschatten {fill:#E78052; fill: var(--hautschatten, #E78052);}
	#speaker-4-rrze-expo .nase {fill:#E78052; fill: var(--hautschatten, #E78052);}
	#speaker-4-rrze-expo .mund {fill:#E78052; fill: var(--hautschatten, #E78052);}
	#speaker-4-rrze-expo .hemd{fill:#E5E6E8; fill: var(--hemd, #E5E6E8);} /*hemd*/
	#speaker-4-rrze-expo .hemdknoepfe {fill:#F1F1F1; fill: var(--hemdknoepfe, #F1F1F1);}
	#speaker-4-rrze-expo .guertel{fill:#804603; fill: var(--guertel, #804603);}
	#speaker-4-rrze-expo .guertelschnalle {fill:#E3E4E3; fill: var(--schnalle, #E3E4E3);}
	#speaker-4-rrze-expo .schuhe {fill:#231F20;}
	#speaker-4-rrze-expo .augen {fill:#231F20;}
	#speaker-4-rrze-expo .augenbrauen {fill:#754C29; fill: var(--augenbrauen, #754C29);}
</style>
	<g id="speaker-4-rrze-expo">
		<path class="remoterschatten" d="M296.3,1133.1l0.7-0.8l1.5-2.7c0.7-1,1.1-2,0.6-2.9l-14.1-24.8c-1.2-2.1-5.5-2.4-9.8-0.8L168,1141.7
			c-2.2,0.8-3.8,2-4.7,3.2l-0.1,0l-0.4,0.7c0,0,0,0,0,0l-2.3,3.5l0.2-0.1c-0.4,0.8-0.5,1.6-0.1,2.3l14.1,24.8c1.2,2.1,5.5,2.4,9.8,0.8
			l107.2-40.7C293.8,1135.4,295.3,1134.3,296.3,1133.1z"/>
		<path class="remoter" d="M174.7,1176.1l-14.1-24.8c-1.2-2.1,1.3-5,5.5-6.6l107.2-40.7c4.2-1.6,8.6-1.2,9.8,0.8l14.1,24.8
			c1.2,2.1-1.3,5-5.5,6.6l-107.2,40.7C180.2,1178.5,175.8,1178.2,174.7,1176.1z"/>
		<path class="hemd aermel-rechts aermel-oben" d="M615.2,490.3l86.2,301.5L634.8,836l-91.6-130.2C543.1,705.8,524.9,557.8,615.2,490.3z"/>
		<path class="hemd aermel-rechts aermel-unten" d="M701.4,791.8c-10.3,75.4-86.3,162.5-125.6,218c0,0,4.7-1.7-25.9-51.5c-30.5-49.8,69.5-184.1,69.5-184.1
			S667.7,747.5,701.4,791.8z"/>
		<path class="hose" d="M576.8,903.4c0,0,13.7,251.6-37.7,516.9c-3.2,16.6-21.6,350.6-10.7,412h-96.2c0,0-41.7-257.4-4.8-419.7
			l14.2-186.6l16.1-122.2c0,0-57.5,291-80,340.5C355.3,1493.8,332,1836,332,1836l-92.1,0.3c0,0-24-223.7,32-443.5
			c0,0,30.1-406.6,46.2-483.8L576.8,903.4z"/>
		<polygon class="hemdschatten kragen-hinten"
				 points="350.7,392.1 396.6,387.3 451.6,396.2 478.5,412.2 475,446.5 439.5,424.6 394.5,417.2 338.1,426.7 "/>
		<path class="hals" d="M367.3,347.1c0,0,0,82.8-16.6,117.2c-16.6,34.3,108.9,72.2,108.9,72.2s53.3-34.3,30.8-66.3
			c-22.5-32-27.2-95.9-27.2-95.9L367.3,347.1z"/>
		<path class="halsschatten" d="M453.5,417.3c5.2-4.1,9.2-9.3,13.4-14.4c-2.9-16.4-3.8-28.6-3.8-28.6l-95.9-27.2c0,0,0,5.9-0.3,15.1
			c11.3,22,23.3,43.9,38.5,63.3C421.4,428.4,440.4,427.8,453.5,417.3z"/>
		<path class="hemd" d="M612.4,489.2c-5.9-5.5-126.8-61.6-126.8-61.6l-21.3,76.9l-117.2-84c0,0-120,72-127.2,79.3
			c-4.6,4.6,31.8,102.3,58.4,172.5c15.2,40.1,13.8,29.7,27.4,71.2c13.6,41.5,5.8,144.4,5.8,144.4l204.3,30.7l58-10.7l9.5-75.7
			l14.8-258C598,574.3,618.3,494.7,612.4,489.2L612.4,489.2z"/>
		<path class="hemdschatten kragen-links" d="M441.1,488.5l-14.9-5.9l-24.4,12.7c0,0-62.3-60-69.5-65.4c14.7-8.9,14.8-9.5,14.8-9.5"/>
		<path class="hemdschatten kragen-links" d="M438.3,446.5l2.8,42c-42.9-3.2-102.5-62.9-102.5-62.9l12.1-33.6L438.3,446.5z"/>
		<path class="hemdknoepfe" d="M464.5,512.3c-3.2,0-5.8,2.6-5.8,5.8s2.6,5.8,5.8,5.8c3.2,0,5.8-2.6,5.8-5.8S467.6,512.3,464.5,512.3
			L464.5,512.3z"/>
		<path class="hemdknoepfe" d="M465,628.5c-3.2,0-5.8,2.6-5.8,5.8c0,3.2,2.6,5.8,5.8,5.8s5.8-2.6,5.8-5.8C470.8,631.1,468.2,628.5,465,628.5
			L465,628.5z"/>
		<path class="hemdknoepfe" d="M465.6,744.7c-3.2,0-5.8,2.6-5.8,5.8c0,3.2,2.6,5.8,5.8,5.8c3.2,0,5.8-2.6,5.8-5.8
			C471.4,747.3,468.8,744.7,465.6,744.7L465.6,744.7z"/>
		<path class="hemdknoepfe" d="M483.4,860.9c-3.2,0-5.8,2.6-5.8,5.8c0,3.2,2.6,5.8,5.8,5.8c3.2,0,5.8-2.6,5.8-5.8
			C489.2,863.5,486.6,860.9,483.4,860.9L483.4,860.9z"/>
		<path class="guertel" d="M501.9,930.8c-45.7,0-184.9-18.9-184.9-18.9l-1.9-23.9c0,0,151.9,18,186.8,18c43.4,0,76.4-3,76.7-3l1.5,25.5
			C578.8,928.6,546.3,930.8,501.9,930.8L501.9,930.8z"/>
		<path class="guertelschnalle" d="M506.5,932.6c-2.9,2.6-6.6,4.1-10.5,4.1c-0.3,0-0.5,0-0.8,0l-18.1-0.9c-4.2-0.2-8-2-10.8-5.1
			c-2.8-3.1-4.2-7.1-4.1-11.2l0.1-2.6c0.4-8.6,7.7-15.2,16.3-14.8l18.2,0.9c4.1,0.2,8,2,10.8,5.1c2.8,3.1,4.2,7.1,4.1,11.2l-0.1,2.6
			C511.4,926,509.6,929.8,506.5,932.6L506.5,932.6z M478.4,909.1c-0.1,0-0.3,0-0.4,0c-4.5,0-8.3,3.6-8.5,8.1l-0.1,2.6
			c-0.1,2.3,0.7,4.4,2.2,6.1c1.5,1.7,3.6,2.7,5.9,2.8l18.2,0.9c2.3,0.1,4.4-0.7,6.1-2.2c1.7-1.5,2.7-3.6,2.8-5.9l0.1-2.6
			c0.1-2.3-0.7-4.4-2.2-6.1c-1.5-1.7-3.6-2.7-5.9-2.8h0L478.4,909.1L478.4,909.1z"/>
		<path class="schuhe schuh-links" d="M237.3,1819.8c4.8-32.3,95.5-25.1,97.4,0.3c1.9,25.4,14.2,36.9,14.2,51.6c0,14.7,1.8,39.2-52.5,39.2
			c-54.3,0-66.5-21.2-66.5-39.2C229.9,1853.7,232.5,1852,237.3,1819.8L237.3,1819.8z"/>
		<path class="schuhe schuhsohle-links" d="M348.4,1883.4c-1.9,13.3-10.7,27.5-52,27.5c-47.8,0-63-16.5-65.9-32.7C265.6,1901.4,318.5,1910.5,348.4,1883.4
			L348.4,1883.4z"/>
		<path class="hemd kragen-links" d="M350.7,392.1l87.6,54.4c0,0-8.2,34.1-35.5,43.8l-64.2-64.6L350.7,392.1z"/>
		<path class="hemdschatten kragen-rechts" d="M475.7,439.1c0,0,10.6,39.6,43,47.6L497.4,430l-18.9-17.8L475.7,439.1z"/>
		<path class="hemd kragen-rechts" d="M497.4,430L472,476.7c0,0,6.9-21.7,8-34.9c1.1-13.2-1.5-29.6-1.5-29.6L497.4,430z"/>
		<path class="schuhe schuh-links" d="M527,1816.3c0,0,23.8,21.3,33.2,22.6c9.4,1.3,76.5,2.9,76.5,54.7c-22.5,18.8-127.1,6.9-208.7,1.1
			c-4.6-7.9-2-47.3,4.3-62.3C492.9,1832.3,515.7,1820.6,527,1816.3L527,1816.3z"/>
		<path class="schuhe schuhsohle-links" d="M531.6,1890.1c32.8,4.5,72.7,6.6,103.4-9.1c1,3.8,1.6,7.9,1.6,12.5c-22.5,18.8-127.1,6.9-208.7,1.1
			c-1.4-2.4-2.1-7.6-2.3-14C461,1881.2,496,1885.2,531.6,1890.1L531.6,1890.1z"/>
		<path class="ohren ohr-rechts" d="M491,277.7c-3.6,17.5,2.1,33.5,12.8,35.9c10.7,2.4,22.3-9.9,25.9-27.4c3.6-17.5-2.1-33.5-12.8-35.9
			C506.2,248,494.6,260.2,491,277.7L491,277.7z"/>
		<path class="ohren ohr-links" d="M305.9,286.1c3.5,17.5,15.1,29.8,25.7,27.5c10.7-2.3,16.5-18.3,12.9-35.8c-3.5-17.5-15.1-29.8-25.7-27.5
			C308.1,252.6,302.3,268.6,305.9,286.1L305.9,286.1z"/>
		<path class="gesicht" d="M417.8,146.3c85.5,0,90.6,82.7,90.9,92.6c0,0.6,0,1.2,0,1.8c-0.5,9.2-5.5,94.3-13.7,110.6
			c-6.8,13.5-55.5,57.6-77.1,57.6c-21.6,0-70.4-44.1-77.2-57.6c-8.2-16.3-13.2-101.4-13.7-110.6c0-0.6,0-1.2,0-1.8
			C327.1,229,332.3,146.3,417.8,146.3L417.8,146.3z"/>
		<path class="stirnschatten" d="M346.9,214c3.3-7.6,4.3-16.1,11.5-21.3c14-10,36.7-2.1,51.9,0c12.9,1.7,25.9,1.8,38.9,0.6
			c5.1-0.5,10.2-1.2,15.2-2.1c2-0.4,4.4-1.1,6.4-0.8c4.1,0.7,5,4.5,5.8,8.1c1.1,4.9,1.3,9.3,6,12c3.3,1.9,7.3,2.7,10.9,4
			c4.4,1.6,8.6,3.4,12.8,5.4c-5.7-27.5-24.7-73.6-88.5-73.6c-85.5,0-90.6,82.7-90.9,92.6c0,0.4,0,0.9,0,1.3
			C335.5,233.4,342.5,224.1,346.9,214z"/>
		<path class="augen auge-rechts" d="M457.8,256.8c-6-0.7-11.2,5.9-11.7,14.7c-0.5,8.8,4,16.5,9.9,17.2c6,0.7,11.2-5.9,11.7-14.7
			C468.2,265.2,463.8,257.5,457.8,256.8L457.8,256.8z"/>
		<path class="augen auge-links" d="M379.5,256.8c-6-0.7-11.2,5.9-11.7,14.7c-0.5,8.8,4,16.5,9.9,17.2c6,0.7,11.2-5.9,11.7-14.7
			C389.9,265.2,385.5,257.5,379.5,256.8L379.5,256.8z"/>
		<path class="augenbrauen augenbraue-links" d="M346.3,234.3c1.5-0.7,25.1-14.7,56.8-6.1c2.2,0.6,1.7,9.3,1.2,9.2c-29.5-7.4-53,4.1-53.5,4.4
			c-2.4,0.9-5.5,0-6.8-2.1C342.7,237.6,343.8,235.2,346.3,234.3L346.3,234.3z"/>
		<path class="augenbrauen augenbraue-rechts" d="M489.2,232c-1.4-0.7-25.1-14.7-56.9-6.1c-2.2,0.6-1.7,9.3-1.2,9.2c29.5-7.4,53,4.1,53.5,4.4
			c2.4,0.9,5.5,0,6.8-2.1C492.8,235.3,491.7,232.9,489.2,232L489.2,232z"/>
		<path class="nase" d="M418.1,304.7c-1.5,3.6-1.4,3-0.3,5.8c0.7,1.9,2.5,3.8,3.5,5.4c2.3,3.5-7.4,2.3-9.2-0.3c-1.5-2.2-4.9-6-5.7-8.9
			c-0.9-3.5,0.8-4.8,2.5-6.9c4.8-5.9,7.9-13.4,9.4-22.3C418.9,273.9,423.1,292.5,418.1,304.7L418.1,304.7z"/>
		<path class="mund" d="M385,342c0,0,18.1,4.4,34.6,4.4c16.6,0,34.1-4.4,34.1-4.4C430.2,341.5,407.3,341.5,385,342z"/>
		<path class="haare haare-rechts" d="M467.3,174.1c0,0,27.3,16.1,23.4,34.2l10.7,11.1l6.8,32.4c0,0,7.1-64.5,2.2-79.6
			c-4.9-15.1-31.6-41.1-31.6-41.1L467.3,174.1z"/>
		<path class="haare haare-links" d="M366.6,177.1c0,0-27.3,16.1-23.4,34.2l-10.7,11.1l-5.8,32.2c0,0-8-64.3-3.1-79.4c4.9-15.1,23.4-41,23.4-41
			L366.6,177.1z"/>
		<path class="haare haare-links" d="M366.6,177.1l-16-34.8c-1,6.2-2.8,12-7.9,17.7c-5.9,6.6-11.9,12.1-15,20.7c-3.5,9.4-4.1,19.3-4.5,29.2
			c-0.5,13.2,0,26.2,1.2,39c1.4,3.5,2.2,5.6,2.2,5.6l5.8-32.2l10.7-11.1C339.3,193.2,366.6,177.1,366.6,177.1z"/>
		<path class="haare haare-oben" d="M503.9,163.4c-0.4-0.2-21.7-71.6-87.4-71.6c-65.7,0-79.4,44.4-79.4,64.8c0,39.8,145.2,30.7,145.2,30.7
			C491.3,171.7,505.6,174.7,503.9,163.4z"/>
		<path class="haende hand-links" d="M207.2,1055.5l-13.5,74.8c0,0,8.6,46.2,27.7,35.6c0,0,12.5,24.4,25.1,15.2c0,0,18.5,23.1,24.4,5.9
			c0,0,9.9,21.1,17.1,13.8c7.3-7.3-7.3-51.4-7.3-51.4c1.3,3.3,23.7,7.3,19.1-0.7c-4.6-7.9-6.6-23.7-6.6-52.8c0-29-24.8-54.7-24.8-54.7
			L207.2,1055.5z"/>
		<path class="arme arm-links" d="M217.4,500.3c-38,22.2-40.7,268.9-37.4,308.9c3.3,39.9,27.4,246.9,27.4,246.9c19.8,5.3,40.3-0.2,61.2-14.6
			c-11.1-88.6-1.6-148.6-25.9-226.3c17.2-61.3,23.9-93.8,39.8-133.7C282.5,681.4,255.3,478.1,217.4,500.3z"/>
		<path class="hemd aermel-links" d="M217.9,499.9c-38,22.2-60,268.9-56.7,308.9c3.3,39.9,41.5,236.8,41.5,236.8c19.8,5.3,48.4-2.2,69.4-16.6
			c1.2-90.4-24.5-213.7-24.5-213.7S274.3,729,283.1,681C283.1,681,255.9,477.7,217.9,499.9z"/>
</g>
</svg>
