<svg version="1.1" id="Student_2" xmlns="http://www.w3.org/2000/svg" xmlns:xlink="http://www.w3.org/1999/xlink"
	 viewBox="0 0 280 704" style="enable-background:new 0 0 280 704;" xml:space="preserve">
<style type="text/css">
	#student-2-rrze-expo{
	/*Hautfarben*/
	--hautfarbe: #FBB57A;
	--hautschatten: #E78052;
	--augenfarbe: #231F20;

	/*Haarfarben*/
	--haarfarbe: #1A1A1A;
	--haarlicht: #484848; /*Heller als basiston*/
	--augenbrauen: #3C2415; /*kann theoretisch auf haarfarbe gesetzt werden*/

	/*Klamotten*/
	--mantelfarbe: #FBB040;
	--mantelschatten: #BC8430;
	--mantellicht: #FDD08C; /*Heller als Basiston*/
	--brusttaschenknopf: #F1F2F2; /*Nur fuer helle Basistoene*/

	--hemdfarbe: #77879C;
	--hemdlicht: #556983; /*Hemdkragen*/
	--hemdknoepfe: #D1D3D4;

	--hosenfarbe: #191616;
	--hosenschatten: #0D0D0D;
	--hosenlicht: #BBC7D9;

	--schuhfarbe: #151A21;
	--schuhsohle: #050608;

	--klemmbrett: #E6E7E8;

	}


	/*Jackenklassen*/
	#student-2-rrze-expo .st0{fill:#FBB040; fill: var(--mantelfarbe, #FBB040);} /*Jackenbasis*/
	#student-2-rrze-expo .st1{fill:#BC8430; fill: var(--mantelschatten, #BC8430);} /*Jackenschatten*/
	#student-2-rrze-expo .st12{fill:#FDD08C; fill: var(--mantellicht, #FDD08C);} /*Jackenakzent Kragen*/
	#student-2-rrze-expo .st19{fill:#F1F2F2; fill: var(--brusttaschenknopf, #F1F2F2);} /*Taschenknopf Bruststasche*/

	/*Hemdklassen*/
	#student-2-rrze-expo .st11{fill:#77879C; fill: var(--hemdfarbe, #77879C);} /*Hemdbasis*/
	#student-2-rrze-expo .st17{fill:#556983; fill: var(--hemdlicht, #556983);} /*Hemdkragen und Schatten*/
	#student-2-rrze-expo .st18{fill:#D1D3D4; fill: var(--hemdknoepfe, #D1D3D4);} /*Hemdknoepfe*/

	/*Hosenklassen*/
	#student-2-rrze-expo .st5{fill:#191616; fill: var(--hosenfarbe, #191616);} /*Hosenbasis*/
	#student-2-rrze-expo .st6{fill:#0D0D0D; fill: var(--hosenschatten, #0D0D0D);} /*Hosenschatten*/
	#student-2-rrze-expo .st8{fill:#454545; fill: var(--hosenlicht, #454545);} /*Hosenlicht*/

	/*Schuhklassen*/

	/*Gesichtfeatureklassen*/
	#student-2-rrze-expo .st13{fill:#231F20; fill: var(--augenfarbe, #231F20);} /*Augen*/
	#student-2-rrze-expo .st16{fill:#FFFFFF;} /*Zahnreihe*/

	/*Hautklassen*/
	#student-2-rrze-expo .st9{fill:#FBB57A; fill: var(--hautfarbe, #FBB57A);} /*Hautbasis*/
	#student-2-rrze-expo .st10{fill:#E78052; fill: var(--hautschatten, #E78052);} /*Hautschatten*/
	#student-2-rrze-expo .st15{fill:#AD603E; fill: var(--hautschatten, #AD603E);} /*Nase*/
	#student-2-rrze-expo .st23{fill:#FAB57A; fill: var(--hautfarbe, #FAB57A);} /*Hautfarbe Arm und Hand*/

	/*Haarklassen*/
	#student-2-rrze-expo .st20{fill:#1A1A1A; fill: var(--haarfarbe, #1A1A1A);} /*Haarbasis*/
	#student-2-rrze-expo .st21{fill:#484848; fill: var(--haarlicht, #484848);} /*Haarlicht*/
	#student-2-rrze-expo .st14{fill:#3C2415; fill: var(--augenbrauen, #3C2415);} /*Augenbrauen*/

	#student-2-rrze-expo .st2{fill:#151A21; fill: var(--schuhfarbe, #151A21);} /*Schuhbasis und Schuhkappe*/
	#student-2-rrze-expo .st3{fill:#0B0D11; fill: var(--schuhsohle, #0B0D11);} /*Schuhakzent*/
	#student-2-rrze-expo .st4{fill:#050608; fill: var(--schuhsohle, #050608);} /*Schuhsohle*/

	/*Assetklassen*/
	#student-2-rrze-expo .st7{opacity:0.5;} /*Schlagschatten*/

	#student-2-rrze-expo .st22{fill:#E6E7E8; fill: var(--klemmbrett, #E6E7E8);} /*Klemmbrett*/

</style>
<g id="student-2-rrze-expo">
	<g id="student-2-student-2-armlinks">
		<path id="student-2-student-2-jackenbasislinks_1_" class="st0" d="M27.5,295.7c5.2-43.5,31.3-115.1,50.3-134.1c9.4,13.1,26.5,30.8,25.6,62l-32.8,74.2
			C56.3,312.3,36.5,312.1,27.5,295.7z"/>
		<path id="student-2-student-2-jackenschattenlinks" class="st1" d="M101.4,203.9c-3.2,0.6-6.4,1.6-9.5,2.6c-3.3,1.1-6.5,2.3-9.6,3.7
			c-0.7,5.4-2.2,10.7-4.2,15.6c-1.3,3.3-2.9,6.4-3.7,9.9c-0.6,2.8-0.6,5.6-0.5,8.4c0.2,6.9,0.2,14.1-3.4,20.3
			c-1.5,2.7-4,4.7-5.4,7.4c-1.9,3.7,0.5,2.1,0.7,6c0.1,3.7-12.7,0-14.3,3.3c-0.1,0.2,10.9,13.3,10.8,13.5c0.8,0.7,1.7,1.3,2.6,1.7
			c1.6,0.8,3.2,1.5,4.7,2.6c0.4-0.4,0.8-0.7,1.2-1.1l32.8-74.2C103.6,216.3,102.8,209.8,101.4,203.9z"/>
		<path id="student-2-student-2-jackenvorderarmbasislinks" class="st0" d="M41.9,277.6l15,1.1l42,59.1l-8.2,29.3c-12.7-5-54.6-46-61.3-59.9
			C22,292.2,36.2,278.1,41.9,277.6z"/>
	</g>
	<g id="student-2-student-2-hoseundschuhe">
		<g id="student-2-student-2-schuhlinks">
			<g id="student-2-student-2-schuhbasislinks">
				<path class="st2" d="M65.9,679.9h78l-3.5-48.6c-11.2-1.9-21.8-2.3-31.1,0c0,0,1.9,15-13.7,19.9C80,656.1,65.9,654.6,65.9,679.9
					z"/>
			</g>
			<g id="student-2-student-2-schuhakzentlinks">
				<path class="st3" d="M109.3,633.8c9.4,0.7,20.9,1,24.7,10.7c2.2,5.6,1.3,12.3,1,18.1c-0.3,5.7-0.2,11.5-0.4,17.2h9.3l-3.5-48.6
					c-11.2-1.9-21.8-2.3-31.1,0C109.3,631.3,109.4,632.3,109.3,633.8z"/>
			</g>
			<g id="student-2-student-2-schuhkappelinks">
				<path class="st2" d="M81.2,656.7c-12.7,0-15.4,9-15,23.2h44.6C99.7,655.9,92.6,656.7,81.2,656.7z"/>
			</g>
			<g id="student-2-student-2-schuhsohlelinks">
				<path class="st3" d="M66.3,673.5c-0.3,1.9-0.4,4.1-0.4,6.4h78l-0.5-6.4H66.3z"/>
			</g>
			<g id="student-2-student-2-schuhsohlelinkshinten">
				<path class="st4" d="M130.4,673.5c-0.1,1.9-0.1,4.1-0.1,6.4h13.6l-0.1-6.4H130.4z"/>
			</g>
		</g>
		<g id="student-2-student-2-schuhrechts">
			<g id="student-2-student-2-schuhbasisrechts">
				<path class="st2" d="M179.7,636.2c1.7-11.5,28.7-8.9,28.7,0.1c0,23.1,5.2,20.1,5.2,37.5c0,5.2,0.5,0.6-18.8,0.6
					c-19.3,0-25.9,6-25.9-0.4c0-17.2,7-10.2,8.7-21.6L179.7,636.2z"/>
			</g>
			<g id="student-2-student-2-schuhakzentrechts">
				<path class="st3" d="M186.1,641.5c-3,5.9-1.8,13.2-3.8,19.4c-1.8,5.6-6.4,11.5-11.4,16c-1.3-0.2-2-0.9-2-2.8
					c0-17.2,7-10.2,8.7-21.6l2.1-16.2c1.5-10.3,23.3-9.3,27.8-2.5C199.3,633.4,190.2,633.3,186.1,641.5z"/>
			</g>
			<g id="student-2-student-2-schuhkapperechts">
				<path class="st2" d="M174.1,659.8c12-4,25.8-3.2,37.9,0.9c0.9,3.2,1.6,6.8,1.6,13.2c0,5.2,0.5,0.6-18.8,0.6
					c-19.3,0-25.9,6-25.9-0.4C168.8,663.3,171.6,662,174.1,659.8z"/>
			</g>
			<g id="student-2-student-2-schuhsohlerechts">
				<path class="st3" d="M214,673.5c0.2,1.9,0.3,4.1,0.2,6.4h-46.3l0.3-6.4H214z"/>
			</g>
		</g>
		<g id="student-2-student-2-hose">
			<path class="st5" d="M90.4,309.4c0,0-4.8,89.3,13.4,183.5c1.1,5.9,7.7,124.5,3.8,146.2c11,3.4,22.4,3.2,34.1,0
				c0,0,14.8-91.4,1.7-149l-5-66.2l-5.7-43.4c0,0,20.4,103.3,28.4,120.9c8,17.6,16.2,139,16.2,139c11.9,3.4,22.8,3.5,32.7,0.1
				c0,0,8.5-79.4-11.4-157.4c0,0-10.7-144.3-16.4-171.7L90.4,309.4z"/>
		</g>
		<g id="student-2-hemdschatten_1_">
			<path class="st6" d="M113.4,372.6c10.2,2.4,20.6,2.8,31,1.9c15.1-1.4,29.8-5.4,44.3-9.5c-2.3-24.1-4.7-44.9-6.5-53.6l-91.8-2
				c0,0-1.2,22.6-0.1,57.1C98,368.3,105.6,370.8,113.4,372.6z"/>
		</g>
		<g id="student-2-student-2-hosenschatten">
			<path class="st6" d="M143.4,490.2l-2.9-38.7c-1,8.9-3.2,17.6-5.7,26.2c3.3,11.6,4.5,23.7,5,35.8c0.4,11.9,0.1,23.7,0.1,35.6
				v40.8c0,13.1-1.5,25.7-4.3,38.5c-0.8,3.6-1.5,9-2.3,12.5l8.4-1.8C141.7,639.2,156.5,547.8,143.4,490.2z"/>
			<path class="st6" d="M198.8,483.8c1.2,12.7,1.9,25.5,2,38.3c0,2.7,0,5.3-0.1,8c2.6,8,4.8,15.9,5.3,24.4
				c1.1,18.6,2.2,37.2,1.3,55.8c-0.5,10.3-3,22.4-5.3,32.4l8.1-2.1C210,640.6,218.5,561.6,198.8,483.8z"/>
		</g>
		<g id="student-2-student-2-hosenlichtlinks" class="st7">
			<path class="st8" d="M121.8,437.7c2.2,20.6-1.4,37.3-8.1,37.3c-6.7,0-13.9-16.7-16.1-37.3c-2.2-20.6-1.5-62.4,5.1-62.4
				C109.4,375.3,119.6,417.1,121.8,437.7z"/>
		</g>
		<g id="student-2-student-2-hosenlichtrechts" class="st7">
			<path class="st8" d="M184.1,440.8c3.9,20.6,1.6,37.3-5.1,37.3c-6.7,0-15.2-16.7-19.1-37.3c-3.9-20.6-3-69.7,3.7-69.7
				C170.3,371.1,180.2,420.2,184.1,440.8z"/>
		</g>
	</g>
	<g id="student-2-student-2-dekoltee">
		<g id="student-2-student-2-dekoltee_1_">
			<path class="st9" d="M163.4,112.5c0,0,0,29.4,5.9,41.6c5.9,12.2-35.3,36-35.3,36s-22.2-22.6-14.2-33.9c8-11.3,9.7-34,9.7-34
				L163.4,112.5z"/>
		</g>
	</g>
	<g id="student-2-student-2-halsschatten">
		<g id="student-2-student-2-halsschatten_1_">
			<path class="st10" d="M156.6,141.7c-5.3,2.6-12,3.4-17.8,2.4c-4.4-0.8-8.4-2.5-12.3-4.6c2.2-9,2.9-17.3,2.9-17.3l34-9.7
				c0,0,0,10.6,1.3,21.7C161.9,136.6,160.1,140.1,156.6,141.7z"/>
		</g>
	</g>
	<g id="student-2-student-2-hemd">
		<g id="student-2-student-2-hemdbasis">
			<path class="st11" d="M76.4,163c2.1-1.9,45-21.9,45-21.9l12.1,40.6l37.1-43.1c0,0,42.6,25.6,45.2,28.1
				c1.6,1.6-11.3,36.3-20.7,61.2c-5.4,14.2-4.9,10.6-9.7,25.3c-4.8,14.7,7.1,102.4,7.1,102.4c-39,12.7-76.1,14.7-110.6,2.2
				l4.9-73.1l-5.2-91.6C81.5,193.2,74.3,164.9,76.4,163L76.4,163z"/>
		</g>
	</g>
	<g id="student-2-student-2-jackemitkragen">
		<g id="student-2-student-2-jackenbasislinks">
			<path class="st0" d="M112.5,314.9c6,0,7.1-29.3,6-44.2c-1.1-14.6-1.6-29.2-1.6-43.9c0-28.1-1.2-56.3,1.4-84.3
				c-9.9,4.6-40.1,18.8-41.9,20.4c-2.1,1.9,5.1,30.2,5.1,30.2s-5.1,115-3.8,120.6C79,319.4,106.4,314.9,112.5,314.9z"/>
		</g>
		<g id="student-2-student-2-jackenkragenlinks">
			<path class="st12" d="M108.6,145.8c-1.6,3.5-10.3,21.6-10.3,21.6l16.5,1.9l-8.1,5.1c0,0,6.2,40.7,10.3,49.1
				c-0.1-27,7.1-62.3,9.6-89.3C123.5,135.7,115.5,140.1,108.6,145.8z"/>
		</g>
		<g id="student-2-student-2-jackenbasisrechts">
			<path class="st0" d="M203.4,228c9.5-25,13.9-59.6,12.2-61.2c-2.5-2.5-41.2-25.8-44.8-28c-3.1,6.1-5.2,12.7-7.3,19.3
				c-2.3,7.2-5,14.2-7.4,21.4c-9.3,28.1-12,57.8-13.3,87.3c-0.8,16.2-1.6,48.5,7.6,48.5c9.2,0,55.1,3.5,56.9-1.7
				C209,308.4,198,242.2,203.4,228z"/>
		</g>
		<g id="student-2-student-2-jackenkragenrechts">
			<path class="st12" d="M174.3,176.3l-9-6.6l19.4-1.3c0,0-0.3-17.6-0.9-23.5c-0.8-3.2-13.2-11.3-14.5-12.2
				c-3.1,6.1-3.7,18.8-5.8,25.3c-2.3,7.2-5,14.2-7.4,21.4c-4.7,14.1-7.7,28.7-9.7,43.4C157.6,192.2,174.3,176.3,174.3,176.3z"/>
		</g>
	</g>
	<g id="student-2-student-2-gesicht">
		<g id="student-2-student-2-facials">
			<g id="student-2-student-2-ohrrechts">
				<path class="st10" d="M169,90.2c-1.3,6.2,0.8,11.8,4.6,12.6c3.9,0.8,8.1-3.5,9.4-9.6c1.3-6.2-0.8-11.8-4.6-12.6
					C174.6,79.8,170.4,84.1,169,90.2L169,90.2z"/>
			</g>
			<g id="student-2-student-2-ohrlinks">
				<path class="st10" d="M101.8,93.2c1.3,6.2,5.5,10.5,9.4,9.7c3.9-0.8,6-6.5,4.7-12.6c-1.3-6.2-5.5-10.5-9.4-9.7
					C102.6,81.4,100.5,87,101.8,93.2L101.8,93.2z"/>
			</g>
			<g id="student-2-student-2-kopfbasis">
				<path class="st9" d="M142.4,43.9c31.1,0,32.9,29.1,33,32.7c0,0.2,0,0.4,0,0.6c-0.2,3.2-2,33.2-5,39
					c-2.5,4.8-21.2,20.3-23,20.3H146h-7.1h-1.5c-1.8,0-20.5-15.5-23-20.3c-3-5.7-4.8-35.7-5-39c0-0.2,0-0.4,0-0.6
					C109.5,73.1,111.4,43.9,142.4,43.9L142.4,43.9z"/>
			</g>
			<g id="student-2-student-2-haarschatten">
				<path class="st10" d="M169.9,69.7c-1.9-1.8-2.9-3.9-4.4-6c-1.7-2.4-4.1-3.9-7.1-4.1c-3.1-0.2-6.1,1-9,1.8
					c-5,1.3-10.2,1.8-15.4,2.1c-2.6,0.1-5.2,0.2-7.8,0.3c-1.6,0-3.5-0.1-5.1,0.3c-1.7,0.5-2.7,2.2-3.6,3.5
					c-0.6,0.9-0.4,1.4-1.7,2.2c-0.4,0.3-0.7,0.3-1.1,0.6c-0.9,0.8-1.6,2.6-2.1,3.6c-1.2,2.7-2,5.5-2.7,8.3
					c-0.2-2.6-0.3-4.5-0.3-5.2c0-0.2,0-0.4,0-0.6c0.1-3.5,2-32.7,33-32.7c26.4,0,31.7,21,32.8,29.5
					C173.3,72.4,171.5,71.2,169.9,69.7z"/>
			</g>
			<g id="student-2-student-2-augerechts">
				<path class="st13" d="M157,82.9c-2.2-0.2-4.1,2.1-4.3,5.2c-0.2,3.1,1.4,5.8,3.6,6.1c2.2,0.2,4.1-2.1,4.3-5.2
					C160.8,85.9,159.2,83.1,157,82.9L157,82.9z"/>
			</g>
			<g id="student-2-student-2-augelinks">
				<path class="st13" d="M128.5,82.9c-2.2-0.2-4.1,2.1-4.3,5.2c-0.2,3.1,1.4,5.8,3.6,6.1c2.2,0.2,4.1-2.1,4.3-5.2
					C132.3,85.9,130.7,83.1,128.5,82.9L128.5,82.9z"/>
			</g>
			<g id="student-2-student-2-augenbrauelinks">
				<path class="st14" d="M116.5,75c0.5-0.2,9.1-5.2,20.7-2.2c0.8,0.2,1.6,4.5,1,4.5c-0.2,0-0.4,0-0.6,0
					c-10.7-2.6-19.3,0.2-19.5,0.3c-0.9,0.3-2,0-2.5-0.7C115.2,76.1,115.6,75.3,116.5,75L116.5,75z"/>
			</g>
			<g id="student-2-student-2-augenbrauerechts">
				<path class="st14" d="M168.4,74.1c-0.5-0.2-9.1-5.2-20.7-2.2c-0.8,0.2-1.6,4.5-1,4.5c0.2,0,0.4,0,0.6,0
					c10.7-2.6,19.3,0.2,19.5,0.3c0.9,0.3,2,0,2.5-0.7C169.7,75.3,169.3,74.5,168.4,74.1L168.4,74.1z"/>
			</g>
			<g id="student-2-student-2-nasenruecken">
				<path class="st15" d="M143.5,99.8c0.5,1.3,0.5,1,0.1,2c-0.3,0.7-0.9,1.3-1.3,1.9c-0.8,1.2,2.7,0.8,3.3-0.1
					c0.5-0.8,1.8-2.1,2.1-3.1c0.3-1.2-0.3-1.7-0.9-2.4c-1.8-2.1-2.9-4.7-3.4-7.8C143.2,88.9,141.6,95.5,143.5,99.8L143.5,99.8z"/>
			</g>
			<g id="student-2-student-2-mundraum">
				<path class="st10" d="M130.5,111.9c0,0,6.6,10.5,12.6,10.5c6,0,12.4-10.5,12.4-10.5C147,110.6,138.6,110.6,130.5,111.9z"/>
			</g>
			<g id="student-2-student-2-zahnreihe">
				<path class="st16" d="M153.3,115c1.3-1.8,2.2-3.1,2.2-3.1c-8.5-1.3-16.8-1.3-25,0c0,0,0.8,1.3,2.1,2.9
					C139.5,115.8,146.4,115.8,153.3,115z"/>
			</g>
		</g>
	</g>
	<g id="student-2-student-2-hemdkragenlinks">
		<path class="st17" d="M127.9,132.6c0,0-15.1,6.4-24.8,27.8c-5.4,11.8,1.1,1.3,1.1,1.3l4-7.1c0,0,23.2,24,24.8,27.3l-6.2-43.3
			L127.9,132.6z"/>
	</g>
	<g id="student-2-student-2-hemdkragenrechts">
		<path class="st17" d="M164.7,133.1c0,0,7.1,7.1,8,9.7c1.1,3.4,0.3,25.9,0.3,25.9l-12-9.2l-10.1,6.5l-18,15.7
			C133,181.9,161.9,144.9,164.7,133.1z"/>
	</g>
	<g id="student-2-student-2-hemdschattenknopfleiste">
		<path class="st17" d="M129.9,366.2c0-0.8-1.9-84.9-2.4-117.6c-0.5-32.8,5.5-66.6,5.5-67l7-5.8c0,0.3-6.8,41.1-6.4,73.7
			c0.5,32.7,3.8,115.8,3.8,116.6L129.9,366.2z"/>
	</g>
	<g id="student-2-student-2-knopfleiste">
		<g id="student-2-student-2-knopf1">
			<path class="st18" d="M135.6,182.5c-1.1,0-2.1,0.9-2.1,2.1c0,1.1,0.9,2.1,2.1,2.1c1.1,0,2.1-0.9,2.1-2.1
				C137.7,183.4,136.7,182.5,135.6,182.5z"/>
		</g>
		<g id="student-2-student-2-knopf2">
			<path class="st18" d="M132.6,210.2c-1.1,0-2.1,0.9-2.1,2.1c0,1.1,0.9,2.1,2.1,2.1c1.1,0,2.1-0.9,2.1-2.1
				C134.7,211.1,133.8,210.2,132.6,210.2z"/>
		</g>
		<g id="student-2-student-2-knopf3">
			<path class="st18" d="M131.1,238c-1.1,0-2.1,0.9-2.1,2.1c0,1.1,0.9,2.1,2.1,2.1c1.1,0,2.1-0.9,2.1-2.1
				C133.2,238.9,132.3,238,131.1,238z"/>
		</g>
		<g id="student-2-student-2-knopf4">
			<path class="st18" d="M131,265.7c-1.1,0-2.1,0.9-2.1,2.1c0,1.1,0.9,2.1,2.1,2.1c1.1,0,2.1-0.9,2.1-2.1
				C133.1,266.6,132.1,265.7,131,265.7z"/>
		</g>
		<g id="student-2-student-2-knopf5">
			<path class="st18" d="M132.3,293.4c-1.1,0-2.1,0.9-2.1,2.1c0,1.1,0.9,2.1,2.1,2.1c1.1,0,2.1-0.9,2.1-2.1
				C134.4,294.4,133.4,293.4,132.3,293.4z"/>
		</g>
		<g id="student-2-student-2-knopf6">
			<path class="st18" d="M132.2,321.2c-1.1,0-2.1,0.9-2.1,2.1c0,1.1,0.9,2.1,2.1,2.1c1.1,0,2.1-0.9,2.1-2.1
				C134.2,322.1,133.3,321.2,132.2,321.2z"/>
		</g>
	</g>
	<g id="student-2-student-2-jackentascherechts">
		<g id="student-2-student-2-taschenkorpusrechts">
			<path class="st12" d="M160.6,200.7V223c0,5,3.8,9,8.5,9h15.1c4.7,0,8.5-4.1,8.5-9v-22.3H160.6z"/>
		</g>
		<g id="student-2-student-2-klappenschattenrechts">
			<path class="st0" d="M160.6,200.7v11.6c0,2.6,3.8,4.7,8.5,4.7h15.1c4.7,0,8.5-2.1,8.5-4.7v-11.6H160.6z"/>
		</g>
		<g id="student-2-student-2-klapprechts">
			<path class="st12" d="M162.6,200.7v10.2c0,2.3,3.4,4.1,7.5,4.1h13.3c4.1,0,7.5-1.9,7.5-4.1v-10.2H162.6z"/>
		</g>
		<g id="student-2-student-2-knopfrechts">
			<path class="st19" d="M176.7,210.6c-0.9,0-1.6,0.7-1.6,1.6c0,0.9,0.7,1.6,1.6,1.6c0.9,0,1.6-0.7,1.6-1.6
				C178.4,211.3,177.6,210.6,176.7,210.6z"/>
		</g>
	</g>
	<g id="student-2-student-2-jackentaschelinks">
		<g id="student-2-student-2-taschenkorpuslinks">
			<path class="st12" d="M85.2,200.7V223c0,5,2.8,9,6.2,9h11.1c3.4,0,6.2-4.1,6.2-9v-22.3H85.2z"/>
		</g>
		<g id="student-2-student-2-klappenschattenlinks">
			<path class="st0" d="M85.2,200.7v11.6c0,2.6,2.8,4.7,6.2,4.7h11.1c3.4,0,6.2-2.1,6.2-4.7v-11.6H85.2z"/>
		</g>
		<g id="student-2-student-2-klappelinks">
			<path class="st12" d="M86.7,200.7v10.2c0,2.3,2.5,4.1,5.5,4.1h9.7c3,0,5.5-1.9,5.5-4.1v-10.2H86.7z"/>
		</g>
		<g id="student-2-student-2-knopflinks">
			<path class="st19" d="M97,210.6c-0.7,0-1.2,0.7-1.2,1.6c0,0.9,0.5,1.6,1.2,1.6c0.7,0,1.2-0.7,1.2-1.6
				C98.2,211.3,97.6,210.6,97,210.6z"/>
		</g>
	</g>
	<g id="student-2-student-2-haarbasis_3_">
		<g id="student-2-student-2-haarbasis_4_">
			<path id="student-2-haarbasis_5_" class="st20" d="M160.5,53.7c0,0,9.9,5.7,8.5,12l3.9,3.9L175,81c0,0,9.6-22.7,7.8-28
				c-1.8-5.3-15.2-14.5-15.2-14.5L160.5,53.7z"/>
		</g>
	</g>
	<g id="student-2-student-2-haarseitelinks">
		<g id="student-2-student-2-haarbasis_1_">
			<path id="student-2-haarbasis_2_" class="st20" d="M123.8,54.8c0,0-9.9,5.7-8.5,12l-3.9,3.9l-2.1,11.3c0,0-9.6-22.7-7.8-28
				c1.8-5.3,15.2-14.5,15.2-14.5L123.8,54.8z"/>
		</g>
	</g>
	<g id="student-2-student-2-haarbestandteil1">
		<g id="student-2-student-2-haarbasis">
			<path class="st20" d="M104.6,28.2c1.7,0.4,3.8,1,5.9,1.7c-4.2-7.3-4.1-13.2-4.1-13.2c2.5,1.7,15.6,1.6,27.5,2.2
				c12.1,0.6,35.4,5.3,38.2,21.2c4.7,27.1-61,18.6-61,18.6c-4.7-8-5.3-14.5-3.3-19.8C105.7,33.4,104.6,28.2,104.6,28.2z"/>
		</g>
		<g id="student-2-student-2-haarlicht_1_">
			<path class="st21" d="M167.6,38.6c-4-6.1-12-8.9-18.7-10.4c-11.2-2.5-22.6-3.7-33.7-7.2c-3.3-1.1-6.2-2.4-8.8-4
				c0-0.2,0-0.3,0-0.3c2.5,1.7,15.6,1.6,27.5,2.2c12.1,0.6,35.4,5.3,38.2,21.2c1.1,6.1-1.4,10.4-5.9,13.4
				C169.3,48.9,170.9,43.6,167.6,38.6z"/>
		</g>
		<g id="student-2-student-2-haarlicht">
			<path class="st21" d="M111.4,33.5c-1,8.4,0.3,16.7,8.7,19.9c11.5,4.3,25,4.3,38.2,3.6c-18.1,5.2-47.1,1.7-47.1,1.7
				C104.7,47.6,106.1,39.3,111.4,33.5z"/>
		</g>
	</g>
	<g id="student-2-student-2-klemmbrett">
		<g id="student-2-student-2-klemmbrettbasis">
			<path class="st22" d="M163,427.3l92.3-43.1c1.6-0.8,2.3-2.7,1.6-4.4l-31.4-67.2c-0.8-1.6-2.7-2.3-4.4-1.6l-92.3,43.1
				c-1.6,0.8-2.3,2.7-1.6,4.4l31.4,67.2C159.4,427.4,161.4,428.1,163,427.3z"/>
		</g>
	</g>
	<g id="student-2-student-2-armrechts">
		<g id="student-2-student-2-hand">
			<path class="st23" d="M220,365.7l4.8,26.8c0,0-3.1,16.5-9.9,12.7c0,0-4.5,8.7-9,5.4c0,0-6.6,8.3-8.7,2.1c0,0-3.5,7.6-6.1,5
				c-2.6-2.6,2.6-18.4,2.6-18.4c-0.5,1.2-8.5,2.6-6.8-0.2c1.7-2.8,2.4-8.5,2.4-18.9c0-10.4,8.9-19.6,8.9-19.6L220,365.7z"/>
		</g>
		<g id="student-2-student-2-hemdschatten">
			<path class="st10" d="M204.2,385.3c4.2,1.5,8.4,2.7,12.9,2.9c2.4,0.1,4.7,0.1,7.1,0.1l-4.1-22.6l-21.9-5.1c0,0-8.3,8.6-8.8,18.6
				C194.2,381.4,199.1,383.5,204.2,385.3z"/>
		</g>
		<g id="student-2-student-2-arm">
			<path class="st23" d="M216.4,167c13.6,7.9,14.6,96.2,13.4,110.5c-1.2,14.3-9.8,88.4-9.8,88.4c-7.1,1.9-14.4-0.1-21.9-5.2
				c4-31.7-2.9-53.2,5.8-81c-6.1-21.9-5.1-33.5-10.8-47.8C193.1,231.8,202.8,159.1,216.4,167z"/>
		</g>
		<g id="student-2-student-2-hemd_1_">
			<path class="st11" d="M216.4,167c13.6,7.9,14.6,96.2,13.4,110.5c-1.2,14.3-5,106.5-5,106.5c-7.1,1.9-31.2-5.2-38.7-10.4
				c4-31.7,9.1-66.2,17.8-94c-6.1-21.9-5.1-33.5-10.8-47.8C193.1,231.8,202.8,159.1,216.4,167z"/>
		</g>
		<g id="student-2-student-2-basisfarbe">
			<path class="st0" d="M216.4,167c28.7,14.9,23.7,101.2,22.5,115.5c-1.2,14.3-9.4,89.7-9.4,89.7c-7.1,1.9-37.4-5.2-44.9-10.4
				C194.8,331,198,279,198,279s0.8-32.9-4.9-47.1C193.1,231.8,202.5,159.7,216.4,167z"/>
		</g>
		<g id="student-2-student-2-schatten">
			<path class="st1" d="M199.5,346.7c1.5-2.3,3.4-4.6,3.8-7.3c0.2-1.8,0.3-2.9,1.5-4.2c2.6-2.9,6.5-4.2,9.5-6.7
				c-3.4-4.5-7.6-8.2-11.6-12.2c-0.3-0.3-0.2-0.8,0.1-1c4.6-3.8,9.9-6.5,14.6-10c-3.8-0.2-6.8-2.4-8.5-6.2
				c-2.3-5.1-2.5-11.1-2.6-16.6c-0.1-6.9,0.4-13.9,0.6-20.8c0.2-6.4,0.4-12.7-1.6-18.8c-2.9-8.8-6.8-17.2-10-25.9
				c-1.5,8.7-2.3,14.9-2.3,14.9c5.7,14.3,4.9,47.1,4.9,47.1s-3.2,52.1-13.3,82.9c0.9,0.6,2.1,1.3,3.6,1.9
				C192,358.1,195.8,352.4,199.5,346.7z"/>
		</g>
	</g>
</g>
</svg>
