<svg version="1.1" id="Student_1" xmlns="http://www.w3.org/2000/svg" xmlns:xlink="http://www.w3.org/1999/xlink"
	 viewBox="0 0 280 704" style="enable-background:new 0 0 280 704;" xml:space="preserve">
<style type="text/css">
	#student-1-rrze-expo{
	/*Hautfarben*/
	--hautfarbe: #FAB57A;
	--hautschatten: #E78052;
	--augenfarbe: #231F20;

	/*Haarfarben*/
	--haarfarbe: #603913;
	--haarschatten: #301D0A;
	--haarlicht: #806142; /*Farbe etwas heller als Basis-Hautton*/

	/*Klamotten*/
	--mantelfarbe: #6592BF;
	--mantelschatten: #4C6E8F;
	--mantelaermel: #ADB7C4;

	--hosenfarbe: #FBB040;
	--hosenschatten: #AE731B;
	--hosenbuendchen: #BBC7D9;

	--rucksack: #6C0D1B;
	--rucksacktraeger: #BE1E2D;
	/*Die Schuhe übernehmen die Farbe des Rucksacks*/
	}

	#student-1-rrze-expo .st0{fill:#E78052; fill: var(--hautschatten, #E78052);} /*Hautschatten Haar und Hals*/
	#student-1-rrze-expo .st1{fill:#165B3A; fill: var(--rucksack, #2BB673);} /*Schuhbasis */
	#student-1-rrze-expo .st2{fill:#2BB673; fill: var(--rucksacktraeger, #2BB673);} /*Schuhakzent */
	#student-1-rrze-expo .st3{fill:#F1F2F2;} /*Schuhkappe */
	#student-1-rrze-expo .st4{fill:#D1D3D4;} /*Schuhsohle und Schnürsenkel */
	#student-1-rrze-expo .st5{fill:#808285;} /*Schuhsohlenschatten*/
	#student-1-rrze-expo .st6{fill:#6C0D1B; fill: var(--rucksack, #6C0D1B);} /*Rucksack*/
	#student-1-rrze-expo .st7{fill:#6592BF; fill: var(--mantelfarbe, #6592BF);} /*Mantelfarbe*/
	#student-1-rrze-expo .st8{fill:#4C6E8F; fill: var(--mantelschatten, #4C6E8F);} /*Mantelschatten*/
	#student-1-rrze-expo .st9{fill:#603913; fill: var(--haarfarbe, #603913);} /*Haarfarbe*/
	#student-1-rrze-expo .st10{fill:#301D0A; fill: var(--haarschatten, #301D0A);} /*Haarschatten Nacken*/
	#student-1-rrze-expo .st11{fill:#AE731B; fill: var(--hosenschatten, #AE731B);} /*Hosenfarbe Schatten*/
	#student-1-rrze-expo .st12{fill:#FBB040; fill: var(--hosenfarbe, #FBB040);} /*Hosenfarbe Licht*/
	#student-1-rrze-expo .st14{opacity:0.5;} /*Schlagschatten*/
	#student-1-rrze-expo .st14{fill:#1A1718;} /*Shirtschatten*/
	#student-1-rrze-expo .st15{fill:#E6E7E8;} /*Shirtfarbe*/
	#student-1-rrze-expo .st16{fill:#FAB57A; fill: var(--hautfarbe, #FBBE7D);} /*Haut Dekoltee*/
	#student-1-rrze-expo .st17{fill:#BBC7D9; fill: var(--hosenbuendchen, #BBC7D9);} /*Hosenbund*/
	#student-1-rrze-expo .st18{fill:#FBBE7D; fill: var(--hautfarbe, #FBBE7D);} /*Haut Gesicht*/
	#student-1-rrze-expo .st19{fill:#231F20; fill: var(--augenfarbe, #231F20);} /*Augenfarbe*/
	#student-1-rrze-expo .st20{fill:#FFFFFF;} /*Mundraum*/
	#student-1-rrze-expo .st21{fill:#806142; fill: var(--haarlicht, #806142);} /*Haarlicht*/
	#student-1-rrze-expo .st22{fill:var(--augenbrauen, #754C29);} /*Augenbrauen*/
	#student-1-rrze-expo .st23{fill:#BE1E2D; fill: var(--rucksacktraeger, #BE1E2D);} /*Rucksackträger*/
	#student-1-rrze-expo .st24{fill:#ADB7C4; fill: var(--mantelaermel, #ADB7C4);} /*Ärmelbund*/
</style>
<g id="student-1-rrze-expo">
	<path class="st0" d="M181.8,597.9c-1,17.6-1.2,32.2-0.1,38.5l-23,1.5c0,0-1.4-15.8-2.2-38.4C164.9,598,173.4,597.4,181.8,597.9
		z"/>
	<path class="st1" d="M227.7,665h-78l3.5-48.6c11.2-1.9,21.8-2.3,31.1,0c0,0-1.9,15,13.7,19.9
		C213.6,641.2,227.7,639.7,227.7,665z"/>
	<path class="st2" d="M159,665h-9.3l3.6-48.6c5.6-1,11-1.5,16.3-1.6c5.2,0,10.2,0.4,14.9,1.6c0,0,0,0.4-0.1,0.9
		c0,0.1,0,0.2,0,0.2c0,2.1,0.3,6.5,2.9,10.8c-8.9-0.1-17.8-0.3-26.7-0.4c-0.3,0.6-0.7,1.1-0.9,1.7c-2.2,5.6-1.3,12.3-1,18.1
		C159,653.5,158.9,659.3,159,665z"/>
	<path class="st3" d="M212.4,641.8c12.7,0,15.4,9,15,23.2h-44.6C194,641,201.1,641.8,212.4,641.8z"/>
	<path class="st4" d="M193,665h-10.2c11.2-24,18.3-23.2,29.6-23.2C215.8,641.8,189.9,640.7,193,665z"/>
	<path class="st2" d="M184.7,643c-1.5,1.4-1.7,3.5-0.5,4.8c1.2,1.3,3.4,1.2,4.8-0.2c1.5-1.4,1.7-3.5,0.5-4.8C188.3,641.5,186.1,641.6,184.7,643z"/>
	<path class="st4" d="M186.4,647.1c15.8-8.5,28.6-6,28.6-6c-9.8-7.2-28.3,2.2-28.6,2.3c-1,0.4-1.5,1.6-1.1,2.7
		C185.5,646.5,185.9,646.9,186.4,647.1z"/>
	<path class="st2" d="M176.3,639.5c-1.5,1.4-1.7,3.5-0.5,4.8c1.2,1.3,3.4,1.2,4.8-0.2c1.5-1.4,1.7-3.5,0.5-4.8
		C179.9,638.1,177.8,638.2,176.3,639.5z"/>
	<path class="st2" d="M168.7,635.9c-1.5,1.4-1.7,3.5-0.5,4.8c1.2,1.3,3.4,1.2,4.8-0.2c1.5-1.4,1.7-3.5,0.5-4.8
		C172.3,634.4,170.1,634.5,168.7,635.9z"/>
	<path class="st4" d="M177.8,643.5c15.8-8.5,25-5.8,25-5.8c-6.6-6.1-24.7,1.9-24.9,2.1c-1,1.1-1.5,1.6-1.1,2.7
		C177,642.9,177.3,643.3,177.8,643.5z"/>
	<path class="st4" d="M170.2,636.3c0.2-0.1,17.5-9.7,22.9-2.3c0,0-10.3-2.5-23,6c-0.4-0.2-0.7-0.6-0.8-1.1
		C169,637.9,169.4,636.7,170.2,636.3z"/>
	<path class="st4" d="M227.4,658.6c0.3,1.9,0.4,4.1,0.4,6.4h-78l0.5-6.4H227.4z"/>
	<path class="st5" d="M163.2,658.6c0.1,1.9,0.1,4.1,0.1,6.4h-13.6l0.1-6.4H163.2z"/>
	<path class="st0" d="M117.1,600.5c-2.6,18.2-4.3,31.6-4.3,31.6l-16.1,2.4c0,0-1.2-13.6-1.1-35.2
		C103.7,597.6,110.9,598,117.1,600.5z"/>
	<path class="st1" d="M91.6,621.3c1.7-11.5,28.7-8.9,28.7,0.1c0,23.1,5.2,20.1,5.2,37.5c0,5.2,0.5,0.6-18.8,0.6
		c-19.3,0-25.9,6-25.9-0.4c0-17.2,7-10.2,8.7-21.6L91.6,621.3z"/>
	<path class="st1" d="M89.5,637.5l1.3-9.7l0.8-6.5c1.7-11.5,28.7-8.9,28.7,0.1c0,2.3,0.1,4.3,0.1,6.2
		C120.8,634,99.7,618.3,89.5,637.5z"/>
	<path class="st2" d="M98,626.6c-3,5.9-1.8,13.2-3.8,19.4c-1.8,5.6-6.4,11.5-11.4,16c-1.3-0.2-2-0.9-2-2.8
		c0-17.2,7-10.2,8.7-21.6l2.1-16.2c1.5-10.3,23.3-9.3,27.8-2.5C111.2,618.5,102.2,618.4,98,626.6z"/>
	<path class="st2" d="M118.8,631.5c0.3,1.8-0.5,3.5-1.8,3.9c-1.3,0.3-2.7-0.8-3-2.6c-0.3-1.8,0.5-3.5,1.8-3.9
		C117.1,628.5,118.5,629.7,118.8,631.5z"/>
	<path class="st2" d="M91.4,631.5c-0.3,1.8,0.5,3.5,1.8,3.9c1.3,0.3,2.7-0.8,3-2.6c0.3-1.8-0.5-3.5-1.8-3.9
		C93,628.5,91.7,629.7,91.4,631.5z"/>
	<path class="st4" d="M94.7,633.6c0.2,0,0.3,0,0.5-0.1c6.8-3.5,14.6-3.5,21.4,0c0.6,0.3,1.3,0,1.5-0.7c0.2-0.7,0-1.5-0.6-1.8
		c-7.4-3.8-15.9-3.8-23.3,0c-0.6,0.3-0.8,1.1-0.6,1.8C93.8,633.3,94.3,633.6,94.7,633.6z"/>
	<path class="st2" d="M119.1,643c0.3,1.8-0.5,3.5-1.8,3.9c-1.3,0.3-2.7-0.8-3-2.6c-0.3-1.8,0.5-3.5,1.8-3.9
		C117.4,640,118.8,641.2,119.1,643z"/>
	<path class="st4" d="M94.7,644.3c0.2,0,0.3,0,0.5-0.1c6.8-3.5,14.6-3.5,21.4,0c0.6,0.3,1.3,0,1.5-0.7c0.2-0.7,0-1.5-0.6-1.8
		c-7.4-3.8-15.9-3.8-23.3,0c-0.6,0.3-0.8,1.1-0.6,1.8C93.8,644,94.3,644.3,94.7,644.3z"/>
	<path class="st2" d="M118.7,637.1c0.3,1.8-0.5,3.5-1.8,3.9c-1.3,0.3-2.7-0.8-3-2.6c-0.3-1.8,0.5-3.5,1.8-3.9
		C117,634.1,118.4,635.3,118.7,637.1z"/>
	<path class="st2" d="M91.5,637.1c-0.3,1.8,0.5,3.5,1.8,3.9c1.3,0.3,2.7-0.8,3-2.6c0.3-1.8-0.5-3.5-1.8-3.9
		C93.2,634.1,91.8,635.3,91.5,637.1z"/>
	<path class="st4" d="M94.7,639c0.2,0,0.3,0,0.5-0.1c6.8-3.5,14.6-3.5,21.4,0c0.6,0.3,1.3,0,1.5-0.7c0.2-0.7,0-1.5-0.6-1.8
		c-7.4-3.8-15.9-3.8-23.3,0c-0.6,0.3-0.8,1.1-0.6,1.8C93.8,638.6,94.3,639,94.7,639z"/>
	<path class="st1" d="M86,644.9c12-4,25.8-3.2,37.9,0.9c0.9,3.2,1.6,6.8,1.6,13.2c0,5.2,0.5,0.6-18.8,0.6
		c-19.3,0-25.9,6-25.9-0.4C80.8,648.4,83.5,647.1,86,644.9z"/>
	<path class="st4" d="M125.9,658.6c0.2,1.9,0.3,4.1,0.2,6.4H79.8l0.3-6.4H125.9z"/>
	<path class="st6" d="M95.5,173.4c0,0-55.3,111.9-39.7,153.5c15.6,41.6,85,30.2,86.4,3.3c1.4-26.9-8.5-132.7-34-159.1L95.5,173.4
		z"/>
	<path class="st7" d="M198.9,168.4c3.2,2.7,33,45.7,36.9,88.7c3.9,43-34.2,54.7-34.2,54.7l-3.4-32.7l11.7-23.9l-18.1-22
		L198.9,168.4z"/>
	<path class="st8" d="M211.3,209.1c6.5,10.6,0.2,26.2-7.4,38.7l-12-14.6l5-45.2C201.4,195.1,206.7,201.6,211.3,209.1z"/>
	<path class="st8" d="M193.6,216.8c10.2,14.2,22.9,29.6,19.9,45.9c-2.8,15.2-9.5,30.7-4.3,45.7c-4.4,2.4-7.6,3.4-7.6,3.4
		l-3.4-32.7l11.7-23.9l-18.1-22L193.6,216.8z"/>
	<path class="st8" d="M196.2,266.8c0,0,32.3,15,27.5,36.3c0,0-9.5,8.1-18.3,8.4c-8.8,0.4-20.9-29.3-19.8-34.8
		C186.7,271.2,196.2,266.8,196.2,266.8z"/>
	<path class="st9" d="M183.8,76.6c0,0,7.1,102.8-9.5,111.6c-16.6,8.8-73.3,10.8-73.8-9.3c-0.5-20,0.9-111.1,16.2-121.7
		C132.1,46.5,176.9,39.5,183.8,76.6z"/>
	<path class="st10" d="M143.5,89c-34.2,8.4-33.6,71.1-31,102c17.7,6.2,49.9,3.5,61.8-2.8c0.9-0.5,1.7-1.4,2.5-2.4
		C178.7,150.9,180.8,79.8,143.5,89z"/>
	<path class="st11" d="M208.7,311.4c0,0-0.1,27.5-0.1,62.7c0,58.6-22.5,210.2-22.5,232.6c-12.9,3.7-23.9,2.8-34.2,0l1.1-209.4
		l-11.9,79.4l-16.6,130c-12.9,5.1-19.7,5.3-32.3,0c0,0-6.5-207.8,7-294L208.7,311.4z"/>
	<path class="st12" d="M110.5,312.6l93.1-1.1c2.5,9.4-11.4,176.8-27.4,176.8c-16,0-15.9-115.4-19.8-138.5
		c-10.2,47.2-22.5,135.7-42.1,135.7S106.9,343.3,110.5,312.6z"/>
	<g class="st13">
		<path class="st14" d="M188.7,359.7c-14.3,4-29.7,4.4-44.4,3.2c-17-1.4-33.5-5.5-49.5-11.1c0.9-12.2,2.2-25.1,4.4-39l109.5-1.3
			c0,0-0.1,17.6-0.1,42.7C201.9,355.5,195.5,357.8,188.7,359.7z"/>
		<path class="st15" d="M106.3,269.9c-1.2-8.9-13.2-96.7-13.2-96.7s30.9-17.2,36.8-20.2c6.5,1.1,9.3,4,15.9,3.8
			c7.4-0.2,16.6,0.5,23-3.9c8.1,4.1,27.3,14,30.1,15.5c3.7,1.9,0.4,0.5-0.2,15c-0.4,9.5,5.9,21,6.2,34.8
			c0.3,13.8-4.2,31.9-4.2,31.9c8.7,31.2,11.2,91,11.2,94.2c0,8.9-49.9,8.5-51.7,8.4c-23.9-0.5-70.6-8.6-68.2-11
			C92.1,321.8,107.6,278.8,106.3,269.9z"/>
		<path class="st7" d="M173.9,358.1c6.1-16.8,6.1-139.2,1-187.4c-0.5-4.7,6.2-11.6,6.2-11.6c7.8,4,16,8.2,17.8,9.2
			c3.7,1.9,0.4,0.5-0.2,15c-0.4,9.5,5.9,21,6.2,34.7c0.3,13.8-4.2,31.9-4.2,31.9c8.7,31.2,11.2,91,11.2,94.2
			C212,352.5,181.4,358.2,173.9,358.1z"/>
		<path class="st8" d="M192.1,179.7c-2.3,3.5-5.3,8.5-8.9,12.7c-2.1,1-4.3,1.8-6.5,2.4c-0.5-9.2-1.1-17.4-1.8-24.1
			c-0.5-4.7,6.2-11.6,6.2-11.6c6.8,3.5,13.8,7.1,16.7,8.6C196.4,171.9,194.6,176,192.1,179.7z"/>
		<path class="st7" d="M101.7,272c-1.2-8.9-8.6-98.8-8.6-98.8s14.7-8.2,25.7-14.2c0,0,9.8,9.8,12.6,19
			c15,47.8,29.6,159.6,12.7,179.9c-24.8-1.3-54.3-13.9-52.1-16.1C92.1,321.8,102.9,280.9,101.7,272z"/>
		<path class="st8" d="M101.7,272c-0.7-5.4-3.7-40-5.9-66.8c3.2,6.4,6.6,12.7,9.1,18.9c4.3,11.2,5.2,19.4,6.3,31
			c1,10.7,4.4,18.2-0.5,28.4c-8.3,17.5-14.3,39.9-14.6,61.4c-2.9-1.5-4.4-2.8-3.9-3.4C92.1,321.8,102.9,280.9,101.7,272z"/>
		<path class="st8" d="M109.5,184.3c-4.6-3.9-8.8-9-13.8-12.5c4.7-2.6,14.9-8.3,23.2-12.8c0,0,12,9.4,12.6,19
			c0.3,5.2,0.7,11.2,1.2,17.8C124.4,192.9,116.6,190.3,109.5,184.3z"/>
		<path class="st16" d="M129,153.4L129,153.4c7.8-6.9-0.4-31.4-0.4-31.4l28.5,1l8.1,28c0,0,1.6,0.8,4.1,2.1v0
			c4.2,2.1,10.8,5.6,16.8,8.7c-8.9,16-27.9,27.3-45.7,18.4c-9.1-4.6-18-11.4-26.2-18.8C120.4,158.1,126.1,154.9,129,153.4z"/>
		<path class="st0" d="M151.7,152.1c-5.2,0.2-14.6-3.6-19.7-4.7c1.8-9.8-3.3-25.3-3.3-25.3l28.5,1l6.3,21.8
			C162.3,148.7,157.5,151.8,151.7,152.1z"/>
		<path class="st7" d="M176.4,192.8c0,0-10-30.8-6.6-41.8c0,0,11.5,3.7,14.9,8.6c0,0,4.8-1.4,10.4,4.5
			C200.8,169.9,176.4,192.8,176.4,192.8z"/>
		<path class="st7" d="M132.5,194c0,0,12.8-32-5.5-41.5c0,0-10.6,1.2-13.1,5.9c0,0-12.5,6.8-13.7,11.2C99,174,132.5,194,132.5,194
			z"/>
		<path class="st7" d="M93.1,173.1c0,0-40.1,60-40.1,89.8c0,29.8,40.2,41.7,40.2,41.7l12.8-23.8l-18.8-24.2l21.5-28.8
			C108.8,227.7,120,195.3,93.1,173.1z"/>
			<path class="st17" d="M152,597.5c0,0,35.3-0.2,35.4,1.6c0.1,1.8,0.5,9.3-1.3,10.6c-1.8,1.3-33,3.7-34-0.5
				C151.1,605.1,149.6,599.9,152,597.5z"/>
		<path class="st17" d="M126.5,596.9c0,0-36.6-0.2-36.7,1.6c-0.1,1.8-0.5,9.3,1.4,10.6c1.9,1.3,34.1,3.7,35.2-0.5
			C127.4,604.5,128.9,599.4,126.5,596.9z"/>
		<path class="st9" d="M121.4,119.5c0,0-1.5,21.3,10.6,40.3c12.1,19.1,5.1,34.8,5.1,34.8s-9.3-28.2-21.9-36.3
				c-12.6-8.1-6-48.8-6-48.8L121.4,119.5z"/>
		<path class="st9" d="M184.8,126.1c0,0-1.3,21.3,9.3,40.3c10.6,19.1,4.5,34.8,4.5,34.8s-8.1-28.2-19.2-36.3
			c-11-8.1-5.2-48.8-5.2-48.8L184.8,126.1z"/>
		<path class="st18" d="M149.7,57c28.9,0.3,30.4,27.5,30.5,30.8c0,0.2,0,0.4,0,0.6c-0.2,3-2.2,31-5,36.3
			c-2.4,4.4-9.8,18.6-26.5,18.6s-23.5-14.7-25.7-19.2c-2.7-5.4-4.1-33.3-4.3-36.4c0-0.2,0-0.4,0-0.6
			C118.7,83.8,120.7,56.7,149.7,57z"/>
		<path class="st0" d="M121.2,117.4c1.5-3,14.3-47.8,14.3-47.8s40.4,21.3,44.3,23.1c0.2-2.1,0.3-3.8,0.3-4.4
			c0-0.2,0-0.4,0-0.6c-0.1-3.3-1.5-30.4-30.5-30.8c-28.9-0.3-31,26.8-31.1,30.1c0,0.2,0,0.4,0,0.6
			C118.7,90,119.5,107.2,121.2,117.4z"/>
		<path class="st19" d="M136.3,96.3c2-0.2,3.8,2,3.9,4.9c0.1,2.9-1.4,5.4-3.4,5.6c-2,0.2-3.8-2-3.9-4.9
			S134.3,96.6,136.3,96.3z"/>
		<path class="st19" d="M162.8,96.6c2-0.2,3.8,2,3.9,4.9c0.1,2.9-1.4,5.4-3.4,5.6c-2,0.2-3.8-2-3.9-4.9
			C159.3,99.4,160.8,96.8,162.8,96.6z"/>
		<path class="st0" d="M149.8,114.2c0.5,0.8,0.5,0.7,0.1,1.3c-0.2,0.4-0.8,0.8-1.1,1.2c-0.7,0.8,2.4,0.6,3,0
			c0.5-0.5,1.6-1.3,1.8-1.9c0.3-0.8-0.3-1.1-0.8-1.5c-1.6-1.4-2.6-3-3.1-5C149.5,107.3,148.2,111.4,149.8,114.2z"/>
		<path class="st20" d="M158.2,122c-6.2-1-12.5-1-18.9,0c0,0,4.8,8.1,9.4,8.1S158.2,122,158.2,122z"/>
		<path class="st9" d="M152.4,43.4C119,41,115.9,60.4,113.8,63.9c-2.1,3.5,0.1,54.1,5.9,61.1c4.4-6.2,3.1-49,16.5-59.4
			c0,0,42,25.1,44,26.6C187,70.7,179.6,45.3,152.4,43.4z"/>
		<path class="st21" d="M116.4,63.7c12.6-23.3,38.2-17.3,59.6-8.2c-4.9-6.7-12.5-11.4-23.6-12.2C119,41,115.9,60.4,113.8,63.9
			c-0.4,0.7-0.7,3.6-0.7,7.7C114,68.9,115,66.2,116.4,63.7z"/>
		<path class="st22" d="M143.8,89.2c-0.2,0-0.4-0.1-0.6-0.1c-11.3-2.4-17,3.5-16.9,3.2c-0.5,0.5-1.3,0.8-1.7,0.8
			c-0.4,0-0.4-0.5,0.1-1c0,0.3,3.9-8.7,17.4-6.2C143.1,86.2,144.5,89.3,143.8,89.2z"/>
		<path class="st22" d="M155.6,88.8c0.2,0,0.3-0.1,0.5-0.1c10.1-2.6,16.3,2.7,16.1,2.5c0.6,0.4,1.3,0.7,1.8,0.7
			c0.4-0.1,0.4-0.5-0.2-1c0.1,0.2-4.9-7.8-17-5C155.9,86.2,155,88.9,155.6,88.8z"/>
	</g>
	<path class="st23" d="M92.7,171c0,0,10.2-13,18.2-12.5c8,0.5,21.2,84.5-9,111.4c0,0-7.3-1.7-12-9.7
		C85.1,252.2,111.6,248,92.7,171z"/>
	<path class="st16" d="M103.1,282.6l13.6,10.6c-0.6,9-3.9,14.2-9.9,15.8l-12.5-8.1L103.1,282.6z"/>
	<path class="st8" d="M92.9,263.8l13.2,17l-12.8,23.8c0,0-12.4-3.7-23.5-12.1C76.6,282.1,82.5,270.7,92.9,263.8z"/>
	<path class="st24" d="M109.4,277.1c0,0-3.9-11.2-10.5-10.5c-6.6,0.7-28.2,27.5-23.8,32.6c4.4,5.1,17.5,10.4,20,9.8
		C97.6,308.4,110.8,284.1,109.4,277.1z"/>
	<path class="st8" d="M118,283.2c0,0-5.5,18.5-13.4,28.6l6.8,3.3c0,0,10.6-10.8,12.6-29.3L118,283.2z"/>
</g>
</svg>
