<svg version="1.1" id="Student_3" xmlns="http://www.w3.org/2000/svg" xmlns:xlink="http://www.w3.org/1999/xlink"
	 viewBox="0 0 280 704" style="enable-background:new 0 0 280 704;" xml:space="preserve">
<style type="text/css">
#student-3-rrze-expo{
	/*Hautfarben*/
	--hautfarbe: #EB9756;
	--hautschatten: #B07141;

	--akzentfarbe: #6592BF; /*Bandana und Schuhfarbe*/

	--hosenfarbe: #CCCCCC;
	--shirtfarbe: #F2F2F2; /*Shirtfarbe*/
	--shirtschatten: #CEDAE2;
	--shirtschatten2: #E6E6E6; /*idealerweise 1 Nuance dunkler als Shirtfarbe*/

	--haarfarbe: #3C2415;
	--haarschatten: #4C6E8F;
	--haarlicht: #66371A;
	--bart: #4C6E8F;


	/*Anzugfarben*/

	}

	#student-3-rrze-expo .st0{fill:#EB9756; fill: var(--hautfarbe, #EB9756);} /*Hautbasis*/
	#student-3-rrze-expo .st1{fill:#B07141; fill: var(--hautschatten, #B07141);} /*Hautschatten*/
	#student-3-rrze-expo .st2{fill:#E6E6E6; fill: var(--shirtschatten2, #E6E6E6);} /*Shirt Nuance 2 einen ton dunkler als basis*/
	#student-3-rrze-expo .st3{fill:#6592BF; fill: var(--akzentfarbe, #6592BF);} /*Schuhbasis und Bandana*/
	#student-3-rrze-expo .st4{fill:#999999;} /*Schuhruecken*/
	#student-3-rrze-expo .st5{fill:#F1F2F2;} /*Schuhkappe*/
	#student-3-rrze-expo .st6{fill:#D1D3D4;} /*Schuhsohle*/
	#student-3-rrze-expo .st7{fill:#0B0E24;} /*Schnuersenkel*/
	#student-3-rrze-expo .st8{fill:#808285;} /*Absatz*/
	#student-3-rrze-expo .st9{fill:#CCCCCC; fill: var(--hosenfarbe, #CCCCCC);} /*Hose Basis*/
	#student-3-rrze-expo .st10{opacity:0.3;} /*Schlagschatten*/
	#student-3-rrze-expo .st11{fill:#C1272D; fill: var(--akzentfarbe, #C1272D);} /*Hosenakzent*/
	#student-3-rrze-expo .st12{fill:#F2F2F2; fill: var(--shirtfarbe, #F2F2F2);} /*Shirtfarbe*/
	#student-3-rrze-expo .st13{fill:#CEDAE2; fill: var(--shirtschatten, #CEDAE2);} /*Shirtschatten*/
	#student-3-rrze-expo .st14{fill:#E78052; fill: var(--hautschatten, #E78052);} /*Hautschatten*/
	#student-3-rrze-expo .st15{fill:#3C2415; fill: var(--haarfarbe, #3C2415);} /*Haare Bart Schnauzer*/
	#student-3-rrze-expo .st15a{fill:#754C29;} /*Haare Bart Schnauzer*/
	#student-3-rrze-expo .st16{fill:#E88252; fill: var(--hautschatten, #E88252);} /*Nase*/
	#student-3-rrze-expo .st17{fill:#4C6E8F; fill: var(--haarschatten, #4C6E8F);} /*Haarschatten*/
	#student-3-rrze-expo .st18{fill:#66371A; fill: var(--haarlicht, #66371A);} /*Haarlicht*/

	#student-3-rrze-expo .st20{fill:#3C2415;} /*Augenfarbe*/
</style>
<g id="student-3-rrze-expo">
	<g id="Hautbasis_arm_links">
		<path class="st0" d="M70.7,165.4c0,0-21.2,114.9-17.9,135.6c3.3,20.7,35.3,82,35.3,82l7.3-31.3L78.1,307l12-92.7L70.7,165.4z"/>
	</g>
	<g id="Hautschatten_arm_links">
		<path class="st1" d="M53,302.2c8.4,1.8,17,1.5,25.6,0.8l11.5-88.7l-19.4-48.9c0,0-21.2,114.9-17.9,135.6
			C52.8,301.4,52.9,301.8,53,302.2z"/>
	</g>
	<g id="Shirtarm_links_etwas_dunkler_als_basis">
		<path class="st2" d="M79.4,297.2l10.7-82.9l-19.4-48.9C52.8,183.2,37.4,269,40.4,291.5C55.8,297.2,73,299.7,79.4,297.2z"/>
	</g>
	<g id="Schuh_links">
		<g id="schuhbasisfarbe">
			<path class="st3" d="M58.9,675.6h77l-3.5-47.9c-11.1-1.9-21.5-2.3-30.7,0c0,0,1.9,14.8-13.5,19.7
					C72.9,652.1,58.9,650.6,58.9,675.6z"/>
		</g>
		<g id="schuhruecken">
			<path class="st4" d="M101.8,630.2c9.3,0.7,20.6,1,24.3,10.6c2.1,5.5,1.3,12.1,1,17.9c-0.3,5.7-0.2,11.3-0.4,17h9.2l-3.5-47.9
					c-11.1-1.9-21.5-2.3-30.7,0C101.7,627.6,101.8,628.6,101.8,630.2z"/>
		</g>
		<g id="schuhkappe">
			<path class="st5" d="M74,652.7c-12.5,0-15.2,8.8-14.8,22.9h44C92.2,651.9,85.3,652.7,74,652.7z"/>
		</g>
		<g id="schuhkappenakzent">
			<path class="st6" d="M93.2,675.6h10c-11-23.7-18-22.9-29.2-22.9C70.7,652.7,96.2,651.7,93.2,675.6z"/>
		</g>
		<g id="schnuersenkel3">
			<path class="st5" d="M101.4,653.8c1.4,1.4,1.6,3.5,0.4,4.7c-1.2,1.3-3.3,1.2-4.7-0.2c-1.4-1.4-1.6-3.5-0.4-4.7
						C97.9,652.4,100,652.5,101.4,653.8z"/>
			<path class="st7" d="M99.8,657.9c-15.6-8.4-28.2-5.9-28.2-5.9c9.7-7.1,27.9,2.1,28.2,2.2c1,0.4,1.5,1.6,1.1,2.6
							C100.6,657.4,100.2,657.7,99.8,657.9z"/>
		</g>
		<g id="Oese2">
			<path class="st5" d="M109.7,650.5c1.4,1.4,1.6,3.5,0.4,4.7c-1.2,1.3-3.3,1.2-4.7-0.2c-1.4-1.4-1.6-3.5-0.4-4.7
						C106.1,649,108.2,649.1,109.7,650.5z"/>
		</g>
		<g id="Oese">
			<path class="st5" d="M117.2,646.8c1.4,1.4,1.6,3.5,0.4,4.7c-1.2,1.3-3.3,1.2-4.7-0.2c-1.4-1.4-1.6-3.5-0.4-4.7
						C113.6,645.4,115.7,645.5,117.2,646.8z"/>
		</g>
		<g id="Schnuersenkel_2_1_">
			<path class="st7" d="M108.2,654.3c-15.6-8.4-24.6-5.7-24.6-5.7c6.5-6,24.4,1.8,24.6,2c1,1.1,1.5,1.6,1.1,2.6
						C109,653.8,108.6,654.1,108.2,654.3z"/>
		</g>
		<g id="Schnuersenkel_1_1_">
			<path class="st7" d="M115.7,647.3c-0.2-0.1-17.3-9.6-22.6-2.2c0,0,10.2-2.4,22.7,5.9c0.4-0.2,0.7-0.6,0.8-1.1
				C116.9,648.9,116.5,647.7,115.7,647.3z"/>
		</g>
		<g id="Schuhsohle_1_">
			<path class="st6" d="M59.3,669.2c-0.3,1.9-0.4,4-0.4,6.3h77l-0.5-6.3H59.3z"/>
		</g>
		<g id="Schuhabsatz_1_">
			<path class="st8" d="M122.6,669.2c-0.1,1.9-0.1,4-0.1,6.3h13.4l-0.1-6.3H122.6z"/>
		</g>
	</g>
	<g id="Schuh_Rechts">
		<g id="Schuhbasisfarbe">
			<path class="st3" d="M242.9,675.6h-77l3.5-47.9c11.1-1.9,21.5-2.3,30.7,0c0,0-1.9,14.8,13.5,19.7
				C228.9,652.1,242.9,650.6,242.9,675.6z"/>
		</g>
		<g id="Schuhruecken">
			<path class="st4" d="M200.1,630.2c-9.3,0.7-20.6,1-24.3,10.6c-2.1,5.5-1.3,12.1-1,17.9c0.3,5.7,0.2,11.3,0.4,17h-9.2l3.5-47.9
					c11.1-1.9,21.5-2.3,30.7,0C200.1,627.6,200,628.6,200.1,630.2z"/>
		</g>
		<g id="Schuhkappe">
			<path class="st5" d="M227.8,652.7c12.5,0,15.2,8.8,14.8,22.9h-44C209.6,651.9,216.6,652.7,227.8,652.7z"/>
		</g>
		<g id="Schuhkappenakzent">
			<path class="st6" d="M208.6,675.6h-10c11-23.7,18-22.9,29.2-22.9C231.1,652.7,205.6,651.7,208.6,675.6z"/>
		</g>
		<g id="Schnuersenkel_3">
			<path class="st5" d="M200.4,653.8c-1.4,1.4-1.6,3.5-0.4,4.7c1.2,1.3,3.3,1.2,4.7-0.2c1.4-1.4,1.6-3.5,0.4-4.7
				C204,652.4,201.8,652.5,200.4,653.8z"/>
			<path class="st7" d="M202.1,657.9c15.6-8.4,28.2-5.9,28.2-5.9c-9.7-7.1-27.9,2.1-28.2,2.2c-1,0.4-1.5,1.6-1.1,2.6
				C201.3,657.4,201.6,657.7,202.1,657.9z"/>
		</g>
		<g id="oese_2">
			<path class="st5" d="M192.2,650.5c-1.4,1.4-1.6,3.5-0.4,4.7c1.2,1.3,3.3,1.2,4.7-0.2c1.4-1.4,1.6-3.5,0.4-4.7
				C195.7,649,193.6,649.1,192.2,650.5z"/>
		</g>
		<g id="oese">
			<path class="st5" d="M184.6,646.8c-1.4,1.4-1.6,3.5-0.4,4.7c1.2,1.3,3.3,1.2,4.7-0.2c1.4-1.4,1.6-3.5,0.4-4.7
				C188.2,645.4,186.1,645.5,184.6,646.8z"/>
		</g>
		<g id="Schnuersenkel_2">
			<path class="st7" d="M193.6,654.3c15.6-8.4,24.6-5.7,24.6-5.7c-6.5-6-24.4,1.8-24.6,2c-1,1.1-1.5,1.6-1.1,2.6
				C192.8,653.8,193.2,654.1,193.6,654.3z"/>
		</g>
		<g id="Schnuersenkel_1">
			<path class="st7" d="M186.1,647.3c0.2-0.1,17.3-9.6,22.6-2.2c0,0-10.2-2.4-22.7,5.9c-0.4-0.2-0.7-0.6-0.8-1.1
				C184.9,648.9,185.3,647.7,186.1,647.3z"/>
		</g>
		<g id="Schuhsohle">
			<path class="st6" d="M242.5,669.2c0.3,1.9,0.4,4,0.4,6.3h-77l0.5-6.3H242.5z"/>
		</g>
		<g id="Schuhabsatz">
			<path class="st8" d="M179.3,669.2c0.1,1.9,0.1,4,0.1,6.3h-13.4l0.1-6.3H179.3z"/>
		</g>
	</g>
	<g id="Hosenbasisfarbe">
		<path class="st9" d="M173.6,312.3l-90.5-2c0,0-4.8,88.1,13.2,180.9c0.6,2.9,2.4,33.2,3.7,65.6c0.2,4.5,0.3,9,0.5,13.5
			c0.1,4.1-4.1,17-4,21c0.2,8.6,4.7,8.1,4.7,15.5c0,4.1-7.4,9.2-7.5,12.7c-0.1,7.6,6.9,12.4,6.3,15.9c10.8,3.4,22.1,3.2,33.7,0
			c0,0,6.8-4.1,7.8-10.4c0.8-4.8-4.3-10.7-3.4-18.3c0.4-3.8,4.5-7.4,4.9-11.7c0.4-5-2.9-10.8-2.7-16.3c1-21.5,0.2-46.4-5-69.3
			l-4.6-82.2h3.7c6.3,29.2,14.3,74.1,14.3,84.3c-0.1,13.7-1.1,38.5,1.6,58.3c0.6,4.6,4.4,4.2,5.1,8.7c0.8,5-4.9,11.6-4.1,16.3
			c1,5.6,8.5,9.3,9.5,14.2c1.2,6-4.5,13.1-3.5,17.4c2.1,8.9,3,7.3,11.4,10.1c11.7,3.4,22.5,3.5,32.2,0.1c0,0,6.3-4.5,5.7-12.5
			c-0.4-5.3-7.6-12.1-8.2-20c-0.4-5.5-0.4-12-0.8-18.5c-0.4-5.3-5.1-25.1-5.5-31C185.5,465.3,177.5,331,173.6,312.3z"/>
	</g>
	<g id="Hosenschatten_Beininnenseite" class="st10">
		<path d="M205.3,628.5c-4.4,4.9-37.9-7.1-39.9-9.8c-0.1-0.2,0.8-9.2,1-9.3c1.2-1.4,13.1-0.4,14.7-1.3c1.1-0.7-17.1-9.3-20.3-12.7
			c-0.2-0.2,1.5-8.2,1.7-8.4c1.5-1.4,3-2.7,4.6-3.9c0.9-0.7,2-1.3,2.7-2.2c1.5-1.8-2.7-4.1-3.9-5.2c-2.5-2.1-5.3-4.1-6.7-7.1
			c-1.2-2.5-1.2-5.3-1-8c0.6-8,1.7-15.8,1.3-23.9c-0.4-8.1-1.7-16.2-3.3-24.1c-3.1-15.8-7.1-31.5-7.8-47.7
			c-0.3-8.5-0.1-17-0.2-25.5c-0.1-4.7-0.2-9.4-0.4-14c-0.1-2.2,0-5-0.8-7.1c-0.8-2-9.8-3.2-12.4-3.2c-6,0.1-13.3,0.4-18.5,3.7
			c4.3,3.9,9.2,26.8,8.8,32.8c-1.2,16.1-3.7,54.6-3.9,57.7c-0.2,3.3,1.2,6.3,2.7,9.2c1.3,2.6,5.7,13.9,5.9,17.1
			c0.6,7.5-0.2,14.9-0.1,22.4c0,3.6-0.2,8.3,1.3,11.7c1.1,2.6,3.1,4.8,4.4,7.3c2.3,4.4,0,7.5-2.9,11c-0.9,1.1-5.1,6.5-4.6,7.5
			c0.5,1,9.1,1.9,10.7,2.1c0.3,0,0.6,0.4,0.4,0.7c-4.1,8.2-12.8,11.3-19.2,17.3c4.1,2.9,9.8,2.7,13.1,6.7c0.2,0.3,0.1,0.6-0.2,0.8
			c-12,6-25.8,1-38.5-1.5c1,6.4,6.7,10.5,6.1,13.7c10.8,3.4,22.1,3.2,33.7,0c0,0,6.8-4.1,7.8-10.4c0.8-4.8-4.3-10.7-3.4-18.3
			c0.4-3.8,4.5-7.4,4.9-11.7c0.4-5-2.9-10.8-2.7-16.3c1-21.5,0.2-46.4-5-69.3l-4.6-82.2h3.7c6.3,29.2,14.3,74.1,14.3,84.3
			c-0.1,13.7-1.1,38.5,1.6,58.3c0.6,4.6,4.4,4.2,5.1,8.7c0.8,5-4.9,11.6-4.1,16.3c1,5.6,8.5,9.3,9.5,14.2c1.2,6-4.5,13.1-3.5,17.4
			c2.1,8.9,3,7.3,11.4,10.1c11.7,3.4,22.5,3.5,32.2,0.1c0,0,5.4-3.8,5.8-10.7C206.4,627,205.9,627.8,205.3,628.5z"/>
	</g>
	<g id="Hosenschatten_links_opt">
		<path class="st9" d="M116.6,599c-4.1-2-8.7-2.4-13.2-3c-2.2-0.3-4.4-0.7-6.5-1.3c1.1,5.1,4.2,5.8,4.3,11.9
			C106.7,605.6,113.7,604.1,116.6,599z"/>
	</g>
	<g id="Hosenakzent_rechts">
		<path class="st11" d="M196.9,638l-1.7-2.4l0.9,1.2l-0.9-1.2c0.2-0.2,5.6-4.2,5.1-11.2c-0.1-2-1.6-4.6-3.2-7.3
				c-2.2-3.7-4.6-8-4.9-12.7c-0.2-2.6-0.3-5.5-0.4-8.5c-0.1-3.3-0.2-6.6-0.5-10c-0.2-2.5-1.4-8.7-2.6-14.6
				c-1.3-6.5-2.6-13.2-2.9-16.4c-2.2-29.6-4.6-64.1-6.9-97.6c-4.7-68.1-9.1-132.3-11.7-144.8l2.9-0.6c2.6,12.7,7,77,11.7,145.2
				c2.3,33.4,4.7,68,6.9,97.5c0.2,2.9,1.6,9.6,2.8,16c1.3,6.3,2.5,12.3,2.7,15c0.3,3.4,0.4,6.8,0.5,10.1c0.1,3,0.2,5.8,0.4,8.4
				c0.3,4.1,2.6,8,4.5,11.4c1.8,3,3.4,5.9,3.6,8.6C203.9,632.9,197.2,637.8,196.9,638z"/>
	</g>
	<g id="Hosenakzent_links">
		<path class="st11" d="M105.5,635.7l-3-0.5c0.2-0.9-0.9-2.5-2-4.2c-1.9-2.9-4.4-6.6-4.3-11.4c0-2.2,1.9-4.4,3.9-6.8
			c1.7-2,3.6-4.3,3.6-5.9c0-3.2-0.9-4.7-2-6.4c-1.2-2-2.6-4.3-2.8-9.1c-0.1-2.2,0.9-6.3,2-10.7c1-3.9,2-8.4,2-10.3
			c-0.1-4.5-0.3-9-0.5-13.5c-1.3-32.1-3.1-62.5-3.7-65.3c-17.8-92-13.3-180.4-13.2-181.3l3,0.2c0,0.9-4.6,89,13.2,180.6
			c0.6,3.3,2.5,34.9,3.7,65.8c0.2,4.5,0.3,9,0.5,13.5c0.1,2.3-1,6.6-2.1,11.1c-1,4-2,8.1-1.9,9.9c0.1,4,1.2,5.8,2.3,7.6
			c1.2,1.9,2.4,3.9,2.4,7.9c0,2.7-2.2,5.3-4.3,7.9c-1.5,1.8-3.1,3.8-3.2,4.9c-0.1,3.9,2,7,3.8,9.7
			C104.6,631.6,105.9,633.6,105.5,635.7z"/>
	</g>
	<g id="Shirt_Schlagschatten" class="st10">
		<path d="M88.9,402.4c10-1,19.8-3.3,29.2-6.6c9.5-3.3,19.1-7.2,27.9-12.1c13-7.3,22.9-18.2,32.4-29.5c-2-21.4-3.7-36.7-4.8-42
			l-90.5-2c0,0-2.1,38.9,1.8,92.3C86.2,402.6,87.6,402.5,88.9,402.4z"/>
	</g>
	<g id="Shirtbasis">
		<path class="st12" d="M70.7,165.4c2.1-1.9,49.7-23.9,49.7-23.9l6.4,14.9l31-17.2c0,0,47.7,27.4,50.2,30
			c1.6,1.6-11.1,35.8-20.4,60.4c-5.3,14-5.3,107.8-5.3,107.8C154.2,380.7,70.4,425.6,74.8,365C74.8,365,68.6,167.3,70.7,165.4
			L70.7,165.4z"/>
	</g>
	<g id="Shirtschatten_unten">
		<path class="st13" d="M102.2,386c7.4-0.5,15.1-2,21.7-5.2c5.7-2.7,9.3-7.2,11.4-12.9c-11.7,6-24.6,13.4-38.2,12.1
			c-10.4-1-16.4-8.3-22.4-15.6c0,0.4,0,0.6,0,0.6c-0.5,7.3,0.2,13.1,2,17.5C84.9,385.2,93.4,386.6,102.2,386z"/>
	</g>
	<g id="Shirtschatten_rechts">
		<path class="st13" d="M194.7,208c-0.1,0.1-0.1,0.1-0.2,0.1c-9.7,19.1-19.3,39.1-19.7,60.9c-0.1,4.8-0.3,9.7,0.2,14.4
			c0.4,3.8,1.2,7.5,1.2,11.4c0.1,3.3-0.4,6.5-2.5,9.2c-1.9,2.5-5.2,4.4-6.3,7.5c-2.5,6.4,9.2,9.3,5.8,15.6
			c-1.3,2.4-4.2,3.6-6.3,5.2c-3.4,2.5-3.7,7-4.9,10.7c-1.4,4.1-4.1,7.8-6.5,11.3c-2.5,3.7-5.1,7.3-7.9,10.7
			c-5.2,6.1-11.2,11.3-17.7,16c-4.9,3.5-10,6.7-15.2,9.7c24.2-8.7,53-31.2,67.4-53.4c0,0,0-93.8,5.3-107.8
			c2.7-7.2,5.7-15.2,8.6-22.9C195.7,207.1,195.2,207.6,194.7,208z"/>
	</g>
	<g id="Dekoltee_Hautbasis">
		<path class="st0" d="M120.2,141.5c2.1-8.6,2.7-16.3,2.7-16.3l33.5-9.5c0,0,0,11.9,1.5,23.6c1,0.6,8.3,4.8,17.1,9.9
			c0,0-7.1,5.7-18.8,9.7c-1.4,0.5-2.8,1-4.4,1.3c-5.5,1.5-11.8,2.6-18.8,2.6c-25.1,0-27.6-14.5-27.6-14.5
			C113.5,144.6,119.7,141.7,120.2,141.5z"/>
	</g>
	<g id="Hals_Hautschatten">
		<path class="st1" d="M120.6,139.8c1.8-7.9,2.3-14.6,2.3-14.6l33.5-9.5c0,0,0,10.8,1.4,22C146.2,142.8,142.2,151,120.6,139.8z"/>
	</g>
	<g id="Arm_Hautbasis">
		<path class="st0" d="M166.8,357l12-11.3l12.7-58l-6-75.3l22.6-43.2c0,0,22.1,113.2,16.7,128.6c-5.3,15.3-32.7,60-32.7,60
			l-16,22.7C170,375,166.2,369.3,166.8,357z"/>
	</g>
	<g id="Hautschatten_shirt_rechts">
		<path class="st1" d="M189.7,295.5c3.5,2.4,8.2,2.7,12.4,3.3c5.6,0.7,11.3,1.1,16.9,1.1c1.6,0,3.3,0,4.9-0.1
			c0.3-0.8,0.6-1.5,0.8-2.2c5.3-15.3-16.7-128.6-16.7-128.6l-22.6,43.2l6,75.3L189.7,295.5z"/>
	</g>
	<g id="Tshirt_arm_rechts">
		<path class="st12" d="M234.7,286.2c-4.4-33.1-26.7-117.1-26.7-117.1c-19,17.8-29.6,44.7-27.9,84.6l6,32.8
			C191,295.6,228.6,294.7,234.7,286.2z"/>
	</g>
	<g id="Kopf">
		<g id="Gesicht_1_">
			<g id="facials">
				<g id="Ohr_Links_Haut">
					<path class="st0" d="M112.7,94.8c0,5.8,0.3,10.6-3.4,10.6c-3.7,0-9.9-4.7-9.9-10.6c0-5.8,1.8-10.6,5.5-10.6
						C108.5,84.2,112.7,88.9,112.7,94.8L112.7,94.8z"/>
				</g>
				<g id="Ohr_Rechts_Haut">
					<path class="st0" d="M175,94.8c0,5.8-6.2,10.6-9.9,10.6c-3.7,0-3.4-4.7-3.4-10.6c0-5.8,4.1-10.6,7.8-10.6
						C173.2,84.2,175,88.9,175,94.8L175,94.8z"/>
				</g>
				<g id="Hautbasis_Gesicht">
					<path class="st0" d="M137.2,50.5c-28.8,0-30.5,27-30.6,30.3c0,0.2,0,0.4,0,0.6c0.2,3,1.9,30.8,4.6,36.1
						c2.3,4.4,17.1,18.8,25.8,18.8c8.8,0,23.9-14.4,26.2-18.8c2.8-5.3,4.5-33.1,4.6-36.1c0-0.2,0-0.4,0-0.6
						C167.7,77.5,166,50.5,137.2,50.5L137.2,50.5z"/>
				</g>
				<g id="Bandana_Hautschatten">
					<path class="st14" d="M106.7,84.1c2.6-1.8,4.9-3.6,7.2-5.9c2.2-2.3,5-3.9,7.9-5.1c6.4-2.6,13.7-4.2,20.6-3.3
						c7.4,1,13.4,5.2,19.4,9.3c2,1.3,3.8,2.8,5.8,4.1c0.1-0.9,0.1-1.5,0.1-1.8c0-0.2,0-0.4,0-0.6c-0.1-3.3-1.8-30.3-30.6-30.3
						c-28.8,0-30.5,27-30.6,30.3c0,0.2,0,0.4,0,0.6C106.6,81.8,106.6,82.7,106.7,84.1z"/>
				</g>
				<g id="Auge_links">
					<path class="st20" d="M123.7,85.4c2-0.3,3.8,2.4,3.9,5.9c0.2,3.5-1.3,6.6-3.3,6.9c-2,0.3-3.8-2.4-4-5.9
						C120.2,88.8,121.7,85.7,123.7,85.4L123.7,85.4z"/>
				</g>
				<g id="Auge_rechts">
					<path class="st20" d="M150.1,85.4c2-0.3,3.8,2.4,4,5.9c0.2,3.5-1.3,6.6-3.3,6.9c-2,0.3-3.8-2.4-4-5.9
						C146.6,88.8,148.1,85.7,150.1,85.4L150.1,85.4z"/>
				</g>
				<g id="Augenbraue_rechts">
					<path class="st15a" d="M161.3,76.1c-0.5-0.2-8.5-4.8-19.2-2c-0.7,0.2-1.5,4.1-0.9,4.2c0.2,0,0.3,0,0.5,0
						c9.9-2.4,17.9,0.2,18,0.3c0.8,0.3,1.9,0,2.3-0.7C162.5,77.2,162.1,76.4,161.3,76.1L161.3,76.1z"/>
				</g>
				<g id="Augenbraue_links">
					<path class="st15a" d="M113.1,78.3c0.5-0.2,8.5-4.8,19.2-2c0.7,0.2,1.5,4.1,0.9,4.2c-0.2,0-0.3,0-0.5,0
						c-9.9-2.4-17.9,0.2-18,0.3c-0.8,0.3-1.9,0-2.3-0.7C111.9,79.4,112.3,78.6,113.1,78.3L113.1,78.3z"/>
				</g>
				<g id="Nase">
					<path class="st16" d="M136.2,102.5c-0.5,1.1-0.5,0.9-0.1,1.8c0.2,0.6,0.8,1.2,1.2,1.7c0.8,1.1-2.5,0.7-3.1-0.1
						c-0.5-0.7-1.7-1.8-1.9-2.8c-0.3-1.1,0.3-1.5,0.8-2.1c1.6-1.8,2.7-4.1,3.2-6.9C136.5,92.9,137.9,98.7,136.2,102.5
						L136.2,102.5z"/>
				</g>
				<g id="Mund">
					<path class="st14" d="M148.9,113.8c-8.5,1.4-16.6,1.3-24.5,0c0,0,5.1,2.8,12.2,2.8C143.7,116.6,148.9,113.8,148.9,113.8z"/>
				</g>
			</g>
		</g>
		<g id="bandana">
			<path class="st3" d="M106.7,84.3c16.9-23.1,44.3-23.1,61.2,0c0-6.4,0-12.9,0-19.3C151,42,123.6,42,106.7,65
				C106.7,71.4,106.7,77.9,106.7,84.3z"/>
		</g>
		<g id="Haarschatten_Band">
			<path class="st17" d="M111.5,65.2c1.2-0.8,2.2-1.3,3.7-1.5c1.9-0.2,3.9,0.4,5.5-0.9c1-0.9,1.6-2.2,2.7-3
				c1.9-1.3,4.4,0.2,6.4,0.3c1.9,0.1,3.7-0.4,5.6-0.3c1.3,0,2.2,0.6,3.3,1.1c3.4,1.4,7.3,1.2,10.8,0.5c1.4-0.3,2.4-0.7,3.7-0.2
				c1.7,0.6,2.9,1.5,4.7,1.8c1.5,0.2,3,0.2,4.4,1c1.4,0.8,2.3,2.1,3.7,2.8c0.6,0.3,1.1,0.6,1.7,0.8V65C151,42,123.6,42,106.7,65
				v1.3C108.3,66.3,109.9,66.2,111.5,65.2z"/>
		</g>
		<path id="Haarbasis" class="st15" d="M172.7,49.7c-0.4-5.6-5.1-10-10.8-10c-0.1,0-0.2,0-0.2,0c-0.5-4-3.8-7-7.9-7
			c-1.8,0-3.4,0.6-4.7,1.5c-1.1-3.8-4.6-6.5-8.8-6.5c-2.8,0-5.4,1.3-7.1,3.3c-1.7-1.1-3.6-1.7-5.8-1.7c-4.1,0-7.7,2.3-9.5,5.7
			c-0.3,0-0.6,0-1,0c-3.8,0-7,2.3-8.4,5.5c-4.5,0-8.1,3.7-8.1,8.2c0,0.8,0.1,1.6,0.3,2.3c-1.8,1.4-3,3.7-3,6.2
			c0,4.3,3.5,7.8,7.8,7.8c3,0,5.5-1.6,6.9-4.1c0.8,0.2,1.6,0.4,2.5,0.4c4,0,7.3-2.8,8-6.6c1.8,1.3,4,2.1,6.3,2.1
			c2.6,0,4.9-0.9,6.7-2.4c1.5,3.1,4.6,5.2,8.3,5.2c3.4,0,6.3-1.8,7.9-4.5c1.7,3.7,5.5,6.2,9.8,6.2c0.4,0,0.7,0,1.1-0.1
			c1.4,2.6,4.1,4.4,7.2,4.4c4.5,0,8.2-3.7,8.2-8.2C178.4,53.8,176,50.7,172.7,49.7z"/>
		<path id="Haarlicht" class="st18" d="M102.1,51.8c1.3-1,2.2-1.9,2.5-3.6c0.1-0.6,0-1.1,0.2-1.7c0.3-1,1-1.9,1.9-2.4
			c1.6-1,3.6-0.8,5-2c1.3-1,1.4-2.6,2.5-3.8c1-1,2.2-1.1,3.6-1.3c2.2-0.5,3.1-1.8,4.9-3c2.6-1.7,5.4-0.4,8,0.4
			c2.5,0.8,4.4,0.3,6.7-0.7c1.2-0.5,2.4-1.1,3.7-1.1c3.5-0.1,4.2,2.6,6.8,4.2c2.6,1.7,6.1-2.1,8.9-2.5c0.7-0.1,1.4-0.1,2,0
			c-1.4-1.1-3.2-1.8-5.1-1.8c-1.8,0-3.4,0.6-4.7,1.5c-1.1-3.8-4.6-6.5-8.8-6.5c-2.8,0-5.4,1.3-7.1,3.3c-1.7-1.1-3.6-1.7-5.8-1.7
			c-4.1,0-7.7,2.3-9.5,5.7c-0.3,0-0.6,0-1,0c-3.8,0-7,2.3-8.4,5.5c-4.5,0-8.1,3.7-8.1,8.2c0,0.8,0.1,1.6,0.3,2.3
			c-1.8,1.4-3,3.7-3,6.2c0,0.2,0,0.4,0,0.6C98.7,55.4,100.2,53.4,102.1,51.8z"/>
		<g id="optionaler_Schnauzer">
			<path class="st15" d="M125.6,116.2c7.4-1.8,15.1-1.8,22.5,0c0.7,0.2,1.4-0.4,1.6-1.2l0,0c0.2-0.9-0.3-1.7-1.1-1.9
				c-7.8-1.8-15.8-1.8-23.6,0c-0.8,0.2-1.3,1-1.1,1.9l0,0C124.1,115.8,124.9,116.4,125.6,116.2z"/>
		</g>
		<!--<g id="optionaler_Bart">
			<path class="st15" d="M124.4,130.4c0,3.7,5.7,10.4,12.8,10.4c7.1,0,12.8-6.7,12.8-10.4C141.6,134.7,133.1,134.5,124.4,130.4z"/>
		</g>-->
	</g>
</g>
</svg>
