<svg version="1.1" id="Student_7_FAU" xmlns="http://www.w3.org/2000/svg" xmlns:xlink="http://www.w3.org/1999/xlink"
	 viewBox="0 0 280 704" style="enable-background:new 0 0 280 704;" xml:space="preserve">
<style type="text/css">
	#student-7-fau-rrze-expo{
		--hautfarbe: #FAB57A;
		--hautschatten: #E68052;
		--akzentfarbe: #004070; /*Fakultaetsfarben hier im Originalton*/
		--akzentfarbeDunkler: #00264D; /*Eine Nuance dunkler als Originalton*/
		--haarfarbe: #754C29;
		--haarlicht: #8A603D;
		--haarschatten: #57301F;
	}
	#student-7-fau-rrze-expo .st0{fill:#E68052; fill: var(--hautschatten, #E68052);} /*Hautschatten*/
	#student-7-fau-rrze-expo .st1{fill:#004070; fill: var(--akzentfarbe, #004070);} /*Hose Basisfarbe Akzenfarbe Fakultaeten*/
	#student-7-fau-rrze-expo .st2{fill:#FFFFFF;} /*Mund und FAU Logo Hose*/
	#student-7-fau-rrze-expo .st3{fill:#1D1D1B;stroke:#FFFFFF;stroke-width:8;stroke-miterlimit:10;}
	#student-7-fau-rrze-expo .st4{fill:#003359;} /*Siegel*/
	#student-7-fau-rrze-expo .st5{fill:#E4E5E5;} /*Schuhbasis und Buchseite*/
	#student-7-fau-rrze-expo .st6{fill:#C5C6C7;} /*Schuhschatten*/
	#student-7-fau-rrze-expo .st7{fill:#F2F2F2;} /*Shirtbasis*/
	#student-7-fau-rrze-expo .st8{clip-path:url(#student-7-fau-SVGID_2_);}
	#student-7-fau-rrze-expo .st9{fill:#CEDAE2;} /*Shirtschattenfarbe*/
	#student-7-fau-rrze-expo .st10{opacity:0.81;}
	#student-7-fau-rrze-expo .st11{fill:#FAB57A; fill: var(--hautfarbe, #FAB57A);} /*Arm und Hautbasis Dekoltee*/
	#student-7-fau-rrze-expo .st12{fill:#754C29; fill: var(--haarfarbe, #754C29);} /*Haarbasis*/
	#student-7-fau-rrze-expo .st13{fill:#57301F; fill: var(--haarschatten, #57301F);} /*Haarschatten*/
	#student-7-fau-rrze-expo .st14{fill:#E78052; fill: var(--hautschatten, #E78052);} /*Hautschatten Gesicht*/
	#student-7-fau-rrze-expo .st15{fill:#FBBE7D; fill: var(--hautfarbe, #FBBE7D);} /*Hautbasis gesicht*/
	#student-7-fau-rrze-expo .st16{fill:#231F20;} /*Augen und Augenbrauen*/
	#student-7-fau-rrze-expo .st17{fill:#8A603D; fill: var(--haarlicht, #8A603D);} /*Haarlicht*/
	#student-7-fau-rrze-expo .st18{fill:#ABACAC;} /*Buchseiten und Buchbestandteile folgen bis st30*/
	#student-7-fau-rrze-expo .st19{fill:#003B1F;}
	#student-7-fau-rrze-expo .st20{fill:#33865F;}
	#student-7-fau-rrze-expo .st21{fill:#004E29;}
	#student-7-fau-rrze-expo .st22{fill:#BC8430;}
	#student-7-fau-rrze-expo .st23{fill:#FBB040;}
	#student-7-fau-rrze-expo .st24{fill:#FCC066;}
	#student-7-fau-rrze-expo .st25{fill:#BE594C;}
	#student-7-fau-rrze-expo .st26{fill:#FD7665;}
	#student-7-fau-rrze-expo .st27{fill:#FD9184;}
	#student-7-fau-rrze-expo .st28{fill:#526472;}
	#student-7-fau-rrze-expo .st29{fill:#5E7E97;}
	#student-7-fau-rrze-expo .st30{fill:#A4C8E4;}
	#student-7-fau-rrze-expo .st31{fill:#003865;} /*FAU Logo Shirt*/
	#student-7-fau-rrze-expo .st32{fill:#00264D; fill: var(--akzentfarbeDunkler, #00264D);} /*Schattenwurf-Shirt*/
	#student-7-fau-rrze-expo .st33{fill:#754C29; fill: var(--haarfarbe, #754C29);} /*Augenbrauen*/
</style>
<g id="student-7-fau-rrze-expo">
	<g id="student-7-fau-armlinksHautschatten">
		<path class="st0" d="M116.7,189.3c0,0-2.6,4.8-6.3,12.2c-3.7,7.3-18,87-18,87L62,312.1l6,12.7l43-28.3l13-75.3
			C124,221.1,130,195.8,116.7,189.3z"/>
	</g>
	<g id="student-7-fau-hoseUndSchuhe">
		<g id="student-7-fau-FAUHoseBasisfarbe">
			<path class="st1" d="M205.6,368.7c13.9,0.1,3.6,291.4,7,299.9c0,0-26.3,13.1-69.7,7.3c-6.3-0.9,41.5-28.4,41.5-28.4
				S165.6,442.8,153,425c-1.9-2.6-31.7,80.3-31.7,80.3c15.2,30.7,21.7,85.8,29.2,137.8c0,0-50.8,35.9-61.1,22.4
				c1.1-2.5,23.8-28.8,31.3-38.9c3.3-4.4-37.3-101.2-37.1-120.6c0.2-19.5,23.1-125.3,23.1-125.3l7.2-33.2L205.6,368.7z"/>
		</g>
		<g id="student-7-fau-schattenwurfShirtAufHose">
			<path class="st32" d="M124.8,387.9c25.9,2.6,59.3-1.7,85-5.6c-2.8-20.8-3-6.2-7.7-35.6h-89.2l-5.9,33.2c0,0-0.6,2.2-1.2,5
				C112.4,386.6,118,387.2,124.8,387.9z"/>
		</g>
		<g id="student-7-fau-schuhe">
			<path class="st5" d="M120.7,624.5c9.5,1.1,18.9,4.2,27.6,8.6l2.1,10c0,0-50.8,35.9-61.1,22.4c1.1-2.5,23.8-28.8,31.3-38.9
				C120.8,626.3,120.8,625.6,120.7,624.5z"/>
			<path class="st5" d="M184,647.2c10.1,3.6,19.3,8.5,27.9,14.5c0.6,4.1,1.3,6.6,2.1,7.3c0,0-27.8,12.7-71.2,6.8
				C137.1,675,176.3,651.8,184,647.2z"/>
		</g>
		<g id="student-7-fau-Schuhschatten">
			<path class="st6" d="M131.1,647.8c4.5-5.4,9.7-11.8,16.2-15.2c0.3,0.2,0.7,0.3,1.1,0.5l2.1,10c0,0-14.1,10-29,17.5
				C124.5,656.2,127.7,652,131.1,647.8z"/>
			<path class="st6" d="M209.2,659.9c0.9,0.6,1.9,1.2,2.8,1.8c0.6,4.1,1.3,6.6,2.1,7.3c0,0-13.1,6-35.4,7.8
				C188.2,669.8,198,663.4,209.2,659.9z"/>
		</g>
	</g>
	<g id="student-7-fau-shirt">
		<g id="student-7-fau-shirtBasis">
			<path class="st7" d="M120.7,269.7c-5.2,15.8-9.8,60.2-12.8,105c13.3,8.7,80.4,6.4,100.7-1.2c-6.8-38.3-17.9-61.1-17.9-84.1
				c0-10.2,30.4-95.4,30.4-95.4s-26.8-14.9-32.7-17.9c-6.4,1.1-12.8,1.9-19.3,1.7c-7.3-0.2-16.3,0.5-22.6-3.8
				c-7.9,4.1-26.9,13.8-29.7,15.3c0,0-0.4,0.5,0.2,14.8c0.4,9.3-5.9,31.7-6.1,45.3C110.5,262.9,120.7,269.7,120.7,269.7z"/>
		</g>
		<g id="student-7-fau-shirtschatten">
			<path class="st9" d="M171.4,272.2c7.6,0.9,15.9,0.5,23.3-1.7c0.2-0.1,0.4-0.1,0.6-0.2c2.1-7.1,4.8-15.4,7.6-24
				c-2.2,0.7-7.2-0.4-6.6,1.8c-0.1,24.1-38.5,22.8-48.2,14.1c0.1,0.2,0.2,0.4,0.3,0.6c0.1,0,0.2,0,0.3,0.1
				C155.4,268.1,163.1,271.3,171.4,272.2z"/>
		</g>
		<g id="student-7-fau-shirtschattenMitOpacity" class="st10">
			<path class="st9" d="M130.5,345.1c3.7-2.1,7.3-5.1,8.7-9.3c1.2-3.5,1.4-7.2,3.4-10.5c3-4.7,9.3-5.6,14.4-6
				c3.1-0.2,32-3.5,37.3-4.8c-1.6-6.8-2.8-13.2-3.3-19.5c-4.9,1.6-9.8,3.8-14.6,5.3c-10.2,3.2-20.5,5.7-30.7,8.8
				c-0.3,0.1-0.6,0-0.7-0.4c-1-4.4-0.6-8.7-0.9-13.2c-0.3-4.9-2.8-8-6.9-10.6c-1.7-1.1-3.3-2.1-4.4-3.9c-1.1-1.9-1.7-3.9-3.1-5.6
				c-2.3-2.7-5.9-3.5-9.4-4.3c-4.1,13.9-7.8,45.3-10.6,80C116.8,350.2,124.1,348.7,130.5,345.1z"/>
		</g>
		<g id="student-7-fau-hautfarbeDekoltee">
			<path class="st11" d="M162.2,203.1c3.2-2.9,6.8-5.2,9.6-8.6c4.6-5.7,10.3-13.1,13.9-19.9c-7.7-6.8,0.4-31,0.4-31l-28.1,1
				l-8,27.6c0,0-1.6,0.8-4.1,2.1c1.4,11.9,4,26,9.5,36.1C155.5,210.3,160.3,204.8,162.2,203.1z"/>
		</g>
		<g id="student-7-fau-hautschattenDekoltee">
			<path class="st0" d="M185.6,174.6c-1.2,2.3-2.6,4.6-4.2,6.9c-13,7.4-24.3,8.5-34.3,2.2c-0.5-3.2-1-6.4-1.3-9.5
				c2.4-1.3,4.1-2.1,4.1-2.1l8-27.6l28.1-1C186,143.6,177.9,167.8,185.6,174.6z"/>
		</g>
		<g id="student-7-fau-shirtschattenKragenRechts">
			<path class="st9" d="M151.1,167.7c0,0-13.1,5.6-21.5,24.1c-4.6,10.2,0.9,1.1,0.9,1.1l3.5-6.1c0,0,20.1,20.8,21.5,23.6
				l-5.4-37.6L151.1,167.7z"/>
		</g>
		<g id="student-7-fau-shirtschattenKragenLinks">
			<path class="st9" d="M183,168.1c0,0,6.2,6.1,6.9,8.4c1,3,0.3,22.5,0.3,22.5l-10.4-7.9l-8.7,5.7l-15.6,13.6
				C155.5,210.4,180.6,178.4,183,168.1z"/>
		</g>
	</g>
	<g id="student-7-fau-ponytail">
		<path id="student-7-fau-haarbasisPonytail" class="st12" d="M150.9,165.1c-3.2-5.7-16.7-25.4-16.7-25.4l-1.3,2.1c-3.8,6.5-8.7,16.6-5.6,22.1
			c4.8,8.3,9.7,7.8,4.6,17.3c-5.1,9.5-18.3,15.6-10.2,31c8.1,15.4,22,19,22,19s-4-6.6-2.5-16.7c0.6-3.9,4-10.5,7.5-18l1.5-3.3
			C150.2,193.2,154.1,170.7,150.9,165.1z"/>
		<g id="student-7-fau-haarschattenPonytail">
			<path class="st13" d="M134.2,139.7c-0.2,4.4,1.5,9,4.1,13.1c3.9,6,9.8,10.5,11.4,17.8c0.9,4.2,0.7,8.8,0.7,13.1
				c0,3.2-0.1,6.4-0.2,9.5c4.8-11.1,8.6-23.7,2.7-32.7c0,0-10.1-7.8-12.4-12.5c-1.8-3.7-3.7-12.2-3.7-12.2S135.6,137.3,134.2,139.7z
				"/>
		</g>
	</g>
	<g id="student-7-fau-Gesicht">
		<g id="student-7-fau-Facials">
			<g id="student-7-fau-hautschattenOhrLinks">
				<path class="st14" d="M140.3,123.9c1.7,5.6,0.2,10.9-3.4,12c-3.5,1-7.7-2.6-9.3-8.2c-1.7-5.6-0.2-10.9,3.4-12
					C134.5,114.6,138.7,118.3,140.3,123.9z"/>
			</g>
			<g id="student-7-fau-hautschattenOhrRechts">
				<path class="st14" d="M202.5,126.5c-1.3,5.7-5.2,9.6-8.8,8.8c-3.6-0.8-5.4-6-4.2-11.7c1.3-5.7,5.2-9.6,8.8-8.8
					C201.9,115.6,203.8,120.9,202.5,126.5z"/>
			</g>
			<g id="student-7-fau-gesichtHautbasis">
				<path class="st15" d="M164.5,81.3c-28.7,0.3-30.1,27.2-30.2,30.5c0,0.2,0,0.4,0,0.6c0.2,3,2.2,30.7,5,35.9
					c2.3,4.4,19.4,18.4,26.3,18.4c6.9,0,23.3-14.6,25.5-19c2.7-5.3,4.1-33,4.2-36c0-0.2,0-0.4,0-0.6
					C195.2,107.9,193.2,81,164.5,81.3z"/>
			</g>
			<g id="student-7-fau-hautschattenHaaransatz">
				<path class="st14" d="M195.2,113.5c-6.9-8.6-9.1-18.7-9.1-18.7l-47.4,0.4c0,0,11.5-13.8,25.7-14
					c28.7-0.3,30.7,26.6,30.8,29.8c0,0.2,0,0.4,0,0.6C195.3,112,195.3,112.7,195.2,113.5z"/>
			</g>
			<g id="student-7-fau-Augen">
				<path class="st16" d="M177.8,120.3c-2-0.2-3.7,2-3.9,4.8c-0.1,2.9,1.4,5.4,3.4,5.6c2,0.2,3.7-2,3.9-4.8
					C181.3,123,179.8,120.5,177.8,120.3z"/>
				<path class="st16" d="M151.5,120.6c-2-0.2-3.7,2-3.9,4.8c-0.1,2.9,1.4,5.4,3.4,5.6c2,0.2,3.7-2,3.9-4.8
					C155,123.3,153.5,120.8,151.5,120.6z"/>
			</g>
			<g id="student-7-fau-Nase">
				<path class="st14" d="M164.4,138c-0.5,0.8-0.5,0.7-0.1,1.3c0.2,0.4,0.8,0.8,1.1,1.2c0.7,0.7-2.4,0.6-2.9,0
					c-0.5-0.5-1.6-1.3-1.8-1.9c-0.3-0.8,0.3-1.1,0.8-1.5c1.6-1.3,2.6-3,3.1-5C164.7,131.2,166,135.2,164.4,138z"/>
			</g>
			<g id="student-7-fau-Mund">
				<path class="st2" d="M155.5,145.8c6.5-1,13.1-1,19.9,0c0,0-5.1,8.6-9.9,8.6C160.7,154.3,155.5,145.8,155.5,145.8z"/>
			</g>
		</g>
		<g id="student-7-fau-HaarbasisKopf">
			<path class="st12" d="M161.8,67.8c28.8-7.9,31.5,15.2,31.5,15.2s4.7,1.7,6.8,5.2c2.1,3.5,1.1,22-4.6,28.8
				c-4.3-6.1-7.7-24.1-7.7-24.1c-11.5-4-45.9-0.1-45.9-0.1s-1.5,18.9-7.6,23.4C127.6,94.9,135.7,75,161.8,67.8z"/>
		</g>
		<g id="student-7-fau-Haarlicht">
			<path class="st17" d="M189.8,74.3c-3.8-5.5-11.8-10.9-28-6.4c-15,4.1-24.1,12.5-27.8,22.8c4.1-6.5,9.6-12.1,16.4-15.9
				c4.2-2.3,8.9-3.9,13.6-4.7C165.3,69.9,178.5,67.7,189.8,74.3z"/>
		</g>
		<g id="student-7-fau-Augenbrauen">
			<path class="st33" d="M170.3,110.1c0.2,0,0.4-0.1,0.6-0.1c11.2-2.4,16.8,3.5,16.7,3.2c0.5,0.5,1.3,0.8,1.7,0.8
				c0.4,0,0.4-0.5-0.1-1c0,0.3-3.8-8.7-17.2-6.3C171.1,107,169.7,110.3,170.3,110.1z"/>
			<path class="st33" d="M158.7,112.8c-0.2,0-0.3-0.1-0.5-0.1c-10-2.6-16.1,2.7-15.9,2.5c-0.6,0.4-1.3,0.7-1.7,0.7
				c-0.4-0.1-0.4-0.5,0.2-0.9c-0.1,0.2,5-8.2,17-5.4C158.5,109.8,159.3,112.9,158.7,112.8z"/>
		</g>
	</g>
	<g id="student-7-fau-Buecherstapel">
		<path class="st18" d="M87.8,346.2c0.8-2.5,0.8-5.5,0-8.1h-1l-50.1-20c0.6,2.6,0.6,5.5,0,8.1l50.1,20H87.8z"/>
		<path class="st19" d="M86.5,337.5c-0.2-0.3-0.3-0.7-0.5-1l-1.5-1.4l-52.9-21l1.5,2.4c0.2,0.3,3.5,1.6,3.5,1.6l50.1,20
			L86.5,337.5z"/>
		<path class="st19" d="M86,347.7c0.2-0.3,0.4-0.6,0.5-1l0.3-0.6l-50.1-20l-4.1,1.9l51.9,22L86,347.7z"/>
		<path class="st5" d="M87.8,346.2l44.9-13c1.3-2.3,1.3-5.7,0-8.1l-44.9,13C88.6,340.6,88.6,343.6,87.8,346.2z"/>
		<path class="st20" d="M134.2,321.6l-0.3-0.4l-49.5,14l1.5,1.4c0.2,0.3,0.4,0.6,0.5,1l0.3,0.6h1l44.9-13c1.3,2.3,1.3,5.7,0,8.1
			l-44.9,13h-1l-0.3,0.6c-0.2,0.3-0.3,0.7-0.5,1l-1.5,2.4l49.5-13l0.3-0.4c1.3-2,2.1-4.7,2.1-7.5
			C136.2,326.3,135.5,323.6,134.2,321.6z"/>
		<polygon class="st21" points="31.6,314.2 81.1,301.3 134,321.3 84.4,335.2"/>
		<path class="st18" d="M86.8,328.2c0.8-2.4,0.8-5.3,0-7.7h-0.9l-47.7-19c0.5,2.5,0.5,5.2,0,7.7l47.7,19H86.8z"/>
		<path class="st22" d="M85.6,320c-0.2-0.3-0.3-0.6-0.5-0.9l-1.5-1.3l-50.3-20l1.5,2.2c0.2,0.3,3.4,1.5,3.4,1.5l47.7,19L85.6,320
			z"/>
		<path class="st22" d="M85.1,329.7c0.2-0.3,0.3-0.6,0.5-0.9l0.3-0.5l-47.7-19l-3.9,1.8l49.4,20.9L85.1,329.7z"/>
		<path class="st5" d="M86.8,328.2l42.8-12.4c1.2-2.2,1.2-5.5,0-7.7l-42.8,12.4C87.6,323,87.6,325.8,86.8,328.2z"/>
		<path class="st23" d="M130.9,304.8l-0.3-0.4l-47.1,13.3l1.5,1.3c0.2,0.3,0.3,0.6,0.5,0.9l0.3,0.5h0.9l42.8-12.4
			c1.2,2.2,1.2,5.5,0,7.7l-42.8,12.4h-0.9l-0.3,0.5c-0.2,0.3-0.3,0.6-0.5,0.9l-1.5,2.2l47.1-12.4l0.3-0.4c1.3-1.9,2-4.5,2-7.2
			C132.9,309.3,132.2,306.8,130.9,304.8z"/>
		<polygon class="st24" points="33.3,297.8 80.4,285.6 130.7,304.6 83.6,317.8"/>
		<path class="st18" d="M92.4,314.2c0.8-2.4,0.8-5.3,0-7.7h-1l-47.8-19.1c0.5,2.5,0.5,5.2,0,7.7l47.8,19.1H92.4z"/>
		<path class="st25" d="M91.1,305.9c-0.2-0.3-0.3-0.6-0.5-0.9l-1.5-1.3l-50.4-20l1.5,2.2c0.2,0.3,3.4,1.5,3.4,1.5l47.8,19.1
			L91.1,305.9z"/>
		<path class="st25" d="M90.6,315.6c0.2-0.3,0.3-0.6,0.5-0.9l0.3-0.5l-47.8-19.1l-3.9,1.8l49.5,21L90.6,315.6z"/>
		<path class="st5" d="M92.4,314.2l42.9-12.4c1.2-2.2,1.2-5.5,0-7.7l-42.9,12.4C93.1,308.9,93.1,311.7,92.4,314.2z"/>
		<path class="st26" d="M136.6,290.7l-0.3-0.4l-47.2,13.4l1.5,1.3c0.2,0.3,0.3,0.6,0.5,0.9l0.3,0.5h1l42.9-12.4
			c1.2,2.2,1.2,5.5,0,7.7l-42.9,12.4h-1l-0.3,0.5c-0.2,0.3-0.3,0.6-0.5,0.9l-1.5,2.2l47.2-12.4l0.3-0.4c1.3-1.9,2-4.5,2-7.2
			C138.6,295.2,137.9,292.6,136.6,290.7z"/>
		<polygon class="st27" points="38.7,283.7 86,271.4 136.4,290.5 89.2,303.7"/>
		<path class="st18" d="M85.5,296.2c0.8-2.1,0.9-4.6,0.3-6.7l-0.8,0l-41.1-18.6c0.4,2.2,0.3,4.6-0.3,6.7l41.1,18.6L85.5,296.2z"
			/>
		<path class="st28" d="M84.8,289c-0.1-0.3-0.2-0.6-0.4-0.8l-1.2-1.2l-43.4-19.5l1.2,2c0.2,0.3,2.9,1.4,2.9,1.4L85,289.5
			L84.8,289z"/>
		<path class="st28" d="M84,297.5c0.2-0.2,0.3-0.5,0.5-0.8l0.2-0.5l-41.1-18.6l-3.5,1.4l42.5,20.3L84,297.5z"/>
		<path class="st5" d="M85.5,296.2l38-9.2c1.2-1.9,1.3-4.7,0.3-6.7l-38,9.2C86.4,291.7,86.3,294.2,85.5,296.2z"/>
		<path class="st29" d="M125.2,277.5l-0.2-0.3L83.2,287l1.2,1.2c0.2,0.3,0.3,0.6,0.4,0.8l0.2,0.5l0.8,0l38-9.2
			c1,2,0.9,4.8-0.3,6.7l-38,9.2l-0.8,0l-0.2,0.5c-0.1,0.3-0.3,0.6-0.5,0.8l-1.4,1.9l41.8-9l0.2-0.3c1.2-1.6,1.9-3.8,2-6.2
			C126.7,281.5,126.2,279.2,125.2,277.5z"/>
		<polygon class="st30" points="39.8,267.4 81.6,258.5 125,277.2 83.2,287"/>
	</g>
	<g id="student-7-fau-armRechts">
		<g id="student-7-fau-hautfarbeHandRechts">
			<path class="st11" d="M137.9,312.3c-0.5,0.4-3.9,9.5-3.9,9.5s-0.4,1-1.1,2.7c-2.7,6.9-10,18-12,17.7c-2.4-0.3,1.7-6.4,1.7-6.4
				s-7.3,9.9-10.1,9.4c-2.8-0.4,4.1-10.3,4.1-10.3s-8.3,14.7-10.8,12.3c-2.5-2.4,4.3-14.3,4.3-14.3s-9.5,19.3-12.2,15.3
				c-2.7-4,6.3-22.8,6.3-22.8s-16,9.6-14.4,4.9c1-2.9,20.7-19.7,24.3-21.5c3.7-1.9,9.8-3.3,9.8-3.3S138.4,312,137.9,312.3z"/>
		</g>
		<g id="student-7-fau-hautfarbeArmRechts">
			<path class="st11" d="M123.6,305.5c0,0,63.4-18.6,67.4-25.1c4.1-6.5,4.3-46.7,10.1-57.7c5.8-11,19.9-28.6,19.9-28.6
				c7,5.8-8,100.3-11.6,103.5c-4.5,4-74.6,17.6-74.6,17.6C130.6,312.1,128.2,308,123.6,305.5z"/>
		</g>
	</g>
	<g id="student-7-fau-HosenschriftzugFAU">
		<path class="st2" d="M201.4,382.1c4.1,24.1,2.6,46.9,2.9,49.6"/>
		<path class="st2" d="M205,495.1c0,0,0.4,159.6,1.6,169"/>
	</g>
	<path id="student-7-fau-FAU_x5F_Logo" class="st32" d="M164.6,214.6l0.6-0.4l-1.4,9.2l-0.5-0.1L164.6,214.6z M166.2,214.4l6.1,0.9l0.1-0.5l-6.6-1
	l-0.1,0.5l-0.8,5.6l5.6,0.8l0.1-0.5l-5.1-0.8L166.2,214.4z M171.4,219.3l-4.8-0.7l0.3-2l4.1,0.6l0.6-0.4l-4.6-0.7l0.1-0.5l5.1,0.8
	l0.1-0.5l-5.1-0.8l-0.5-0.1l-0.6,4l4.8,0.7L171.4,219.3z M164.7,220.6l-0.4,2.8l0.5,0.1l0.4-2.5l0.5,0.1l-0.3,2.1l0.6-0.4l0.2-1.6
	l4.1,0.6l0.1-0.5l-5.6-0.8L164.7,220.6z M190.3,217.5l-0.9,5.8c-0.2,1.4-1,2.4-2.5,3.1l0,0c1-0.6,1.8-1.4,2-2.7l1-6.3l-0.5-0.1
	l-0.9,6.3c-0.3,1.8-1.9,2.9-3.8,2.7c-1.8-0.3-3.1-1.9-2.8-3.7l0.9-5.9l-0.6,0.4l-0.8,5.4c-0.3,2.1,1.1,3.9,3.2,4.2
	c0,0,0.5,0.1,0.5,0.1c2.1,0.3,4.5-0.9,4.9-3.5l0.9-5.8L190.3,217.5L190.3,217.5z M184.7,225.8c1.5,0.2,3-0.7,3.2-2.3l0,0l0.9-5.9
	l-0.6,0.4l-0.7,4.9c-0.1,1-1,1.5-2,1.4c-1-0.1-1.7-0.9-1.5-1.9l0.9-5.8l-0.5-0.1l-0.9,5.8c-0.2,1.3,0.7,2.3,1.9,2.5
	c0.5,0.1,1.2-0.1,1.7-0.5l0,0c-0.5,0.7-1.3,1-2.3,0.9c-1.2-0.2-2.1-1.2-1.9-2.5l0,0l1-6.3l-0.5-0.1l-1,6.3l0,0
	C182.1,224.3,183.1,225.6,184.7,225.8z M173.8,221.7l-1.7,2.8l0.5,0.1l0,0l0,0l0.9-1.4l4.3,0.6l0.4,1.6l0.5,0.1l-0.6-2.2l-4.4-0.7
	l0.3-0.5l4.4,0.7l0.7,2.7l0.5,0.1l-0.8-3.2L173.8,221.7L173.8,221.7z M175.5,215.3l-5,8.2l0.3,0.5l5.3-8.7L175.5,215.3z
	 M177.6,215.6l2.5,9.8l0.4-0.4l-2.4-9.4L177.6,215.6z M173.6,221.2l-2,3.3l-0.5-0.1l5.2-8.4l1.3,5.3l0.5,0.1l-1.5-5.9l0.5,0.1
	l1.6,6.4L173.6,221.2z M176.4,218.5l-1.5,2.4l2.2,0.3L176.4,218.5z M173.9,220.7l0.5,0.1l1.8-3l-0.2-0.6L173.9,220.7z"/>
	<path id="student-7-fau-FAU_x5F_Logo_00000082354458188806206030000014365078015761355185_" class="st2" d="M207.5,435.1l0.4,0.4l-7.6,0l0-0.4
	L207.5,435.1z M207.9,436.3l0,5l0.4,0l0-5.4l-0.4,0l-4.6,0l0,4.6l0.4,0l0-4.2L207.9,436.3z M204.6,441.2l0-4l1.7,0l0,3.4l0.4,0.4
	l0-3.8l0.4,0l0,4.2l0.4,0l0-4.2l0-0.4l-3.3,0l0,4L204.6,441.2z M202.7,435.9l-2.3,0l0,0.4l2.1,0l0,0.4l-1.7,0l0.4,0.4l1.3,0l0,3.4
	l0.4,0l0-4.6L202.7,435.9z M208.4,456.2l-4.8,0c-1.1,0-2.1-0.5-2.8-1.7l0,0c0.6,0.8,1.4,1.2,2.4,1.2l5.2,0l0-0.4l-5.2,0
	c-1.5,0-2.6-1.2-2.6-2.7s1.1-2.7,2.6-2.7l4.9,0l-0.4-0.4l-4.4,0c-1.7,0-3,1.4-3,3.1c0,0,0,0.4,0,0.4c0,1.7,1.3,3.5,3.4,3.5l4.8,0
	L208.4,456.2L208.4,456.2z M201,452.7c0,1.3,0.9,2.3,2.2,2.3l0,0l4.9,0l-0.4-0.4l-4,0c-0.8,0-1.4-0.6-1.4-1.5c0-0.8,0.5-1.5,1.4-1.5
	l4.8,0l0-0.4l-4.8,0c-1,0-1.8,0.9-1.8,1.9c0,0.4,0.2,0.9,0.6,1.3l0,0c-0.6-0.3-1-0.9-1-1.7c0-1,0.7-1.9,1.8-1.9l0,0l5.2,0l0-0.4
	l-5.2,0l0,0C201.9,450.4,201,451.5,201,452.7z M202.9,443.4l-2.5-1l0,0.4l0,0l0,0l1.3,0.5l0,3.5l-1.3,0.5l0,0.4l1.7-0.7l0-3.6
	l0.4,0.2l0,3.7l-2.1,0.9l0,0.4l2.5-1.1L202.9,443.4L202.9,443.4z M208.3,444l-7.3-3l-0.4,0.3l7.7,3.2L208.3,444z M208.3,445.7
	l-7.6,3.2l0.4,0.3l7.3-3.1L208.3,445.7z M203.3,443.2l-2.9-1.2l0-0.4l7.5,3.1l-4.1,1.7l0,0.4l4.6-2l0,0.4l-5,2.1L203.3,443.2z
	 M205.9,445.1l-2.1-0.9l0,1.8L205.9,445.1z M203.7,443.4l0,0.4l2.6,1.1l0.5-0.2L203.7,443.4z"/>
	<path id="student-7-fau-FAU_x5F_EN" class="st2" d="M208.1,460.3l0-0.7l-0.4,0l0,0.5l-0.3,0l0-0.5l-0.7,0l0-0.3l1.6,0l0,1L208.1,460.3
	L208.1,460.3z M208,461.1l-0.3,0c0,0,0-0.1,0-0.1c0-0.2-0.1-0.2-0.3-0.2l-0.6,0l0-0.3l1.1,0l0,0.3l-0.1,0l0,0
	c0.1,0.1,0.2,0.2,0.2,0.3C208,461,208,461.1,208,461.1z M208.3,461.6c-0.1,0-0.2-0.1-0.2-0.2c0-0.1,0.1-0.2,0.2-0.2
	c0.1,0,0.2,0.1,0.2,0.2C208.5,461.6,208.4,461.6,208.3,461.6z M206.8,461.6l0-0.3l1.1,0l0,0.3L206.8,461.6z M207,462.9
	c-0.1-0.1-0.2-0.3-0.2-0.5c0-0.3,0.2-0.6,0.6-0.6c0.4,0,0.6,0.2,0.6,0.5c0,0.3-0.2,0.5-0.6,0.5c0,0-0.1,0-0.1,0l0-0.8
	c-0.2,0-0.3,0.1-0.3,0.3c0,0.1,0,0.2,0.1,0.3L207,462.9z M207.5,462.2l0,0.5c0.2,0,0.3-0.1,0.3-0.2
	C207.8,462.3,207.7,462.2,207.5,462.2z M207.4,463.2c0.4,0,0.6,0.2,0.6,0.5c0,0.1-0.1,0.3-0.2,0.3l0,0l0.6,0l0.1,0.3l-1.7,0l0-0.3
	l0.1,0l0,0c-0.1-0.1-0.2-0.2-0.2-0.3C206.8,463.4,207,463.2,207.4,463.2z M207.4,463.4c-0.2,0-0.4,0.1-0.4,0.3c0,0.1,0,0.2,0.1,0.3
	l0.4,0c0.1-0.1,0.2-0.2,0.2-0.3C207.8,463.5,207.6,463.4,207.4,463.4z M208,465.3l-0.3,0c0,0,0-0.1,0-0.1c0-0.2-0.1-0.2-0.3-0.2
	l-0.6,0l0-0.3l1.1,0l0,0.3l-0.1,0l0,0c0.1,0.1,0.2,0.2,0.2,0.3C208,465.2,208,465.3,208,465.3z M208.3,465.8c-0.1,0-0.2-0.1-0.2-0.2
	c0-0.1,0.1-0.2,0.2-0.2c0.1,0,0.2,0.1,0.2,0.2C208.5,465.8,208.4,465.8,208.3,465.8z M206.8,465.8l0-0.3l1.1,0l0,0.3L206.8,465.8z
	 M207,467c-0.1-0.1-0.2-0.2-0.2-0.4c0-0.3,0.2-0.6,0.6-0.6c0.4,0,0.6,0.2,0.6,0.5c0,0.2-0.1,0.3-0.2,0.4l-0.2-0.2
	c0.1-0.1,0.1-0.1,0.1-0.2c0-0.2-0.1-0.3-0.4-0.3c-0.2,0-0.4,0.1-0.4,0.3c0,0.1,0,0.2,0.1,0.2L207,467z M206.9,468.3l0-0.3l0.7,0
	c0.2,0,0.3,0,0.3-0.2c0-0.2-0.1-0.2-0.3-0.2l-0.7,0l0-0.3l1.6,0l0.1,0.3l-0.7,0l0,0c0.1,0.1,0.2,0.2,0.2,0.3c0,0.3-0.2,0.4-0.5,0.4
	L206.9,468.3L206.9,468.3z M207.4,469.1l0-0.6l0.3,0l0,0.6L207.4,469.1z M208.4,469.9l0,0.3l-1.6,0.6l0-0.3l0.3-0.1l0-0.6l-0.3-0.1
	l0-0.3L208.4,469.9z M207.5,470.3l0.7-0.2l0,0l-0.7-0.2L207.5,470.3z M206.9,471.3l0-0.3l1.6,0l0.1,0.3L206.9,471.3z M207,472.6
	c-0.1-0.1-0.2-0.3-0.2-0.5c0-0.3,0.2-0.6,0.6-0.6c0.4,0,0.6,0.2,0.6,0.5c0,0.3-0.2,0.5-0.6,0.5c0,0-0.1,0-0.1,0l0-0.8
	c-0.2,0-0.3,0.1-0.3,0.3c0,0.1,0,0.2,0.1,0.3L207,472.6z M207.5,471.8l0,0.5c0.2,0,0.3-0.1,0.3-0.2
	C207.8,472,207.7,471.9,207.5,471.8z M206.9,473.9l0-0.3l0.4-0.2l0,0l-0.4-0.2l0-0.3l0.6,0.4l0.5-0.4l0,0.3l-0.4,0.2l0,0l0.4,0.2
	l0,0.3l-0.5-0.4L206.9,473.9z M207.6,474.5c0,0.1,0,0.1,0,0.2l0,0c0.1,0,0.2-0.1,0.2-0.3c0-0.1,0-0.2-0.1-0.3l0.2-0.1
	c0,0.1,0.1,0.3,0.1,0.4c0,0.3-0.1,0.5-0.4,0.5l-0.7,0l0-0.3l0.1,0l0,0c-0.1-0.1-0.1-0.2-0.2-0.3c0-0.2,0.1-0.4,0.4-0.4
	C207.5,474,207.6,474.2,207.6,474.5z M207.1,474.5c0,0.1,0,0.2,0.1,0.3l0.2,0c0-0.1,0-0.1,0-0.2c0-0.2-0.1-0.3-0.2-0.3
	C207.1,474.3,207.1,474.3,207.1,474.5z M206.9,476.3l0-0.3l0.7,0c0.2,0,0.3,0,0.3-0.2c0-0.2-0.2-0.2-0.3-0.2l-0.7,0l0-0.3l1.1,0
	l0,0.3l-0.1,0l0,0c0.1,0.1,0.2,0.2,0.2,0.3c0,0.3-0.2,0.4-0.5,0.4L206.9,476.3z M207.5,476.6c0.4,0,0.6,0.2,0.6,0.5
	c0,0.1-0.1,0.3-0.2,0.3l0,0l0.6,0l0.1,0.3l-1.7,0l0-0.3l0.1,0l0,0c-0.1-0.1-0.2-0.2-0.2-0.3C206.9,476.8,207.1,476.6,207.5,476.6z
	 M207.5,476.9c-0.2,0-0.4,0.1-0.4,0.3c0,0.1,0,0.2,0.1,0.3l0.4,0c0.1-0.1,0.2-0.2,0.2-0.3C207.8,477,207.7,476.9,207.5,476.9z
	 M207.1,479c-0.1-0.1-0.2-0.3-0.2-0.5c0-0.3,0.2-0.6,0.6-0.6c0.4,0,0.6,0.2,0.6,0.5c0,0.3-0.2,0.5-0.6,0.5c0,0-0.1,0-0.1,0l0-0.8
	c-0.2,0-0.3,0.1-0.3,0.3c0,0.1,0,0.2,0.1,0.3L207.1,479z M207.6,478.2l0,0.5c0.2,0,0.3-0.1,0.3-0.2
	C207.8,478.3,207.7,478.3,207.6,478.2z M208.1,480l-0.3,0c0,0,0-0.1,0-0.1c0-0.2-0.1-0.2-0.3-0.2l-0.6,0l0-0.3l1.1,0l0,0.3l-0.1,0
	l0,0c0.1,0.1,0.2,0.2,0.2,0.3C208.1,479.9,208.1,480,208.1,480z M207.5,480.7l0-0.6l0.3,0l0,0.6L207.5,480.7z M207.5,482.3
	c-0.4,0-0.7-0.2-0.7-0.6c0-0.4,0.3-0.6,0.7-0.6l1,0l0,0.3l-0.9,0c-0.2,0-0.4,0.1-0.4,0.3c0,0.2,0.2,0.3,0.4,0.3l0.9,0l0,0.3
	L207.5,482.3L207.5,482.3z M206.9,483.7l0-0.3l0.7,0c0.2,0,0.3,0,0.3-0.2c0-0.2-0.2-0.2-0.3-0.2l-0.7,0l0-0.3l1.1,0l0,0.3l-0.1,0
	l0,0c0.1,0.1,0.2,0.2,0.2,0.3c0,0.3-0.2,0.4-0.5,0.4L206.9,483.7L206.9,483.7z M208.4,484.3c-0.1,0-0.2-0.1-0.2-0.2
	c0-0.1,0.1-0.2,0.2-0.2c0.1,0,0.2,0.1,0.2,0.2C208.6,484.2,208.5,484.3,208.4,484.3z M206.9,484.3l0-0.3l1.1,0l0,0.3L206.9,484.3z
	 M208.1,485.6l-1.1-0.4l0-0.3l1.1-0.4l0,0.3l-0.8,0.3l0,0l0.8,0.3C208.1,485.3,208.1,485.6,208.1,485.6z M207.1,486.8
	c-0.1-0.1-0.2-0.3-0.2-0.5c0-0.3,0.2-0.6,0.6-0.6c0.4,0,0.6,0.2,0.6,0.5c0,0.3-0.2,0.5-0.6,0.5c0,0-0.1,0-0.1,0l0-0.8
	c-0.2,0-0.3,0.1-0.3,0.3c0,0.1,0,0.2,0.1,0.3L207.1,486.8z M207.6,486l0,0.5c0.2,0,0.3-0.1,0.3-0.2C207.9,486.1,207.8,486,207.6,486
	z M208.1,487.8l-0.3,0c0,0,0-0.1,0-0.1c0-0.2-0.1-0.2-0.3-0.2l-0.6,0l0-0.3l1.1,0l0,0.3l-0.1,0l0,0c0.1,0.1,0.2,0.2,0.2,0.3
	C208.1,487.7,208.1,487.7,208.1,487.8z M207.3,488c-0.1,0.1-0.1,0.2-0.1,0.3c0,0.1,0,0.2,0.1,0.2c0.2,0,0.1-0.6,0.5-0.6
	c0.2,0,0.4,0.2,0.4,0.4c0,0.1,0,0.3-0.1,0.4l-0.2-0.1c0.1-0.1,0.1-0.2,0.1-0.3c0-0.1,0-0.2-0.1-0.2c-0.2,0-0.1,0.6-0.5,0.6
	c-0.2,0-0.4-0.2-0.4-0.4c0-0.2,0-0.3,0.1-0.4L207.3,488z M208.4,489.4c-0.1,0-0.2-0.1-0.2-0.2c0-0.1,0.1-0.2,0.2-0.2
	c0.1,0,0.2,0.1,0.2,0.2C208.6,489.3,208.5,489.4,208.4,489.4z M206.9,489.3l0-0.3l1.1,0l0,0.3L206.9,489.3z M207.2,490.3l-0.2,0
	c0-0.1,0-0.1,0-0.2c0-0.2,0.1-0.3,0.3-0.3l0.6,0l0-0.2l0.2,0l0,0.2l0.3,0l0.1,0.3l-0.4,0l0,0.3l-0.2,0l0-0.3l-0.6,0
	c-0.1,0-0.1,0-0.1,0.1C207.1,490.2,207.2,490.2,207.2,490.3z M207.7,491c0,0.1,0,0.1,0,0.2l0,0c0.1,0,0.2-0.1,0.2-0.3
	c0-0.1,0-0.2-0.1-0.3l0.2-0.1c0,0.1,0.1,0.3,0.1,0.4c0,0.3-0.1,0.5-0.4,0.5l-0.7,0l0-0.3l0.1,0l0,0c-0.1-0.1-0.1-0.2-0.2-0.3
	c0-0.2,0.1-0.4,0.4-0.4C207.5,490.5,207.7,490.7,207.7,491z M208.3,490.8c0-0.1,0.1-0.2,0.2-0.2s0.2,0.1,0.2,0.2
	c0,0.1-0.1,0.2-0.2,0.2C208.3,490.9,208.3,490.8,208.3,490.8z M207.1,490.9c0,0.1,0,0.2,0.1,0.3l0.2,0c0-0.1,0-0.1,0-0.2
	c0-0.2-0.1-0.3-0.2-0.3C207.2,490.7,207.1,490.8,207.1,490.9z M208.3,491.2c0-0.1,0.1-0.2,0.2-0.2s0.2,0.1,0.2,0.2
	c0,0.1-0.1,0.2-0.2,0.2C208.3,491.4,208.3,491.3,208.3,491.2z M207.2,492.4l-0.2,0c0-0.1,0-0.1,0-0.2c0-0.2,0.1-0.3,0.3-0.3l0.6,0
	l0-0.2l0.2,0l0,0.2l0.3,0l0.1,0.3l-0.4,0l0,0.3l-0.2,0l0-0.3l-0.6,0c-0.1,0-0.1,0-0.1,0.1C207.2,492.3,207.2,492.3,207.2,492.4z
	 M204.1,460.3l0-1l1.6,0l0,1l-0.3,0l0-0.7l-0.4,0l0,0.6l-0.2,0l0-0.6l-0.4,0l0,0.8L204.1,460.3z M205.3,461.3l-0.3,0
	c0,0,0-0.1,0-0.1c0-0.2-0.1-0.2-0.3-0.2l-0.6,0l0-0.3l1.1,0l0,0.3l-0.1,0l0,0c0.1,0.1,0.2,0.2,0.2,0.3
	C205.3,461.2,205.3,461.2,205.3,461.3z M204.1,461.8l0-0.3l1.6,0l0.1,0.3L204.1,461.8z M204.8,462.5c0,0.1,0,0.1,0,0.2l0,0
	c0.1,0,0.2-0.1,0.2-0.3c0-0.1,0-0.2-0.1-0.3l0.2-0.1c0,0.1,0.1,0.3,0.1,0.4c0,0.3-0.1,0.5-0.4,0.5l-0.7,0l0-0.3l0.1,0l0,0
	c-0.1-0.1-0.1-0.2-0.2-0.3c0-0.2,0.1-0.4,0.4-0.4C204.7,462.1,204.8,462.2,204.8,462.5z M204.3,462.5c0,0.1,0,0.2,0.1,0.3l0.2,0
	c0-0.1,0-0.1,0-0.2c0-0.2-0.1-0.3-0.2-0.3C204.4,462.3,204.3,462.4,204.3,462.5z M204.1,464.4l0-0.3l0.7,0c0.2,0,0.3,0,0.3-0.2
	c0-0.2-0.2-0.2-0.3-0.2l-0.7,0l0-0.3l1.1,0l0,0.3l-0.1,0l0,0c0.1,0.1,0.2,0.2,0.2,0.3c0,0.3-0.2,0.4-0.5,0.4L204.1,464.4
	L204.1,464.4z M203.9,465L203.9,465c0,0.4,0.1,0.5,0.3,0.5l0.1,0l0,0c-0.1-0.1-0.2-0.2-0.2-0.3c0-0.3,0.2-0.5,0.6-0.5
	c0.4,0,0.6,0.2,0.6,0.5c0,0.1-0.1,0.3-0.2,0.3l0,0l0.1,0l0,0.3l-1,0c-0.4,0-0.6-0.2-0.6-0.7l0-0.1L203.9,465z M204.7,464.9
	c-0.2,0-0.4,0.1-0.4,0.3c0,0.1,0.1,0.2,0.1,0.3l0.4,0c0.1-0.1,0.1-0.2,0.1-0.3C205.1,465,204.9,464.9,204.7,464.9z M204.3,467
	c-0.1-0.1-0.2-0.3-0.2-0.5c0-0.3,0.2-0.6,0.6-0.6c0.4,0,0.6,0.2,0.6,0.5c0,0.3-0.2,0.5-0.6,0.5c0,0-0.1,0-0.1,0l0-0.8
	c-0.2,0-0.3,0.1-0.3,0.3c0,0.1,0,0.2,0.1,0.3L204.3,467z M204.8,466.3l0,0.5c0.2,0,0.3-0.1,0.3-0.2
	C205.1,466.4,205,466.3,204.8,466.3z M204.1,468.3l0-0.3l0.7,0c0.2,0,0.3,0,0.3-0.2c0-0.2-0.2-0.2-0.3-0.2l-0.7,0l0-0.3l1.1,0l0,0.3
	l-0.1,0l0,0c0.1,0.1,0.2,0.2,0.2,0.3c0,0.3-0.2,0.4-0.5,0.4L204.1,468.3z M204.7,469.2l0-0.6l0.3,0l0,0.6L204.7,469.2z M205.7,469.6
	l0,0.3l-1.1,0.7l0,0l1.1,0l0,0.3l-1.6,0l0-0.3l1.1-0.7l0,0l-1.1,0l0-0.3L205.7,469.6z M204.6,471.5c-0.2,0-0.2,0.1-0.2,0.2
	c0,0.1,0.1,0.2,0.2,0.2l0.7,0l0,0.3l-0.7,0c-0.3,0-0.5-0.2-0.5-0.5c0-0.3,0.2-0.5,0.5-0.5l0.7,0l0,0.3L204.6,471.5z M205.5,471.4
	c0-0.1,0.1-0.2,0.2-0.2s0.2,0.1,0.2,0.2c0,0.1-0.1,0.2-0.2,0.2C205.6,471.6,205.5,471.5,205.5,471.4z M205.5,471.9
	c0-0.1,0.1-0.2,0.2-0.2c0.1,0,0.2,0.1,0.2,0.2c0,0.1-0.1,0.2-0.2,0.2C205.6,472.1,205.5,472,205.5,471.9z M205.3,473.2l-0.3,0
	c0,0,0-0.1,0-0.1c0-0.2-0.1-0.2-0.3-0.2l-0.6,0l0-0.3l1.1,0l0,0.3l-0.1,0l0,0c0.1,0.1,0.2,0.2,0.2,0.3
	C205.3,473.1,205.3,473.2,205.3,473.2z M204.2,474.4l0-0.3l0.7,0c0.2,0,0.3,0,0.3-0.2c0-0.2-0.2-0.2-0.3-0.2l-0.7,0l0-0.3l1.1,0
	l0,0.3l-0.1,0l0,0c0.1,0.1,0.2,0.2,0.2,0.3c0,0.3-0.2,0.4-0.5,0.4L204.2,474.4z M204.8,475.8c-0.4,0-0.6-0.2-0.6-0.5
	c0-0.1,0.1-0.3,0.2-0.3l0,0l-0.1,0l0-0.3l1.6,0l0.1,0.3l-0.7,0l0,0c0.1,0.1,0.2,0.2,0.2,0.3C205.4,475.7,205.1,475.8,204.8,475.8z
	 M204.7,475.6c0.2,0,0.4-0.1,0.4-0.3c0-0.1,0-0.2-0.1-0.3l-0.4,0c-0.1,0.1-0.2,0.2-0.2,0.3C204.4,475.5,204.5,475.6,204.7,475.6z
	 M204.3,477.1c-0.1-0.1-0.2-0.3-0.2-0.5c0-0.3,0.2-0.6,0.6-0.6c0.4,0,0.6,0.2,0.6,0.5c0,0.3-0.2,0.5-0.6,0.5c0,0-0.1,0-0.1,0l0-0.8
	c-0.2,0-0.3,0.1-0.3,0.3c0,0.1,0,0.2,0.1,0.3L204.3,477.1z M204.9,476.4l0,0.5c0.2,0,0.3-0.1,0.3-0.2
	C205.1,476.5,205,476.4,204.9,476.4z M205.3,478.1l-0.3,0c0,0,0-0.1,0-0.1c0-0.2-0.1-0.2-0.3-0.2l-0.6,0l0-0.3l1.1,0l0,0.3l-0.1,0
	l0,0c0.1,0.1,0.2,0.2,0.2,0.3C205.4,478,205.4,478.1,205.3,478.1z M203.9,478.6L203.9,478.6c0,0.4,0.1,0.5,0.3,0.5l0.1,0l0,0
	c-0.1-0.1-0.2-0.2-0.2-0.3c0-0.3,0.2-0.5,0.6-0.5c0.4,0,0.6,0.2,0.6,0.5c0,0.1-0.1,0.3-0.2,0.3l0,0l0.1,0l0,0.3l-1,0
	c-0.4,0-0.6-0.2-0.6-0.7l0-0.1L203.9,478.6z M204.8,478.5c-0.2,0-0.4,0.1-0.4,0.3c0,0.1,0.1,0.2,0.1,0.3l0.4,0
	c0.1-0.1,0.1-0.2,0.1-0.3C205.1,478.6,205,478.5,204.8,478.5z"/>
	</g>
</svg>
