<svg version="1.1" id="Student_5_FAU" xmlns="http://www.w3.org/2000/svg" xmlns:xlink="http://www.w3.org/1999/xlink"
	 viewBox="0 0 280 704" style="enable-background:new 0 0 280 704;" xml:space="preserve">
<style type="text/css">
#student-5-fau-rrze-expo{
	--hautfarbe: #FBB57A;
	--hautschatten: #E78052;

	--shirtfarbe: #F2F2F2;
	--shirtschatten: #CEDAE2;

	--akzentfarbe: #8D1926; /*Fakultaetsfarben hier im Originalton*/
	--akzentfarbeDunkler: #5E1119; /*Eine Nuance dunkler als Originalton*/


	--fauFarbton: #004070; /*FAUFarbton sRGB*/
	--fauFarbtonDunkler: #003359; /*1 Nuance dunkler*/
	--fauFlickenfarbe: #E6E6E6;

	--haarfarbe: #231F20;
	--haarakzentfarbe: #333333;
	}



	/*FlickenTipp - Um die Flicken zu deaktivieren muss .st22 der Farbe von .st5 entsprechen und opacity von .st8 auf 1 gesetzt werden*/

	#student-5-fau-rrze-expo .st0{fill:#5E1119; fill: var(--akzentfarbeDunkler, #5E1119);} /*Rucksack Akzent Dunkel fuer Tasche und Band*/
	#student-5-fau-rrze-expo .st1{fill:#8D1926; fill: var(--akzentfarbe, #8D1926);} /*Akzentfarbe Fakultaeten*/
	#student-5-fau-rrze-expo .st2{fill:#F1F2F2;} /*Schuhkappenfarbe und Oesen*/
	#student-5-fau-rrze-expo .st3{fill:#D1D3D4;} /*Schuhsohle*/
	#student-5-fau-rrze-expo .st4{fill:#808285;} /*Schuhabsatz*/
	#student-5-fau-rrze-expo .st5{fill:#004070; fill: var(--fauFarbton, #004070);} /*FAU Farbton Hose Siegel und Shirtbadge*/
	#student-5-fau-rrze-expo .st6{opacity:0.3;} /*Steuert den Schattenwurf des Shirts auf Hose*/
	#student-5-fau-rrze-expo .st7{fill:#003359; fill: var(--fauFarbtonDunkler, #003359);} /*FAU Farbton Schatten auf Hosenbeinen*/
	#student-5-fau-rrze-expo .st8{opacity:0.5;} /*Rechter Flicken Deckkraft*/
	#student-5-fau-rrze-expo .st9{fill:#E6E6E6; fill: var(--fauFlickenfarbe, #E6E6E6);} /*Flickenfarbe*/
	#student-5-fau-rrze-expo .st10{fill:#E78052; fill: var(--hautschatten, #E78052);} /*Hautschatten*/
	#student-5-fau-rrze-expo .st11{fill:#F2F2F2; fill: var(--shirtfarbe, #F2F2F2);} /*Shirtfarbe*/
	#student-5-fau-rrze-expo .st12{clip-path:url(#FAU_siegel_Beschnittmaske_1_);}
	#student-5-fau-rrze-expo .st13{opacity:0.81;} /*Schattenwurf Arm und Buch*/
	#student-5-fau-rrze-expo .st14{fill:#CEDAE2; fill: var(--shirtschatten, #CEDAE2);} /*Schattenfarbe Arm und Buch*/
	#student-5-fau-rrze-expo .st15{fill:#FBB57A; fill: var(--hautfarbe, #FBB57A);} /*Hautfarbenbasis*/
	#student-5-fau-rrze-expo .st16{fill:#FFFFFF;} /*unwichtig wird von anderen Elementen verdeckt*/
	#student-5-fau-rrze-expo .st17{fill:#EB9756; fill: var(--hautschatten, #EB9756);} /*Hautfarbe der Ohren*/
	#student-5-fau-rrze-expo .st18{fill:#E88252; fill: var(--hautschatten, #E88252);} /*Nase*/
	#student-5-fau-rrze-expo .st19{opacity:0.2;} /*Steuert die Haarakzentfarbenopacity*/
	#student-5-fau-rrze-expo .st20{fill:#333333; fill: var(--haarakzentfarbe, #333333);} /*Haarakzentfarbe*/
	#student-5-fau-rrze-expo .st21{fill:#E6E7E8;} /*Buchseiten*/
	#student-5-fau-rrze-expo .st22{fill:#A4C8E4;} /*Buchcover*/
	#student-5-fau-rrze-expo .st23{fill:#5E7E97;} /*Buchklappe*/
	#student-5-fau-rrze-expo .st24{fill:#7E98AC;} /*Buchruecken*/
	#student-5-fau-rrze-expo .st25{fill:#000000; fill: var(--haarfarbe, #000000);} /*Haare und Augenbrauen*/

</style>
<g id="student-5-fau-rrze-expo">
	<g id="student-5-fau-rucksack">
		<g id="student-5-fau-rucksackBody">
			<path id="student-5-fau-rucksackAkzentFarbeDunkel_2_" class="st0" d="M106.3,363h21.3c28.7,0,52.1-23.5,52.1-52.1v-71
				c0-28.7-23.5-52.1-52.1-52.1h-21.3c-28.7,0-52.1,23.5-52.1,52.1v71C54.2,339.5,77.7,363,106.3,363z"/>
		</g>
		<g id="student-5-fau-rucksackAkzentFarbe">
			<path id="student-5-fau-rucksackAkzentFarbe_1_" class="st1" d="M63.6,211.2c4.4,2.3,7,5.7,8.7,10.6c3.1,8.4,2.5,108.9,12.9,113.2
				c6.5,2.7,76-3.9,90.3-4.4c-7.8,19-25.6,32.4-46.2,32.4h-24.8c-27.7,0-50.4-24.3-50.4-53.9v-67.4c0-11.4,3.3-21.9,9-30.6
				C63.3,211,63.5,211.1,63.6,211.2z"/>
		</g>
		<g id="student-5-fau-rucksackTasche">
			<path id="student-5-fau-rucksackAkzentFarbeDunkel" class="st0" d="M69.6,289c0.9,2.1,1,5.4,1.3,7.7c0.6,4.8,3.2,30.5,2.7,32.1
				c-0.8,2.8-4,1.5-5.6,0.5c-3.9-2.4-5.4-6.6-6.7-11c-1.6-5.4-2.8-11.2-3.2-16.8C57.7,296.8,68.5,286.6,69.6,289z"/>
		</g>
	</g>
	<g id="student-5-fau-Hose_und_Schuhe">
		<g id="student-5-fau-RechterSchuh">
			<g id="student-5-fau-schuhAkzentfarbe_2_">
				<g id="student-5-fau-schuhAkzentfarbe_3_">
					<path id="student-5-fau-schuhAkzentfarbeFarbe" class="st1" d="M214.2,675.8h-77l3.5-47.9c11.1-1.9,21.5-2.3,30.7,0c0,0-1.9,14.8,13.5,19.7
						C200.3,652.4,214.2,650.8,214.2,675.8z"/>
				</g>
			</g>
			<g id="student-5-fau-schuhAkzentfarbeDunkel_3_">
				<g id="student-5-fau-schuhAkzentfarbeDunkel_4_">
					<path id="student-5-fau-schuhAkzentfarbeDunkelFarbe" class="st0" d="M171.4,630.4c-9.3,0.7-20.6,1-24.3,10.6c-2.1,5.5-1.3,12.1-1,17.9
						c0.3,5.7,0.2,11.3,0.4,17h-9.2l3.5-47.9c11.1-1.9,21.5-2.3,30.7,0C171.5,627.9,171.3,628.8,171.4,630.4z"/>
				</g>
			</g>
			<g id="student-5-fau-schuhkappe">
				<g id="student-5-fau-schuhkappe_1_">
					<path id="student-5-fau-schuhkappenFarbe" class="st2" d="M199.1,652.9c12.5,0,15.2,8.8,14.8,22.9h-44C180.9,652.1,187.9,652.9,199.1,652.9z"
						/>
				</g>
			</g>
			<g id="student-5-fau-schuhkappenSchatten">
				<g id="student-5-fau-schuhkappenSchatten_1_">
					<g id="student-5-fau-schuhkappenSchattenFarbe">
						<path class="st3" d="M179.9,675.8h-10c11-23.7,18-22.9,29.2-22.9C202.4,652.9,176.9,651.9,179.9,675.8z"/>
					</g>
				</g>
			</g>
			<g id="student-5-fau-schnuersenkel3_1_">
				<g id="student-5-fau-oese_11_">
					<g id="student-5-fau-oese_12_">
						<path id="student-5-fau-oesenfarbe_7_" class="st2" d="M171.7,654c-1.4,1.4-1.6,3.5-0.4,4.7c1.2,1.3,3.3,1.2,4.7-0.2
							c1.4-1.4,1.6-3.5,0.4-4.7C175.3,652.6,173.2,652.7,171.7,654z"/>
					</g>
				</g>
				<path id="student-5-fau-schnuersenkelFarbe_2_" d="M173.4,658.1c15.6-8.4,28.2-5.9,28.2-5.9c-9.7-7.1-27.9,2.1-28.2,2.2
					c-1,0.4-1.5,1.6-1.1,2.6C172.6,657.6,173,657.9,173.4,658.1z"/>
			</g>
			<g id="student-5-fau-oese_5_">
				<g id="student-5-fau-oese_8_">
					<g id="student-5-fau-oese_7_">
						<path id="student-5-fau-oesenfarbe_5_" class="st2" d="M163.5,650.7c-1.4,1.4-1.6,3.5-0.4,4.7c1.2,1.3,3.3,1.2,4.7-0.2
							c1.4-1.4,1.6-3.5,0.4-4.7C167.1,649.3,164.9,649.3,163.5,650.7z"/>
					</g>
				</g>
			</g>
			<g id="student-5-fau-oese_6_">
				<g id="student-5-fau-oese_9_">
					<g id="student-5-fau-oese_10_">
						<path id="student-5-fau-oesenfarbe_6_" class="st2" d="M156,647c-1.4,1.4-1.6,3.5-0.4,4.7c1.2,1.3,3.3,1.2,4.7-0.2c1.4-1.4,1.6-3.5,0.4-4.7
							C159.5,645.6,157.4,645.7,156,647z"/>
					</g>
				</g>
			</g>
			<g id="student-5-fau-schnuersenkel2_1_">
				<path id="student-5-fau-schnuersenkelFarbe_1_" d="M165,654.6c15.6-8.4,24.6-5.7,24.6-5.7c-6.5-6-24.4,1.8-24.6,2c-1,1.1-1.5,1.6-1.1,2.6
					C164.2,654,164.5,654.4,165,654.6z"/>
			</g>
			<g id="student-5-fau-schnuersenkel1_1_">
				<path id="student-5-fau-schnuersenkelFarbe" d="M157.5,647.5c0.2-0.1,17.3-9.6,22.6-2.2c0,0-10.2-2.4-22.7,5.9c-0.4-0.2-0.7-0.6-0.8-1.1
					C156.3,649.1,156.7,647.9,157.5,647.5z"/>
			</g>
			<g id="student-5-fau-schuhsohle">
				<g id="student-5-fau-schuhsohle_1_">
					<path id="student-5-fau-schuhsohlenFarbe" class="st3" d="M213.9,669.4c0.3,1.9,0.4,4,0.4,6.3h-77l0.5-6.3H213.9z"/>
				</g>
			</g>
			<g id="student-5-fau-absatz">
				<g id="student-5-fau-absatz_1_">
					<path id="student-5-fau-absatzFarbe" class="st4" d="M150.6,669.4c0.1,1.9,0.1,4,0.1,6.3h-13.4l0.1-6.3H150.6z"/>
				</g>
			</g>
		</g>
		<g id="student-5-fau-LinkerSchuh">
			<g id="student-5-fau-schuhakzentfarbe">
				<g id="student-5-fau-schuhAkzentfarbe">
					<g id="student-5-fau-schuhAkzentfarbe_1_">
						<path id="student-5-fau-Akzentfarbe" class="st1" d="M102,632.7c-1.7-11.3-28.3-8.8-28.3,0.1c0,22.7-5.1,19.8-5.1,37c0,5.1-0.5,0.6,18.5,0.6
							c19,0,25.6,5.9,25.6-0.4c0-17-6.9-10-8.6-21.3L102,632.7z"/>
					</g>
				</g>
			</g>
			<g id="student-5-fau-schuhakzentfarbedunkel">
				<g id="student-5-fau-schuhAkzentfarbeDunkel">
					<g id="student-5-fau-schuhAkzentfarbeDunkel_1_">
						<path id="student-5-fau-schuhAkzentfarbeDunkel_2_" class="st0" d="M95.7,637.9c2.9,5.8,1.8,13,3.8,19.1c1.8,5.6,6.3,11.3,11.3,15.7
							c1.3-0.2,1.9-0.9,1.9-2.8c0-17-6.9-10-8.6-21.3l-2.1-16c-1.5-10.1-23-9.2-27.4-2.4C82.7,629.9,91.6,629.8,95.7,637.9z"/>
					</g>
				</g>
			</g>
			<g id="student-5-fau-schnuersenkel3">
				<g id="student-5-fau-oese_1_">
					<g id="student-5-fau-oesenfarbe_1_">
						<path class="st2" d="M75.2,642.7c-0.3,1.8,0.5,3.5,1.8,3.8c1.3,0.3,2.6-0.8,3-2.6c0.3-1.8-0.5-3.5-1.8-3.8
							C76.9,639.8,75.6,640.9,75.2,642.7z"/>
					</g>
				</g>
				<g id="student-5-fau-oese">
					<g id="student-5-fau-oesenfarbe">
						<path class="st2" d="M102.3,642.7c0.3,1.8-0.5,3.5-1.8,3.8c-1.3,0.3-2.6-0.8-3-2.6c-0.3-1.8,0.5-3.5,1.8-3.8
							C100.6,639.8,101.9,640.9,102.3,642.7z"/>
					</g>
				</g>
				<g id="student-5-fau-schnuersenkelfarbe_2_">
					<g id="student-5-fau-schnuersenkelfarbe_3_">
						<path d="M99,644.8c-0.1,0-0.3,0-0.4-0.1c-6.7-3.4-14.4-3.4-21.1,0c-0.6,0.3-1.2,0-1.5-0.7c-0.2-0.7,0-1.5,0.6-1.8
							c7.3-3.7,15.6-3.7,22.9,0c0.6,0.3,0.8,1.1,0.6,1.8C99.8,644.5,99.4,644.8,99,644.8z"/>
					</g>
				</g>
			</g>
			<g id="student-5-fau-schnuersenkel1">
				<g id="student-5-fau-oesenfarbe_2_">
					<path class="st2" d="M74.9,654c-0.3,1.8,0.5,3.5,1.8,3.8c1.3,0.3,2.6-0.8,3-2.6c0.3-1.8-0.5-3.5-1.8-3.8
						C76.6,651.1,75.2,652.3,74.9,654z"/>
				</g>
				<g id="student-5-fau-oese_2_">
					<path class="st2" d="M102.6,654c0.3,1.8-0.5,3.5-1.8,3.8c-1.3,0.3-2.6-0.8-3-2.6c-0.3-1.8,0.5-3.5,1.8-3.8
						C100.9,651.1,102.3,652.3,102.6,654z"/>
				</g>
				<g id="student-5-fau-schnuersenkelfarbe_1_">
					<path d="M99,655.4c-0.1,0-0.3,0-0.4-0.1c-6.7-3.4-14.4-3.4-21.1,0c-0.6,0.3-1.2,0-1.5-0.7c-0.2-0.7,0-1.5,0.6-1.7
						c7.3-3.7,15.6-3.7,22.9,0c0.6,0.3,0.8,1.1,0.6,1.7C99.8,655.1,99.4,655.4,99,655.4z"/>
				</g>
			</g>
			<g id="student-5-fau-schnuersenkel2">
				<g id="student-5-fau-oese_4_">
					<g id="student-5-fau-oesenfarbe_3_">
						<path class="st2" d="M75.3,648.3c-0.3,1.8,0.5,3.5,1.8,3.8c1.3,0.3,2.6-0.8,3-2.6c0.3-1.8-0.5-3.5-1.8-3.8
							C77,645.4,75.7,646.5,75.3,648.3z"/>
					</g>
				</g>
				<g id="student-5-fau-oese_3_">
					<g id="student-5-fau-oesenfarbe_4_">
						<path class="st2" d="M102.2,648.3c0.3,1.8-0.5,3.5-1.8,3.8c-1.3,0.3-2.6-0.8-3-2.6c-0.3-1.8,0.5-3.5,1.8-3.8
							C100.5,645.4,101.8,646.5,102.2,648.3z"/>
					</g>
				</g>
				<g id="student-5-fau-schnuersenkelfarbe">
					<path d="M99,650.1c-0.1,0-0.3,0-0.4-0.1c-6.7-3.4-14.4-3.4-21.1,0c-0.6,0.3-1.2,0-1.5-0.7c-0.2-0.7,0-1.5,0.6-1.8
						c7.3-3.7,15.6-3.7,22.9,0c0.6,0.3,0.8,1.1,0.6,1.8C99.8,649.8,99.4,650.1,99,650.1z"/>
				</g>
			</g>
			<g id="student-5-fau-schuhkappeLinks">
				<path class="st2" d="M107.6,655.9c-11.8-3.9-25.5-3.1-37.4,0.9c-0.9,3.1-1.6,6.7-1.6,13c0,5.1-0.5,0.6,18.5,0.6
					c19,0,25.6,5.9,25.6-0.4C112.7,659.4,110,658.1,107.6,655.9z"/>
			</g>
			<g id="student-5-fau-schuhsohleLinks">
				<path class="st3" d="M68.2,669.4c-0.2,1.9-0.3,4-0.2,6.3h45.7l-0.3-6.3H68.2z"/>
			</g>
		</g>
		<g id="student-5-fau-Hose">
			<g id="student-5-fau-Hose_1_">
				<g id="student-5-fau-Hose_2_">
					<path id="student-5-fau-Hosenfarbe" class="st5" d="M190.1,310.5c0,0,4.8,88.1-13.2,180.9c-0.9,4.5-4.9,75.7-4.9,117.5c0,2.2,2.5,5,2.5,7
						c0,2.3-2.4,3.8-2.3,5.8c0.1,2.2,2.7,6.3,2.8,8.2c0.2,3.2-2.1,3.8-1.8,5.7c-10.8,3.4-22.1,3.2-33.7,0c0,0-3.8-2.2-4.4-6.5
						c-0.4-2.5,2.6-6,2.2-9.7c-0.3-2.1-2.4-3.4-2.7-5.8c-0.2-1.7,1.5-4.5,1.3-6.4c-3.3-31.2-6.4-81.8,1.9-118.5l5-65.3l5.6-42.8
						c0,0-20.1,101.9-28,119.2c-5.1,11.2-10.3,65.6-13.4,102.4c-0.2,2.5-0.4,4.9-0.6,7.3c-0.1,1.8,2.3,4.1,2.1,5.8
						c-0.2,2.6-2.9,4.5-3.1,6.7c-0.2,3,2.7,7.8,2.5,10c-0.3,4.5-3.6,4.9-3.6,4.9c-11.7,3.4-22.5,3.5-32.2,0.1c0,0-4.2-1.8-4.7-11.1
						c-0.1-2,3.5-7.6,3.4-9.9c-0.1-2-2.1-3.2-2.2-5.5c0-1.7,1.9-4.3,1.9-6.1c-0.5-29.9,1.2-76.5,12.9-122.6
						c0,0,10.5-142.3,16.2-169.3L190.1,310.5z"/>
				</g>
			</g>
		</g>
		<g id="student-5-fau-SchattenwurfShirt" class="st6">
			<g id="student-5-fau-SchattenfarbeShirtschatten">
				<g id="student-5-fau-SchattenfarbeShirtschatten_1_">
					<path id="student-5-fau-Schattenfarbe" d="M163.3,399.5c-5.7,0.5-11.6,0.3-17.4-0.1l2.5-18.7c0,0-1.5,7.4-3.8,18.6c-4.9-0.4-9.7-1-14.5-1.5
						c-10.6-1.1-21.2-2.2-31.8-3.4c-2.6-0.3-5.2-0.6-7.8-0.8c3.1-34.8,6.5-69.2,9-81.2l90.5-2c0,0,1.9,35.4-1.3,85
						C180.3,396.7,171.9,398.8,163.3,399.5z"/>
				</g>
			</g>
		</g>
		<g id="student-5-fau-Hosenschatten">
			<g id="student-5-fau-Hosenschattenambund">
				<g id="student-5-fau-hosenschattenrechts2">
					<path id="student-5-fau-hosenschattenrechts2_1_" class="st7" d="M151.2,627c-4.6,2.9-10.7,2.5-16.1,2.3c0-0.1,0-0.2,0-0.2
						c-0.3-2.4,2.3-5.6,2.2-9.2C141.9,622.4,146.9,624.1,151.2,627z"/>
				</g>
				<g id="student-5-fau-hosenschattenrechts1">
					<path id="student-5-fau-hosenschattenrechts1_1_" class="st7" d="M163.1,625c0.8-1,2.8-1.5,4-2c1.7-0.7,3.4-1.2,5-1.8c0,0.2,0,0.3,0,0.5
						c0.1,1.9,2,5.2,2.6,7.3c-3.4-0.1-6.9-0.3-10-1.6C163.6,627,162.1,626.2,163.1,625z"/>
				</g>
				<g id="student-5-fau-hosenschattenlinks2">
					<path id="student-5-fau-hosenschattenlinks2_1_" class="st7" d="M91.1,619.5c2-2.4,6.6-3.3,9.4-4c2.4-0.6,5.1-1.3,7.8-1.6
						c0.2,0.5,0.4,1,0.3,1.4c-0.2,2.5-2.6,4.3-3.1,6.4c-0.9,0.1-1.8,0.1-2.7,0.2C99.2,621.9,94.1,622.1,91.1,619.5z"/>
				</g>
				<g id="student-5-fau-hosenschattenlinks1">
					<path id="student-5-fau-hosenschattenlinks1_1_" class="st7" d="M76.2,638.2c-1.4-0.3-2.7-0.7-4-1.2c0,0-4.2-1.8-4.7-11.1c0-0.1,0-0.2,0-0.3
						c5,5,12.7,6,19.3,9C83.7,637,80,637.9,76.2,638.2z"/>
				</g>
			</g>
		</g>
		<g id="student-5-fau-flickenrechts" class="st8">
			<g id="student-5-fau-flickenfeld7">
				<path id="student-5-fau-flickenfeld7_1_" class="st9" d="M160.3,414.5c0.3-1.4,0.7-2.7,1.1-4.1c6.6-0.2,13.1-0.3,19.7,0.1c0,1.2,0,2.5,0,3.7
					C174.1,414.2,167.2,414.1,160.3,414.5z"/>
			</g>
			<g id="student-5-fau-flickenfeld6">
				<path id="student-5-fau-flickenfeld6_1_" class="st9" d="M158.8,421.1c0.4-1.9,0.9-3.8,1.3-5.8c7-0.4,14-0.4,21-0.3c0,2.4-0.1,4.8-0.1,7.1
					C173.6,421.6,166.2,421.3,158.8,421.1z"/>
			</g>
			<g id="student-5-fau-flickenfeld5_1_">
				<path id="student-5-fau-flickenfeld5_2_" class="st9" d="M157.7,426.3c0.3-1.4,0.6-2.9,0.9-4.4c7.4,0.2,14.9,0.5,22.3,1.1
					c-0.1,2.1-0.2,4.1-0.3,6.1C172.9,428.3,165.3,427.2,157.7,426.3z"/>
			</g>
			<g id="student-5-fau-flickenfeld3_1_">
				<path id="student-5-fau-flickenfeld3_2_" class="st9" d="M155.6,441.8c0.1-1.3,0.2-2.7,0.3-4.1c8-0.5,16-0.9,24-1.2c-0.2,1.6-0.4,3.2-0.7,4.8
					C171.3,441.7,163.5,441.9,155.6,441.8z"/>
			</g>
			<g id="student-5-fau-flickenfeld2_1_">
				<path id="student-5-fau-flickenfeld2_2_" class="st9" d="M170.4,451.1c-5-0.5-9.9-1.2-14.9-1.7c-0.1-2.2-0.1-4.4,0-6.8
					c7.8,0.1,15.7,0,23.5-0.4c-0.6,3.4-1.4,6.6-2.3,9.5C174.6,451.5,172.5,451.3,170.4,451.1z"/>
			</g>
			<g id="student-5-fau-flickenfeld1_1_">
				<path id="student-5-fau-flickenfeld1_2_" class="st9" d="M156.1,456.1c-0.3-1.9-0.5-3.9-0.6-6c5.4,0.6,10.8,1.3,16.2,1.9
					c1.5,0.1,3.1,0.3,4.7,0.4c-0.4,1.2-0.8,2.4-1.2,3.5C168.9,455.9,162.5,456,156.1,456.1z"/>
			</g>
			<g id="student-5-fau-flickenfeld4_1_">
				<path id="student-5-fau-flickenfeld4_2_" class="st9" d="M156,437c0-0.3,0.1-0.5,0.1-0.8c0.3-2.7,0.8-5.8,1.5-9.2c7.7,0.9,15.3,2,23,2.7
					c-0.2,2.2-0.3,4.2-0.6,6.1C172,436.1,164,436.5,156,437z"/>
			</g>
		</g>
		<g id="student-5-fau-flickenlinks">
			<g id="student-5-fau-flickenbestandteil3">
				<path id="student-5-fau-flickenfeld3" class="st9" d="M102.9,497.7c3.4,0.1,7.3,0,10.8,0c-0.1,1.1-0.3,2.2-0.5,3.1c-8.7,0.6-17.5,0.2-26.1-1
					c0.6-1.1,1.3-2.2,2-3.5C93.6,497.2,98.3,497.5,102.9,497.7z"/>
			</g>
			<g id="student-5-fau-flickenbestandteil5">
				<path id="student-5-fau-flickenfeld5" class="st9" d="M113.8,490.8c0,0.6,0.1,1.2,0.1,1.9c-7.6,0.7-15.1,0.5-22.6-0.2c0.5-0.9,1-1.8,1.4-2.7
					C99.6,490.9,106.7,491.3,113.8,490.8z"/>
			</g>
			<g id="student-5-fau-flickenbestandteil4">
				<path id="student-5-fau-flickenfeld4" class="st9" d="M113.9,493.1c0,1.5,0,2.9-0.1,4.2c-2.8,0-5.8,0.1-8.6,0c-5.2-0.1-10.8-0.4-15.9-1.4
					c0.6-1,1.2-2.1,1.8-3.1C98.7,493.6,106.3,493.8,113.9,493.1z"/>
			</g>
			<g id="student-5-fau-flickenbestandteil2">
				<path id="student-5-fau-flickenfeld2" class="st9" d="M86.9,500.2c8.7,1.3,17.4,1.7,26.2,1.1c0,0.1-0.1,0.2-0.1,0.4c-0.3,1.1-0.7,2.2-1.2,3.2
					c-5.3,0-10.8,0-15.9-0.7c-3.4-0.5-6.8-1.1-10.2-1.9c0.1-0.2,0.2-0.5,0.4-0.7C86.3,501.1,86.6,500.6,86.9,500.2z"/>
			</g>
			<g id="student-5-fau-flickenbestandteil1">
				<path id="student-5-fau-flickenfeld1" class="st9" d="M94.9,504.4c5.4,0.8,11.2,0.8,16.7,0.8c-0.5,1.1-1,2.1-1.6,3.1
					c-8.8,0.3-17.6-0.5-26.3-1.9c0.5-1.2,1.1-2.5,1.8-3.8C88.6,503.3,91.7,503.9,94.9,504.4z"/>
			</g>
		</g>
	</g>
	<g id="student-5-fau-Oberarm_links_Hautschatten">
		<polygon id="student-5-fau-Hautschattenlinksarm" class="st10" points="47.7,288.3 64.1,169.3 89.4,230.3 80.7,288.6 		"/>
	</g>
	<g id="student-5-fau-Oberarm_rechts_hautschatten">
		<polygon id="student-5-fau-Hautschatten_armrechts" class="st10" points="201.4,165.6 229.7,292.3 206.4,299.6 193.7,245.3 		"/>
	</g>
	<g id="student-5-fau-Shirtarm_rechts_basisfarbe">
		<path id="student-5-fau-Shirtarmrechts" class="st11" d="M188.1,261.7l-6.1-47.2l19.4-48.9c12.4,12.4,23.5,57.2,28.2,91.1
			C215.9,259.3,202.1,261.4,188.1,261.7z"/>
	</g>
	<g id="student-5-fau-Shirtbasis">
		<g id="student-5-fau-Shirtbasis_1_">
			<g id="student-5-fau-Shirtbasisfarbe">
				<path class="st11" d="M201.4,165.6c-2.1-1.9-49.7-23.9-49.7-23.9l-6.4,14.9l-31-17.2c0,0-47.7,27.4-50.2,30
					c-1.6,1.6,11.1,35.8,20.4,60.4c5.3,14,0.9,148,0.9,148c16.3,13.7,102,12.7,110.7,4C196.1,381.6,203.5,167.5,201.4,165.6
					L201.4,165.6z"/>
			</g>
		</g>
	</g>
	<g id="student-5-fau-schattenwurfbuchundarm" class="st13">
		<g id="student-5-fau-schattenwurfbuchundarm_1_">
			<g id="student-5-fau-schattenwurfbuchundarm_2_">
				<path id="student-5-fau-schattenwurfbuchundarm_3_" class="st14" d="M167.9,292.3c-9,1-43.8-12.7-43.8-12.7S98.7,300.4,87,300.3
					c0.1-11.2,0.1-22.3,0-32.4c0,0,0,0,0,0c5.1-2.9,27.4-17.1,31.1-21.7c4.1-5,10.8-32.5,10.8-32.5s39.5,18.4,45.9,20.1
					c8.6,2.3,17.8,0.2,26-3.5c-0.4,15.5-0.9,32.5-1.4,49.3C195,281.5,176.9,291.3,167.9,292.3z"/>
			</g>
		</g>
	</g>
	<g id="student-5-fau-dekoltee">
		<path class="st15" d="M151.9,141.7c-2.1-8.6-2.7-16.3-2.7-16.3l-33.5-9.5c0,0,0,11.9-1.5,23.6c-1,0.6-8.3,4.8-17.1,9.9
			c0,0,7.1,5.7,18.8,9.7c1.4,0.5,2.8,1,4.4,1.3c5.5,1.5,11.8,2.6,18.8,2.6c25.1,0,27.6-14.5,27.6-14.5
			C158.6,144.8,152.4,141.9,151.9,141.7z"/>
	</g>
	<g id="student-5-fau-halsschatten_nacken" class="st8">
		<g id="student-5-fau-hautschatten">
			<path id="student-5-fau-hautschatten_1_" class="st10" d="M151.5,140c-1.8-7.9-2.3-14.6-2.3-14.6l-33.5-9.5c0,0,0,10.8-1.4,22
				C125.9,143.1,140.2,154.1,151.5,140z"/>
		</g>
	</g>
	<g id="student-5-fau-shirtarm_basisfarbe">
		<path id="student-5-fau-shirtarmbasiston" class="st11" d="M89.8,265.8c-16.1-0.2-32-1.2-47.6-6.1c8-38.3,21.8-90.4,21.8-90.4
			c19,17.8,29.6,44.7,27.9,84.6L89.8,265.8z"/>
	</g>
	<g id="student-5-fau-FAU_akzentstreifen_shirt">
		<polygon id="student-5-fau-FAU_akzentstreifen" class="st1" points="45.3,245.1 52.2,216.1 59.5,218 52.8,247.1 		"/>
		<polygon id="student-5-fau-FAU_originalblau" class="st5" points="53.5,210.8 61,212.2 67.9,185.1 60.4,183.4 		"/>
	</g>
	<g id="student-5-fau-kopf">
		<g id="student-5-fau-haarbun">
			<path id="student-5-fau-haarfarbe_4_" class="st25" d="M124.2,28.8l2.5,4.3l-1.1-4.9c4.2-1.4,8.8-1.3,13,0.3l-1.4,6.1l3.2-5.3c2.2,1.1,4.2,2.6,5.9,4.5
				c-3.7,3.2-7.3,6.4-11,9.7c-1.9-2.2-5.4-2.2-7.3,0c-3.7-3.2-7.3-6.4-11-9.7C119.1,31.6,121.5,29.9,124.2,28.8z"/>
		</g>
		<g id="student-5-fau-facials">
			<g id="student-5-fau-facials_1_">
				<g id="student-5-fau-facials_2_">
					<g id="student-5-fau-facials_3_">
						<g id="student-5-fau-OhrLinks">
							<g id="student-5-fau-Ohrlinks">
								<g id="student-5-fau-Ohrlinks_1_">
									<path id="student-5-fau-hautschattenOhr_1_" class="st17" d="M108.6,95c0,5.8,0.3,10.6-3.4,10.6c-3.7,0-9.9-4.7-9.9-10.6
										c0-5.8,1.8-10.6,5.5-10.6C104.4,84.4,108.6,89.2,108.6,95L108.6,95z"/>
								</g>
							</g>
						</g>
						<g id="student-5-fau-OhrRechts">
							<g id="student-5-fau-OhrRechts_1_">
								<g id="student-5-fau-OhrRechts_2_">
									<path id="student-5-fau-hautschattenOhr" class="st17" d="M170.9,95c0,5.8-6.2,10.6-9.9,10.6c-3.7,0-3.4-4.7-3.4-10.6
										c0-5.8,4.1-10.6,7.8-10.6C169.1,84.4,170.9,89.2,170.9,95L170.9,95z"/>
								</g>
							</g>
						</g>
						<g id="student-5-fau-GesichtsbasisHaut">
							<path class="st15" d="M133.1,50.7c-28.8,0-30.5,27-30.6,30.3c0,0.2,0,0.4,0,0.6c0.2,3,3.9,30.8,6.6,36.1
								c2.3,4.4,15.1,18.8,23.8,18.8c8.8,0,21.9-14.4,24.2-18.8c2.8-5.3,6.5-33.1,6.6-36.1c0-0.2,0-0.4,0-0.6
								C163.6,77.7,161.9,50.7,133.1,50.7L133.1,50.7z"/>
						</g>
						<g id="student-5-fau-haarschatten" class="st8">
							<g id="student-5-fau-haarschatten_1_">
								<g id="student-5-fau-haarschatten_2_">
									<path id="student-5-fau-hautschattenHaaransatz" class="st10" d="M163.5,83.9c-1-1.4-2.1-2.7-3.1-4.1c-2-2.8-2.4-8.4-2.4-8.4
										s-0.4-6.1-2.9-8.1c-4-3.3-10.1-2-14.7-1.2c-4.4,0.8-8.4,2-12.9,0.7c-3.6-1.1-10.8-2.2-10.8-2.2s-6,0.3-7.5,2.6
										c-1.7,2.6-0.1,6.6-0.4,9.5c-0.6,5.1-3.2,9.4-5.8,13.7c-0.3-2.4-0.5-4.2-0.5-4.8c0-0.2,0-0.4,0-0.6
										c0.1-3.3,1.8-30.3,30.6-30.3c28.8,0,30.5,27,30.6,30.3c0,0.2,0,0.4,0,0.6C163.7,81.9,163.6,82.8,163.5,83.9z"/>
								</g>
							</g>
						</g>
						<g id="student-5-fau-augenfarberechts">
							<g id="student-5-fau-augenfarberechts_1_">
								<g id="student-5-fau-augenfarberechts_2_">
									<path id="student-5-fau-augenfarberechts_3_" d="M119.6,85.6c2-0.3,3.8,2.4,3.9,5.9c0.2,3.5-1.3,6.6-3.3,6.9c-2,0.3-3.8-2.4-4-5.9
										C116.1,89,117.6,85.9,119.6,85.6L119.6,85.6z"/>
								</g>
							</g>
						</g>
						<g id="student-5-fau-augenfarbelinks">
							<g id="student-5-fau-augenfarbelinks_1_">
								<g id="student-5-fau-augenfarbelinks_2_">
									<path id="student-5-fau-augenfarbelinks_3_" d="M146,85.6c2-0.3,3.8,2.4,4,5.9c0.2,3.5-1.3,6.6-3.3,6.9c-2,0.3-3.8-2.4-4-5.9
										C142.5,89,144,85.9,146,85.6L146,85.6z"/>
								</g>
							</g>
						</g>
						<g id="student-5-fau-augenbrauerechts">
							<g id="student-5-fau-augenbrauerechts_1_">
								<g id="student-5-fau-augenbrauerechts_2_">
									<path id="student-5-fau-haarfarbe_6_" class="st25" d="M157.1,75.5c-0.5-0.2-8.8-4.1-19.3-0.4c-0.7,0.3-1.1,4.2-0.6,4.2c0.2,0,0.3,0,0.5-0.1
										c9.7-3.3,17.8-1.3,18-1.2c0.8,0.2,1.8-0.2,2.2-0.9C158.4,76.5,158,75.7,157.1,75.5L157.1,75.5z"/>
								</g>
							</g>
						</g>
						<g id="student-5-fau-augenbrauelinks">
							<g id="student-5-fau-augenbrauelinks_1_">
								<g id="student-5-fau-augenbrauelinks_2_">
									<path id="student-5-fau-haarfarbe_5_" class="st25" d="M109,78.5c0.5-0.2,8.5-4.8,19.2-2c0.7,0.2,1.5,4.1,0.9,4.2c-0.2,0-0.3,0-0.5,0
										c-9.9-2.4-17.9,0.2-18,0.3c-0.8,0.3-1.9,0-2.3-0.7C107.8,79.6,108.2,78.8,109,78.5L109,78.5z"/>
								</g>
							</g>
						</g>
						<g id="student-5-fau-nase">
							<g id="student-5-fau-nase_1_">
								<g id="student-5-fau-nase_2_">
									<path id="student-5-fau-hautschatten_2_" class="st18" d="M132.1,102.7c-0.5,1.1-0.5,0.9-0.1,1.8c0.2,0.6,0.8,1.2,1.2,1.7
										c0.8,1.1-2.5,0.7-3.1-0.1c-0.5-0.7-1.7-1.8-1.9-2.8c-0.3-1.1,0.3-1.5,0.8-2.1c1.6-1.8,2.7-4.1,3.2-6.9
										C132.4,93.2,133.8,98.9,132.1,102.7L132.1,102.7z"/>
								</g>
							</g>
						</g>
						<g id="student-5-fau-mund">
							<g id="student-5-fau-mund_1_">
								<g id="student-5-fau-mund_2_">
									<path id="student-5-fau-mund_3_" class="st10" d="M144.8,114c-8.5,1.4-16.6,1.3-24.5,0c0,0,5.1,2.8,12.2,2.8
										C139.6,116.8,144.8,114,144.8,114z"/>
								</g>
							</g>
						</g>
					</g>
				</g>
			</g>
		</g>
		<g id="student-5-fau-haarbestandteil4">
			<path id="student-5-fau-haarfarbe_3_" class="st25" d="M131.4,54.6c0,0-15.2-0.4-23.2,8.4c-4.1,4.5-3.9,12-3.8,22.3l-2.5-0.7c0,0-7.2-45.2,32-45.2
				c33.3,0,31.4,40.8,30.5,45.1l-2.4,0.7c0,0,2.8-15.1-5.7-24.2C151.8,56.2,142.6,54.6,131.4,54.6z"/>
		</g>
		<g id="student-5-fau-haarbestandteil3">
			<path id="student-5-fau-haarfarbe_2_" class="st25" d="M159,61.4l0.5,12.1l2.9,11.4C162.4,84.9,164.5,69.7,159,61.4z"/>
		</g>
		<g id="student-5-fau-haarbestandteil2">
			<path id="student-5-fau-haarfarbe" class="st25" d="M107.1,61.4l-0.5,12.1l-2.9,11.4C103.7,84.9,101.6,69.7,107.1,61.4z"/>
		</g>
		<g id="student-5-fau-haarbestandteil2_1_">
			<path id="student-5-fau-haarfarbe_1_" class="st25" d="M156.5,58.5c0,0-9.1-0.7-24.4,2.9c0,0-16.8-3.6-26.8-2.9C105.3,58.5,131.4,42.8,156.5,58.5z"/>
		</g>
		<g id="student-5-fau-Haarstraehne" class="st19">
			<path id="student-5-fau-haarstraehneFarbe" class="st20" d="M120.1,51l-1.5-2.9L118,47l1.1,0c2.4,0,4.7,0.2,7.1,0.6l0.4-4.5l0.2-1.9l1.3,1.3
				c1.6,1.5,3.1,3.2,4.5,4.9c1.1-1.8,2.4-3.4,3.7-5l1.6-2l0.1,2.7c0,1.5,0.1,2.9,0.1,4.4c1.7-0.3,3.4-0.6,5.2-0.7
				c2.1-0.1,4.2-0.1,6.3,0.1l1.2,0.1l-0.8,1c-0.9,1.2-1.8,2.4-2.8,3.6c2,0.2,4,0.5,6,1c-2.3-0.2-4.5-0.3-6.8-0.2l-0.8,0l0.5-0.8
				c0.7-1.2,1.5-2.3,2.2-3.4c-1.6,0-3.3,0.1-4.9,0.3c-2,0.3-4,0.6-6,1.1l-1.1,0.3l-0.1-1.3c0-0.9-0.1-1.8-0.1-2.7
				c-0.9,1.2-1.8,2.5-2.6,3.8l-0.7,1.2l-0.8-1.1c-1.2-1.6-2.4-3.1-3.8-4.5l-0.4,3.4l-0.1,1.1l-0.9-0.2c-2.2-0.6-4.4-0.9-6.6-1.1
				l1.1,2.7l0.3,0.8l-0.8,0c-2.8,0-5.6,0.3-8.4,0.8C114.9,51.9,117.5,51.4,120.1,51z"/>
		</g>
	</g>
	<g id="student-5-fau-rucksacktraegerlinks">
		<g id="student-5-fau-rucksackgurt_dunklere_akzentfarbe">
			<path class="st0" d="M106.1,240.3c0,0,10,42-21,78l-2-10c0,0,20.7-21.7,15.7-66L106.1,240.3z"/>
		</g>
		<g id="student-5-fau-rucksacktraegerlinks_1_">
			<path class="st1" d="M93.3,150.5c0,0-11.8,1.3-20.3,12.4c0,0,18.4,69.8,19.9,91.4c0,0,9.5,1.6,17.8,0.2
				C110.7,254.5,105.4,185.8,93.3,150.5z"/>
		</g>
	</g>
	<g id="student-5-fau-rucksacktraeger_lrechts">
		<path id="student-5-fau-rucksacktraegerrechts" class="st1" d="M176.8,153.3c-3.3-3.3,17.6,2.5,20.3,6.2c2.7,3.7,8.8,69.4,1,74.3l-10.8-0.6
			C187.3,233.2,180.1,156.6,176.8,153.3z"/>
	</g>
	<g id="student-5-fau-Vorderarme_mit_hand_und_buch">
		<g id="student-5-fau-buch">
			<g id="student-5-fau-buchcover_und_Seitenfarbe">
				<g id="student-5-fau-buchseitenfarbe">
					<path class="st21" d="M232.6,213c0,0-10.4-2.4-24.2,2.4c-13.8,4.7-19,13-19,13L232.6,213z"/>
					<path class="st21" d="M141.9,212.7c0,0,15.8-2.4,30.9,2.4c15.2,4.7,16.1,13,16.1,13L141.9,212.7z"/>
				</g>
				<g id="student-5-fau-buchcover">
					<polygon class="st22" points="236,209.8 194.7,226 171.7,282.9 207.7,269 					"/>
				</g>
			</g>
			<g id="student-5-fau-buchklappentextfarbe">
				<polygon class="st23" points="187.5,226.4 140.2,210.4 122.2,271.9 164.4,283.6 				"/>
			</g>
			<g id="student-5-fau-buchrueckenfarbe">
				<polygon class="st24" points="194.7,226 187.5,226.4 164.4,283.6 171.7,282.9 				"/>
			</g>
		</g>
		<g id="student-5-fau-linke_handflaeche_hautbasis">
			<path class="st15" d="M162.7,239c0,0-20.7-10-31.7-3.7l-9.3,23.3c0,0,33,7.7,42.3-1C173.4,249,162.7,239,162.7,239z"/>
		</g>
		<g id="student-5-fau-linker_vorderarm_hautbasis">
			<path class="st15" d="M121.7,258.6c0,0-45.1,44.9-62.6,41.2s-12.8-19.8-8.8-26s80.7-38.5,80.7-38.5L121.7,258.6z"/>
		</g>
		<g id="student-5-fau-rechter_vorderarm_hautbasis">
			<path class="st15" d="M229.4,245.6c0,0,9.3,54.4-0.3,60.3c-9.7,5.9-17.7-1.3-22.7-6.3c-5-5.1,11.3-60.3,11.3-60.3L229.4,245.6z"
				/>
		</g>
		<g id="student-5-fau-rechte_handflaeche_handschatten" class="st8">
			<path class="st10" d="M210.7,265.5c3.3-13.7,7.1-26.2,7.1-26.2l11.7,6.3c0,0,0.9,5.3,1.9,12.7
				C225.7,263.2,218.3,264.9,210.7,265.5z"/>
		</g>
		<g id="student-5-fau-rechtehandflaeche_hautbasis">
			<path class="st15" d="M227.1,232.3c0,0-21.7,6.3-23.3,11.3c-1.7,5,3.3,19.3,10.7,17.3C221.7,259,237.1,259.3,227.1,232.3z"/>
		</g>
	</g>
	<g id="student-5-fau-FAU_x5F_Logo">
		<path class="st5" d="M178.8,369.7c-0.3-0.4-0.5-0.7-0.8-1.1c5,0.1,10,0.1,15,0.2c0,0.4,0,0.7,0,1.1
			C188.3,369.8,183.6,369.8,178.8,369.7z M178.3,366.4c0.2-4.4,0.4-8.8,0.6-13.2c-0.3,0-0.5,0-0.8,0c-0.2,4.8-0.4,9.6-0.6,14.3
			c0.3,0,0.6,0,0.8,0c3,0,6.1,0.1,9.1,0.1c0.1-4,0.3-8,0.4-12.1c-0.3,0-0.5,0-0.8,0c-0.1,3.7-0.3,7.3-0.4,11
			C183.8,366.5,181,366.4,178.3,366.4z M185.4,353.9c-0.1,3.5-0.3,7-0.4,10.5c-1.1,0-2.2,0-3.3-0.1c0.1-3,0.2-6,0.4-9
			c-0.3-0.4-0.5-0.8-0.8-1.1c-0.1,3.4-0.3,6.7-0.4,10.1c-0.3,0-0.6,0-0.8,0c0.1-3.7,0.3-7.3,0.5-11c-0.3,0-0.5,0-0.8,0
			c-0.2,3.7-0.3,7.3-0.5,11c0,0.4,0,0.7,0,1.1c2.2,0,4.4,0.1,6.6,0.1c0.1-3.5,0.3-7,0.4-10.5C185.9,354.6,185.6,354.2,185.4,353.9z
			 M188.6,367.7c1.5,0,3,0,4.6,0.1c0-0.4,0-0.7,0-1.1c-1.4,0-2.8,0-4.1-0.1c0-0.4,0-0.7,0-1.1c1.1,0,2.3,0,3.4,0.1
			c-0.3-0.4-0.5-0.7-0.8-1.1c-0.9,0-1.7,0-2.6,0c0.1-2.9,0.2-5.8,0.3-8.8c-0.3,0-0.5,0-0.8,0c-0.2,4-0.3,8-0.4,12.1
			C188.3,367.7,188.4,367.7,188.6,367.7z M179.7,313.9c3.2,0.2,6.3,0.5,9.5,0.7c2.2,0.2,4,1.6,5.3,4.7c0,0,0,0,0,0
			c-1.1-2.1-2.6-3.4-4.6-3.6c-3.4-0.2-6.9-0.5-10.3-0.7c0,0.4,0,0.7,0,1.1c3.4,0.2,6.9,0.5,10.3,0.7c3,0.2,5,3.5,4.8,7.4
			c-0.2,3.9-2.6,6.9-5.5,6.7c-3.2-0.2-6.4-0.4-9.5-0.5c0.3,0.4,0.5,0.8,0.8,1.1c2.9,0.2,5.8,0.3,8.7,0.5c3.4,0.2,6.1-3.3,6.3-7.8
			c0-0.1,0.1-1.1,0.1-1.1c0.2-4.4-2-9.3-6.3-9.7c-3.2-0.2-6.4-0.5-9.5-0.7C179.7,313.1,179.7,313.5,179.7,313.9
			C179.7,313.9,179.7,313.9,179.7,313.9z M193.9,324.1c0.2-3.3-1.5-6.1-4-6.3l0,0c-3.2-0.2-6.4-0.4-9.6-0.7c0.3,0.4,0.5,0.8,0.8,1.2
			c2.7,0.2,5.3,0.4,8,0.5c1.6,0.1,2.6,1.9,2.5,4c-0.1,2.1-1.3,3.7-2.9,3.6c-3.1-0.2-6.3-0.4-9.4-0.6c0,0.4,0,0.7,0,1.1
			c3.1,0.2,6.3,0.4,9.4,0.6c2,0.1,3.6-2,3.7-4.7c0.1-1.1-0.3-2.5-1-3.4c0,0,0,0,0,0c1.2,0.9,1.8,2.5,1.7,4.6
			c-0.1,2.7-1.7,4.8-3.7,4.7l0,0c-3.4-0.2-6.8-0.4-10.3-0.6c0,0.4,0,0.7,0,1.1c3.4,0.2,6.8,0.4,10.3,0.6l0,0
			C191.8,330,193.7,327.4,193.9,324.1z M188.9,348.1c1.6,1,3.2,1.9,4.8,2.9c0-0.4,0-0.7,0-1.1c0,0,0,0,0,0c0,0,0,0,0,0
			c-0.8-0.5-1.6-1-2.4-1.5c0.1-3.1,0.3-6.1,0.4-9.2c0.8-0.4,1.7-0.8,2.5-1.3c0-0.4,0-0.7,0-1.1c-1.1,0.6-2.2,1.1-3.4,1.7
			c-0.1,3.1-0.3,6.3-0.4,9.4c-0.3-0.2-0.5-0.3-0.8-0.5c0.1-3.2,0.3-6.4,0.4-9.6c1.4-0.7,2.8-1.4,4.2-2.1c0-0.4,0-0.7,0.1-1.1
			c-1.7,0.8-3.4,1.7-5,2.5C189.2,340.9,189,344.5,188.9,348.1C188.9,348.1,188.9,348.1,188.9,348.1z M178.3,346.1
			c4.6,2.9,9.3,5.7,14,8.5c0.2-0.2,0.5-0.4,0.7-0.7c-4.9-2.9-9.8-5.9-14.7-9C178.3,345.3,178.3,345.7,178.3,346.1z M178.5,341.6
			c5.1-2.6,10.2-5.2,15.3-7.7c-0.2-0.2-0.4-0.5-0.7-0.7c-4.9,2.4-9.8,4.8-14.6,7.3C178.5,340.9,178.5,341.3,178.5,341.6z
			 M188.1,348.7c1.9,1.1,3.7,2.3,5.6,3.4c0,0.4,0,0.7,0,1.1c-4.8-2.9-9.5-5.8-14.3-8.7c2.7-1.4,5.5-2.8,8.2-4.2c0-0.4,0-0.7,0-1.1
			c-3.1,1.5-6.1,3.1-9.2,4.7c0-0.4,0-0.7,0-1.1c3.4-1.7,6.7-3.4,10.1-5.1C188.4,341.3,188.2,345,188.1,348.7z M183.3,343.5
			c1.3,0.8,2.7,1.7,4,2.5c0.1-1.5,0.1-3.1,0.2-4.6C186.1,342.1,184.7,342.8,183.3,343.5z M187.3,348.2c0-0.4,0-0.7,0-1.1
			c-1.7-1-3.3-2-5-3.1c-0.3,0.2-0.7,0.3-1,0.5C183.3,345.7,185.3,347,187.3,348.2z"/>
	</g>
</g>
</svg>
