<svg version="1.1" id="Ebene_1" xmlns="http://www.w3.org/2000/svg" xmlns:xlink="http://www.w3.org/1999/xlink"
	 viewBox="0 0 280 704" style="enable-background:new 0 0 280 704;" xml:space="preserve">
<style type="text/css">
	#student-4-fau-rrze-expo{
	--hautfarbe: #FAB57A;
	--hautschatten: #EB9756;

	--shirtfarbe: #E6E7E8;
	--shirtschatten: #CCCCCC;
	--kleidfarbe: #8D1926;
	--kleidschatten: #6E131E;

	--akzentfarbehell: #90A7C6;
	--akzentfarbebasis: #003865;

	/*Die folgenden Ids gehoeren zur Hundetasche: Hundetaschenband_Schatten Kleiderschatten_Hand_und_Tablet Hundetaschenband_Basis Hundetasche*/
	/*Die folgenden Ids gehoeren zur FAU Tasche: FAU_Taschenband_B FAU_Tasche_Kleiderschatten und die GruppenID FAU_Tasche */
	/*Das Siegel wird ueber die ID FAU_Tasche_Siegel und der Logoschriftzug ueber die ID FAU_Tasche_Logoschriftzug angesteuert */


	--faubagbasis: #003865;
	--faubagakzent: #90A7C6;

	--haarfarbe: #231F20;
	}


	#student-4-fau-rrze-expo .st0{fill:#B3B3B3;} /*FAU bag Taschenband Schatten*/
	#student-4-fau-rrze-expo .st1{fill:#EB9756; fill: var(--hautschatten, #EB9756);} /*Hautschatten*/
	#student-4-fau-rrze-expo .st2{fill:#CCCCCC; fill: var(--shirtschatten, #CCCCCC);} /*Shirt Schatten*/
	#student-4-fau-rrze-expo .st3{fill:#E6E7E8; fill: var(--shirtfarbe, #E6E7E8);} /*Shirtbasis*/
	#student-4-fau-rrze-expo .st4{fill:#90A7C6; fill: var(--akzentfarbehell, #90A7C6);} /*Schuh und Haarband heller Akzent*/
	#student-4-fau-rrze-expo .st5{fill:#003865; fill: var(--akzentfarbebasis, #003865);} /*Schuh und Haarband dunkler Akzent*/
	#student-4-fau-rrze-expo .st6{fill:#F1F2F2;} /*Schuhkappe rechts*/
	#student-4-fau-rrze-expo .st7{fill:#D1D3D4;} /*Schuhsohle und Schnuersenkel*/
	#student-4-fau-rrze-expo .st8{fill:#F2F2F2;} /*Taschenbaender der Hasentasche*/
	#student-4-fau-rrze-expo .st9{fill:#808285;} /*Absatz rechts*/
	#student-4-fau-rrze-expo .st10{fill:#231F20; fill: var(--haarfarbe, #231F20);} /*Haar Augenbraue*/
	#student-4-fau-rrze-expo .st11{fill:#FAB57A; fill: var(--hautfarbe, #FAB57A);} /*Hautbasis*/
	#student-4-fau-rrze-expo .st12{fill:#6E131E; fill: var(--kleidschatten, #6E131E);} /*Kleiderschatten*/
	#student-4-fau-rrze-expo .st13{fill:#8D1926; fill: var(--kleidfarbe, #8D1926);} /*Kleidbasis*/
	#student-4-fau-rrze-expo .st14{fill:#273442;} /*Unbekannter Nutzen*/
	#student-4-fau-rrze-expo .st15{fill:#FFFFFF;} /*Siegel und FAU Logo der FAU bag*/
	#student-4-fau-rrze-expo .st16{clip-path:url(#student-4-fau-SVGID_2_);} /*Clipping-Path zum zuschneiden des FAU Siegels auf der Tasche */
	#student-4-fau-rrze-expo .st17{fill:#878787;} /*Tabletrand*/
	#student-4-fau-rrze-expo .st18{fill:#9D9D9C;} /*Tablet*/
	#student-4-fau-rrze-expo .st19{fill:#4D4D4D;} /*Kameralinse*/
	#student-4-fau-rrze-expo .st20{fill:#1D1D1B;} /*Kamerarand*/
	#student-4-fau-rrze-expo .st21{fill:#E4D0D9;} /*Hasentasche Schatten*/
	#student-4-fau-rrze-expo .st22{opacity:0.5;}
	#student-4-fau-rrze-expo .st23{fill:#FBBE7D; fill: var(--hautfarbe, #FBBE7D);} /*Gesicht Hautbasis*/

	#student-4-fau-rrze-expo .st24{fill:#90A7C6; fill: var(--faubagakzent, #90A7C6);} /*FAU bag heller Akzent*/
	#student-4-fau-rrze-expo .st25{fill:#003865;} /*Hasentasche blush*/
	#student-4-fau-rrze-expo .st26{fill:#003865; fill: var(--faubagbasis, #003865);} /*FAU bag Front*/

	#student-4-fau-rrze-expo .st29{fill:#231F20;} /*Augen*/
	#student-4-fau-rrze-expo .st30{fill:#FFFFFF;} /*Mund*/
	#student-4-fau-rrze-expo .st31{fill:#003865;} /*Oesen der Schnuersenkel*/
	#student-4-fau-rrze-expo .st32{fill:#F2F2F2;} /*Socken*/
	#student-4-fau-rrze-expo .st33{fill:#F2F2F2;} /*FAU Taschenband hell*/
</style>
<g id="student-4-fau-rrze-expo">
	<g id="FAU_Taschenband_B">
		<g id="FAU_Taschenband_Schattenseite">
			<path class="st0" d="M50.5,344.9l5.1-1.2C76.1,278.3,172.3,183.5,173,182.3l-4.2-2.5C168.1,181,71.6,276.1,50.5,344.9z"/>
		</g>
	</g>
	<g id="Arm_rechts_Hautschatten">
		<path class="st1" d="M184.1,188.8c0,0,20.1,67.8,26.4,74c6.3,6.3,29.7,26.6,29.7,26.6l-8.9,15.4c0,0-34.8-14.9-45.1-30.6
			c-10.3-15.7-15.1-51.4-15.1-51.4S153.1,190.3,184.1,188.8z"/>
	</g>
	<g id="Shirtarm_rechts">
		<path class="st2" d="M204,265.9c2.4-0.8,4.9-1.5,7.3-2.2c-0.3-0.3-0.5-0.5-0.8-0.8c-6.3-6.3-26.4-74-26.4-74
			c-31,1.4-13,34.1-13,34.1s4.2,31.2,13.2,48.1C190.7,268.9,197.6,267.8,204,265.9z"/>
	</g>
	<g id="Armschatten_links">
		<path class="st1" d="M78.1,192.5c0,0-29.6,72.1-25.8,105.2c0,0,13.7,19.4,22.6,4.6c0.9-1.4,16.6-59.7,16.6-59.7
			S109.2,179,78.1,192.5z"/>
	</g>
	<g id="Shirtarm_links">
		<path class="st3" d="M49.2,292.8c5.7-1.7,15.8-5.3,23.4-5.3c7.6,0,13.2,2.9,15.3,3c4.9-17.7,3.4-47.9,3.4-47.9
			s17.8-63.5-13.3-50.1C69.2,193,47.9,278.8,49.2,292.8z"/>
	</g>
	<g id="Shirtschatten_links">
		<path class="st2" d="M96.3,215.1c-8.9,8.7-10.9,23.4-10.8,35.5c0.1,8.4,0.4,16.6-1,24.9c-0.6,3.7-1.3,7.5-2.6,11
			c-0.3,0.7-0.6,1.4-0.9,2.1c3.3,0.8,5.8,1.9,7,1.9c4.9-17.7,3.4-47.9,3.4-47.9S95.3,228.6,96.3,215.1z"/>
	</g>
	<g id="Schuh_rechts">
		<path id="Schuhakzent_1_" class="st4" d="M210.8,674.3h-76.5l3.5-47.6c11-1.9,21.3-2.3,30.5,0c0,0-1.9,14.7,13.4,19.5
					C197,651,210.8,649.5,210.8,674.3z"/>
		<g id="Akzentschatten_Schuh">
			<path class="st5" d="M143.5,674.3h-9.2l3.5-47.6c5.5-0.9,10.8-1.5,15.9-1.6c5.1,0,10,0.4,14.6,1.6c0,0,0,0.4,0,0.9
					c0,0.1,0,0.2,0,0.2c0,2,0.3,6.4,2.9,10.6c-8.7-0.1-17.4-0.3-26.1-0.4c-0.3,0.5-0.7,1-0.9,1.7c-2.1,5.5-1.3,12.1-1,17.8
					C143.5,663,143.4,668.7,143.5,674.3z"/>
		</g>
		<g id="Schuhkappe">
			<path class="st6" d="M195.9,651.6c12.4,0,15.1,8.8,14.7,22.7h-43.7C177.8,650.7,184.7,651.6,195.9,651.6z"/>
		</g>
		<g id="Schuhkappenschatten">
			<path class="st7" d="M176.8,674.3h-10c11-23.5,17.9-22.7,29-22.7C199.1,651.6,173.8,650.5,176.8,674.3z"/>
		</g>
		<path class="st31" d="M168.6,652.7c-1.4,1.3-1.6,3.4-0.4,4.7c1.2,1.2,3.3,1.2,4.7-0.2c1.4-1.3,1.6-3.4,0.4-4.7
						C172.2,651.3,170,651.3,168.6,652.7z"/>
		<path class="st7" d="M170.3,656.7c15.5-8.3,28.1-5.9,28.1-5.9c-9.6-7.1-27.7,2.1-28,2.2c-1,0.4-1.5,1.6-1.1,2.6
							C169.5,656.2,169.8,656.5,170.3,656.7z"/>
		<path class="st31" d="M160.4,649.3c-1.4,1.3-1.6,3.4-0.4,4.7c1.2,1.2,3.3,1.2,4.7-0.2c1.4-1.3,1.6-3.4,0.4-4.7
						C164,647.9,161.9,648,160.4,649.3z"/>
		<path class="st31" d="M153,645.7c-1.4,1.3-1.6,3.4-0.4,4.7c1.2,1.2,3.3,1.2,4.7-0.2c1.4-1.3,1.6-3.4,0.4-4.7
						C156.5,644.3,154.4,644.4,153,645.7z"/>
		<path class="st7" d="M161.9,653.2c15.5-8.3,24.5-5.7,24.5-5.7c-6.4-5.9-24.2,1.8-24.4,2c-1,1.1-1.5,1.6-1.1,2.6
						C161.1,652.6,161.5,653,161.9,653.2z"/>
		<path class="st7" d="M154.5,646.2c0.2-0.1,17.2-9.5,22.5-2.2c0,0-10.1-2.4-22.5,5.9c-0.4-0.2-0.6-0.6-0.8-1
					C153.3,647.8,153.6,646.6,154.5,646.2z"/>
		<path class="st7" d="M210.5,668c0.3,1.9,0.4,4,0.4,6.3h-76.5l0.5-6.3H210.5z"/>
		<path class="st9" d="M147.6,668c0.1,1.9,0.1,4,0.1,6.3h-13.3l0.1-6.3H147.6z"/>
	</g>
	<g id="Schuh_links">
		<path id="Schuhakzent" class="st4" d="M77.5,631.5c1.7-11.2,28.1-8.8,28.1,0.1c0,22.6,5.1,19.7,5.1,36.7
			c0,5.1,0.5,0.6-18.4,0.6c-18.9,0-25.4,5.9-25.4-0.4c0-16.9,6.9-10,8.6-21.2L77.5,631.5z"/>

		<g id="akzent_schuh">
			<path class="st4" d="M75.4,647.4l1.2-9.6l0.8-6.3c1.7-11.2,28.1-8.8,28.1,0.1c0,2.2,0,4.2,0.1,6
						C106,643.9,85.4,628.5,75.4,647.4z"/>
		</g>
		<g id="akzentschatten_links">
			<path class="st5" d="M83.7,636.7c-2.9,5.8-1.8,12.9-3.8,19c-1.8,5.5-6.2,11.2-11.2,15.6c-1.3-0.2-1.9-0.9-1.9-2.8
						c0-16.9,6.9-10,8.6-21.2l2.1-15.9c1.5-10.1,22.8-9.1,27.3-2.4C96.7,628.7,87.8,628.6,83.7,636.7z"/>
		</g>
		<path class="st31" d="M104.1,641.4c0.3,1.8-0.5,3.5-1.8,3.8c-1.3,0.3-2.6-0.8-3-2.6c-0.3-1.8,0.5-3.5,1.8-3.8
			C102.4,638.5,103.8,639.7,104.1,641.4z"/>
		<path class="st31" d="M77.2,641.4c-0.3,1.8,0.5,3.5,1.8,3.8c1.3,0.3,2.6-0.8,3-2.6c0.3-1.8-0.5-3.5-1.8-3.8
			C78.9,638.5,77.5,639.7,77.2,641.4z"/>
		<path class="st7" d="M80.5,643.5c0.1,0,0.3,0,0.4-0.1c6.7-3.4,14.3-3.4,21,0c0.6,0.3,1.2,0,1.5-0.7c0.2-0.7,0-1.5-0.6-1.7
			c-7.2-3.7-15.5-3.7-22.8,0c-0.6,0.3-0.8,1.1-0.6,1.7C79.6,643.2,80,643.5,80.5,643.5z"/>
		<path class="st31" d="M104.4,652.7c0.3,1.8-0.5,3.5-1.8,3.8c-1.3,0.3-2.6-0.8-3-2.6c-0.3-1.8,0.5-3.5,1.8-3.8
			C102.7,649.8,104.1,650.9,104.4,652.7z"/>
		<path class="st31" d="M76.9,652.7c-0.3,1.8,0.5,3.5,1.8,3.8c1.3,0.3,2.6-0.8,3-2.6c0.3-1.8-0.5-3.5-1.8-3.8
			C78.5,649.8,77.2,650.9,76.9,652.7z"/>
		<path class="st7" d="M80.5,654c0.1,0,0.3,0,0.4-0.1c6.7-3.4,14.3-3.4,21,0c0.6,0.3,1.2,0,1.5-0.7c0.2-0.7,0-1.5-0.6-1.7
			c-7.2-3.7-15.5-3.7-22.8,0c-0.6,0.3-0.8,1.1-0.6,1.7C79.6,653.7,80,654,80.5,654z"/>
		<path class="st31" d="M104,647c0.3,1.8-0.5,3.5-1.8,3.8c-1.3,0.3-2.6-0.8-3-2.6c-0.3-1.8,0.5-3.5,1.8-3.8
			C102.3,644,103.7,645.2,104,647z"/>
		<path class="st31" d="M77.3,647c-0.3,1.8,0.5,3.5,1.8,3.8c1.3,0.3,2.6-0.8,3-2.6c0.3-1.8-0.5-3.5-1.8-3.8
			C79,644,77.6,645.2,77.3,647z"/>
		<path class="st7" d="M80.5,648.8c0.1,0,0.3,0,0.4-0.1c6.7-3.4,14.3-3.4,21,0c0.6,0.3,1.2,0,1.5-0.7c0.2-0.7,0-1.5-0.6-1.7
			c-7.2-3.7-15.5-3.7-22.8,0c-0.6,0.3-0.8,1.1-0.6,1.7C79.6,648.5,80,648.8,80.5,648.8z"/>
		<g id="Schuhkappe_akzent">
			<path class="st4" d="M71.9,654.6c11.8-3.9,25.3-3.1,37.2,0.9c0.9,3.1,1.5,6.7,1.5,12.9c0,5.1,0.5,0.6-18.4,0.6
				c-18.9,0-25.4,5.9-25.4-0.4C66.8,658,69.5,656.7,71.9,654.6z"/>
		</g>
		<path class="st7" d="M111.1,668c0.2,1.9,0.3,4,0.2,6.3H65.9l0.3-6.3H111.1z"/>
	</g>
	<g id="Haarbasis">
		<path class="st10" d="M170.9,190.1c-1.8-25.3-4.6-92.4-3.1-92.4c-6.7-36.4-51.3-26.7-64.1-13.6c-5.5,5.6-18.4,88.7-23.6,115.5
			C86.6,199.9,169,190.4,170.9,190.1z"/>
	</g>
	<g id="Beine_Hautbasis">
		<path class="st11" d="M182.4,327.8c0,0-0.1,27-0.1,61.4c0,57.5-16.7,216.7-16.7,238.7c-12.6,3.7-15.5,3.4-25.6,0.7
			c0,0,11.2-216.6-2.3-216.6s-35.7,217.1-35.7,217.1c-12.6,5-8.6,4.4-20.9-0.8c0,0-5.3-214.6,7.9-299.2L182.4,327.8z"/>
	</g>
	<g id="Beine_Schatten">
		<path class="st1" d="M141.8,587c3.5,0.1,7,0.1,10.4-0.6c3.6-0.8,6.5-2.4,10.2-2.7c2.1-0.2,4.2-0.3,6.3-0.3
				c4.8-57.6,13.6-152.6,13.6-194.2c0-34.5,0.1-61.4,0.1-61.4l-93.6,1.3c-9.7,61.6-9.4,192.4-8.6,258.8c2,0.6,4,1.1,6.4,1.2
				c2.8,0.1,5.6,0,8.4-0.1c3.8-0.1,7.5-0.3,11.3-0.5c7.2-62.8,21.5-176.5,31.3-176.5C147.3,412,144.2,524.1,141.8,587z"/>
	</g>
	<g id="Socken">
		<path class="st32" d="M94.3,608.4c-2.8-0.1-5.6-0.2-8.4-0.6c-1.8-0.2-3.6-0.8-5.5-1.1c0.2,13.5,0.4,21.5,0.4,21.5
				c12.3,5.2,8.3,5.9,20.9,0.8c0,0,0.8-8.1,2.3-21.1C100.9,608.4,97.6,608.5,94.3,608.4z"/>
		<path class="st32" d="M157.8,607.5c-5.7,0.2-11.2-1-16.8-1.3c-0.6,13.8-1.1,22.4-1.1,22.4c10.1,2.7,13,3,25.6-0.7
				c0-3.7,0.5-10.8,1.3-21C163.8,607.2,160.8,607.4,157.8,607.5z"/>
	</g>
	<g id="Shirt">
		<path class="st3" d="M95.8,287.1c-1.2-8.8-16.9-94.8-16.9-94.8s30.3-16.9,36.1-19.8c6.3,1.1,9.1,3.9,15.6,3.7
			c7.3-0.2,16.2,0.5,22.5-3.8c7.9,4.1,26.7,13.7,29.5,15.2c3.6,1.9,0.4,0.5-0.2,14.7c-0.4,9.3,3.9,20.5,4.1,34.1
			c0.2,13.5-2.1,31.2-2.1,31.2c-3,33.6,0.2,89.2,0.2,92.3c0,8.8-48.5,9.9-50.3,9.8c-23.5-0.5-54.8-10-52.5-12.3
			C81.9,338,97,295.8,95.8,287.1z"/>
	</g>
	<g id="Kleidschatten">
		<path class="st12" d="M182.7,351.9c0,0,12.4,179.7,10.5,222.1c0,0-92.8,9.1-116.9-2.6C52,559.7,90.6,348.7,90.6,348.7L182.7,351.9
			z"/>
	</g>
	<g id="Kleid">
		<path class="st13" d="M95.8,287.1c-0.7-5.4-5.1-21.7-9.8-47.5c-2.9-16.3,26-31.6,26-31.6l32.2,30.3c0,0,14.6-26.4,20.9-30.7
			c7.9,4.1,21.2,15.3,21.5,28.8c0.2,13.5-2.1,31.2-2.1,31.2c-3,33.6,0.2,89.2,0.2,92.3c0,8.8-30.9,220.3-32.7,220.7
			c-25.1,5.1-70.6,5.2-97.3-3.9C75.5,446.7,76.2,341.5,95.8,287.1z"/>
	</g>
	<g id="FAU_Tasche_Kleiderschatten">
		<path class="st12" d="M89.9,405.7c12,2.2,27.2,5.1,29.8,5.5c6.2,0.9,12.3,1.9,18.5,2.8c6.3,0.9,9-9.1,9.9-17.5
			c0.6-5.8,2.7-44.2,2.4-52.7c-0.4-14.1-24.2,22.1-35.1,13.1c-9.4-7.8-21-13.4-33.2-13.3c-2.5,20.1-6.1,55.3-6.3,58.9
			C77.2,403,84.6,404.7,89.9,405.7z"/>
		<path class="st12" d="M184.1,271c-4.2-0.6-8.3-1.5-12.2-3c-6.2-2.3-12-6.1-18.5-7.3c-5.4-1-12.9-0.1-14.7,6.1
			c-1.2,3.9-0.4,8.2-1.4,12.2c-2.2,8.6-12.7,11.1-20.4,12c-7.5,0.8-15.1,0.2-22.6,0.5c-2.4,7.2-4.4,15.2-6.3,24c3-1,6-2.3,8.9-3.6
			c6.7-3.2,45.9-21,49.6-22.6c2.4-1.1,4.9-2.3,7.5-3c4.1-1,7.6,3,8.7,6.6c1.5,4.8-0.4,10.2-1.8,14.7c-1.7,5.6-2.9,10.8-3,16.6
			c-0.1,6.8,24.3,9.8,25.8,10.1C183.1,315.5,182.7,290.3,184.1,271z"/>
	</g>
	<g id="Kleidschatten_Hand_und_Tablet">
		<path class="st12" d="M81.7,435.9c4.6-0.4,9.2-1.1,13.7-2c3.1-0.6,6.2-1.6,9.4-1.7c5.1-0.1,8.3,3.4,11.2,7.2
			c3.7,4.7,9,10.7,15.3,11.2c7.9,0.7,9.9-7.5,9.8-13.7c-0.1-5.9-1.4-11.6-3.6-17c-5.4-13-14.2-25-25.1-34
			c-9.4-7.8-21-13.4-33.2-13.3c-2.3,19.4-4.5,40.8-6.9,63.7C75.4,436.3,78.5,436.2,81.7,435.9z"/>
		<path class="st12" d="M184.1,271c-4.2-0.6-8.3-1.5-12.2-3c-6.2-2.3-12-6.1-18.5-7.3c-5.4-1-12.9-0.1-14.7,6.1
			c-1.2,3.9-0.4,8.2-1.4,12.2c-2.2,8.6-12.7,11.1-20.4,12c-7.5,0.8-15.1,0.2-22.6,0.5c-2.4,7.2-4.4,15.2-6.3,24c3-1,6-2.3,8.9-3.6
			c6.7-3.2,45.9-21,49.6-22.6c2.4-1.1,4.9-2.3,7.5-3c4.1-1,7.6,3,8.7,6.6c1.5,4.8-0.4,10.2-1.8,14.7c-1.7,5.6-2.9,10.8-3,16.6
			c-0.1,6.8,24.3,9.8,25.8,10.1C183.1,315.5,182.7,290.3,184.1,271z"/>
	</g>
	<g id="Schultertraeger_links">
		<polygon class="st13" points="109.4,209.8 98.2,181.5 100.6,180.2 112.3,209.2 			"/>
	</g>
	<g id="Schultertraeger_Rechts">
		<polygon class="st13" points="166.9,209.4 173.2,182.2 170.5,180.8 164,208.8 			"/>
	</g>
	<g id="Vorderarm_links_Hautbasis">
		<path class="st11" d="M110.9,278.8c0,0-50.3,6.6-56.3,13.5c-6,6.9,0.4,18.4,8.6,18.9c8.1,0.4,56.8-19.7,56.8-19.7L110.9,278.8z"/>
	</g>
	<g id="FAU_Tasche">
		<g id="FAU_Tasche_Korpus">
			<path class="st24" d="M125.6,406.1c0,0,9.8,2.3,14.1-2.7c1.6-2,6.6-27.9,7.3-33.6c0.7-5.7,4.4-27,4.4-27l-5.3,1.4L125.6,406.1z"/>
			<path class="st14" d="M151.3,340l-3.4,0.2c0,0-2,4.7-1.8,4.6c0.2-0.2,1.4-0.9,1.4-0.9l4-1l0.1-1.6L151.3,340z"/>
			<path class="st26" d="M61.5,322.2c-1.2,0.2-2.4,0.4-3.1,1.1c-0.7,0.7-6,13.1-7,17.1c-1,4-5.3,18.9-5.9,20.3
				c-0.6,1.4-2,15-1.8,16.9c0.2,2,1.9,8.2,4.6,9.8s75.1,19,77.3,18.7c2.2-0.3,8-2.2,9.3-5.7s7.3-39.3,7.9-41.8s3.6-12.3,4.6-14.2
				c1-1.9,2.8-4.4,3.5-4.2c0.7,0.2,0.8,1.8,0.7,2.5c0,0,0.3-2.9-0.2-3.2s-1.8-0.8-2.7-1S61.5,322.2,61.5,322.2z"/>
		</g>
		<g id="FAU_Tasche_Taschenband_A">
			<path class="st33" d="M148.1,358.8l-5.3,0c13.8-64.4,30.3-176,30.6-177.3l4.7,2.4C177.8,185.2,161.9,290.1,148.1,358.8z"/>
		</g>
		<g id="FAU_Tasche_Logoschriftzug">
			<path class="st15" d="M123.6,396.6c-0.1,0-0.2,0-0.3,0c-0.2,0-0.3-0.1-0.4-0.2c-0.1-0.1-0.2-0.2-0.3-0.3
				c-0.1-0.1-0.1-0.3-0.1-0.4c0-0.1,0-0.3,0-0.5c0-0.2,0.1-0.3,0.2-0.4c0.1-0.1,0.2-0.2,0.3-0.3c0.1-0.1,0.2-0.1,0.4-0.2
				c0.1,0,0.3,0,0.5,0c0.1,0,0.2,0.1,0.3,0.1c0.1,0.1,0.2,0.1,0.2,0.2c0.1,0.1,0.1,0.2,0.2,0.3c0,0.1,0,0.2,0,0.3l-0.5-0.1
				c0-0.1,0-0.2-0.1-0.3c-0.1-0.1-0.2-0.1-0.3-0.2c-0.1,0-0.2,0-0.3,0c-0.1,0-0.2,0.1-0.2,0.1c-0.1,0.1-0.1,0.1-0.2,0.2
				c0,0.1-0.1,0.2-0.1,0.3c0,0.1,0,0.2,0,0.3c0,0.1,0,0.2,0,0.3c0,0.1,0.1,0.1,0.1,0.2c0.1,0.1,0.2,0.1,0.3,0.1c0.2,0,0.3,0,0.4,0
				c0.1-0.1,0.2-0.2,0.2-0.3l-0.5-0.1l0.1-0.4l0.9,0.2l-0.3,1.2l-0.3-0.1l0-0.3C123.9,396.5,123.8,396.6,123.6,396.6 M121.8,393.9
				c0.1,0,0.2,0.1,0.3,0.1c0.1,0,0.1,0.1,0.2,0.2s0.1,0.1,0.1,0.2c0,0.1,0,0.2,0,0.2c0,0.1-0.1,0.2-0.2,0.3
				c-0.1,0.1-0.2,0.1-0.3,0.2l0,0c0.1,0,0.1,0.1,0.1,0.1c0,0,0.1,0.1,0.1,0.1c0,0.1,0,0.1,0,0.2c0,0.1,0,0.1,0,0.2c0,0,0,0.1,0,0.1
				c0,0,0,0.1,0,0.1c0,0.1,0,0.1,0,0.1c0,0,0,0.1,0,0.1l-0.5-0.1c0-0.1,0-0.2,0-0.3c0-0.1,0-0.2,0-0.3c0-0.1,0-0.2,0-0.3
				c0-0.1-0.1-0.1-0.2-0.1l-0.5-0.1l-0.2,0.8l-0.5-0.1l0.5-2.2L121.8,393.9L121.8,393.9z M121.4,394.9c0.1,0,0.2,0,0.3,0
				c0.1,0,0.1-0.1,0.1-0.2c0-0.1,0-0.2,0-0.2c0-0.1-0.1-0.1-0.2-0.1l-0.5-0.1l-0.1,0.6L121.4,394.9L121.4,394.9z M120.1,393.6
				L120,394l-1.1-0.3l-0.1,0.5l1,0.2l-0.1,0.4l-1-0.2l-0.1,0.5l1.2,0.3l-0.1,0.4l-1.6-0.4l0.5-2.2L120.1,393.6L120.1,393.6z
				 M116.9,394.7c0,0,0.1,0,0.1,0c0,0,0.1,0,0.1,0c0,0,0.1,0,0.1-0.1c0,0,0-0.1,0.1-0.1c0-0.1,0-0.2,0-0.3c-0.1-0.1-0.1-0.1-0.2-0.1
				l-0.5-0.1l-0.1,0.6L116.9,394.7L116.9,394.7z M117.3,392.9c0.1,0,0.2,0.1,0.3,0.1c0.1,0,0.1,0.1,0.2,0.1c0.1,0.1,0.1,0.1,0.1,0.2
				c0,0.1,0,0.2,0,0.3c0,0.1-0.1,0.2-0.1,0.3c-0.1,0.1-0.2,0.1-0.3,0.1c0.1,0.1,0.2,0.2,0.3,0.3c0,0.1,0.1,0.2,0,0.4
				c0,0.1-0.1,0.2-0.1,0.3c-0.1,0.1-0.1,0.1-0.2,0.2c-0.1,0-0.2,0.1-0.3,0.1c-0.1,0-0.2,0-0.3,0l-1-0.2l0.5-2.2L117.3,392.9
				L117.3,392.9z M117.1,393.8c0.1,0,0.2,0,0.2,0c0.1,0,0.1-0.1,0.1-0.2c0-0.1,0-0.1,0-0.1c0,0,0-0.1-0.1-0.1c0,0-0.1,0-0.1-0.1
				c0,0-0.1,0-0.1,0l-0.4-0.1l-0.1,0.5L117.1,393.8L117.1,393.8z M114.4,392.3l0.6,1.7l0,0l0.3-1.4l0.4,0.1l-0.5,2.2l-0.5-0.1
				l-0.6-1.6l0,0l-0.3,1.4l-0.4-0.1l0.5-2.2L114.4,392.3L114.4,392.3z M112.8,391.9c0.1,0,0.2,0.1,0.3,0.1c0.1,0,0.1,0.1,0.2,0.2
				c0,0.1,0.1,0.1,0.1,0.2c0,0.1,0,0.2,0,0.2c0,0.1-0.1,0.2-0.2,0.3c-0.1,0.1-0.2,0.1-0.3,0.2l0,0c0.1,0,0.1,0.1,0.1,0.1
				c0,0,0.1,0.1,0.1,0.1c0,0.1,0,0.1,0,0.2c0,0.1,0,0.1,0,0.2c0,0,0,0.1,0,0.1c0,0,0,0.1,0,0.1c0,0,0,0.1,0,0.1c0,0,0,0.1,0,0.1
				l-0.5-0.1c0-0.1,0-0.2,0-0.3c0-0.1,0-0.2,0-0.3c0-0.1,0-0.2,0-0.3c0-0.1-0.1-0.1-0.2-0.1l-0.5-0.1l-0.2,0.8l-0.5-0.1l0.5-2.2
				L112.8,391.9L112.8,391.9z M112.4,392.8c0.1,0,0.2,0,0.3,0c0.1,0,0.1-0.1,0.1-0.2c0-0.1,0-0.2,0-0.2c0-0.1-0.1-0.1-0.2-0.1
				l-0.5-0.1l-0.1,0.6L112.4,392.8L112.4,392.8z M110.5,393.5c-0.2,0.1-0.4,0.1-0.7,0.1c-0.3-0.1-0.5-0.2-0.6-0.4
				c-0.1-0.2-0.2-0.4-0.1-0.7l0.3-1.3l0.5,0.1l-0.3,1.3c0,0.1,0,0.1,0,0.2c0,0.1,0,0.1,0,0.2c0,0.1,0.1,0.1,0.1,0.1
				c0.1,0,0.1,0.1,0.2,0.1c0.2,0,0.3,0,0.4,0s0.1-0.2,0.2-0.3l0.3-1.3l0.5,0.1l-0.3,1.3C110.8,393.2,110.7,393.4,110.5,393.5
				 M110.8,391.2l-0.4-0.1l0.1-0.4l0.4,0.1L110.8,391.2L110.8,391.2z M110.2,391.1l-0.4-0.1l0.1-0.4l0.4,0.1L110.2,391.1
				L110.2,391.1z M107.4,390.7l0.6,1.7l0,0l0.3-1.4l0.4,0.1l-0.5,2.2l-0.5-0.1l-0.6-1.6l0,0l-0.3,1.4l-0.4-0.1l0.5-2.2L107.4,390.7
				L107.4,390.7z M106.1,392l-0.9-0.2l0.1-0.4l0.9,0.2L106.1,392L106.1,392z M103.6,389.8l0.6,1.7l0,0l0.3-1.4l0.4,0.1l-0.5,2.2
				l-0.5-0.1l-0.6-1.6l0,0l-0.3,1.4l-0.4-0.1l0.5-2.2L103.6,389.8L103.6,389.8z M102.7,389.6l-0.1,0.4l-1.1-0.3l-0.1,0.5l1,0.2
				l-0.1,0.4l-1-0.2l-0.1,0.5l1.2,0.3l-0.1,0.4l-1.6-0.4l0.5-2.2L102.7,389.6L102.7,389.6z M99.5,391.1c-0.1,0-0.2,0-0.3,0
				c-0.2,0-0.3-0.1-0.4-0.2c-0.1-0.1-0.2-0.2-0.3-0.3c-0.1-0.1-0.1-0.3-0.1-0.4c0-0.1,0-0.3,0-0.5c0-0.2,0.1-0.3,0.2-0.4
				c0.1-0.1,0.2-0.2,0.3-0.3c0.1-0.1,0.2-0.1,0.4-0.2c0.1,0,0.3,0,0.5,0c0.1,0,0.2,0.1,0.3,0.1c0.1,0.1,0.2,0.1,0.2,0.2
				c0.1,0.1,0.1,0.2,0.2,0.3c0,0.1,0,0.2,0,0.3l-0.5-0.1c0-0.1,0-0.2-0.1-0.3c-0.1-0.1-0.2-0.1-0.3-0.2c-0.1,0-0.2,0-0.3,0
				c-0.1,0-0.2,0.1-0.2,0.1c-0.1,0.1-0.1,0.1-0.2,0.2c0,0.1-0.1,0.2-0.1,0.3c0,0.1,0,0.2,0,0.3c0,0.1,0,0.2,0,0.3
				c0,0.1,0.1,0.1,0.1,0.2c0.1,0.1,0.2,0.1,0.3,0.1c0.2,0,0.3,0,0.4,0c0.1-0.1,0.2-0.2,0.2-0.3l-0.5-0.1l0.1-0.4l0.9,0.2l-0.3,1.2
				l-0.3-0.1l0-0.3C99.7,391.1,99.6,391.1,99.5,391.1 M96.8,388.3l0.6,1.7l0,0l0.3-1.4l0.4,0.1l-0.5,2.2l-0.5-0.1l-0.6-1.6l0,0
				l-0.3,1.4l-0.4-0.1l0.5-2.2L96.8,388.3L96.8,388.3z M95.3,387.9l0.3,2.3l-0.5-0.1l-0.1-0.5l-0.8-0.2l-0.3,0.4l-0.5-0.1l1.3-2
				L95.3,387.9L95.3,387.9z M95,389.3l-0.1-0.9l0,0l-0.5,0.7L95,389.3L95,389.3z M92.7,387.4l-0.4,1.8l1.1,0.2l-0.1,0.4l-1.5-0.3
				l0.5-2.2L92.7,387.4L92.7,387.4z M91.2,387c0.1,0,0.2,0.1,0.3,0.1c0.1,0,0.1,0.1,0.2,0.2c0,0.1,0.1,0.1,0.1,0.2
				c0,0.1,0,0.2,0,0.2c0,0.1-0.1,0.2-0.2,0.3c-0.1,0.1-0.2,0.1-0.3,0.2l0,0c0.1,0,0.1,0.1,0.1,0.1c0,0,0.1,0.1,0.1,0.1
				c0,0.1,0,0.1,0,0.2c0,0.1,0,0.1,0,0.2c0,0,0,0.1,0,0.1c0,0,0,0.1,0,0.1c0,0.1,0,0.1,0,0.1c0,0,0,0.1,0,0.1l-0.5-0.1
				c0-0.1,0-0.2,0-0.3c0-0.1,0-0.2,0-0.3c0-0.1,0-0.2,0-0.3c0-0.1-0.1-0.1-0.2-0.1l-0.5-0.1L90,389l-0.5-0.1l0.5-2.2L91.2,387
				L91.2,387z M90.8,387.9c0.1,0,0.2,0,0.3,0c0.1,0,0.1-0.1,0.1-0.2c0-0.1,0-0.2,0-0.2c0-0.1-0.1-0.1-0.2-0.1l-0.5-0.1l-0.1,0.6
				L90.8,387.9L90.8,387.9z M89.6,386.6l-0.1,0.4l-1.1-0.3l-0.1,0.5l1,0.2l-0.1,0.4l-1-0.2l-0.1,0.5l1.2,0.3l-0.1,0.4l-1.6-0.4
				l0.5-2.2L89.6,386.6L89.6,386.6z"/>
			<path class="st15" d="M107.6,387.7l0.1-0.4l1.8,0.4l-0.1,0.4l-0.6-0.1l-0.4,1.8l-0.5-0.1l0.4-1.8L107.6,387.7L107.6,387.7z
				 M106.9,387.1l0.3,2.3l-0.5-0.1l-0.1-0.5l-0.8-0.2l-0.3,0.4l-0.5-0.1l1.3-2L106.9,387.1L106.9,387.1z M106.6,388.5l-0.1-0.9l0,0
				l-0.5,0.7L106.6,388.5L106.6,388.5z M107.2,386.9l-0.4-0.1l0.1-0.4l0.4,0.1L107.2,386.9L107.2,386.9z M106.6,386.8l-0.4-0.1
				l0.1-0.4l0.4,0.1L106.6,386.8L106.6,386.8z M103.8,386.8l0.1-0.4l1.8,0.4l-0.1,0.4l-0.6-0.1l-0.4,1.8l-0.5-0.1l0.4-1.8
				L103.8,386.8L103.8,386.8z M103,388.5l-0.5-0.1l0.5-2.2l0.5,0.1L103,388.5L103,388.5z M100.9,387.5c0,0.1,0,0.1,0.1,0.1
				c0,0,0.1,0.1,0.1,0.1c0.1,0,0.1,0,0.2,0.1c0,0,0.1,0,0.1,0c0.1,0,0.1,0,0.1,0c0,0,0.1,0,0.1-0.1c0,0,0.1-0.1,0.1-0.1
				c0-0.1,0-0.1,0-0.2c0,0-0.1-0.1-0.1-0.1c-0.1,0-0.1-0.1-0.2-0.1c-0.1,0-0.1-0.1-0.2-0.1c-0.1,0-0.1-0.1-0.2-0.1
				c-0.1,0-0.1-0.1-0.2-0.2c0-0.1-0.1-0.1-0.1-0.2c0-0.1,0-0.2,0-0.3c0-0.1,0.1-0.2,0.1-0.3c0.1-0.1,0.1-0.1,0.2-0.2
				c0.1,0,0.2-0.1,0.3-0.1c0.1,0,0.2,0,0.3,0c0.1,0,0.2,0.1,0.3,0.1c0.1,0,0.2,0.1,0.2,0.2c0.1,0.1,0.1,0.2,0.1,0.3
				c0,0.1,0,0.2,0,0.3l-0.5-0.1c0-0.1,0-0.1,0-0.2c0,0,0-0.1-0.1-0.1c0,0-0.1-0.1-0.1-0.1c0,0-0.1,0-0.2-0.1c0,0-0.1,0-0.1,0
				c0,0-0.1,0-0.1,0c0,0-0.1,0-0.1,0.1c0,0,0,0.1-0.1,0.1c0,0,0,0.1,0,0.1c0,0,0,0.1,0.1,0.1c0,0,0.1,0.1,0.2,0.1
				c0.1,0,0.2,0.1,0.3,0.2c0,0,0.1,0,0.2,0.1c0.1,0,0.1,0.1,0.2,0.1c0.1,0.1,0.1,0.1,0.1,0.2c0,0.1,0,0.2,0,0.3
				c0,0.1-0.1,0.2-0.1,0.3c-0.1,0.1-0.1,0.1-0.2,0.2c-0.1,0-0.2,0.1-0.3,0.1c-0.1,0-0.3,0-0.4,0c-0.1,0-0.2-0.1-0.3-0.1
				c-0.1-0.1-0.2-0.1-0.3-0.2c-0.1-0.1-0.1-0.2-0.2-0.3c0-0.1,0-0.2,0-0.4l0.5,0.1C100.9,387.4,100.9,387.4,100.9,387.5 M99.8,385.5
				c0.1,0,0.2,0.1,0.3,0.1c0.1,0,0.1,0.1,0.2,0.2c0,0.1,0.1,0.1,0.1,0.2c0,0.1,0,0.2,0,0.2c0,0.1-0.1,0.2-0.2,0.3
				c-0.1,0.1-0.2,0.1-0.3,0.2l0,0c0.1,0,0.1,0.1,0.1,0.1c0,0,0.1,0.1,0.1,0.1c0,0.1,0,0.1,0,0.2c0,0.1,0,0.1,0,0.2c0,0,0,0.1,0,0.1
				c0,0,0,0.1,0,0.1c0,0,0,0.1,0,0.1c0,0,0,0.1,0,0.1l-0.5-0.1c0-0.1,0-0.2,0-0.3c0-0.1,0-0.2,0-0.3c0-0.1,0-0.2,0-0.3
				c0-0.1-0.1-0.1-0.2-0.1l-0.5-0.1l-0.2,0.8l-0.5-0.1l0.5-2.2L99.8,385.5L99.8,385.5z M99.4,386.5c0.1,0,0.2,0,0.3,0
				c0.1,0,0.1-0.1,0.1-0.2c0-0.1,0-0.2,0-0.2c0-0.1-0.1-0.1-0.2-0.1l-0.5-0.1l-0.1,0.6L99.4,386.5L99.4,386.5z M98.2,385.2l-0.1,0.4
				l-1.1-0.3l-0.1,0.5l1,0.2l-0.1,0.4l-1-0.2l-0.1,0.5l1.2,0.3l-0.1,0.4l-1.6-0.4l0.5-2.2L98.2,385.2L98.2,385.2z M94.5,386.6
				l-0.2-2.3l0.5,0.1l0.1,1.6l0,0l0.8-1.4l0.5,0.1l-1.2,2L94.5,386.6L94.5,386.6z M93.4,386.3l-0.5-0.1l0.5-2.2l0.5,0.1L93.4,386.3
				L93.4,386.3z M91.5,383.7l0.6,1.7l0,0l0.3-1.4l0.4,0.1l-0.5,2.2l-0.5-0.1l-0.6-1.6l0,0l-0.3,1.4l-0.4-0.1l0.5-2.2L91.5,383.7
				L91.5,383.7z M89.8,385.4c-0.2,0.1-0.4,0.1-0.7,0.1c-0.3-0.1-0.5-0.2-0.6-0.4c-0.1-0.2-0.2-0.4-0.1-0.7l0.3-1.3l0.5,0.1l-0.3,1.3
				c0,0.1,0,0.1,0,0.2c0,0.1,0,0.1,0,0.2c0,0.1,0.1,0.1,0.1,0.1c0.1,0,0.1,0.1,0.2,0.1c0.2,0,0.3,0,0.4,0c0.1-0.1,0.1-0.2,0.2-0.3
				l0.3-1.3l0.5,0.1l-0.3,1.3C90.2,385.1,90,385.3,89.8,385.4"/>
			<path class="st15" d="M126.9,388.2c0.1,0,0.2,0.1,0.3,0.1c0.1,0,0.1,0.1,0.2,0.2c0,0.1,0.1,0.1,0.1,0.2c0,0.1,0,0.2,0,0.2
				c0,0.1-0.1,0.2-0.2,0.3c-0.1,0.1-0.2,0.1-0.3,0.2l0,0c0.1,0,0.1,0.1,0.1,0.1c0,0,0.1,0.1,0.1,0.1c0,0.1,0,0.1,0,0.2
				c0,0.1,0,0.1,0,0.2c0,0,0,0.1,0,0.1c0,0,0,0.1,0,0.1c0,0,0,0.1,0,0.1c0,0,0,0.1,0,0.1l-0.5-0.1c0-0.1,0-0.2,0-0.3
				c0-0.1,0-0.2,0-0.3c0-0.1,0-0.2,0-0.3c0-0.1-0.1-0.1-0.2-0.1l-0.5-0.1l-0.2,0.8l-0.5-0.1l0.5-2.2L126.9,388.2L126.9,388.2z
				 M126.5,389.1c0.1,0,0.2,0,0.3,0c0.1,0,0.1-0.1,0.1-0.2c0-0.1,0-0.2,0-0.2c0-0.1-0.1-0.1-0.2-0.1l-0.5-0.1L126,389L126.5,389.1
				L126.5,389.1z M125.3,387.8l-0.1,0.4l-1.1-0.3l-0.1,0.5l1,0.2l-0.1,0.4l-1-0.2l-0.1,0.5l1.2,0.3l-0.1,0.4l-1.6-0.4l0.5-2.2
				L125.3,387.8L125.3,387.8z M122.3,387.2c0.1,0,0.3,0.1,0.4,0.2c0.1,0.1,0.2,0.2,0.3,0.3c0.1,0.1,0.1,0.2,0.1,0.4
				c0,0.1,0,0.3,0,0.5c0,0.2-0.1,0.3-0.2,0.4c-0.1,0.1-0.2,0.2-0.3,0.3c-0.1,0.1-0.2,0.1-0.4,0.2c-0.1,0-0.3,0-0.5,0l-0.9-0.2
				l0.5-2.2L122.3,387.2L122.3,387.2z M121.9,388.9c0.1,0,0.1,0,0.2,0c0.1,0,0.1,0,0.2-0.1c0.1,0,0.1-0.1,0.2-0.2
				c0-0.1,0.1-0.2,0.1-0.3c0-0.1,0-0.2,0-0.3c0-0.1,0-0.2-0.1-0.2c0-0.1-0.1-0.1-0.2-0.2c-0.1-0.1-0.2-0.1-0.3-0.1l-0.3-0.1
				l-0.3,1.4L121.9,388.9L121.9,388.9z M119.5,386.5l0.6,1.7l0,0l0.3-1.4l0.4,0.1l-0.5,2.2l-0.5-0.1l-0.6-1.6l0,0l-0.3,1.4l-0.4-0.1
				l0.5-2.2L119.5,386.5L119.5,386.5z M118,386.2l0.3,2.3l-0.5-0.1l-0.1-0.5l-0.8-0.2l-0.3,0.4l-0.5-0.1l1.3-2L118,386.2L118,386.2z
				 M117.7,387.5l-0.1-0.9l0,0l-0.5,0.7L117.7,387.5L117.7,387.5z M114.5,385.4l0.5,0.1l0.3,0.8l0.6-0.6l0.5,0.1l-0.9,0.9l0.5,1.3
				l-0.6-0.1l-0.3-0.9l-0.6,0.6l-0.5-0.1l1-1L114.5,385.4L114.5,385.4z M114.1,385.3l-0.1,0.4l-1.1-0.3l-0.1,0.5l1,0.2l-0.1,0.4
				l-1-0.2l-0.1,0.5l1.2,0.3l-0.1,0.4l-1.6-0.4l0.5-2.2L114.1,385.3L114.1,385.3z M111.1,384.6l-0.4,1.8l1.1,0.2l-0.1,0.4l-1.5-0.3
				l0.5-2.2L111.1,384.6L111.1,384.6z M109.5,384.2l0.3,2.3l-0.5-0.1l-0.1-0.5l-0.8-0.2l-0.3,0.4l-0.5-0.1l1.3-2L109.5,384.2
				L109.5,384.2z M109.2,385.6l-0.1-0.9l0,0l-0.5,0.7L109.2,385.6L109.2,385.6z M107.6,385.4l-0.9-0.2l0.1-0.4l0.9,0.2L107.6,385.4
				L107.6,385.4z M105.1,383.3l-0.2,0.8l0.9,0.2l0.2-0.8l0.5,0.1l-0.5,2.2l-0.5-0.1l0.2-0.9l-0.9-0.2l-0.2,0.9l-0.5-0.1l0.5-2.2
				L105.1,383.3L105.1,383.3z M103.6,383.5c0-0.1,0-0.1-0.1-0.1c0,0-0.1-0.1-0.1-0.1c0,0-0.1-0.1-0.2-0.1c-0.1,0-0.2,0-0.3,0
				c-0.1,0-0.2,0.1-0.2,0.1c-0.1,0.1-0.1,0.1-0.2,0.2c0,0.1-0.1,0.2-0.1,0.3c0,0.1,0,0.2,0,0.3c0,0.1,0,0.2,0,0.3
				c0,0.1,0.1,0.1,0.1,0.2c0.1,0.1,0.2,0.1,0.3,0.1c0.1,0,0.3,0,0.4-0.1c0.1-0.1,0.2-0.2,0.2-0.3l0.5,0.1c0,0.1-0.1,0.2-0.2,0.3
				c-0.1,0.1-0.2,0.2-0.3,0.2c-0.1,0.1-0.2,0.1-0.3,0.1c-0.1,0-0.2,0-0.4,0c-0.2,0-0.3-0.1-0.4-0.2c-0.1-0.1-0.2-0.2-0.3-0.3
				c-0.1-0.1-0.1-0.3-0.1-0.4c0-0.1,0-0.3,0-0.5c0-0.2,0.1-0.3,0.2-0.4c0.1-0.1,0.2-0.2,0.3-0.3c0.1-0.1,0.2-0.1,0.4-0.2
				c0.1,0,0.3,0,0.5,0c0.1,0,0.2,0.1,0.3,0.1c0.1,0.1,0.2,0.1,0.3,0.2c0.1,0.1,0.1,0.2,0.2,0.3c0,0.1,0,0.2,0,0.4l-0.5-0.1
				C103.6,383.6,103.6,383.6,103.6,383.5 M101.3,384.7l-0.5-0.1l0.5-2.2l0.5,0.1L101.3,384.7L101.3,384.7z M100.2,382.1
				c0.1,0,0.2,0.1,0.3,0.1c0.1,0,0.1,0.1,0.2,0.2c0,0.1,0.1,0.1,0.1,0.2c0,0.1,0,0.2,0,0.2c0,0.1-0.1,0.2-0.2,0.3
				c-0.1,0.1-0.2,0.1-0.3,0.2l0,0c0.1,0,0.1,0.1,0.1,0.1c0,0,0.1,0.1,0.1,0.1c0,0.1,0,0.1,0,0.2c0,0.1,0,0.1,0,0.2c0,0,0,0.1,0,0.1
				c0,0,0,0.1,0,0.1c0,0,0,0.1,0,0.1c0,0,0,0.1,0,0.1l-0.5-0.1c0-0.1,0-0.2,0-0.3c0-0.1,0-0.2,0-0.3c0-0.1,0-0.2,0-0.3
				c0-0.1-0.1-0.1-0.2-0.1l-0.5-0.1l-0.2,0.8l-0.5-0.1l0.5-2.2L100.2,382.1L100.2,382.1z M99.8,383.1c0.1,0,0.2,0,0.3,0
				c0.1,0,0.1-0.1,0.1-0.2c0-0.1,0-0.2,0-0.2c0-0.1-0.1-0.1-0.2-0.1l-0.5-0.1l-0.1,0.6L99.8,383.1L99.8,383.1z M97.7,381.6
				c0.1,0,0.3,0.1,0.4,0.2c0.1,0.1,0.2,0.2,0.3,0.3c0.1,0.1,0.1,0.2,0.1,0.4c0,0.1,0,0.3,0,0.5c0,0.2-0.1,0.3-0.2,0.4
				c-0.1,0.1-0.2,0.2-0.3,0.3c-0.1,0.1-0.2,0.1-0.4,0.2c-0.1,0-0.3,0-0.4,0l-0.9-0.2l0.5-2.2L97.7,381.6L97.7,381.6z M97.3,383.3
				c0.1,0,0.1,0,0.2,0c0.1,0,0.1,0,0.2-0.1c0.1,0,0.1-0.1,0.2-0.2c0-0.1,0.1-0.2,0.1-0.3c0-0.1,0-0.2,0-0.3c0-0.1,0-0.2-0.1-0.2
				c0-0.1-0.1-0.1-0.2-0.2c-0.1-0.1-0.2-0.1-0.3-0.1l-0.3-0.1l-0.3,1.4L97.3,383.3L97.3,383.3z M96.3,381.3l-0.1,0.4l-1.1-0.3
				l-0.1,0.5l1,0.2l-0.1,0.4l-1-0.2l-0.1,0.5l1.2,0.3l-0.1,0.4l-1.6-0.4l0.5-2.2L96.3,381.3L96.3,381.3z M93.7,382.9l-0.5-0.1
				l0.5-2.2l0.5,0.1L93.7,382.9L93.7,382.9z M92.5,380.4c0.1,0,0.2,0.1,0.3,0.1c0.1,0,0.1,0.1,0.2,0.2c0,0.1,0.1,0.1,0.1,0.2
				c0,0.1,0,0.2,0,0.2c0,0.1-0.1,0.2-0.2,0.3c-0.1,0.1-0.2,0.1-0.3,0.2l0,0c0.1,0,0.1,0.1,0.1,0.1c0,0,0.1,0.1,0.1,0.1
				c0,0.1,0,0.1,0,0.2c0,0.1,0,0.1,0,0.2c0,0,0,0.1,0,0.1c0,0,0,0.1,0,0.1c0,0,0,0.1,0,0.1c0,0,0,0.1,0,0.1l-0.5-0.1
				c0-0.1,0-0.2,0-0.3c0-0.1,0-0.2,0-0.3c0-0.1,0-0.2,0-0.3c0-0.1-0.1-0.1-0.2-0.1l-0.5-0.1l-0.2,0.8l-0.5-0.1l0.5-2.2L92.5,380.4
				L92.5,380.4z M92.1,381.3c0.1,0,0.2,0,0.3,0c0.1,0,0.1-0.1,0.1-0.2c0-0.1,0-0.2,0-0.2c0-0.1-0.1-0.1-0.2-0.1l-0.5-0.1l-0.1,0.6
				L92.1,381.3L92.1,381.3z M91,380l-0.1,0.4l-1-0.2l-0.1,0.5l0.9,0.2l-0.1,0.4l-0.9-0.2l-0.2,0.9l-0.5-0.1l0.5-2.2L91,380L91,380z"
				/>
			<path class="st15" d="M83,386.3l-9-2c0.5,0.6,1,1.1,1.6,1.5l5.3,1.2C81.6,386.8,82.3,386.7,83,386.3"/>
			<polygon class="st15" points="58.3,380.2 62.2,381.1 62.2,381.1 62.2,381.1 62.8,380.1 58.9,379.2 			"/>
			<polygon class="st15" points="58,380.7 57.4,381.6 61.4,382.5 61.9,381.6 			"/>
			<polygon class="st15" points="49.5,379.8 53.2,380.6 53.4,379.6 49.7,378.8 			"/>
			<polygon class="st15" points="53.8,378.1 50,377.2 49.8,378.3 53.5,379.1 			"/>
			<polygon class="st15" points="54.1,376.5 50.4,375.7 50.2,376.7 53.9,377.6 			"/>
			<polygon class="st15" points="54.5,375 50.7,374.2 50.5,375.2 54.2,376 			"/>
			<polygon class="st15" points="55.5,370.4 51.8,369.5 51.5,370.6 55.3,371.4 			"/>
			<polygon class="st15" points="55.9,368.8 52.1,368 51.9,369 55.6,369.9 			"/>
			<polygon class="st15" points="52.6,365.9 64,368.5 64.2,367.5 52.8,364.9 			"/>
			<polygon class="st15" points="52.2,367.5 63.6,370.1 63.9,369 52.5,366.5 			"/>
			<polygon class="st15" points="66.9,373 63.5,372.2 62.9,373.1 66.3,373.9 			"/>
			<polygon class="st15" points="65.6,368.9 70.3,370 70.1,368.8 66.3,368 			"/>
			<polygon class="st15" points="64.7,370.3 70.5,371.6 70.3,370.5 65.3,369.4 			"/>
			<polygon class="st15" points="67.5,372.6 70.7,373.3 70.6,372.2 64.4,370.8 63.8,371.7 67.1,372.5 67.4,372 67.4,372.1 			"/>
			<polygon class="st15" points="67.6,374.2 71,375 70.8,373.9 67.5,373.1 			"/>
			<polygon class="st15" points="67.7,375.8 71.2,376.6 71,375.5 67.6,374.7 			"/>
			<polygon class="st15" points="67.8,377.5 71.4,378.3 71.3,377.2 67.7,376.4 			"/>
			<polygon class="st15" points="60.1,377.4 71.7,380 71.5,378.9 60.8,376.4 			"/>
			<polygon class="st15" points="59.2,378.8 71.9,381.7 71.7,380.5 59.8,377.8 			"/>
			<polygon class="st15" points="68.2,382.4 72.1,383.3 72,382.2 68.1,381.3 			"/>
			<polygon class="st15" points="68.3,383 68.4,384.1 72.4,385 72.2,383.9 			"/>
			<polygon class="st15" points="75.1,371 78.8,371.9 79,370.9 75.3,370 			"/>
			<polygon class="st15" points="74.7,372.6 78.4,373.4 78.7,372.4 75,371.6 			"/>
			<polygon class="st15" points="74.4,374.1 78.1,375 78.3,373.9 74.6,373.1 			"/>
			<polygon class="st15" points="74,375.7 77.7,376.5 78,375.5 74.3,374.6 			"/>
			<polygon class="st15" points="73.7,377.2 77.4,378 77.6,377 73.9,376.2 			"/>
			<polygon class="st15" points="73.3,378.7 77,379.6 77.3,378.6 73.6,377.7 			"/>
			<path class="st15" d="M73,380.3l3.8,0.9c0-0.3,0.1-0.6,0.1-0.9l0-0.2l-3.7-0.8l-0.1,0.5C73.1,379.9,73,380.1,73,380.3"/>
			<path class="st15" d="M73,381.9l4.2,1c-0.3-0.3-0.4-0.7-0.5-1.2l-3.8-0.9C72.9,381.2,72.9,381.6,73,381.9"/>
			<path class="st15" d="M84.6,385.1l-11.5-2.6c0.1,0.4,0.3,0.8,0.5,1.2l10,2.3C83.9,385.7,84.3,385.4,84.6,385.1"/>
			<path class="st15" d="M85.4,383.6l-3.8-0.9c-0.2,0.4-0.5,0.7-0.9,0.9l4.3,1C85.1,384.3,85.2,384,85.4,383.6"/>
			<polygon class="st15" points="84,373.1 87.7,373.9 87.9,372.9 84.2,372 			"/>
			<polygon class="st15" points="83.6,374.6 87.3,375.5 87.6,374.4 83.8,373.6 			"/>
			<polygon class="st15" points="83.3,376.1 87,377 87.2,376 83.5,375.1 			"/>
			<polygon class="st15" points="82.9,377.7 86.6,378.5 86.9,377.5 83.1,376.7 			"/>
			<polygon class="st15" points="82.6,379.2 86.3,380.1 86.5,379 82.8,378.2 			"/>
			<polygon class="st15" points="82.2,380.8 85.9,381.6 86.2,380.6 82.5,379.7 			"/>
			<path class="st15" d="M85.7,382.6l0.1-0.5l-3.7-0.8l0,0.2c-0.1,0.3-0.2,0.6-0.3,0.8l3.8,0.9C85.6,383,85.7,382.8,85.7,382.6"/>
			<polygon class="st15" points="51.1,372.6 50.9,373.6 64.7,376.8 65.3,375.8 			"/>
			<polygon class="st15" points="51.4,371.1 51.2,372.1 65.5,375.3 66.1,374.4 			"/>
		</g>
	</g>
	<g id="Hand_links_Hautbasis">
		<path class="st11" d="M110.9,278.8c0,0,3.3,0.2,12.6-13.9c9.3-14.1,7.7-13.4,9.3-13.7c1.6-0.3,11.9-1.5,11.9-1.5s8.1,0.1,9.1,1
			c1,0.9,10.7,7.4,11.7,8.3c1,0.9,1.2,3.2-0.5,3.4c-1.7,0.2-6.7-2.7-6.7-2.7l4.4,3.8l-0.8,3.7c0,0-2.7,1.3-3.2-0.5
			c-0.5-1.8-5.4-3.1-5.4-3.1l-8.8,0.1c0,0,7.6,2.6,8.9,4c1.4,1.5,0.2,3.7,0.2,3.7l-1.5,1.4c0,0,2.2,1.6,2,1.8
			c-0.2,0.2,0.8,3.5-2.2,3.5c-2.9,0-6.4-0.3-6.4-0.3s-4.8,7.4-8.8,8.6c-4,1.2-7.5,2.2-7.5,2.2l-9.3,2.8L110.9,278.8z"/>
	</g>
	<g id="Tablet">
		<g id="Tabletrahmen">
			<path class="st17" d="M154.1,315l26.1-83.6c0.3-1,1.3-1.5,2.3-1.3l61.8,13.1c0.1,0,1.1,0.8,1.2,0.8c-0.2-0.6-1.8-1.9-2.5-2.1
				l-61.8-13.1c-1-0.2-2,0.4-2.3,1.3l-26.1,83.6c-0.3,1,1.2,3.3,2.2,3.6C154.9,316.9,154,315.4,154.1,315z"/>
		</g>
		<g id="Tablet_1_">
			<path class="st18" d="M244.4,243.2c0,0-0.1,0-0.1-0.1L182.4,230c-1-0.2-2,0.4-2.3,1.3L154.1,315c-0.1,0.4-0.1,0.8,0,1.1
				c0.2,0.6,0.7,1.2,1.4,1.3l61.8,13.1c1,0.2,2-0.4,2.3-1.3l26.1-83.6C246,244.6,245.4,243.5,244.4,243.2z"/>
		</g>
		<g id="Tabletkamera">
			<g id="Kameralinse">
				<path class="st19" d="M188.1,236.7c-0.8,0-1.5,0.7-1.5,1.5c0,0.8,0.7,1.5,1.5,1.5c0.8,0,1.5-0.7,1.5-1.5
					C189.6,237.4,189,236.7,188.1,236.7z"/>
			</g>
			<g id="Kameraring">
				<path class="st20" d="M188.1,235.8c-1.3,0-2.4,1.1-2.4,2.4c0,1.3,1.1,2.4,2.4,2.4c1.3,0,2.4-1.1,2.4-2.4
					C190.5,236.9,189.4,235.8,188.1,235.8z M188.1,239.7c-0.8,0-1.5-0.7-1.5-1.5c0-0.8,0.7-1.5,1.5-1.5c0.8,0,1.5,0.7,1.5,1.5
					C189.6,239,189,239.7,188.1,239.7z"/>
			</g>
		</g>
	</g>
	<g id="Kopf_und_Haare">
		<g id="Haarband_Akzent">
			<path class="st4" d="M100.5,132.7c0,0-36.4-75.3,27.3-75.8c63.7-0.5,53.1,55.7,33,72.4S107.9,145.5,100.5,132.7z"/>
		</g>
		<g id="Haarband_Schatten">
			<path class="st5" d="M102.6,133.3c0,0-34.1-70.6,25.6-71c59.7-0.5,49.7,52.2,30.9,67.8C140.2,145.7,109.5,145.2,102.6,133.3z"/>
		</g>
		<g id="Dekoltee_Hautbasis">
			<path class="st11" d="M114.1,173L114.1,173c7.7-6.8-0.4-30.8-0.4-30.8l27.9,1l8,27.4c0,0,1.6,0.8,4,2.1v0
				c4.1,2.1,10.6,5.4,16.5,8.5c-8.7,15.7-27.3,26.8-44.8,18c-8.9-4.5-17.6-11.1-25.7-18.4C105.6,177.5,111.3,174.4,114.1,173z"/>
		</g>
		<g id="Hals_Hautschatten">
			<path class="st1" d="M136.3,171.6c-5.1,0.2-14.3-3.5-19.3-4.6c1.8-9.6-3.3-24.8-3.3-24.8l27.9,1l6.2,21.3
				C146.7,168.3,142,171.4,136.3,171.6z"/>
		</g>
		<g id="Ohr_links_Hautschatten">
			<path class="st11" d="M95.7,122.3c0,5.7,6.1,10.4,9.7,10.4c3.6,0,3.3-4.6,3.3-10.4c0-5.7-4.1-10.4-7.7-10.4
				C97.5,111.9,95.7,116.6,95.7,122.3L95.7,122.3z"/>
		</g>
		<g id="Ohr_Hautschatten">
			<path class="st1" d="M172,122.3c0,5.7-6.1,10.4-9.7,10.4c-3.6,0-3.3-4.6-3.3-10.4c0-5.7,4.1-10.4,7.7-10.4
				C170.2,111.9,172,116.6,172,122.3L172,122.3z"/>
		</g>
		<g id="Gesicht">
			<g id="Kopf_Hautbasis">
				<path class="st23" d="M134.3,78.4c28.4,0.3,29.8,26.9,29.8,30.1c0,0.2,0,0.4,0,0.6c-0.2,3-2.2,30.3-4.9,35.5
					c-2.3,4.3-19.4,18.2-26,18.2s-23-14.4-25.2-18.8c-2.7-5.3-4-32.7-4.2-35.6c0-0.2,0-0.4,0-0.6
					C104,104.7,106,78.1,134.3,78.4z"/>
			</g>
			<g id="Augen">
				<path class="st29" d="M121.3,117c2-0.2,3.7,1.9,3.8,4.8c0.1,2.8-1.4,5.3-3.4,5.5c-2,0.2-3.7-1.9-3.8-4.8
					C117.8,119.7,119.3,117.2,121.3,117z"/>
				<path class="st29" d="M147.2,117.3c2-0.2,3.7,1.9,3.8,4.8c0.1,2.8-1.4,5.3-3.4,5.5c-2,0.2-3.7-1.9-3.8-4.8
					C143.7,120,145.2,117.5,147.2,117.3z"/>
			</g>
			<g id="Nase">
				<path class="st1" d="M134.5,134.5c0.5,0.8,0.5,0.7,0.1,1.3c-0.2,0.4-0.8,0.8-1.1,1.1c-0.7,0.7,2.4,0.6,2.9,0
					c0.5-0.5,1.5-1.3,1.8-1.9c0.3-0.8-0.3-1.1-0.8-1.5c-1.5-1.3-2.5-3-3-4.9C134.1,127.8,132.9,131.8,134.5,134.5z"/>

			</g>
			<g id="Mund">
				<path class="st30" d="M142.7,142.2c-6-1-12.2-1-18.5,0c0,0,4.7,8,9.2,8S142.7,142.2,142.7,142.2z"/>
			</g>
			<g id="Augenbrauen">
				<path class="st10" d="M128.6,110c-0.2,0-0.4-0.1-0.6-0.1c-11-2.4-16.7,3.4-16.5,3.2c-0.5,0.4-1.3,0.8-1.7,0.8
					c-0.4,0-0.4-0.5,0.1-0.9c0,0.3,3.9-8.5,17.1-6.1C127.9,107.1,129.3,110.1,128.6,110z"/>
				<path class="st10" d="M140.1,109.6c0.2,0,0.3-0.1,0.5-0.1c9.9-2.5,15.9,2.7,15.8,2.5c0.5,0.4,1.3,0.7,1.7,0.7
					c0.4-0.1,0.4-0.5-0.2-0.9c0.1,0.2-4.8-7.7-16.7-4.9C140.4,107.1,139.5,109.7,140.1,109.6z"/>
			</g>
		<path id="Haarbasis_1_1_" class="st10" d="M151.1,80.2c0,0,14.2,6.4,14.7,28.7c0,0-5.6-17.4-17.9-22.8L151.1,80.2z"/>
		<path id="Haarbasis_1" class="st10" d="M160.7,77.7c0,0-28.7-27-55.9,2.3c-16.7,18-0.7,31.4-0.7,31.4S146.4,100.6,160.7,77.7z"/>
	</g>
	<g id="Hand_rechts">
		<path class="st11" d="M237.4,276.8c0,0-23.7,4.5-25.3,12.8c-1.5,8.3-0.8,18.1,4.5,19.2c5.3,1.1,18.5,2.6,23.7-6
			C245.7,294.1,243.8,280.9,237.4,276.8z"/>
	</g>
</g>
</g>
</svg>
