<svg version="1.1" id="Student_6_FAU" xmlns="http://www.w3.org/2000/svg" xmlns:xlink="http://www.w3.org/1999/xlink"
	 viewBox="0 0 280 704" style="enable-background:new 0 0 280 704;" xml:space="preserve">
<style type="text/css">
	#student-6-fau-rrze-expo {
		--hautfarbe: #F8B57B;
		--hautschatten: #E88153;
		--akzentfarbe: #8D1926; /*Fakultaetsfarben hier im Originalton*/
		--akzentfarbeDunkler: #5F111B; /*Eine Nuance dunkler als Originalton*/
		--akzentfarbeNochDunkler: #5E110F; /*Zwei Nuancen dunkler*/
		--fauFarbton: #004070; /*FAUFarbton sRGB*/
		--fauFarbtonDunkler: #003359; /*1 Nuance dunkler*/
		--haarfarbe: #EB5B28;
		--haarlicht: #EF7B52;
		--haarschatten: #B5451C;
	}
	/*FAU-Merch enthaelt fau im id-Bestandteil*/
	#student-6-fau-rrze-expo .st0{fill:#5E110F; fill: var(--akzentfarbeNochDunkler, #5E110F);} /*Rucksack und Socken*/
	#student-6-fau-rrze-expo .st1{fill:#F8B57B; fill: var(--hautfarbe, #F8B57B);} /*Hautbasis Arm und Knoechel*/
	#student-6-fau-rrze-expo .st2{fill:#EB5B28; fill: var(--haarfarbe, #EB5B28);} /*Haarbasis*/
	#student-6-fau-rrze-expo .st3{fill:#B5451C; fill: var(--haarschatten, #B5451C);} /*Haarschatten*/
	#student-6-fau-rrze-expo .st4{fill:#8D1926; fill: var(--akzentfarbe, #8D1926);} /*AkzentfarbeFakultaeten*/
	#student-6-fau-rrze-expo .st5{fill:#F1F2F2;} /*Shirtfarbe und Schuhkappe links*/
	#student-6-fau-rrze-expo .st6{fill:#D1D2D4;} /*Schuhsohle*/
	#student-6-fau-rrze-expo .st7{fill:#F2F2F2;} /*Schuhkappe*/
	#student-6-fau-rrze-expo .st8{fill:#1B1B1B;} /*Schnuersenkel*/
	#student-6-fau-rrze-expo .st9{fill:#808386;} /*Absatz*/
	#student-6-fau-rrze-expo .st10{fill:#8E3089;} /*Unwichtig da verdeckt*/
	#student-6-fau-rrze-expo .st11{fill:#3C3C3B;} /*Hosenbasis*/
	#student-6-fau-rrze-expo .st12{clip-path:url(#student-6-fau-SVGID_2_);}
	#student-6-fau-rrze-expo .st13{fill:#004070; fill: var(--fauFarbton, #004070);} /*FAU originalton*/
	#student-6-fau-rrze-expo .st14{opacity:0.5;} /*Schatten*/
	#student-6-fau-rrze-expo .st15{fill:#A6B0B6;} /*Schattenfarbe Arm*/
	#student-6-fau-rrze-expo .st16{fill:#E88153; fill: var(--hautschatten, #E88153);} /*Hautschatten*/
	#student-6-fau-rrze-expo .st17{fill:#EC9856; fill: var(--hautschatten, #EC9856);} /*Ohren*/
	#student-6-fau-rrze-expo .st18{fill:#FABE7E; fill: var(--hautfarbe, #FABE7E);} /*Hautbasis Gesicht*/
	#student-6-fau-rrze-expo .st19{fill:#231F20;} /*Augen und Augenbrauen*/
	#student-6-fau-rrze-expo .st20{fill:#C1292E;} /*Mund*/
	#student-6-fau-rrze-expo .st21{fill:#EF7B52; fill: var(--haarlicht, #EF7B52);} /*Haarlicht*/
	#student-6-fau-rrze-expo .st22{fill:#5F111B; fill: var(--akzentfarbeDunkler, #5F111B);} /*Schuhakzent Dunkel*/
	#student-6-fau-rrze-expo .st23{fill:#CEDAE2;} /*Shirtschatten*/
	#student-6-fau-rrze-expo .st24{fill:#003359; fill: var(--fauFarbtonDunkler, #003359);} /*Multifunktionsschal Schatten*/
	#student-6-fau-rrze-expo .st25{fill:#FFFFFF;} /*FAU logofarbe*/
	#student-6-fau-rrze-expo .st26{opacity:0.8;} /*Fau logodeckkraft Multifunktionsschal*/
	#student-6-fau-rrze-expo .st27{clip-path:url(#student-6-fau-SVGID_4_);}
</style>
<g id="student-6-fau-rrze-expo">
	<g id="rucksack">
		<path class="st0" d="M200.3,201.2c0,0,56.6,114.7,40.7,157.4c-16,42.6-87.1,31-88.6,3.4c-1.5-27.6,8.7-136.1,34.9-163.2
			L200.3,201.2z"/>
	</g>
	<g id="armbasis">
		<path class="st1" d="M93,192.7c-8.6,4.3-30.7,86.9-21.6,92.1c8.6,4.9,46,9,92-12.7l-11.2-11.4c0,0-52.3,1.3-55.1-0.5
			c-2.8-1.7-0.4-17.4-0.8-27.2C95.4,208.3,93,192.7,93,192.7z"/>
	</g>
	<g id="haarbasis">
		<path class="st2" d="M110.1,169.9c3.6-28.1,3.4-74.1,1.5-74.1c7.1-38.6,54.4-28.3,68-14.4c7.2,7.3,6.7,61.2,16.7,88.7
			C185.3,177.5,117.2,177.5,110.1,169.9z"/>
	</g>
	<g id="haarschatten">
		<path class="st3" d="M187.6,162.5c-0.4-4.6-0.7-9.2-1.3-13.8c-1-8-1.5-16-3-23.9c-2.3-12.5-7.5-27.6-20.2-32.9
			c-12.3-5-27.1-0.9-35.3,9.4c-9.4,11.9-10.6,28.8-11.1,43.3c-0.3,8.5-0.3,16.9-0.3,25.4c0,0.9,0,1.7,0,2.6c15.7,4,54.7,4,72.5,0.1
			C188.5,169.3,187.8,165.9,187.6,162.5z"/>
	</g>
	<g id="Schuhlinks">
		<g id="Schuhakzentfarbe">
			<path class="st4" d="M59.7,684h81.2l-3.7-50.5c-11.7-2-22.6-2.4-32.4,0c0,0,2,15.6-14.2,20.7C74.5,659.3,59.7,657.7,59.7,684z"/>
		</g>
		<path class="st5" d="M75.6,659.9c-13.2,0-16,9.3-15.6,24.1h46.4C94.8,659.1,87.5,659.9,75.6,659.9z"/>
		<path class="st6" d="M95.9,684h10.6c-11.6-25-19-24.1-30.8-24.1C72.2,659.9,99.1,658.8,95.9,684z"/>
		<path class="st7" d="M104.5,661.1c1.5,1.4,1.7,3.7,0.5,5c-1.3,1.3-3.5,1.2-5-0.2c-1.5-1.4-1.7-3.7-0.5-5
			C100.8,659.6,103,659.7,104.5,661.1z"/>
		<path class="st8" d="M102.8,665.4c-16.4-8.8-29.8-6.2-29.8-6.2c10.2-7.5,29.4,2.2,29.7,2.3c1.1,0.5,1.6,1.7,1.1,2.8
			C103.6,664.8,103.2,665.2,102.8,665.4z"/>
		<path class="st7" d="M113.2,657.6c1.5,1.4,1.7,3.7,0.5,5c-1.3,1.3-3.5,1.2-5-0.2c-1.5-1.4-1.7-3.7-0.5-5
			C109.5,656.1,111.7,656.1,113.2,657.6z"/>
		<path class="st7" d="M121.2,653.7c1.5,1.4,1.7,3.7,0.5,5c-1.3,1.3-3.5,1.2-5-0.2c-1.5-1.4-1.7-3.7-0.5-5
			C117.4,652.2,119.6,652.3,121.2,653.7z"/>
		<path class="st8" d="M111.7,661.6c-16.4-8.8-26-6-26-6c6.8-6.3,25.7,1.9,25.9,2.2c1.1,1.2,1.6,1.7,1.1,2.8
			C112.5,661,112.1,661.4,111.7,661.6z"/>
		<path class="st8" d="M119.6,654.2c-0.2-0.1-18.2-10.1-23.8-2.3c0,0,10.7-2.6,23.9,6.2c0.4-0.2,0.7-0.6,0.9-1.1
			C120.9,655.9,120.4,654.6,119.6,654.2z"/>
		<path class="st6" d="M60.1,677.4c-0.3,2-0.5,4.2-0.4,6.7h81.2l-0.5-6.7H60.1z"/>
		<path class="st9" d="M126.8,677.4c-0.1,2-0.1,4.2-0.1,6.7h14.1l-0.1-6.7H126.8z"/>
	</g>
	<g id="Hose">
		<path class="st10" d="M96.2,314.3c0,0-11.3,54.2-4.2,90.1c9.4,47.7,10.3,139.7,8.8,197.7c-0.1,2.4,5.4,4.6,5.6,6.8
			c0.9,11.5,1.4,19.9,1.4,23.9c13.4,3.9,16.5,3.6,27.2,0.7c0,0-0.5-9.5-1.2-24.6c-0.1-3.1,6.1-2.7,6-6.2
			c-2.7-64.2-4.6-198.6,6.2-198.6c11.1,0,11.7,136.3,18.7,199.1c0.3,2.4,7.8,4.6,8,6.7c1.6,14.8,2.6,24.1,2.6,24.1
			c13.4,5.4,9.1,4.6,22.2-0.9c0,0,0.2-8.8,0.5-23.7c0.1-3.6,8.4-3.5,7.8-7.8c-9-68.6-9.2-218.8-13.6-285.9L96.2,314.3z"/>
		<path class="st11" d="M96.2,314.3c0,0-11.3,54.2-4.2,90.1c9.4,47.7,10.3,139.7,8.8,197.7c-0.1,2.4,5.4,4.6,5.6,6.8
			c0.9,11.5,1.4,19.9,1.4,23.9c13.4,3.9,16.5,3.6,27.2,0.7c0,0-0.5-9.5-1.2-24.6c-0.1-3.1,6.1-2.7,6-6.2
			c-2.7-64.2-4.6-198.6,6.2-198.6c11.1,0,11.7,136.3,18.7,199.1c0.3,2.4,7.8,4.6,8,6.7c1.6,14.8,2.6,24.1,2.6,24.1
			c13.4,5.4,9.1,4.6,22.2-0.9c0,0,0.2-8.8,0.5-23.7c0.1-3.6,8.4-3.5,7.8-7.8c-9-68.6-9.2-218.8-13.6-285.9L96.2,314.3z"/>
		<path d="M169.2,381.5c-4.9,0-11.8-1-16.7-1.1c-9.2,0.2-10.2-0.1-12.9-0.1c-2.6,0-5.2,2.3-14.5,2c-15.1-0.2-20.2-0.3-35.3-0.9
			c-0.1-4.4-0.3-2.7-0.3-7c0-24.7,6.6-60.2,6.6-60.2l96.2,0.9c1.7,17.8,1.6,40.5,2.8,66.9C185.6,383.2,179,381.5,169.2,381.5z"/>
		<path d="M103.1,602c3.4,0,19.2,3.7,21.5,0.4c2.5-3.7-2.3-5.2-4.9-5.9c-1-0.3-2.8-0.6-3-1.8c-0.3-1.8,1.9-2.7,3.3-3
			c2.8-0.8,5.7-0.6,8.5-1.7c4.2-1.6,7.6-4.1,10.7-7.1c0.2,7.1,0.5,13.7,0.7,19.7c0.1,3.5-6.1,3.1-6,6.2c0.7,15.1,1.2,24.6,1.2,24.6
			c-10.7,2.9-13.8,3.2-27.2-0.7c0-4-0.5-12.5-1.4-23.9c-0.1-1.8-3.8-3.6-5.1-5.5C101.7,603.6,99.5,602,103.1,602z"/>
		<path d="M174,592.2c0.8,0.1,1.6,0.1,2.4,0.2c0.4,0.1,1,0.1,1.3,0.3c0.7,0.5,0.9,2,0.4,2.7c-0.7,1-2.6,1.4-3.6,2.1
			c-0.2,0.1-0.3,0.5-0.1,0.7c1.8,1.9,4.6,2.3,7,2.7c2.9,0.4,13.5,0.6,16.4,0.9c0.7,0.1,0.6,5.4,1.5,5.6c-0.7,0.6-1.2,1.2-1.2,2.1
			c-0.2,14.9-0.5,23.7-0.5,23.7c-13,5.5-8.8,6.2-22.2,0.9c0,0-0.9-9.3-2.6-24.1c-0.2-2.2-7.8-4.3-8-6.7c-0.4-4-0.9-8.3-1.3-12.9
			C167,591.1,170.5,591.9,174,592.2z"/>
	</g>
	<g id="KnoechelHautbasis">
		<path class="st1" d="M183.4,614.1c2.9-0.1,5.9-0.2,8.9-0.6c1.9-0.2,3.8-0.8,5.8-1.1c-0.2,14.3-0.5,22.8-0.5,22.8
			c-13,5.5-8.8,6.2-22.2,0.9c0,0-0.9-8.6-2.4-22.4C176.4,614.1,179.9,614.2,183.4,614.1z"/>
		<path class="st1" d="M116.1,613.2c6,0.2,11.9-1.1,17.8-1.4c0.6,14.6,1.1,23.8,1.1,23.8c-10.7,2.9-13.8,3.2-27.2-0.7
			c0-4-0.5-11.5-1.4-22.2C109.6,612.9,112.9,613.1,116.1,613.2z"/>
	</g>
	<g id="Socken">
		<path class="st0" d="M174.1,623.3c0.9,8.1,1.4,12.8,1.4,12.8c13.4,5.4,9.1,4.6,22.2-0.9c0,0,0.1-4.2,0.2-11.7
			C195.7,625.1,175.9,624.7,174.1,623.3z"/>
		<path class="st0" d="M107.3,624.1c0.3,4.8,0.5,8.4,0.5,10.8c13.4,3.9,16.5,3.6,27.2,0.7c0,0-0.2-4.2-0.6-11.3
			C124.7,626.2,115.7,625.7,107.3,624.1z"/>
	</g>
	<g id="Shirtbasis">
		<path class="st5" d="M199.5,196.3c-7.1-3.9-26.5-14.7-33.6-18.4c-1-0.5-2.2-0.7-3.4-0.4c-5.4,1.3-8.3,3.7-14.5,3.5
			c-6.8-0.2-15.1,0.4-21.5-2.8c-1.4-0.7-3-0.7-4.4,0c-9.2,4.7-24.7,12.1-27.4,13.5c-3.8,1.9-1.5,1.6-0.9,16.5
			c0.4,8.5-7.3,119.7-3.8,145.2c1,7.1-5.6,15.1,0.3,16.3c5.5,1.1,27-4.1,53-4.1c25.6,0,43.6,3.4,50.4,3c9.5-0.6,1.4-19,1.5-21.9
			l6.8-145.8C202.1,198.9,201.2,197.2,199.5,196.3z"/>
	</g>
	<g id="fau_BeschnittgruppeSiegel">
		<g id="Beschnittgruppe_Shirt">
			<g>
				<defs>
					<path id="SVGID_1_" d="M90.4,285.4c-0.2,0.7-1.4,41.8-1.3,42.5c3.1,40-3.5,31.1-0.9,40.5c1.7,6.4,24.4-3.6,55.1-2.8l50.7,2.8
						c2.2,0,4.1-1.7,4.2-3.9v-6.9c-0.3-1.7-3.1-9.3-3.1-11l2.3-50.5c-13.5,0.2-29.7-8.2-22.4-58.6l-80.8-35.1L90.4,285.4z"/>
				</defs>
				<clipPath id="SVGID_00000154426515122532945180000007212063844517842615_">
					<use xlink:href="#SVGID_1_"  style="overflow:visible;"/>
				</clipPath>
				<path id="FAU_x5F_Logo_x5F_Shirt" class="st13" style="clip-path:url(#SVGID_00000154426515122532945180000007212063844517842615_);" d="
					M180.6,357l-0.8-0.9l14.3-0.2l0,0.9L180.6,357z M179.9,354.2l-0.1-11.2l-0.8,0l0.2,12.2l0.8,0l8.7-0.1l-0.1-10.4l-0.8,0l0.1,9.4
					L179.9,354.2z M186.1,343.2l0.1,9l-3.2,0l-0.1-7.7l-0.8-0.9l0.1,8.6l-0.8,0l-0.1-9.4l-0.8,0l0.1,9.4l0,0.9l6.3-0.1l-0.1-9
					L186.1,343.2z M189.8,355l4.3-0.1l0-0.9l-3.9,0l0-0.9l3.3,0l-0.8-0.9l-2.5,0l-0.1-7.5l-0.8,0l0.1,10.4L189.8,355z M178.6,309.5
					l9.1-0.1c2.1,0,3.9,1.1,5.4,3.7l0,0c-1.2-1.7-2.6-2.8-4.5-2.8l-9.8,0.1l0,0.9l9.8-0.1c2.8,0,5,2.7,5,6c0,3.4-2,6.1-4.9,6.2
					l-9.1,0.1l0.8,0.9l8.4-0.1c3.3,0,5.7-3.2,5.6-7.1c0-0.1,0-0.9,0-0.9c0-3.8-2.5-7.9-6.6-7.9l-9.1,0.1L178.6,309.5L178.6,309.5z
					 M192.7,317.3c0-2.8-1.8-5.1-4.2-5.1l0,0l-9.1,0.1l0.8,0.9l7.6-0.1c1.5,0,2.6,1.4,2.6,3.2c0,1.8-1,3.3-2.5,3.3l-9.1,0.1l0,0.9
					l9.1-0.1c2,0,3.3-1.9,3.3-4.3c0-1-0.4-2.1-1.1-2.9l0,0c1.2,0.7,1.9,2.1,1.9,3.8c0,2.3-1.4,4.2-3.3,4.3l0,0l-9.8,0.1l0,0.9
					l9.8-0.1l0,0C191,322.4,192.7,320.1,192.7,317.3z M189.2,338.1l4.8,2.3l0-0.9l0,0l0,0l-2.4-1.2l-0.1-7.9l2.3-1.2l0-0.9l-3.1,1.6
					l0.1,8.1l-0.8-0.4l-0.1-8.2l3.9-2l0-0.9l-4.7,2.4L189.2,338.1L189.2,338.1z M178.9,336.9l13.8,6.7l0.7-0.6l-14.5-7.1
					L178.9,336.9z M178.9,333.1l14.3-7.4l-0.7-0.6l-13.6,7.1L178.9,333.1z M188.4,338.7l5.5,2.7l0,0.9l-14.1-6.9l7.7-4l0-0.9
					l-8.6,4.5l0-0.9l9.4-4.9L188.4,338.7z M183.6,334.5l4,2l0-4L183.6,334.5z M187.6,338.3l0-0.9l-4.9-2.4l-0.9,0.5L187.6,338.3z"/>
			</g>
		</g>
	</g>
	<g id="armSchattenShirtschatten" class="st14">
		<path class="st15" d="M189.1,306.3c-6.4-2-8-2.8-13.8-5.9c-9.2-4.9-19.6-12.2-30.6-11.5c-5.2,0.3-10.1,2.3-14.9,4.1
			c-4.9,1.8-10,3.2-15.1,4.3c-7.9,1.8-16.5,3.3-25.1,3.8c0.5-10.2,1.1-20.2,1.6-29.8c8.8-0.9,17.6-1.6,26.5-1.9
			c12.1-0.3,24,0.7,36,2.3c9.2,1.2,18.4,2.3,27.7,1.6c7.6-0.6,14.9-2.5,21.9-5.4l-6.1,40.5C194.3,308.2,195.6,308.4,189.1,306.3z"
			/>
	</g>
	<g id="dekolteeHautbasis">
		<path class="st1" d="M165.7,176.4c-8-7.1,0.4-32.2,0.4-32.2l-29.2,1l-8.3,28.7c0,0-1.7,0.9-4.2,2.2c0,0,3.7,16.4,17.7,16.4
			C156,192.5,165.7,176.4,165.7,176.4z"/>
	</g>
	<g id="KinnschattenHautschatten">
		<path class="st16" d="M146.6,171.8c5.4,0.2,10.7-0.5,16-1.7c-1.9-10.1,3.4-25.9,3.4-25.9l-29.2,1l-6.5,22.3
			C135.6,169.5,140.7,171.6,146.6,171.8z"/>
	</g>
	<path id="fau_MultifunktionsschalBasis" class="st13" d="M113.7,166.1c0,0-5.3,7.8-5.1,10.4s0.9,5.3,0,6.2c-0.9,0.9-2,5.3-1.3,5.8
		s16.2,8.4,31.3,7.6s26-6,31.8-9.1c5.8-3.1,9.8-2.4,9.8-2.4l5.1,2.4c0,0,3.1-2.2,1.3-6.9c-1.8-4.7-2-6-1.8-8.4
		c0.2-2.4,0-4.4-3.6-5.3c-3.6-0.9-34,8.4-44.9,6c-10.9-2.4-15.6-2.7-17.8-3.6C116.3,167.9,116.1,165.9,113.7,166.1z"/>
	<g id="kopf">
		<g id="ohrHautschatten_1_">
			<path class="st17" d="M187,120.6c0,6.1-6.5,11-10.3,11c-3.8,0-3.5-4.9-3.5-11s4.3-11,8.1-11C185.1,109.7,187,114.6,187,120.6
				L187,120.6z"/>
		</g>
		<g id="ohrHautschatten">
			<path class="st17" d="M106.1,120.6c0,6.1,6.5,11,10.3,11c3.8,0,3.5-4.9,3.5-11s-4.3-11-8.1-11
				C108,109.7,106.1,114.6,106.1,120.6L106.1,120.6z"/>
		</g>
		<g id="facials">
			<g id="hautBasis">
				<path class="st18" d="M146.1,74.1c-30.1,0.3-31.6,28.6-31.7,32c0,0.2,0,0.4,0,0.6c0.2,3.1,2.3,32.2,5.2,37.7
					c2.5,4.6,20.6,19.4,27.6,19.4c7,0,24.4-15.3,26.8-19.9c2.8-5.6,4.3-34.7,4.4-37.8c0-0.2,0-0.4,0-0.6
					C178.3,102,176.2,73.8,146.1,74.1z"/>
			</g>
			<g id="hautSchatten">
				<path class="st16" d="M172.6,102.2c-3.2-0.2-6.5-0.4-9.7-0.4c-7.8-0.1-15.6-0.4-23.5-0.5c-8.2-0.2-16.4-0.1-24.5,0
					c1.4-9.1,7.3-26.9,31.2-27.2c26.7-0.3,31.4,21.9,32.2,29.3C176.5,102.6,174.6,102.4,172.6,102.2z"/>
			</g>
			<g id="Augen">
				<path class="st19" d="M160,115.1c-2.1-0.2-3.9,2.1-4.1,5.1c-0.1,3,1.5,5.6,3.6,5.8c2.1,0.2,3.9-2.1,4.1-5.1
					C163.7,117.9,162.1,115.3,160,115.1z"/>
				<path class="st19" d="M132.4,115.4c-2.1-0.2-3.9,2.1-4.1,5.1c-0.1,3,1.5,5.6,3.6,5.8c2.1,0.2,3.9-2.1,4.1-5.1
					C136.1,118.2,134.5,115.6,132.4,115.4z"/>
			</g>
			<g id="Nase">
				<path class="st16" d="M145.9,133.6c-0.5,0.8-0.5,0.7-0.1,1.3c0.2,0.4,0.8,0.9,1.2,1.2c0.7,0.8-2.5,0.6-3.1,0
					c-0.5-0.5-1.6-1.3-1.9-2c-0.3-0.8,0.3-1.1,0.9-1.6c1.6-1.4,2.7-3.2,3.2-5.2C146.3,126.5,147.7,130.7,145.9,133.6z"/>
			</g>
			<path class="st20" d="M137.2,142.6c6.4-0.3,13-0.3,19.7,0c0,0-5,2.2-9.8,2.2C142.4,144.7,137.2,142.6,137.2,142.6z"/>
			<g id="augenbrauen">
				<path class="st2" d="M152.2,107.6c0.2,0,0.4-0.1,0.6-0.1c11.7-2.5,17.7,3.6,17.5,3.4c0.6,0.5,1.3,0.8,1.8,0.8
					c0.5,0,0.4-0.5-0.1-1c0,0.3-4.1-9-18.1-6.4C152.9,104.5,151.5,107.7,152.2,107.6z"/>
				<path class="st2" d="M139.9,107.2c-0.2,0-0.4-0.1-0.5-0.1c-10.5-2.7-16.9,2.8-16.7,2.6c-0.6,0.4-1.4,0.8-1.8,0.7
					c-0.5-0.1-0.4-0.5,0.2-1c-0.1,0.2,5.1-8.1,17.7-5.2C139.6,104.5,140.6,107.3,139.9,107.2z"/>
			</g>
		</g>
		<g id="haarBasis">
			<path class="st2" d="M184.3,100.9c0,0-15.2-1.7-34.3-2l-3.2-21.1l-3.2,21c-10.8,0-22.3,0.5-32.9,2c0,0-1.8-34.5,30.8-39.9
				C173.1,55.8,186.6,76.8,184.3,100.9z"/>
		</g>
		<g id="haarLicht">
			<path class="st21" d="M117.7,88.5c1.7-4.7,4.5-9.1,7.8-12.8c9.4-10.6,25.8-15.3,39.4-11.4c2.8,0.8,5.5,2,8.2,3.4
				c-7.1-6-17.6-8.9-31.7-6.6c-32.7,5.4-30.8,39.9-30.8,39.9c1.8-0.2,3.6-0.5,5.5-0.7C116.1,96.3,116.4,92.3,117.7,88.5z"/>
		</g>
	</g>
	<g id="schuhRechts">
		<g id="schuhAkzentfarbe">
			<path class="st4" d="M201.3,638.6c-1.8-11.9-29.9-9.3-29.9,0.1c0,24-5.4,20.9-5.4,39c0,5.4-0.5,0.7,19.5,0.7
				c20,0,27,6.2,27-0.4c0-17.9-7.3-10.6-9.1-22.5L201.3,638.6z"/>
		</g>
		<g id="schuhAkzentfarbeDunkel">
			<path class="st22" d="M194.6,644.1c3.1,6.1,1.9,13.7,4,20.2c1.9,5.9,6.6,11.9,11.9,16.6c1.4-0.2,2-1,2-2.9
				c0-17.9-7.3-10.6-9.1-22.5l-2.2-16.8c-1.6-10.7-24.2-9.7-28.9-2.6C180.9,635.7,190.3,635.5,194.6,644.1z"/>
		</g>
		<path class="st7" d="M173,649.2c-0.4,1.9,0.5,3.7,1.9,4c1.4,0.4,2.8-0.9,3.1-2.7c0.4-1.9-0.5-3.7-1.9-4
			C174.8,646.1,173.4,647.3,173,649.2z"/>
		<path class="st7" d="M201.6,649.2c0.4,1.9-0.5,3.7-1.9,4c-1.4,0.4-2.8-0.9-3.1-2.7c-0.4-1.9,0.5-3.7,1.9-4
			C199.8,646.1,201.2,647.3,201.6,649.2z"/>
		<path class="st8" d="M198.1,651.3c-0.2,0-0.3,0-0.5-0.1c-7.1-3.6-15.2-3.6-22.3,0c-0.6,0.3-1.3,0-1.6-0.7
			c-0.3-0.7,0-1.5,0.6-1.8c7.7-3.9,16.5-3.9,24.2,0c0.6,0.3,0.9,1.1,0.6,1.8C199,651,198.5,651.3,198.1,651.3z"/>
		<path class="st7" d="M172.7,661.1c-0.4,1.9,0.5,3.7,1.9,4c1.4,0.4,2.8-0.9,3.1-2.7c0.4-1.9-0.5-3.7-1.9-4
			C174.4,658,173,659.2,172.7,661.1z"/>
		<path class="st7" d="M201.9,661.1c0.4,1.9-0.5,3.7-1.9,4c-1.4,0.4-2.8-0.9-3.1-2.7c-0.4-1.9,0.5-3.7,1.9-4
			C200.1,658,201.5,659.2,201.9,661.1z"/>
		<path class="st8" d="M198.1,662.5c-0.2,0-0.3,0-0.5-0.1c-7.1-3.6-15.2-3.6-22.3,0c-0.6,0.3-1.3,0-1.6-0.7
			c-0.3-0.7,0-1.5,0.6-1.8c7.7-3.9,16.5-3.9,24.2,0c0.6,0.3,0.9,1.1,0.6,1.8C199,662.2,198.5,662.5,198.1,662.5z"/>
		<path class="st7" d="M173.1,655c-0.4,1.9,0.5,3.7,1.9,4c1.4,0.4,2.8-0.9,3.1-2.7c0.4-1.9-0.5-3.7-1.9-4
			C174.9,651.9,173.5,653.2,173.1,655z"/>
		<path class="st7" d="M201.4,655c0.4,1.9-0.5,3.7-1.9,4c-1.4,0.4-2.8-0.9-3.1-2.7c-0.4-1.9,0.5-3.7,1.9-4
			C199.7,651.9,201.1,653.2,201.4,655z"/>
		<path class="st8" d="M198.1,656.9c-0.2,0-0.3,0-0.5-0.1c-7.1-3.6-15.2-3.6-22.3,0c-0.6,0.3-1.3,0-1.6-0.7
			c-0.3-0.7,0-1.5,0.6-1.8c7.7-3.9,16.5-3.9,24.2,0c0.6,0.3,0.9,1.1,0.6,1.8C199,656.6,198.5,656.9,198.1,656.9z"/>
		<path class="st7" d="M207.1,663.1c-12.5-4.1-26.9-3.3-39.4,0.9c-0.9,3.3-1.6,7.1-1.6,13.7c0,5.4-0.5,0.7,19.5,0.7
			c20,0,27,6.2,27-0.4C212.6,666.8,209.7,665.4,207.1,663.1z"/>
		<path class="st6" d="M165.6,677.4c-0.2,2-0.3,4.2-0.2,6.7h48.2l-0.3-6.7H165.6z"/>
	</g>
	<g id="shirtaermelBasis_1_">
			<path class="st5" d="M93,192.7c-8.6,4.3-30.7,86.9-21.6,92.1c8.6,4.9,28.5-22.8,25.7-24.6c-2.8-1.7-0.4-17.4-0.8-27.2
				C95.4,208.3,93,192.7,93,192.7z"/>
	</g>
	<g id="shirtaermelSchatten">
			<path class="st23" d="M96.4,233c-0.1-2.6-0.2-5-0.4-7.4c-0.8,5.7-1.5,11.3-2.5,17c-1.2,6.5-3.5,12.6-4.8,19
				c-1,5-1.6,10.1-1.8,15.2c6.5-6.9,11.8-15.6,10.3-16.6C94.4,258.5,96.8,242.8,96.4,233z"/>
	</g>
	<g id="armHautbasis_4_">
			<path class="st1" d="M97.1,260.2C97.1,260.2,97.1,260.2,97.1,260.2c2.8,1.8,55.1,0.5,55.1,0.5l11.2,11.4
				c-46,21.7-83.4,17.6-92,12.7c-3-1.7-2.7-12-0.6-25.2C71.2,258.1,92.6,258.6,97.1,260.2z"/>
	</g>
	<g id="armHautschatten">
			<path class="st16" d="M110.4,265.8c-10.1-0.2-18.4-3.6-20.5-6.6c1,0.2,6.6,0.7,7.2,0.9c0,0,0,0,0.1,0c2.8,1.7,55.1,0.5,55.1,0.5
				l11.2,11.4c-7.6,3.6-14.9,6.4-21.9,8.7C132,273.4,122.1,266,110.4,265.8z"/>
	</g>
	<g id="armHautbasis_3_">
			<path class="st16" d="M152.2,260.7c0,0,24.9-5.6,34.7-3.8c9.8,1.8-8.1,15.3-8.1,15.3l-15.4-0.2L152.2,260.7z"/>
	</g>
	<g id="rucksacktraeger">
		<g id="rucksacktraeger_1_">
			<path id="rucksacktraeger_2_" class="st4" d="M202.7,196.2c0,0-13.1-12.4-21.3-12c-8.2,0.5-20.7,85.9,10.3,113.5
				c0,0,7.5-1.7,12.3-9.9C208.8,279.6,183.4,275.1,202.7,196.2z"/>
		</g>
	</g>
	<g id="armMitAermel">
		<g id="armHautbasis">
			<g id="armHautbasis_1_">
				<path id="armHautbasis_2_" class="st1" d="M118.2,249.2c16.3,2.7,55.3,11.6,62.5,15.4c0,0,15.9-71.5,22.5-68
					c22.8,12.1,8.2,88.8-1.9,98.2c-7.4,6.9-38.1-10.5-68.5-24.3c-8.7-3.9-15.7-6.3-21.3-7.7C112.9,257.9,115,253.2,118.2,249.2z"/>
			</g>
		</g>
		<g id="shirtaermel">
			<g id="shirtaermel_1_">
				<path id="shirtaermelBasis" class="st5" d="M194.4,289.5c-6-4.1-11.8-9-15.9-15c-2.6-3.9-4.1-8.3-5.6-12.7
					c3.6,1.1,6.3,2.1,7.7,2.8c0,0,15.9-71.5,22.5-68c22.3,11.9,16.5,89.7,6.4,101.6C207,296.9,196.8,291.2,194.4,289.5z"/>
			</g>
		</g>
		<g id="handHautbasis">
			<path class="st1" d="M118.2,249.2c0,0-10.5-4.2-14.2-3c-3.7,1.2-14.3,12.8-14.3,12.8s3.1,5.2,21.7,3.7L118.2,249.2z"/>
		</g>
	</g>
</g>
<path id="fauShirtaermelOriginalfarbe" class="st13" d="M214.6,213.8c-0.2-0.6-6.9,0.6-6.9,0.6s3,9.5,3.8,28.1l6.9,1.3
	C218.4,243.7,218,227.7,214.6,213.8z"/>
<path id="fauShirtaermelAkzentfarbe" class="st4" d="M218.5,246.6l-6.8-1.4c0,0-0.6,22.9-2.2,28.1l7.1,2.2
	C216.6,275.4,219.3,258.6,218.5,246.6z"/>
<path id="fauMultifunktionsschalSchatten2" class="st24" d="M108.7,178.2c0,0,14.1,0.4,18.1,2.8c4,2.4,6.4,3.1,8,3.1
	c1.6,0,3.6,1.6,2,1.8c-1.6,0.2-12.9-2.2-16.7-2.7c-3.8-0.4-11.1-2.4-11.1-2.4L108.7,178.2z"/>
<path id="fauMultifunktionsschalSchatten1" class="st24" d="M185,175.7c0,0-5.6-1.4-7.6-0.9c-2,0.4-5.4,4.1-7.6,3.9
	c-2.2-0.2,1,1.2,1.7,1.2c0.7,0,6.9-2.3,8.4-2c1.6,0.2,5.9,0.2,5.9,0.2L185,175.7z"/>
<path id="FAU_x5F_Logo_x5F_Brust" class="st13" d="M104.5,229.7l0.4-0.4v7.2h-0.4V229.7z M105.7,229.4h4.7V229h-5.1v0.4v4.4h4.4
	v-0.4h-4V229.4z M110.3,232.5h-3.8v-1.6h3.2l0.4-0.4h-3.6v-0.4h4v-0.4h-4h-0.4v3.2h3.8L110.3,232.5z M105.3,234.3v2.2h0.4v-2h0.4
	v1.6l0.4-0.4v-1.2h3.2v-0.4h-4.4V234.3z M124.6,229v4.5c0,1.1-0.5,2-1.6,2.7l0,0c0.7-0.6,1.2-1.3,1.2-2.3V229h-0.4v4.9
	c0,1.4-1.2,2.5-2.6,2.5c-1.4,0-2.6-1.1-2.6-2.5v-4.6l-0.4,0.4v4.2c0,1.6,1.3,2.9,3,2.9c0,0,0.4,0,0.4,0c1.6,0,3.4-1.2,3.4-3.3V229
	L124.6,229L124.6,229z M121.2,236c1.2,0,2.2-0.9,2.2-2.1l0,0v-4.6l-0.4,0.4v3.8c0,0.8-0.6,1.3-1.4,1.3c-0.8,0-1.4-0.5-1.4-1.3V229
	h-0.4v4.5c0,1,0.8,1.7,1.8,1.7c0.4,0,0.9-0.2,1.2-0.5l0,0c-0.3,0.6-0.9,0.9-1.6,0.9c-1,0-1.8-0.7-1.8-1.7l0,0V229H119v4.9l0,0
	C119.1,235.1,120,236,121.2,236z M112.4,234.1l-1,2.4h0.4l0,0l0,0l0.5-1.2h3.3l0.5,1.2h0.4l-0.7-1.6h-3.4l0.2-0.4h3.5l0.8,2h0.4
	l-1-2.4L112.4,234.1L112.4,234.1z M113,229l-2.9,6.9l0.3,0.3l3-7.2H113z M114.6,229l3,7.2l0.3-0.3L115,229H114.6z M112.2,233.7
	l-1.2,2.8h-0.4l3-7l1.6,3.9h0.4l-1.8-4.3h0.4l2,4.7H112.2z M114,231.3l-0.8,2h1.7L114,231.3z M112.4,233.3h0.4l1-2.5l-0.2-0.5
	L112.4,233.3z"/>
</svg>
