<?xml version="1.0" encoding="utf-8"?>
<!-- Generator: Adobe Illustrator 25.2.1, SVG Export Plug-In . SVG Version: 6.00 Build 0)  -->
<svg version="1.1" id="Gruppe_1" xmlns="http://www.w3.org/2000/svg" xmlns:xlink="http://www.w3.org/1999/xlink" x="0px" y="0px"
	 viewBox="0 0 4096 1080" style="" preserveAspectRatio="xMidYMid slice">
<image style="overflow:visible;" width="24022" height="2193" id="boden" xlink:href="67538665.jpg"  transform="matrix(0.24 0 0 0.24 -998.16 837.84)">
</image>
<image style="overflow:visible;" width="4105" height="1811" id="glaswand" xlink:href="67538667.png"  transform="matrix(1 0 0 1 -3 -944)">
</image>
<image style="overflow:visible;" width="890" height="613" id="wand" xlink:href="67538665.png"  transform="matrix(1 0 0 1 1426 263)">
</image>
<image style="overflow:visible;opacity:0.5;" width="890" height="613" id="wandakzent" xlink:href="67538663.png"  transform="matrix(1 0 0 1 1426 263)">
</image>
<image style="overflow:visible;" width="530" height="203" id="Pultbasis" xlink:href="6753866D.png"  transform="matrix(1 0 0 1 1423 734)">
</image>
<image style="overflow:visible;" width="530" height="203" id="Pultbasisakzentnurseiten" xlink:href="6753866F.png"  transform="matrix(1 0 0 1 1423 734)">
</image>
<image style="overflow:visible;opacity:0.5;" width="530" height="203" id="Pultbasisakzent" xlink:href="67538662.png"  transform="matrix(1 0 0 1 1423 734)">
</image>
<image style="overflow:visible;" width="530" height="203" id="pultbasislogo" xlink:href="67538661.png"  transform="matrix(1 0 0 1 1423 734)">
</image>
<image style="overflow:visible;" width="543" height="23" id="Pultplatte" xlink:href="67538666.png"  transform="matrix(1 0 0 1 1417 722)">
</image>
<image style="overflow:visible;" width="81" height="353" id="sociamediapanel" xlink:href="EF126CAE.png"  transform="matrix(1 0 0 1 1315 542)">
</image>
<g id="sociamediapanelglas">

		<image style="overflow:visible;" width="56" height="283" id="image" xlink:href="EF126CA9.png"  transform="matrix(1 0 0 1 1332 555)">
	</image>
</g>
<g id="socialmediapanelglasakzent">

		<image style="overflow:visible;" width="56" height="283" id="image_2_" xlink:href="EF126CAA.png"  transform="matrix(1 0 0 1 1332 555)">
	</image>
</g>
<image style="overflow:visible;" width="171" height="446" id="prospekthalter" xlink:href="EF126CA8.png"  transform="matrix(1 0 0 1 2324 423)">
</image>
<image style="overflow:visible;" width="129" height="189" id="glasflyer" xlink:href="EF126CA6.png"  transform="matrix(1 0 0 1 2352 493)">
</image>
<image style="overflow:visible;opacity:0.5;" width="128" height="188" id="glasflyerakzent" xlink:href="EF126CB9.png"  transform="matrix(1 0 0 1 2352 493)">
</image>
<image style="overflow:visible;" width="223" height="449" id="rollupplakat" xlink:href="EF126CBA.png"  transform="matrix(1 0 0 1 1085 445)">
</image>
<image style="overflow:visible;" width="269" height="487" id="rollupframe" xlink:href="EF126CB8.png"  transform="matrix(1 0 0 1 1062 445)">
</image>
<image style="overflow:visible;" width="232" height="232" id="topf" xlink:href="EF126CBE.png"  transform="matrix(1 0 0 1 2508 690)">
</image>
<image style="overflow:visible;opacity:0.5;" width="232" height="232" id="topfakzent" xlink:href="EF126CBB.png"  transform="matrix(1 0 0 1 2508 690)">
</image>
<image style="overflow:visible;" width="868" height="746" id="Palme" xlink:href="EF126CDD.png"  transform="matrix(1 0 0 1 2209 -43)">
</image>
</svg>
