<?xml version="1.0" encoding="utf-8"?>
<!-- Generator: Adobe Illustrator 25.2.1, SVG Export Plug-In . SVG Version: 6.00 Build 0)  -->
<svg version="1.1" id="Ebene_1" xmlns="http://www.w3.org/2000/svg" xmlns:xlink="http://www.w3.org/1999/xlink" x="0px" y="0px"
	 viewBox="0 0 4096 1080" style="enable-background:new 0 0 4096 1080;" xml:space="preserve">
<image style="overflow:visible;" id="boden" xlink:href="8DF2609A.png"  transform="matrix(1 0 0 1 0 956)">
</image>
<image style="overflow:visible;" id="wand" xlink:href="8DF2609E.png"  transform="matrix(1 0 0 1 1452 203)">
</image>
<image style="overflow:visible;opacity:0.5;" id="wandakzent" xlink:href="8DF26099.png"  transform="matrix(1 0 0 1 1452 203)">
</image>
<image style="overflow:visible;" id="socialmediapanel" xlink:href="8DF2609B.png"  transform="matrix(1 0 0 1 1479 594)">
</image>
<image style="overflow:visible;" id="prospekthalter" xlink:href="8DF26098.png"  transform="matrix(1 0 0 1 2614 402)">
</image>
<image style="overflow:visible;" id="pultbasis" xlink:href="8DF260A6.png"  transform="matrix(1 0 0 1 1618 792)">
</image>
<image style="overflow:visible;opacity:0.5;" id="pultbasisakzent" xlink:href="8DF260A9.png"  transform="matrix(1 0 0 1 1618 792)">
</image>
<image style="overflow:visible;" id="pultplatte" xlink:href="8DF260AA.png"  transform="matrix(1 0 0 1 1611 778)">
</image>
<image style="overflow:visible;" id="rollupplakat" xlink:href="8DF260A8.png"  transform="matrix(1 0 0 1 1088 383)">
</image>
<image style="overflow:visible;opacity:0.5;" id="rollupplakatakzent" xlink:href="8407F69D.png"  transform="matrix(1 0 0 1 1088 383)">
</image>
<image style="overflow:visible;" id="rollupframe" xlink:href="8407F693.png"  transform="matrix(1 0 0 1 1072 383)">
</image>
<image style="overflow:visible;" id="topf" xlink:href="8407F695.png"  transform="matrix(1 0 0 1 2843 790)">
</image>
<image style="overflow:visible;" id="Palme" xlink:href="8407F697.png"  transform="matrix(1 0 0 1 2782 134)">
</image>
</svg>
