<?xml version="1.0" encoding="utf-8"?>
<!-- Generator: Adobe Illustrator 25.2.1, SVG Export Plug-In . SVG Version: 6.00 Build 0) -->
<svg version="1.1" id="Gruppe_1" xmlns="http://www.w3.org/2000/svg" xmlns:xlink="http://www.w3.org/1999/xlink" x="0px" y="0px"
	 viewBox="0 0 4096 1080" style="display:none;" preserveAspectRatio="xMidYMin slice">
	<defs>
		<symbol id="floor">
			<image style="overflow:visible;" id="boden" xlink:href="8DF2609A.png" transform="matrix(1 0 0 1 0 956)">
			</image>
		</symbol>
		<symbol id="backwall">
			<image style="overflow:visible;" id="wand" xlink:href="8DF2609E.png" transform="matrix(1 0 0 1 1452 203)">
			</image>
		</symbol>
		<symbol id="backwall-color">
			<image style="overflow:visible;opacity:0.5;" id="wandakzent" xlink:href="8DF26099_schwarz.png" transform="matrix(1 0 0 1 1452 203)" >
			</image>
		</symbol>
		<symbol id="flyer_display">
			<image style="overflow:visible;" id="prospekthalter" xlink:href="8DF26098.png" transform="matrix(1 0 0 1 2614 402)">
			</image>
		</symbol>
		<symbol id="flyer_default">
			<path fill="#e6e6e6" transform="translate(12, 35) scale(.23)" d="M542.22 32.05c-54.8 3.11-163.72 14.43-230.96 55.59-4.64 2.84-7.27 7.89-7.27 13.17v363.87c0 11.55 12.63 18.85 23.28 13.49 69.18-34.82 169.23-44.32 218.7-46.92 16.89-.89 30.02-14.43 30.02-30.66V62.75c.01-17.71-15.35-31.74-33.77-30.7zM264.73 87.64C197.5 46.48 88.58 35.17 33.78 32.05 15.36 31.01 0 45.04 0 62.75V400.6c0 16.24 13.13 29.78 30.02 30.66 49.49 2.6 149.59 12.11 218.77 46.95 10.62 5.35 23.21-1.94 23.21-13.46V100.63c0-5.29-2.62-10.14-7.27-12.99z" />
		</symbol>
		<symbol id="table">
			<image style="overflow:visible;" id="pultbasis" xlink:href="8DF260A6.png" transform="matrix(1 0 0 1 1618 792)">
			</image>
			<image style="overflow:visible;opacity:0.5;" id="pultbasisakzent" xlink:href="8DF260A9.png" transform="matrix(1 0 0 1 1618 792)">
			</image>
			<image style="overflow:visible;" id="pultplatte" xlink:href="8DF260AA.png" transform="matrix(1 0 0 1 1611 778)">
			</image>
		</symbol>
		<symbol id="rollup">
			<image style="overflow:visible;" id="rollupplakat" xlink:href="8DF260A8.png" transform="matrix(1 0 0 1 1088 383)">
			</image>
			<image style="overflow:visible;opacity:0.5;" id="rollupplakatakzent" xlink:href="8407F69D.png" transform="matrix(1 0 0 1 1088 383)">
			</image>
			<image style="overflow:visible;" id="rollupframe" xlink:href="8407F693.png" transform="matrix(1 0 0 1 1072 383)">
			</image>
		</symbol>
		<symbol id="some_panel">
			<image style="overflow:visible;" id="socialmediapanel" xlink:href="8DF2609B.png" transform="matrix(1 0 0 1 1479 594)">
			</image>
		</symbol>
		<symbol id="plant1">
			<image style="overflow:visible;" id="topf" xlink:href="../template-assets/pot.png" transform="matrix(1 0 0 1 2843 790)">
			</image>
			<image style="overflow:visible;" id="palme1" xlink:href="../template-assets/palme1.png" transform="matrix(1 0 0 1 2782 134)">
			</image>
		</symbol>
		<symbol id="plant2">
			<image style="overflow:visible;" id="topf" xlink:href="../template-assets/pot.png" transform="matrix(1 0 0 1 2843 790)">
			</image>
			<image style="overflow:visible;" id="palme2" xlink:href="../template-assets/palme2.png" transform="translate(2480, 26) scale(1.3)">
			</image>
		</symbol>
		<symbol id="tablet">
			<image style="overflow:visible;" width="173" height="102" id="tablet" xlink:href="../template-assets/tablet.png" transform="matrix(1 0 0 1 1696.5 680)"></image>
			<rect id="tabletbildschirm" x="1705.2" y="689" class="st0" width="153.5" height="85.6" style="opacity:0.7;fill:#FFFFFF;"/>
			<rect id="tabletbildschirmakzent" x="1705.2" y="689" class="st1" width="153.5" height="85.6" style="opacity:0.5;fill:#FFFFFF;"/>
			<path class="icon-video" fill="#333" transform="translate(1755, 695) scale(.09)" d="M336.2 64H47.8C21.4 64 0 85.4 0 111.8v288.4C0 426.6 21.4 448 47.8 448h288.4c26.4 0 47.8-21.4 47.8-47.8V111.8c0-26.4-21.4-47.8-47.8-47.8zm189.4 37.7L416 177.3v157.4l109.6 75.5c21.2 14.6 50.4-.3 50.4-25.8V127.5c0-25.4-29.1-40.4-50.4-25.8z"/>
			<text x="1734" y="763" font-size="24" fill="#333">Live Chat</text>
		</symbol>
		<symbol id="video-play"><path d="M371.7 238l-176-107c-15.8-8.8-35.7 2.5-35.7 21v208c0 18.4 19.8 29.8 35.7 21l176-101c16.4-9.1 16.4-32.8 0-42zM504 256C504 119 393 8 256 8S8 119 8 256s111 248 248 248 248-111 248-248zm-448 0c0-110.5 89.5-200 200-200s200 89.5 200 200-89.5 200-200 200S56 366.5 56 256z"/></symbol>
	</defs>
</svg>
