<svg class="expo-booth" viewBox="0 0 1920 1080" version="1.1" xmlns="http://www.w3.org/2000/svg" xmlns:xlink="http://www.w3.org/1999/xlink">
	<g id="layer1" transform="matrix(3.779528 0 0 3.779528 115.22985 -1.496521)">
		<g id="backwall-group" transform="matrix(0.264583 0 0 0.264583 -30.487894 0.395954)">
			<rect id="backwall" fill="#dedede" x="269.92" y="72.38" width="1394.62" height="780.92"/>
		</g>
		<g id="table">
			<rect fill="#7f7f7f" x="148.17" y="169.33" width="201.08" height="105.83"/>
		</g>
		<g id="rect1408">
			<rect fill="#7f7f7f" x="21.17" y="116.42" width="63.5" height="148.17"/>
		</g>
		<g id="video1">
			<rect fill="#7f7f7f" x="105.83" y="42.33" width="95.25" height="63.5"/>
		</g>
		<g id="video2">
			<rect fill="#7f7f7f" x="222.25" y="42.33" width="105.83" height="63.5"/>
		</g>
		<g id="social-media">
			<g id="panel">
				<rect fill="#7f7f7f" x="381" y="116.42" width="42.33" height="158.75"/>
			</g>
			<g id="facebook" transform="matrix(1 0 0 1 0.791901 34.843338)">
				<g id="Facebook">
					<path d="M390.35 123.31 C388.59 123.31 387.17 124.73 387.17 126.48 L387.17 149.77 C387.17 151.52 388.59 152.94 390.35 152.94 L413.63 152.94 C415.38 152.94 416.8 151.52 416.8 149.77 L416.8 126.48 C416.8 124.73 415.38 123.31 413.63 123.31 Z M406.05 129.53 C407.31 129.53 408.43 130.05 409.22 130.9 C410.2 130.71 411.14 130.35 411.97 129.85 C411.65 130.86 410.97 131.7 410.07 132.24 C410.94 132.15 411.79 131.9 412.57 131.56 C411.98 132.43 411.24 133.2 410.39 133.81 C410.41 134 410.41 134.19 410.41 134.37 C410.41 140.11 406.04 146.72 398.06 146.72 C395.6 146.72 393.32 146 391.4 144.77 C391.75 144.81 392.09 144.83 392.45 144.83 C394.48 144.83 396.34 144.14 397.83 142.97 C395.93 142.93 394.33 141.68 393.78 139.96 C394.45 140.06 395.05 140.06 395.74 139.88 C393.75 139.48 392.26 137.73 392.26 135.62 L392.26 135.57 C392.84 135.9 393.51 136.09 394.22 136.12 C392.97 135.29 392.29 134.01 392.29 132.51 C392.29 131.7 392.5 130.96 392.88 130.32 C395.01 132.95 398.22 134.67 401.82 134.86 C401.21 131.91 403.41 129.53 406.05 129.53 Z"/>
				</g>
			</g>
			<g id="twitter">
				<g id="Twitter">
					<path d="M390.35 123.31 C388.59 123.31 387.17 124.73 387.17 126.48 L387.17 149.77 C387.17 151.52 388.59 152.94 390.35 152.94 L413.63 152.94 C415.38 152.94 416.8 151.52 416.8 149.77 L416.8 126.48 C416.8 124.73 415.38 123.31 413.63 123.31 Z M406.05 129.53 C407.31 129.53 408.43 130.05 409.22 130.9 C410.2 130.71 411.14 130.35 411.97 129.85 C411.65 130.86 410.97 131.7 410.07 132.24 C410.94 132.15 411.79 131.9 412.57 131.56 C411.98 132.43 411.24 133.2 410.39 133.81 C410.41 134 410.41 134.19 410.41 134.37 C410.41 140.11 406.04 146.72 398.06 146.72 C395.6 146.72 393.32 146 391.4 144.77 C391.75 144.81 392.09 144.83 392.45 144.83 C394.48 144.83 396.34 144.14 397.83 142.97 C395.93 142.93 394.33 141.68 393.78 139.96 C394.45 140.06 395.05 140.06 395.74 139.88 C393.75 139.48 392.26 137.73 392.26 135.62 L392.26 135.57 C392.84 135.9 393.51 136.09 394.22 136.12 C392.97 135.29 392.29 134.01 392.29 132.51 C392.29 131.7 392.5 130.96 392.88 130.32 C395.01 132.95 398.22 134.67 401.82 134.86 C401.21 131.91 403.41 129.53 406.05 129.53 Z"/>
				</g>
			</g>
		</g>
	</g>
</svg>
