<svg class="expo-booth template1" style="display: none;" viewBox="0 0 1920 1080" version="1.1" xmlns="http://www.w3.org/2000/svg" xmlns:xlink="http://www.w3.org/1999/xlink">
	<defs>
		<symbol id="booth_logo">
			<image preserveAspectRatio="xMidYMin" width="400" height="240" xlink:href="PLACEHOLDER_LOGO_URL"/>
		</symbol>
		<rect id="backwall" width="1800" height="780"/>
		<rect id="rollup" fill="#8f8f8f" width="320" height="800"/>
		<rect id="video" fill="#7f7f7f" width="400" height="240"/>
		<rect id="table" fill="#7f7f7f" width="800" height="400" x="600" y="550"/>
		<rect id="flyer_stand" fill="#7f7f7f" width="200" height="600"/>
		<rect id="flyer" fill="#dedede" width="180" height="270"/>
		<rect id="some_panel" fill="#7f7f7f" width="120" height="500"/>
		<rect id="twitter" fill="#00acee" width="80" height="80"/>
		<rect id="facebook" fill="#39569c" width="80" height="80"/>
		<rect id="instagram" fill="#F58529" width="80" height="80"/>
		<rect id="youtube" fill="#b2071d" width="80" height="80"/>
		<symbol id="owl" x="1100" y="360">
			<g>
				<ellipse style="fill:#9C8472;" cx="102.989" cy="120.685" rx="55.332" ry="76.156"/>
				<g>
					<path style="fill:#87705A;" d="M39.163,124.124c0,23.721,8.021,45.026,20.76,59.7c16.632-12.247,28.149-38.68,28.149-69.33
				c0-24.012-7.071-45.434-18.13-59.479C51.529,68.943,39.163,94.67,39.163,124.124z"/>
					<path style="fill:#87705A;" d="M166.816,124.124c0,23.721-8.021,45.026-20.76,59.7c-16.633-12.247-28.149-38.68-28.149-69.33
				c0-24.012,7.071-45.434,18.13-59.479C154.45,68.943,166.816,94.67,166.816,124.124z"/>
				</g>
				<g>
					<g>
						<g>
							<path style="fill:#FFC061;" d="M81.309,201.876c0,2.266-1.837,4.103-4.103,4.103l0,0c-2.266,0-4.102-1.837-4.102-4.103v-15.291
						c0-2.266,1.837-4.103,4.102-4.103l0,0c2.266,0,4.103,1.837,4.103,4.103V201.876z"/>
							<path style="opacity:0.1;fill:#FFFFFF;" d="M77.206,182.482c-2.266,0-4.102,1.837-4.102,4.103v15.291
						c0,2.266,1.837,4.103,4.102,4.103V182.482z"/>
						</g>
						<g>
							<path style="fill:#FFC061;" d="M97.719,201.876c0,2.266-1.837,4.103-4.103,4.103l0,0c-2.266,0-4.102-1.837-4.102-4.103v-15.291
						c0-2.266,1.837-4.103,4.102-4.103l0,0c2.266,0,4.103,1.837,4.103,4.103V201.876z"/>
							<path style="opacity:0.1;fill:#FFFFFF;" d="M93.616,182.482c-2.266,0-4.102,1.837-4.102,4.103v15.291
						c0,2.266,1.837,4.103,4.102,4.103V182.482z"/>
						</g>
						<g>
							<path style="fill:#FFC061;" d="M89.514,201.876c0,2.266-1.837,4.103-4.103,4.103l0,0c-2.266,0-4.103-1.837-4.103-4.103v-15.291
						c0-2.266,1.837-4.103,4.103-4.103l0,0c2.266,0,4.103,1.837,4.103,4.103V201.876z"/>
							<path style="opacity:0.1;fill:#FFFFFF;" d="M85.411,182.482c-2.266,0-4.103,1.837-4.103,4.103v15.291
						c0,2.266,1.837,4.103,4.103,4.103V182.482z"/>
						</g>
					</g>
					<g>
						<g>
							<path style="fill:#FFC061;" d="M116.464,201.876c0,2.266-1.837,4.103-4.103,4.103l0,0c-2.266,0-4.103-1.837-4.103-4.103
						v-15.291c0-2.266,1.837-4.103,4.103-4.103l0,0c2.266,0,4.103,1.837,4.103,4.103V201.876z"/>
							<path style="opacity:0.1;fill:#FFFFFF;" d="M112.362,182.482c-2.266,0-4.103,1.837-4.103,4.103v15.291
						c0,2.266,1.837,4.103,4.103,4.103V182.482z"/>
						</g>
						<g>
							<path style="fill:#FFC061;" d="M132.875,201.876c0,2.266-1.837,4.103-4.103,4.103l0,0c-2.266,0-4.102-1.837-4.102-4.103
						v-15.291c0-2.266,1.837-4.103,4.102-4.103l0,0c2.266,0,4.103,1.837,4.103,4.103V201.876z"/>
							<path style="opacity:0.1;fill:#FFFFFF;" d="M128.772,182.482c-2.266,0-4.102,1.837-4.102,4.103v15.291
						c0,2.266,1.837,4.103,4.102,4.103V182.482z"/>
						</g>
						<g>
							<path style="fill:#FFC061;" d="M124.669,201.876c0,2.266-1.836,4.103-4.103,4.103l0,0c-2.266,0-4.103-1.837-4.103-4.103
						v-15.291c0-2.266,1.837-4.103,4.103-4.103l0,0c2.267,0,4.103,1.837,4.103,4.103V201.876z"/>
							<path style="opacity:0.1;fill:#FFFFFF;" d="M120.567,182.482c-2.266,0-4.103,1.837-4.103,4.103v15.291
						c0,2.266,1.837,4.103,4.103,4.103V182.482z"/>
						</g>
					</g>
				</g>
				<g>
					<g>
						<g>
							<circle style="fill:#6E5B4B;" cx="73.543" cy="46.063" r="31.668"/>
						</g>
						<g>
							<circle style="fill:#9C8472;" cx="73.543" cy="46.063" r="21.161"/>
						</g>
						<g>
							<circle style="fill:#FFD375;" cx="73.543" cy="46.063" r="15.448"/>
						</g>
						<g>
							<circle style="fill:#5E4E46;" cx="73.543" cy="46.063" r="8.651"/>
						</g>
						<circle style="fill:#FFFFFF;" cx="67.007" cy="40.388" r="3.534"/>
					</g>
					<g>
						<g>
							<circle style="fill:#6E5B4B;" cx="132.435" cy="46.063" r="31.668"/>
						</g>
						<g>
							<circle style="fill:#9C8472;" cx="132.436" cy="46.063" r="21.161"/>
						</g>
						<g>
							<circle style="fill:#FFD375;" cx="132.436" cy="46.063" r="15.449"/>
						</g>
						<g>
							<circle style="fill:#5E4E46;" cx="132.436" cy="46.063" r="8.651"/>
						</g>
						<circle style="fill:#FFFFFF;" cx="125.899" cy="40.388" r="3.534"/>
					</g>
				</g>
				<path style="fill:#FFAE33;" d="M102.989,57.07c-5.427,0-10.543,7.831-10.543,7.831c0,11.885,10.543,19.171,10.543,19.171
			s10.544-7.222,10.544-19.107C113.533,64.965,108.417,57.07,102.989,57.07z"/>
				<g>
					<path style="fill:#877665;" d="M102.989,35.192c0,0-6.918-18.179-20.795-18.179c-6.079,0-14.113,0-18.721,0
				c-4.607,0-15.816-6.38-15.816-17.012c0,0,28.221,0,36.491,0C96.199,0.001,102.989,15.123,102.989,35.192z"/>
					<path style="fill:#877665;" d="M102.989,35.192c0,0,6.919-18.179,20.795-18.179c6.079,0,14.113,0,18.721,0
				c4.607,0,15.816-6.38,15.816-17.012c0,0-28.222,0-36.491,0C109.78,0.001,102.989,15.123,102.989,35.192z"/>
				</g>
			</g>
			<path style="opacity:0.1;fill:#FFCE99;" d="M102.989,34.414c-0.003-0.007-0.006-0.014-0.008-0.021
		C102.802,14.724,96.038,0,84.148,0c-8.27,0-36.491,0-36.491,0c0,9.368,8.698,15.432,13.919,16.743
		C50.021,21.464,41.876,32.81,41.876,46.063c0,10.368,4.983,19.571,12.683,25.348c-9.585,14.087-15.396,32.523-15.396,52.712
		c0,23.721,8.021,45.026,20.76,59.7c2.304-1.697,4.506-3.675,6.597-5.891c2.156,2.604,4.459,4.978,6.892,7.101
		c-0.196,0.479-0.308,1.002-0.308,1.551v15.291c0,0.85,0.258,1.639,0.701,2.294c0.737,1.091,1.986,1.809,3.402,1.809
		c2.266,0,4.103-1.837,4.103-4.103c0,0.85,0.258,1.639,0.701,2.294c0.737,1.091,1.986,1.809,3.402,1.809
		c2.266,0,4.103-1.837,4.103-4.103c0,0.566,0.115,1.106,0.322,1.597c0.161,0.38,0.391,0.718,0.652,1.029
		c0.17,0.201,0.355,0.384,0.56,0.549c0.164,0.133,0.336,0.253,0.52,0.359c0.605,0.352,1.298,0.568,2.048,0.568
		c2.266,0,4.103-1.837,4.103-4.103v-5.388c1.735,0.226,3.492,0.353,5.27,0.353V34.414z"/>
		</symbol>
		<symbol id="plant1" viewBox="0 0 30 30">
			<polygon style="fill:#AF8066;" points="144.188,503.322 369.815,503.322 369.815,329.763 144.188,329.763 	"/>
			<polygon style="fill:#D9AA94;" points="369.815,407.864 309.069,468.61 257.001,416.542 204.934,468.61 144.188,407.864
		144.188,355.797 204.934,416.542 257.001,364.475 309.069,416.542 369.815,355.797 	"/>
			<path style="fill:#F0EDE0;" d="M413.205,512H100.798c-4.79,0-8.678-3.888-8.678-8.678s3.888-8.678,8.678-8.678h312.407
		c4.79,0,8.678,3.888,8.678,8.678S417.995,512,413.205,512"/>
			<g>
				<path style="fill:#5ABA63;" d="M294.734,102.357c5.068,31.709,6.803,66.187,4.929,99.293
			c16.722-28.273,36.118-52.103,56.129-71.411c8.565-47.633,16.957-91.848,40.057-121.561
			C371.777,8.679,327.901,43.321,294.734,102.357"/>
				<path style="fill:#5ABA63;" d="M218.882,102.037C185.759,43.235,142.126,8.68,118.157,8.68
			c23.049,29.653,31.458,73.858,40.005,121.518c20.124,19.413,39.632,43.407,56.415,71.897
			C212.435,168.615,213.962,133.833,218.882,102.037"/>
			</g>
			<g>
				<path style="fill:#91CF96;" d="M187.919,295.051h44.83c-10.049-26.633-16.011-59.158-18.18-93.089
			C156.105,102.825,64.24,58.62,31.368,69.424C94.049,111.616,116.108,227.528,187.919,295.051"/>
				<path style="fill:#91CF96;" d="M299.674,201.521c-1.927,34.295-7.741,67.02-17.746,93.531h44.145
			c71.819-67.523,93.878-183.435,156.559-225.627C449.803,58.63,358.155,102.688,299.674,201.521"/>
				<path style="fill:#91CF96;" d="M281.95,295.051C314.596,208.479,302.525,55.478,257,0c-45.802,52.276-57.7,206.345-24.272,295.051
			H281.95z"/>
			</g>
			<g>
				<path style="fill:#5ABA63;" d="M257.001,303.729c-4.79,0-8.678-3.888-8.678-8.678V104.136c0-4.79,3.888-8.678,8.678-8.678
			c4.79,0,8.678,3.888,8.678,8.678v190.915C265.679,299.841,261.792,303.729,257.001,303.729"/>
				<path style="fill:#5ABA63;" d="M232.752,295.051c-1.935-5.12-3.671-10.518-5.302-16.046
			c-28.039-30.33-46.41-68.487-64.121-105.594c-12.271-25.687-24.064-50.289-38.504-71.099
			c-10.483-7.532-20.74-13.737-30.564-18.796c-1.666,3.193-1.319,7.194,1.302,9.954c20.879,22.051,36.04,53.803,52.103,87.422
			c19.126,40.04,39.025,81.252,71.194,114.159H232.752z"/>
				<path style="fill:#5ABA63;" d="M354.752,174.983c-19.144,36.421-38.964,73.902-67.636,104.309
			c-1.597,5.432-3.289,10.735-5.181,15.759h14.024c32.343-32.794,53.647-72.973,74.162-111.998
			c21.66-41.22,42.123-80.158,72.496-100.612c3.315-2.23,4.443-6.326,3.22-9.945c-11.42,3.619-24.168,9.442-37.584,17.382
			C387.468,112.884,371.422,143.248,354.752,174.983"/>
			</g>
			<polygon style="fill:#D9AA94;" points="135.51,329.763 378.493,329.763 378.493,295.051 135.51,295.051 	"/>
		</symbol>
		<symbol id="plant2" viewBox="0 0 59 59" x="80" y="550" style="enable-background:new 0 0 59 59;" xml:space="preserve">
<circle style="fill:#23A24D;stroke:#23A24D;stroke-width:2;stroke-linecap:round;stroke-miterlimit:10;" cx="29.5" cy="7" r="6"/>
			<circle style="fill:#23A24D;stroke:#23A24D;stroke-width:2;stroke-linecap:round;stroke-miterlimit:10;" cx="38.5" cy="19" r="4"/>
			<circle style="fill:#23A24D;stroke:#23A24D;stroke-width:2;stroke-linecap:round;stroke-miterlimit:10;" cx="20.5" cy="17" r="4"/>
			<circle style="fill:#23A24D;stroke:#23A24D;stroke-width:2;stroke-linecap:round;stroke-miterlimit:10;" cx="38.5" cy="30" r="4"/>
			<circle style="fill:#23A24D;stroke:#23A24D;stroke-width:2;stroke-linecap:round;stroke-miterlimit:10;" cx="20.5" cy="29" r="4"/>
			<path style="fill:#6B5B4B;" d="M36.793,30.293L32.086,35H30.5v-9h2c0.13,0,0.26-0.027,0.382-0.077
	c0.123-0.051,0.233-0.124,0.326-0.217l4.999-4.999c0.391-0.391,0.391-1.023,0-1.414s-1.023-0.391-1.414,0L32.086,24H30.5V8
	c0-0.553-0.448-1-1-1s-1,0.447-1,1v14h-1.586l-4.707-4.707c-0.391-0.391-1.023-0.391-1.414,0s-0.391,1.023,0,1.414l4.999,4.999
	c0.092,0.093,0.203,0.166,0.326,0.217C26.24,23.973,26.37,24,26.5,24h2v10h-1.586l-4.707-4.707c-0.391-0.391-1.023-0.391-1.414,0
	s-0.391,1.023,0,1.414l4.999,4.999c0.092,0.093,0.203,0.166,0.326,0.217C26.24,35.973,26.37,36,26.5,36h2v3c0,0.553,0.448,1,1,1
	s1-0.447,1-1v-2h2c0.13,0,0.26-0.027,0.382-0.077c0.123-0.051,0.233-0.124,0.326-0.217l4.999-4.999c0.391-0.391,0.391-1.023,0-1.414
	S37.184,29.902,36.793,30.293z"/>
			<rect x="17.5" y="39" style="fill:#D4DDE1;" width="24" height="6"/>
			<polygon style="fill:#C7C7C7;" points="34.885,59 24.115,59 19.5,45 39.5,45 "/>
			<path style="fill:#FFFFFF;" d="M30.5,49h-6c-0.552,0-1-0.447-1-1s0.448-1,1-1h6c0.552,0,1,0.447,1,1S31.052,49,30.5,49z"/>
			<path style="fill:#FFFFFF;" d="M33.5,49c-0.26,0-0.52-0.11-0.71-0.29c-0.18-0.19-0.29-0.45-0.29-0.71c0-0.271,0.11-0.521,0.29-0.71
	c0.38-0.37,1.05-0.37,1.42,0c0.18,0.18,0.29,0.439,0.29,0.71c0,0.26-0.11,0.52-0.29,0.71C34.02,48.89,33.76,49,33.5,49z"/>
			<path style="fill:#FFFFFF;" d="M29.5,52h-2c-0.552,0-1-0.447-1-1s0.448-1,1-1h2c0.552,0,1,0.447,1,1S30.052,52,29.5,52z"/>
			<path style="fill:#FFFFFF;" d="M24.5,52c-0.26,0-0.52-0.11-0.71-0.29c-0.18-0.19-0.29-0.44-0.29-0.71c0-0.26,0.11-0.521,0.29-0.71
	c0.37-0.37,1.05-0.37,1.42,0c0.18,0.189,0.29,0.45,0.29,0.71c0,0.27-0.11,0.52-0.3,0.71C25.02,51.89,24.76,52,24.5,52z"/>
		</symbol>
	</defs>
</svg>
