<svg xmlns="http://www.w3.org/2000/svg" viewBox="0 0 438 438">
  <g transform="matrix(1 0 0 1 -5 -123)">
    <path d="M240.97 130.52 L435.31 324.87 C444.69 334.24 444.69 349.44 435.31 358.81 L412.65 381.47 C403.29 390.83 388.12 390.85 378.75 381.51 L224 227.49 L69.25 381.52 C59.88 390.85 44.71 390.83 35.35 381.48 L12.69 358.81 C3.31 349.44 3.31 334.24 12.69 324.87 L207.03 130.52 C216.4 121.15 231.6 121.15 240.97 130.52 Z"/>
    <g transform="matrix(1 0 0 1 0 171)">
      <path d="M240.97 130.52 L435.31 324.87 C444.69 334.24 444.69 349.44 435.31 358.81 L412.65 381.47 C403.29 390.83 388.12 390.85 378.75 381.51 L224 227.49 L69.25 381.52 C59.88 390.85 44.71 390.83 35.35 381.48 L12.69 358.81 C3.31 349.44 3.31 334.24 12.69 324.87 L207.03 130.52 C216.4 121.15 231.6 121.15 240.97 130.52 Z"/>
    </g>
  </g>
</svg>
