<?xml version="1.0" encoding="utf-8"?>
<!-- Generator: Adobe Illustrator 25.2.1, SVG Export Plug-In . SVG Version: 6.00 Build 0)  -->
<svg version="1.1" id="Ebene_1" xmlns="http://www.w3.org/2000/svg" xmlns:xlink="http://www.w3.org/1999/xlink" x="0px" y="0px"
	 viewBox="0 0 4096 1080" style="enable-background:new 0 0 4096 1080;" xml:space="preserve">
<image style="overflow:visible;enable-background:new    ;" width="4096" height="124" id="boden" xlink:href="EEA42FB.png"  transform="matrix(1 0 0 1 0 956)">
</image>
<image style="overflow:visible;enable-background:new    ;" width="2587" height="1080" id="wand" xlink:href="EEA42F9.png"  transform="matrix(1 0 0 1 -1 0)">
</image>
<image style="overflow:visible;opacity:0.5;enable-background:new    ;" width="2587" height="1080" id="wandakzent" xlink:href="EEA42FF.png"  transform="matrix(1 0 0 1 -1 0)">
</image>
<image style="overflow:visible;enable-background:new    ;" width="267" height="233" id="blumentopf" xlink:href="EEA42F8.png"  transform="matrix(1 0 0 1 2830 789)">
</image>
<image style="overflow:visible;enable-background:new    ;" width="207" height="582" id="aufsteller" xlink:href="EEA42F6.png"  transform="matrix(1 0 0 1 2613 402)">
</image>
<image style="overflow:visible;enable-background:new    ;" width="349" height="158" id="socialmediapanel" xlink:href="EEA42F7.png"  transform="matrix(1 0 0 1 1556 0)">
</image>
<image style="overflow:visible;enable-background:new    ;" width="375" height="1017" id="rollupstand" xlink:href="EEA4307.png"  transform="matrix(1 0 0 1 1041 0)">
</image>
<image style="overflow:visible;enable-background:new    ;" width="339" height="547" id="rollupflaeche" xlink:href="EEA4309.png"  transform="matrix(1 0 0 1 1060 336)">
</image>
<image style="overflow:visible;opacity:0.5;enable-background:new    ;" width="339" height="547" id="rollupflaecheakzent" xlink:href="EEA430B.png"  transform="matrix(1 0 0 1 1060 336)">
</image>
<image style="overflow:visible;enable-background:new    ;" width="339" height="124" id="logoflaeche" xlink:href="27DBAE58.png"  transform="matrix(1 0 0 1 1060 175)">
</image>
<image style="overflow:visible;opacity:0.5;enable-background:new    ;" width="339" height="124" id="logoflaecheakzent" xlink:href="27DBAE5F.png"  transform="matrix(1 0 0 1 1060 175)">
</image>
<image style="overflow:visible;enable-background:new    ;" width="121" height="229" id="pultbasis" xlink:href="27DBAE59.png"  transform="matrix(1 0 0 1 1667 792)">
</image>
<image style="overflow:visible;opacity:0.5;enable-background:new    ;" width="121" height="229" id="pultbasisakzent" xlink:href="27DBAE5B.png"  transform="matrix(1 0 0 1 1667 792)">
</image>
<image style="overflow:visible;enable-background:new    ;" width="286" height="39" id="pultplatte" xlink:href="27DBAE46.png"  transform="matrix(1 0 0 1 1612 770)">
</image>
<image style="overflow:visible;enable-background:new    ;" width="439" height="686" id="palme" xlink:href="27DBAE47.png"  transform="matrix(1 0 0 1 2779 133)">
</image>
</svg>
