<?xml version="1.0" encoding="iso-8859-1"?>
<!-- Generator: Adobe Illustrator 18.0.0, SVG Export Plug-In . SVG Version: 6.00 Build 0)  -->
<!DOCTYPE svg PUBLIC "-//W3C//DTD SVG 1.1//EN" "http://www.w3.org/Graphics/SVG/1.1/DTD/svg11.dtd">
<svg version="1.1" id="Capa_1" xmlns="http://www.w3.org/2000/svg" xmlns:xlink="http://www.w3.org/1999/xlink" x="0px" y="0px"
	 viewBox="0 0 211.613 211.613" style="enable-background:new 0 0 211.613 211.613;" xml:space="preserve">
<g>
	<path style="fill-rule:evenodd;clip-rule:evenodd;fill:#A1400F;" d="M121.783,6.847c2.692-1.256,10.127,6.816,7.714,18.297
		c-10.373,49.362-14.317,44.48-23.584,44.48c-8.729,0-11.097,1.387-22.52-42.68c-2.511-9.688,2.688-19.021,10.762-23.506
		C102.229-1.045,113.531-2.296,121.783,6.847z"/>
	<path style="fill-rule:evenodd;clip-rule:evenodd;fill:#FBD9BD;" d="M93.206,197.535c-2.929,4.24-6.83,6.68-7.804,9.737
		c-0.551,1.73-0.142,3.917,1.615,4.134c7.562,0.936,9.76-2.779,12.452-3.533c4.655-1.307,4.774-3.982,2.891-10.338
		C100.477,191.179,95.563,193.568,93.206,197.535z"/>
	<path style="fill-rule:evenodd;clip-rule:evenodd;fill:#FBD9BD;" d="M88.791,116.955h34.599l-4.415,80.58h-9.154l-1.863-61.287
		c-0.147-4.859-3.588-4.889-3.736,0l-1.863,61.287h-9.154L88.791,116.955z"/>
	<path style="fill-rule:evenodd;clip-rule:evenodd;fill:#FBD9BD;" d="M117.957,66.771l9.278,34.159
		c1.109,4.083,9.719,0.062,9.08-3.749l-5.611-33.42C128.567,53.918,115.451,57.543,117.957,66.771z"/>
	<path style="fill-rule:evenodd;clip-rule:evenodd;fill:#2C8145;" d="M131.261,64.375c-0.725-7.963-6.914-7.238-9.856-4.09
		l2.829,14.005L131.261,64.375z"/>
	<path style="fill-rule:evenodd;clip-rule:evenodd;fill:#FBD9BD;" d="M93.657,66.771l-9.278,34.159
		c-1.109,4.083-9.72,0.062-9.08-3.749l5.611-33.42C83.047,53.918,96.163,57.543,93.657,66.771z"/>
	<path style="fill-rule:evenodd;clip-rule:evenodd;fill:#2C8145;" d="M80.352,64.375c0.725-7.963,6.914-7.238,9.855-4.09
		L87.379,74.29L80.352,64.375z"/>
	<path style="fill-rule:evenodd;clip-rule:evenodd;fill:#FBD9BD;" d="M85.511,121.705L85.511,121.705
		c0.334-0.226,0.752,0.227,0.781,0.621l0.437,5.84c0.029,0.395-0.349,0.591-0.684,0.816l0,0c-0.334,0.225-0.751-0.227-0.781-0.622
		l-0.437-5.84C84.797,122.125,85.108,121.758,85.511,121.705z"/>
	<path style="fill-rule:evenodd;clip-rule:evenodd;fill:#FBD9BD;" d="M86.307,124.201l-0.191-2.512l-8.297,1.194l0.191,2.511
		C78.814,132.957,87.249,133.383,86.307,124.201z"/>
	<path style="fill-rule:evenodd;clip-rule:evenodd;fill:#FBD9BD;" d="M86.207,122.429l-1.793-24.122
		c-1.549-6.392-8.629-5.414-8.964,0.271l2.535,25.01L86.207,122.429z"/>
	<polygon style="fill-rule:evenodd;clip-rule:evenodd;fill:#5EBE79;" points="126.686,57.955 123.39,116.955 105.808,116.955 
		88.791,116.955 85.495,57.955 	"/>
	<path style="fill-rule:evenodd;clip-rule:evenodd;fill:#2C8145;" d="M95.743,57.955h20.514c1.039,1.24,1.665,2.836,1.665,4.58
		c0,3.94-3.194,7.135-7.134,7.135c-1.842,0-3.521-0.698-4.787-1.846c-1.267,1.147-2.945,1.846-4.787,1.846
		c-3.94,0-7.134-3.194-7.134-7.135C94.079,60.791,94.705,59.195,95.743,57.955z"/>
	<polygon style="fill-rule:evenodd;clip-rule:evenodd;fill:#425156;" points="88.058,103.83 90.073,140.334 122.019,140.334 
		124.119,103.904 	"/>
	<path style="fill-rule:evenodd;clip-rule:evenodd;fill:#FBD9BD;" d="M118.995,197.535c2.929,4.24,6.83,6.68,7.804,9.737
		c0.551,1.73,0.142,3.917-1.615,4.134c-7.562,0.936-9.759-2.779-12.452-3.533c-4.654-1.307-4.774-3.982-2.891-10.338
		C111.725,191.179,116.639,193.568,118.995,197.535z"/>
	<path style="fill-rule:evenodd;clip-rule:evenodd;fill:#2C8145;" d="M87.858,203.603c-1.138,1.233-2.05,2.396-2.456,3.669
		c-1.381,4.334,2.254,4.539,5.467,4.208c4.585-0.473,6.432-3,8.6-3.607c4.182-1.174,4.703-3.453,3.4-8.512
		c-0.179,4.412-7.146,7.26-8.891,7.787C92.234,207.676,88.187,205.321,87.858,203.603z"/>
	<path style="fill-rule:evenodd;clip-rule:evenodd;fill:#2C8145;" d="M124.347,203.603c1.137,1.233,2.05,2.396,2.455,3.669
		c1.474,4.624-2.919,4.638-6.204,4.111c-4.054-0.649-5.815-2.936-7.863-3.511c-4.181-1.174-4.703-3.453-3.4-8.512
		c0.178,4.412,7.174,7.658,8.995,7.787C120.149,207.277,124.945,204.138,124.347,203.603z"/>
	<path style="fill:#2C8145;" d="M96.089,206.481c-0.022-0.136-0.073-0.29-0.146-0.455c-0.425-0.965-1.521-2.044-2.827-2.853
		c-1.256-0.775-2.92-1.271-4.035-1.122c0.577-0.595,1.177-1.219,1.773-1.888c1.062,0.229,2.399,0.697,3.377,1.301
		c1.633,1.01,3.036,2.434,3.624,3.77c0.135,0.308,0.232,0.619,0.283,0.932L96.089,206.481z"/>
	<path style="fill:#2C8145;" d="M116.21,206.481c0.022-0.136,0.072-0.29,0.145-0.455c0.425-0.965,1.521-2.044,2.827-2.853
		c1.256-0.775,2.92-1.271,4.035-1.122c-0.577-0.595-1.177-1.219-1.773-1.888c-1.062,0.229-2.399,0.697-3.377,1.301
		c-1.633,1.01-3.036,2.434-3.624,3.77c-0.135,0.308-0.232,0.619-0.284,0.932L116.21,206.481z"/>
	<path style="fill-rule:evenodd;clip-rule:evenodd;fill:#FBD9BD;" d="M126.103,121.705L126.103,121.705
		c-0.335-0.226-0.751,0.227-0.781,0.621l-0.437,5.84c-0.03,0.395,0.35,0.591,0.684,0.816l0,0c0.334,0.225,0.751-0.227,0.781-0.622
		l0.437-5.84C126.816,122.125,126.506,121.758,126.103,121.705z"/>
	<path style="fill-rule:evenodd;clip-rule:evenodd;fill:#FBD9BD;" d="M125.306,124.201l0.191-2.512l8.297,1.194l-0.191,2.511
		C132.8,132.957,124.365,133.383,125.306,124.201z"/>
	<path style="fill-rule:evenodd;clip-rule:evenodd;fill:#FBD9BD;" d="M125.405,122.429l1.794-24.122
		c1.549-6.392,8.775-5.955,9.111-0.27l-2.682,25.55L125.405,122.429z"/>
	<path style="fill-rule:evenodd;clip-rule:evenodd;fill:#FBD9BD;" d="M113.988,39.197v19.572c-4.394,5.775-11.583,5.575-15.977,0
		V39.197C98.011,28.629,113.988,28.629,113.988,39.197z"/>
	<path style="fill-rule:evenodd;clip-rule:evenodd;fill:#ECC2A0;" d="M113.988,37.789v13.103c-3.023,2.365-5.937,3.689-7.988,3.689
		c-2.052,0-4.966-1.324-7.989-3.689V37.789C98.011,27.22,113.988,27.22,113.988,37.789z"/>
	<path style="fill-rule:evenodd;clip-rule:evenodd;fill:#FBD9BD;" d="M106,51.328c-5.202,0-16.189-8.178-19.586-19.891
		C82.983,19.611,89.443,2.648,106,2.648c6.716,0,11.771,2.792,15.179,6.898c4.991,6.019,6.446,14.862,4.407,21.891
		C122.189,43.15,111.201,51.328,106,51.328z"/>
	<g>
		<path style="fill-rule:evenodd;clip-rule:evenodd;fill:#E72C4F;" d="M115.007,25.002c5.067-0.346,7.841,0.59,8.361,0.785
			c0.625,0.234,0.482,1.926-0.048,2.264c-0.529,0.336-0.963,1.685-2.215,3.371c-0.805,1.083-3.625,1.543-6.098,1.664v-0.473
			c2.021-0.094,4.139-0.455,5.06-1.089c1.869-1.288,2.047-4.026,0.674-5.3c-0.72-0.67-3.23-0.857-5.734-0.737V25.002z
			 M96.992,25.002l0.212,0.015c5.201,0.385,6.309,1.397,6.839,1.349c0.619-0.057,1.289-0.141,1.921-0.141
			c0.632,0,1.348,0.082,1.992,0.141c0.53,0.048,1.638-0.964,6.839-1.349l0.212-0.015v0.485l-0.026,0.001
			c-2.512,0.123-5.79,0.705-6.434,2.145c-0.643,1.44,0.582,4.014,2.359,4.657c0.807,0.292,2.42,0.399,4.101,0.323v0.473
			c-1.373,0.068-2.641,0.033-3.395-0.057c-2.119-0.255-3.704-2.811-3.993-3.582c-0.649-1.732-2.59-1.732-3.239,0
			c-0.289,0.771-1.874,3.327-3.993,3.582c-0.754,0.09-2.021,0.125-3.395,0.057v-0.473c1.68,0.076,3.294-0.031,4.101-0.323
			c1.777-0.644,3.003-3.217,2.359-4.657c-0.643-1.439-3.921-2.022-6.434-2.145l-0.026-0.001V25.002z M88.632,25.787
			c0.52-0.195,3.293-1.131,8.36-0.785v0.485c-2.503-0.12-5.013,0.067-5.734,0.737c-1.373,1.274-1.195,4.012,0.674,5.3
			c0.921,0.634,3.038,0.995,5.06,1.089v0.473c-2.472-0.122-5.292-0.581-6.097-1.664c-1.252-1.686-1.686-3.035-2.215-3.371
			C88.15,27.713,88.006,26.021,88.632,25.787z"/>
		<path style="fill-rule:evenodd;clip-rule:evenodd;fill:#FBD9BD;" d="M91.258,26.224c0.723-0.672,3.248-0.859,5.76-0.736
			c2.513,0.123,5.791,0.705,6.434,2.145c0.644,1.44-0.582,4.014-2.359,4.657c-1.777,0.643-7.474,0.395-9.161-0.766
			C90.063,30.237,89.886,27.498,91.258,26.224z"/>
		<path style="fill-rule:evenodd;clip-rule:evenodd;fill:#FBD9BD;" d="M120.741,26.224c-0.723-0.672-3.248-0.859-5.76-0.736
			c-2.512,0.123-5.79,0.705-6.434,2.145c-0.643,1.44,0.582,4.014,2.359,4.657c1.777,0.643,7.473,0.395,9.16-0.766
			C121.936,30.237,122.114,27.498,120.741,26.224z"/>
	</g>
	<path style="fill-rule:evenodd;clip-rule:evenodd;fill:#FF386A;" d="M99.734,39.537c2.651-2.566,4.718-0.642,6.266-0.642
		c1.548,0,3.615-1.925,6.266,0.642C110.842,46.303,101.623,46.511,99.734,39.537z"/>
	<path style="fill-rule:evenodd;clip-rule:evenodd;fill:#C8204A;" d="M99.734,39.537c2.65-2.566,4.718-0.642,6.266-0.642
		c1.547,0,3.615-1.925,6.265,0.642C108.212,41.533,102.462,40.601,99.734,39.537z"/>
	
		<ellipse transform="matrix(-0.3946 -0.9188 0.9188 -0.3946 89.0502 122.8224)" style="fill-rule:evenodd;clip-rule:evenodd;fill:#FBD9BD;" cx="84.985" cy="32.076" rx="5.701" ry="3.297"/>
	
		<ellipse transform="matrix(0.3946 -0.9189 0.9189 0.3946 47.2032 135.7957)" style="fill-rule:evenodd;clip-rule:evenodd;fill:#FBD9BD;" cx="126.654" cy="32.076" rx="5.701" ry="3.297"/>
	<path style="fill-rule:evenodd;clip-rule:evenodd;fill:#A1400F;" d="M124.912,33.365c0,0-0.492-11.783-3.735-16.244
		c-5.882,12.937-27.346-0.44-32.981,18.834c-5.175-9.006-2.987-19.856,0.582-24.988c6.888-9.904,21.642-12.1,31.718-3.092
		C127.487,14.126,129.097,24.793,124.912,33.365z"/>
	<g style="opacity:0.2;">
		<path style="fill-rule:evenodd;clip-rule:evenodd;" d="M106.025,140.334h2.037l1.738,57.201h0.021
			c-1.883,6.355-1.764,9.031,2.891,10.338c2.048,0.573,3.81,2.859,7.863,3.51l0.003,0.001h0.002l0.112,0.018
			c1.382,0.214,2.942,0.327,4.174,0.04c0.099-0.012,0.198-0.021,0.298-0.035c0.645-0.079,1.107-0.424,1.408-0.913
			c0.543-0.668,0.697-1.692,0.209-3.221c-0.405-1.273-1.317-2.436-2.455-3.669c0.01,0.009,0.019,0.019,0.026,0.029
			c-1.601-1.738-3.656-3.607-5.377-6.098l-0.018-0.03l4.413-80.55l0,0l1.398-25.031l2.265,8.338l-1.614,21.715
			c-0.065,0.108-0.108,0.232-0.117,0.35l-0.437,5.84c-0.029,0.395,0.35,0.591,0.684,0.816l0,0c0.114,0.076,0.238,0.074,0.352,0.023
			c1.89,3.811,7.062,2.229,7.682-3.61l0.191-2.511l-0.09-0.013l2.607-24.833l-0.001-0.005c0.048-0.282,0.053-0.567,0.005-0.852
			l-5.422-32.287l0.369-0.52c-0.392-4.301-2.377-6.064-4.584-6.285l0.008-0.135h-1.63c-0.537-0.067-1.081-0.066-1.617,0h-2.366
			c1.749-4.819,3.645-11.582,5.837-21.05c1.063-0.682,2.088-1.933,2.773-3.526c1.189-2.768,0.921-5.566-0.568-6.434
			c0.127-0.595,0.254-1.19,0.382-1.801c2.412-11.48-5.023-19.553-7.714-18.297c-4.652-5.154-10.272-7.006-15.737-6.837V140.334
			L106.025,140.334z M123.368,116.955h-0.023H123.368z"/>
	</g>
</g>
<g>
</g>
<g>
</g>
<g>
</g>
<g>
</g>
<g>
</g>
<g>
</g>
<g>
</g>
<g>
</g>
<g>
</g>
<g>
</g>
<g>
</g>
<g>
</g>
<g>
</g>
<g>
</g>
<g>
</g>
</svg>
